%TF.GenerationSoftware,KiCad,Pcbnew,9.0.6*%
%TF.CreationDate,2026-07-30T14:14:13-04:00*%
%TF.ProjectId,catpaw,63617470-6177-42e6-9b69-6361645f7063,rev?*%
%TF.SameCoordinates,Original*%
%TF.FileFunction,Legend,Top*%
%TF.FilePolarity,Positive*%
%FSLAX46Y46*%
G04 Gerber Fmt 4.6, Leading zero omitted, Abs format (unit mm)*
G04 Created by KiCad (PCBNEW 9.0.6) date 2026-07-30 14:14:13*
%MOMM*%
%LPD*%
G01*
G04 APERTURE LIST*
%ADD10C,0.100000*%
%ADD11C,0.200000*%
%ADD12C,0.254000*%
%ADD13C,0.300000*%
%ADD14C,0.150000*%
%ADD15C,0.158750*%
%ADD16C,0.120000*%
G04 APERTURE END LIST*
D10*
X187188000Y-43324000D02*
X111236000Y-43324000D01*
X111246000Y-113324000D02*
X187198000Y-113324000D01*
D11*
X171288419Y-108699656D02*
X171193181Y-108747275D01*
X171193181Y-108747275D02*
X171002705Y-108747275D01*
X171002705Y-108747275D02*
X170907467Y-108699656D01*
X170907467Y-108699656D02*
X170859848Y-108652036D01*
X170859848Y-108652036D02*
X170812229Y-108556798D01*
X170812229Y-108556798D02*
X170812229Y-108271084D01*
X170812229Y-108271084D02*
X170859848Y-108175846D01*
X170859848Y-108175846D02*
X170907467Y-108128227D01*
X170907467Y-108128227D02*
X171002705Y-108080608D01*
X171002705Y-108080608D02*
X171193181Y-108080608D01*
X171193181Y-108080608D02*
X171288419Y-108128227D01*
X172145562Y-108747275D02*
X172145562Y-108223465D01*
X172145562Y-108223465D02*
X172097943Y-108128227D01*
X172097943Y-108128227D02*
X172002705Y-108080608D01*
X172002705Y-108080608D02*
X171812229Y-108080608D01*
X171812229Y-108080608D02*
X171716991Y-108128227D01*
X172145562Y-108699656D02*
X172050324Y-108747275D01*
X172050324Y-108747275D02*
X171812229Y-108747275D01*
X171812229Y-108747275D02*
X171716991Y-108699656D01*
X171716991Y-108699656D02*
X171669372Y-108604417D01*
X171669372Y-108604417D02*
X171669372Y-108509179D01*
X171669372Y-108509179D02*
X171716991Y-108413941D01*
X171716991Y-108413941D02*
X171812229Y-108366322D01*
X171812229Y-108366322D02*
X172050324Y-108366322D01*
X172050324Y-108366322D02*
X172145562Y-108318703D01*
X172478896Y-108080608D02*
X172859848Y-108080608D01*
X172621753Y-107747275D02*
X172621753Y-108604417D01*
X172621753Y-108604417D02*
X172669372Y-108699656D01*
X172669372Y-108699656D02*
X172764610Y-108747275D01*
X172764610Y-108747275D02*
X172859848Y-108747275D01*
X173193182Y-108080608D02*
X173193182Y-109080608D01*
X173193182Y-108128227D02*
X173288420Y-108080608D01*
X173288420Y-108080608D02*
X173478896Y-108080608D01*
X173478896Y-108080608D02*
X173574134Y-108128227D01*
X173574134Y-108128227D02*
X173621753Y-108175846D01*
X173621753Y-108175846D02*
X173669372Y-108271084D01*
X173669372Y-108271084D02*
X173669372Y-108556798D01*
X173669372Y-108556798D02*
X173621753Y-108652036D01*
X173621753Y-108652036D02*
X173574134Y-108699656D01*
X173574134Y-108699656D02*
X173478896Y-108747275D01*
X173478896Y-108747275D02*
X173288420Y-108747275D01*
X173288420Y-108747275D02*
X173193182Y-108699656D01*
X174526515Y-108747275D02*
X174526515Y-108223465D01*
X174526515Y-108223465D02*
X174478896Y-108128227D01*
X174478896Y-108128227D02*
X174383658Y-108080608D01*
X174383658Y-108080608D02*
X174193182Y-108080608D01*
X174193182Y-108080608D02*
X174097944Y-108128227D01*
X174526515Y-108699656D02*
X174431277Y-108747275D01*
X174431277Y-108747275D02*
X174193182Y-108747275D01*
X174193182Y-108747275D02*
X174097944Y-108699656D01*
X174097944Y-108699656D02*
X174050325Y-108604417D01*
X174050325Y-108604417D02*
X174050325Y-108509179D01*
X174050325Y-108509179D02*
X174097944Y-108413941D01*
X174097944Y-108413941D02*
X174193182Y-108366322D01*
X174193182Y-108366322D02*
X174431277Y-108366322D01*
X174431277Y-108366322D02*
X174526515Y-108318703D01*
X174907468Y-108080608D02*
X175097944Y-108747275D01*
X175097944Y-108747275D02*
X175288420Y-108271084D01*
X175288420Y-108271084D02*
X175478896Y-108747275D01*
X175478896Y-108747275D02*
X175669372Y-108080608D01*
X176812230Y-108747275D02*
X176812230Y-108080608D01*
X176812230Y-108271084D02*
X176859849Y-108175846D01*
X176859849Y-108175846D02*
X176907468Y-108128227D01*
X176907468Y-108128227D02*
X177002706Y-108080608D01*
X177002706Y-108080608D02*
X177097944Y-108080608D01*
X177812230Y-108699656D02*
X177716992Y-108747275D01*
X177716992Y-108747275D02*
X177526516Y-108747275D01*
X177526516Y-108747275D02*
X177431278Y-108699656D01*
X177431278Y-108699656D02*
X177383659Y-108604417D01*
X177383659Y-108604417D02*
X177383659Y-108223465D01*
X177383659Y-108223465D02*
X177431278Y-108128227D01*
X177431278Y-108128227D02*
X177526516Y-108080608D01*
X177526516Y-108080608D02*
X177716992Y-108080608D01*
X177716992Y-108080608D02*
X177812230Y-108128227D01*
X177812230Y-108128227D02*
X177859849Y-108223465D01*
X177859849Y-108223465D02*
X177859849Y-108318703D01*
X177859849Y-108318703D02*
X177383659Y-108413941D01*
X178193183Y-108080608D02*
X178431278Y-108747275D01*
X178431278Y-108747275D02*
X178669373Y-108080608D01*
X179240802Y-107747275D02*
X179336040Y-107747275D01*
X179336040Y-107747275D02*
X179431278Y-107794894D01*
X179431278Y-107794894D02*
X179478897Y-107842513D01*
X179478897Y-107842513D02*
X179526516Y-107937751D01*
X179526516Y-107937751D02*
X179574135Y-108128227D01*
X179574135Y-108128227D02*
X179574135Y-108366322D01*
X179574135Y-108366322D02*
X179526516Y-108556798D01*
X179526516Y-108556798D02*
X179478897Y-108652036D01*
X179478897Y-108652036D02*
X179431278Y-108699656D01*
X179431278Y-108699656D02*
X179336040Y-108747275D01*
X179336040Y-108747275D02*
X179240802Y-108747275D01*
X179240802Y-108747275D02*
X179145564Y-108699656D01*
X179145564Y-108699656D02*
X179097945Y-108652036D01*
X179097945Y-108652036D02*
X179050326Y-108556798D01*
X179050326Y-108556798D02*
X179002707Y-108366322D01*
X179002707Y-108366322D02*
X179002707Y-108128227D01*
X179002707Y-108128227D02*
X179050326Y-107937751D01*
X179050326Y-107937751D02*
X179097945Y-107842513D01*
X179097945Y-107842513D02*
X179145564Y-107794894D01*
X179145564Y-107794894D02*
X179240802Y-107747275D01*
X180526516Y-108747275D02*
X179955088Y-108747275D01*
X180240802Y-108747275D02*
X180240802Y-107747275D01*
X180240802Y-107747275D02*
X180145564Y-107890132D01*
X180145564Y-107890132D02*
X180050326Y-107985370D01*
X180050326Y-107985370D02*
X179955088Y-108032989D01*
X181716993Y-108080608D02*
X181716993Y-108937751D01*
X181716993Y-108937751D02*
X181669374Y-109032989D01*
X181669374Y-109032989D02*
X181574136Y-109080608D01*
X181574136Y-109080608D02*
X181526517Y-109080608D01*
X181716993Y-107747275D02*
X181669374Y-107794894D01*
X181669374Y-107794894D02*
X181716993Y-107842513D01*
X181716993Y-107842513D02*
X181764612Y-107794894D01*
X181764612Y-107794894D02*
X181716993Y-107747275D01*
X181716993Y-107747275D02*
X181716993Y-107842513D01*
X182621754Y-108080608D02*
X182621754Y-108747275D01*
X182193183Y-108080608D02*
X182193183Y-108604417D01*
X182193183Y-108604417D02*
X182240802Y-108699656D01*
X182240802Y-108699656D02*
X182336040Y-108747275D01*
X182336040Y-108747275D02*
X182478897Y-108747275D01*
X182478897Y-108747275D02*
X182574135Y-108699656D01*
X182574135Y-108699656D02*
X182621754Y-108652036D01*
X183240802Y-108747275D02*
X183145564Y-108699656D01*
X183145564Y-108699656D02*
X183097945Y-108604417D01*
X183097945Y-108604417D02*
X183097945Y-107747275D01*
X183574136Y-107842513D02*
X183621755Y-107794894D01*
X183621755Y-107794894D02*
X183716993Y-107747275D01*
X183716993Y-107747275D02*
X183955088Y-107747275D01*
X183955088Y-107747275D02*
X184050326Y-107794894D01*
X184050326Y-107794894D02*
X184097945Y-107842513D01*
X184097945Y-107842513D02*
X184145564Y-107937751D01*
X184145564Y-107937751D02*
X184145564Y-108032989D01*
X184145564Y-108032989D02*
X184097945Y-108175846D01*
X184097945Y-108175846D02*
X183526517Y-108747275D01*
X183526517Y-108747275D02*
X184145564Y-108747275D01*
X185002707Y-107747275D02*
X184812231Y-107747275D01*
X184812231Y-107747275D02*
X184716993Y-107794894D01*
X184716993Y-107794894D02*
X184669374Y-107842513D01*
X184669374Y-107842513D02*
X184574136Y-107985370D01*
X184574136Y-107985370D02*
X184526517Y-108175846D01*
X184526517Y-108175846D02*
X184526517Y-108556798D01*
X184526517Y-108556798D02*
X184574136Y-108652036D01*
X184574136Y-108652036D02*
X184621755Y-108699656D01*
X184621755Y-108699656D02*
X184716993Y-108747275D01*
X184716993Y-108747275D02*
X184907469Y-108747275D01*
X184907469Y-108747275D02*
X185002707Y-108699656D01*
X185002707Y-108699656D02*
X185050326Y-108652036D01*
X185050326Y-108652036D02*
X185097945Y-108556798D01*
X185097945Y-108556798D02*
X185097945Y-108318703D01*
X185097945Y-108318703D02*
X185050326Y-108223465D01*
X185050326Y-108223465D02*
X185002707Y-108175846D01*
X185002707Y-108175846D02*
X184907469Y-108128227D01*
X184907469Y-108128227D02*
X184716993Y-108128227D01*
X184716993Y-108128227D02*
X184621755Y-108175846D01*
X184621755Y-108175846D02*
X184574136Y-108223465D01*
X184574136Y-108223465D02*
X184526517Y-108318703D01*
X178050325Y-109309600D02*
X177193183Y-110595314D01*
X179097944Y-109309600D02*
X178240802Y-110595314D01*
X179431278Y-110357219D02*
X179431278Y-109357219D01*
X179526516Y-109976266D02*
X179812230Y-110357219D01*
X179812230Y-109690552D02*
X179431278Y-110071504D01*
X180621754Y-110309600D02*
X180526516Y-110357219D01*
X180526516Y-110357219D02*
X180336040Y-110357219D01*
X180336040Y-110357219D02*
X180240802Y-110309600D01*
X180240802Y-110309600D02*
X180193183Y-110214361D01*
X180193183Y-110214361D02*
X180193183Y-109833409D01*
X180193183Y-109833409D02*
X180240802Y-109738171D01*
X180240802Y-109738171D02*
X180336040Y-109690552D01*
X180336040Y-109690552D02*
X180526516Y-109690552D01*
X180526516Y-109690552D02*
X180621754Y-109738171D01*
X180621754Y-109738171D02*
X180669373Y-109833409D01*
X180669373Y-109833409D02*
X180669373Y-109928647D01*
X180669373Y-109928647D02*
X180193183Y-110023885D01*
X181002707Y-109690552D02*
X181240802Y-110357219D01*
X181478897Y-109690552D02*
X181240802Y-110357219D01*
X181240802Y-110357219D02*
X181145564Y-110595314D01*
X181145564Y-110595314D02*
X181097945Y-110642933D01*
X181097945Y-110642933D02*
X181002707Y-110690552D01*
X182288421Y-109690552D02*
X182288421Y-110357219D01*
X181859850Y-109690552D02*
X181859850Y-110214361D01*
X181859850Y-110214361D02*
X181907469Y-110309600D01*
X181907469Y-110309600D02*
X182002707Y-110357219D01*
X182002707Y-110357219D02*
X182145564Y-110357219D01*
X182145564Y-110357219D02*
X182240802Y-110309600D01*
X182240802Y-110309600D02*
X182288421Y-110261980D01*
X183193183Y-110357219D02*
X183193183Y-109357219D01*
X183193183Y-110309600D02*
X183097945Y-110357219D01*
X183097945Y-110357219D02*
X182907469Y-110357219D01*
X182907469Y-110357219D02*
X182812231Y-110309600D01*
X182812231Y-110309600D02*
X182764612Y-110261980D01*
X182764612Y-110261980D02*
X182716993Y-110166742D01*
X182716993Y-110166742D02*
X182716993Y-109881028D01*
X182716993Y-109881028D02*
X182764612Y-109785790D01*
X182764612Y-109785790D02*
X182812231Y-109738171D01*
X182812231Y-109738171D02*
X182907469Y-109690552D01*
X182907469Y-109690552D02*
X183097945Y-109690552D01*
X183097945Y-109690552D02*
X183193183Y-109738171D01*
X183669374Y-110357219D02*
X183669374Y-109690552D01*
X183669374Y-109357219D02*
X183621755Y-109404838D01*
X183621755Y-109404838D02*
X183669374Y-109452457D01*
X183669374Y-109452457D02*
X183716993Y-109404838D01*
X183716993Y-109404838D02*
X183669374Y-109357219D01*
X183669374Y-109357219D02*
X183669374Y-109452457D01*
X184002707Y-109690552D02*
X184383659Y-109690552D01*
X184145564Y-109357219D02*
X184145564Y-110214361D01*
X184145564Y-110214361D02*
X184193183Y-110309600D01*
X184193183Y-110309600D02*
X184288421Y-110357219D01*
X184288421Y-110357219D02*
X184383659Y-110357219D01*
X184669374Y-110309600D02*
X184764612Y-110357219D01*
X184764612Y-110357219D02*
X184955088Y-110357219D01*
X184955088Y-110357219D02*
X185050326Y-110309600D01*
X185050326Y-110309600D02*
X185097945Y-110214361D01*
X185097945Y-110214361D02*
X185097945Y-110166742D01*
X185097945Y-110166742D02*
X185050326Y-110071504D01*
X185050326Y-110071504D02*
X184955088Y-110023885D01*
X184955088Y-110023885D02*
X184812231Y-110023885D01*
X184812231Y-110023885D02*
X184716993Y-109976266D01*
X184716993Y-109976266D02*
X184669374Y-109881028D01*
X184669374Y-109881028D02*
X184669374Y-109833409D01*
X184669374Y-109833409D02*
X184716993Y-109738171D01*
X184716993Y-109738171D02*
X184812231Y-109690552D01*
X184812231Y-109690552D02*
X184955088Y-109690552D01*
X184955088Y-109690552D02*
X185050326Y-109738171D01*
D12*
X171281368Y-104686514D02*
X170011368Y-104686514D01*
X170011368Y-104686514D02*
X170918511Y-104263180D01*
X170918511Y-104263180D02*
X170011368Y-103839847D01*
X170011368Y-103839847D02*
X171281368Y-103839847D01*
X171281368Y-102569846D02*
X171281368Y-103295561D01*
X171281368Y-102932704D02*
X170011368Y-102932704D01*
X170011368Y-102932704D02*
X170192796Y-103053656D01*
X170192796Y-103053656D02*
X170313749Y-103174608D01*
X170313749Y-103174608D02*
X170374225Y-103295561D01*
X170132320Y-102086037D02*
X170071844Y-102025561D01*
X170071844Y-102025561D02*
X170011368Y-101904608D01*
X170011368Y-101904608D02*
X170011368Y-101602227D01*
X170011368Y-101602227D02*
X170071844Y-101481275D01*
X170071844Y-101481275D02*
X170132320Y-101420799D01*
X170132320Y-101420799D02*
X170253272Y-101360322D01*
X170253272Y-101360322D02*
X170374225Y-101360322D01*
X170374225Y-101360322D02*
X170555653Y-101420799D01*
X170555653Y-101420799D02*
X171281368Y-102146513D01*
X171281368Y-102146513D02*
X171281368Y-101360322D01*
X175091368Y-69761514D02*
X173821368Y-69761514D01*
X173821368Y-69761514D02*
X174728511Y-69338180D01*
X174728511Y-69338180D02*
X173821368Y-68914847D01*
X173821368Y-68914847D02*
X175091368Y-68914847D01*
X174365653Y-68128656D02*
X174305177Y-68249608D01*
X174305177Y-68249608D02*
X174244701Y-68310085D01*
X174244701Y-68310085D02*
X174123749Y-68370561D01*
X174123749Y-68370561D02*
X174063272Y-68370561D01*
X174063272Y-68370561D02*
X173942320Y-68310085D01*
X173942320Y-68310085D02*
X173881844Y-68249608D01*
X173881844Y-68249608D02*
X173821368Y-68128656D01*
X173821368Y-68128656D02*
X173821368Y-67886751D01*
X173821368Y-67886751D02*
X173881844Y-67765799D01*
X173881844Y-67765799D02*
X173942320Y-67705323D01*
X173942320Y-67705323D02*
X174063272Y-67644846D01*
X174063272Y-67644846D02*
X174123749Y-67644846D01*
X174123749Y-67644846D02*
X174244701Y-67705323D01*
X174244701Y-67705323D02*
X174305177Y-67765799D01*
X174305177Y-67765799D02*
X174365653Y-67886751D01*
X174365653Y-67886751D02*
X174365653Y-68128656D01*
X174365653Y-68128656D02*
X174426130Y-68249608D01*
X174426130Y-68249608D02*
X174486606Y-68310085D01*
X174486606Y-68310085D02*
X174607558Y-68370561D01*
X174607558Y-68370561D02*
X174849463Y-68370561D01*
X174849463Y-68370561D02*
X174970415Y-68310085D01*
X174970415Y-68310085D02*
X175030892Y-68249608D01*
X175030892Y-68249608D02*
X175091368Y-68128656D01*
X175091368Y-68128656D02*
X175091368Y-67886751D01*
X175091368Y-67886751D02*
X175030892Y-67765799D01*
X175030892Y-67765799D02*
X174970415Y-67705323D01*
X174970415Y-67705323D02*
X174849463Y-67644846D01*
X174849463Y-67644846D02*
X174607558Y-67644846D01*
X174607558Y-67644846D02*
X174486606Y-67705323D01*
X174486606Y-67705323D02*
X174426130Y-67765799D01*
X174426130Y-67765799D02*
X174365653Y-67886751D01*
D13*
X111044510Y-67618828D02*
X111044510Y-66118828D01*
X111044510Y-66690257D02*
X111187368Y-66618828D01*
X111187368Y-66618828D02*
X111473082Y-66618828D01*
X111473082Y-66618828D02*
X111615939Y-66690257D01*
X111615939Y-66690257D02*
X111687368Y-66761685D01*
X111687368Y-66761685D02*
X111758796Y-66904542D01*
X111758796Y-66904542D02*
X111758796Y-67333114D01*
X111758796Y-67333114D02*
X111687368Y-67475971D01*
X111687368Y-67475971D02*
X111615939Y-67547400D01*
X111615939Y-67547400D02*
X111473082Y-67618828D01*
X111473082Y-67618828D02*
X111187368Y-67618828D01*
X111187368Y-67618828D02*
X111044510Y-67547400D01*
X112615939Y-67618828D02*
X112473082Y-67547400D01*
X112473082Y-67547400D02*
X112401653Y-67404542D01*
X112401653Y-67404542D02*
X112401653Y-66118828D01*
X113187367Y-67618828D02*
X113187367Y-66118828D01*
X113330225Y-67047400D02*
X113758796Y-67618828D01*
X113758796Y-66618828D02*
X113187367Y-67190257D01*
X111044510Y-84255828D02*
X111044510Y-83255828D01*
X111044510Y-83541542D02*
X111115939Y-83398685D01*
X111115939Y-83398685D02*
X111187368Y-83327257D01*
X111187368Y-83327257D02*
X111330225Y-83255828D01*
X111330225Y-83255828D02*
X111473082Y-83255828D01*
X112544510Y-84184400D02*
X112401653Y-84255828D01*
X112401653Y-84255828D02*
X112115939Y-84255828D01*
X112115939Y-84255828D02*
X111973081Y-84184400D01*
X111973081Y-84184400D02*
X111901653Y-84041542D01*
X111901653Y-84041542D02*
X111901653Y-83470114D01*
X111901653Y-83470114D02*
X111973081Y-83327257D01*
X111973081Y-83327257D02*
X112115939Y-83255828D01*
X112115939Y-83255828D02*
X112401653Y-83255828D01*
X112401653Y-83255828D02*
X112544510Y-83327257D01*
X112544510Y-83327257D02*
X112615939Y-83470114D01*
X112615939Y-83470114D02*
X112615939Y-83612971D01*
X112615939Y-83612971D02*
X111901653Y-83755828D01*
X113901653Y-84255828D02*
X113901653Y-82755828D01*
X113901653Y-84184400D02*
X113758795Y-84255828D01*
X113758795Y-84255828D02*
X113473081Y-84255828D01*
X113473081Y-84255828D02*
X113330224Y-84184400D01*
X113330224Y-84184400D02*
X113258795Y-84112971D01*
X113258795Y-84112971D02*
X113187367Y-83970114D01*
X113187367Y-83970114D02*
X113187367Y-83541542D01*
X113187367Y-83541542D02*
X113258795Y-83398685D01*
X113258795Y-83398685D02*
X113330224Y-83327257D01*
X113330224Y-83327257D02*
X113473081Y-83255828D01*
X113473081Y-83255828D02*
X113758795Y-83255828D01*
X113758795Y-83255828D02*
X113901653Y-83327257D01*
D14*
X181610095Y-79512438D02*
X181514857Y-79464819D01*
X181514857Y-79464819D02*
X181372000Y-79464819D01*
X181372000Y-79464819D02*
X181229143Y-79512438D01*
X181229143Y-79512438D02*
X181133905Y-79607676D01*
X181133905Y-79607676D02*
X181086286Y-79702914D01*
X181086286Y-79702914D02*
X181038667Y-79893390D01*
X181038667Y-79893390D02*
X181038667Y-80036247D01*
X181038667Y-80036247D02*
X181086286Y-80226723D01*
X181086286Y-80226723D02*
X181133905Y-80321961D01*
X181133905Y-80321961D02*
X181229143Y-80417200D01*
X181229143Y-80417200D02*
X181372000Y-80464819D01*
X181372000Y-80464819D02*
X181467238Y-80464819D01*
X181467238Y-80464819D02*
X181610095Y-80417200D01*
X181610095Y-80417200D02*
X181657714Y-80369580D01*
X181657714Y-80369580D02*
X181657714Y-80036247D01*
X181657714Y-80036247D02*
X181467238Y-80036247D01*
X182086286Y-80464819D02*
X182086286Y-79464819D01*
X182086286Y-79464819D02*
X182657714Y-80464819D01*
X182657714Y-80464819D02*
X182657714Y-79464819D01*
X183133905Y-80464819D02*
X183133905Y-79464819D01*
X183133905Y-79464819D02*
X183372000Y-79464819D01*
X183372000Y-79464819D02*
X183514857Y-79512438D01*
X183514857Y-79512438D02*
X183610095Y-79607676D01*
X183610095Y-79607676D02*
X183657714Y-79702914D01*
X183657714Y-79702914D02*
X183705333Y-79893390D01*
X183705333Y-79893390D02*
X183705333Y-80036247D01*
X183705333Y-80036247D02*
X183657714Y-80226723D01*
X183657714Y-80226723D02*
X183610095Y-80321961D01*
X183610095Y-80321961D02*
X183514857Y-80417200D01*
X183514857Y-80417200D02*
X183372000Y-80464819D01*
X183372000Y-80464819D02*
X183133905Y-80464819D01*
X175545905Y-79464819D02*
X175879238Y-80464819D01*
X175879238Y-80464819D02*
X176212571Y-79464819D01*
X176545905Y-79941009D02*
X176879238Y-79941009D01*
X177022095Y-80464819D02*
X176545905Y-80464819D01*
X176545905Y-80464819D02*
X176545905Y-79464819D01*
X176545905Y-79464819D02*
X177022095Y-79464819D01*
X177450667Y-79941009D02*
X177784000Y-79941009D01*
X177926857Y-80464819D02*
X177450667Y-80464819D01*
X177450667Y-80464819D02*
X177450667Y-79464819D01*
X177450667Y-79464819D02*
X177926857Y-79464819D01*
X168211667Y-79464819D02*
X168545000Y-80464819D01*
X168545000Y-80464819D02*
X168878333Y-79464819D01*
X169783095Y-80369580D02*
X169735476Y-80417200D01*
X169735476Y-80417200D02*
X169592619Y-80464819D01*
X169592619Y-80464819D02*
X169497381Y-80464819D01*
X169497381Y-80464819D02*
X169354524Y-80417200D01*
X169354524Y-80417200D02*
X169259286Y-80321961D01*
X169259286Y-80321961D02*
X169211667Y-80226723D01*
X169211667Y-80226723D02*
X169164048Y-80036247D01*
X169164048Y-80036247D02*
X169164048Y-79893390D01*
X169164048Y-79893390D02*
X169211667Y-79702914D01*
X169211667Y-79702914D02*
X169259286Y-79607676D01*
X169259286Y-79607676D02*
X169354524Y-79512438D01*
X169354524Y-79512438D02*
X169497381Y-79464819D01*
X169497381Y-79464819D02*
X169592619Y-79464819D01*
X169592619Y-79464819D02*
X169735476Y-79512438D01*
X169735476Y-79512438D02*
X169783095Y-79560057D01*
X170783095Y-80369580D02*
X170735476Y-80417200D01*
X170735476Y-80417200D02*
X170592619Y-80464819D01*
X170592619Y-80464819D02*
X170497381Y-80464819D01*
X170497381Y-80464819D02*
X170354524Y-80417200D01*
X170354524Y-80417200D02*
X170259286Y-80321961D01*
X170259286Y-80321961D02*
X170211667Y-80226723D01*
X170211667Y-80226723D02*
X170164048Y-80036247D01*
X170164048Y-80036247D02*
X170164048Y-79893390D01*
X170164048Y-79893390D02*
X170211667Y-79702914D01*
X170211667Y-79702914D02*
X170259286Y-79607676D01*
X170259286Y-79607676D02*
X170354524Y-79512438D01*
X170354524Y-79512438D02*
X170497381Y-79464819D01*
X170497381Y-79464819D02*
X170592619Y-79464819D01*
X170592619Y-79464819D02*
X170735476Y-79512438D01*
X170735476Y-79512438D02*
X170783095Y-79560057D01*
X133042819Y-107132285D02*
X132042819Y-107132285D01*
X132042819Y-107132285D02*
X132042819Y-106751333D01*
X132042819Y-106751333D02*
X132090438Y-106656095D01*
X132090438Y-106656095D02*
X132138057Y-106608476D01*
X132138057Y-106608476D02*
X132233295Y-106560857D01*
X132233295Y-106560857D02*
X132376152Y-106560857D01*
X132376152Y-106560857D02*
X132471390Y-106608476D01*
X132471390Y-106608476D02*
X132519009Y-106656095D01*
X132519009Y-106656095D02*
X132566628Y-106751333D01*
X132566628Y-106751333D02*
X132566628Y-107132285D01*
X132995200Y-106179904D02*
X133042819Y-106037047D01*
X133042819Y-106037047D02*
X133042819Y-105798952D01*
X133042819Y-105798952D02*
X132995200Y-105703714D01*
X132995200Y-105703714D02*
X132947580Y-105656095D01*
X132947580Y-105656095D02*
X132852342Y-105608476D01*
X132852342Y-105608476D02*
X132757104Y-105608476D01*
X132757104Y-105608476D02*
X132661866Y-105656095D01*
X132661866Y-105656095D02*
X132614247Y-105703714D01*
X132614247Y-105703714D02*
X132566628Y-105798952D01*
X132566628Y-105798952D02*
X132519009Y-105989428D01*
X132519009Y-105989428D02*
X132471390Y-106084666D01*
X132471390Y-106084666D02*
X132423771Y-106132285D01*
X132423771Y-106132285D02*
X132328533Y-106179904D01*
X132328533Y-106179904D02*
X132233295Y-106179904D01*
X132233295Y-106179904D02*
X132138057Y-106132285D01*
X132138057Y-106132285D02*
X132090438Y-106084666D01*
X132090438Y-106084666D02*
X132042819Y-105989428D01*
X132042819Y-105989428D02*
X132042819Y-105751333D01*
X132042819Y-105751333D02*
X132090438Y-105608476D01*
X133042819Y-104656095D02*
X133042819Y-105227523D01*
X133042819Y-104941809D02*
X132042819Y-104941809D01*
X132042819Y-104941809D02*
X132185676Y-105037047D01*
X132185676Y-105037047D02*
X132280914Y-105132285D01*
X132280914Y-105132285D02*
X132328533Y-105227523D01*
D12*
X131529667Y-110145080D02*
X131106333Y-110145080D01*
X131106333Y-110810318D02*
X131106333Y-109540318D01*
X131106333Y-109540318D02*
X131711095Y-109540318D01*
X132860143Y-110810318D02*
X132134428Y-110810318D01*
X132497285Y-110810318D02*
X132497285Y-109540318D01*
X132497285Y-109540318D02*
X132376333Y-109721746D01*
X132376333Y-109721746D02*
X132255381Y-109842699D01*
X132255381Y-109842699D02*
X132134428Y-109903175D01*
D10*
X127952667Y-92600800D02*
X128095524Y-92648419D01*
X128095524Y-92648419D02*
X128333619Y-92648419D01*
X128333619Y-92648419D02*
X128428857Y-92600800D01*
X128428857Y-92600800D02*
X128476476Y-92553180D01*
X128476476Y-92553180D02*
X128524095Y-92457942D01*
X128524095Y-92457942D02*
X128524095Y-92362704D01*
X128524095Y-92362704D02*
X128476476Y-92267466D01*
X128476476Y-92267466D02*
X128428857Y-92219847D01*
X128428857Y-92219847D02*
X128333619Y-92172228D01*
X128333619Y-92172228D02*
X128143143Y-92124609D01*
X128143143Y-92124609D02*
X128047905Y-92076990D01*
X128047905Y-92076990D02*
X128000286Y-92029371D01*
X128000286Y-92029371D02*
X127952667Y-91934133D01*
X127952667Y-91934133D02*
X127952667Y-91838895D01*
X127952667Y-91838895D02*
X128000286Y-91743657D01*
X128000286Y-91743657D02*
X128047905Y-91696038D01*
X128047905Y-91696038D02*
X128143143Y-91648419D01*
X128143143Y-91648419D02*
X128381238Y-91648419D01*
X128381238Y-91648419D02*
X128524095Y-91696038D01*
X128857429Y-91648419D02*
X129095524Y-92648419D01*
X129095524Y-92648419D02*
X129286000Y-91934133D01*
X129286000Y-91934133D02*
X129476476Y-92648419D01*
X129476476Y-92648419D02*
X129714572Y-91648419D01*
X130619333Y-92648419D02*
X130047905Y-92648419D01*
X130333619Y-92648419D02*
X130333619Y-91648419D01*
X130333619Y-91648419D02*
X130238381Y-91791276D01*
X130238381Y-91791276D02*
X130143143Y-91886514D01*
X130143143Y-91886514D02*
X130047905Y-91934133D01*
D15*
X172730667Y-83577271D02*
X172730667Y-84484414D01*
X172730667Y-84484414D02*
X172670190Y-84665842D01*
X172670190Y-84665842D02*
X172549238Y-84786795D01*
X172549238Y-84786795D02*
X172367809Y-84847271D01*
X172367809Y-84847271D02*
X172246857Y-84847271D01*
X173214476Y-83577271D02*
X174000667Y-83577271D01*
X174000667Y-83577271D02*
X173577333Y-84061080D01*
X173577333Y-84061080D02*
X173758762Y-84061080D01*
X173758762Y-84061080D02*
X173879714Y-84121556D01*
X173879714Y-84121556D02*
X173940190Y-84182033D01*
X173940190Y-84182033D02*
X174000667Y-84302985D01*
X174000667Y-84302985D02*
X174000667Y-84605366D01*
X174000667Y-84605366D02*
X173940190Y-84726318D01*
X173940190Y-84726318D02*
X173879714Y-84786795D01*
X173879714Y-84786795D02*
X173758762Y-84847271D01*
X173758762Y-84847271D02*
X173395905Y-84847271D01*
X173395905Y-84847271D02*
X173274952Y-84786795D01*
X173274952Y-84786795D02*
X173214476Y-84726318D01*
D14*
X172666819Y-53951094D02*
X171666819Y-53951094D01*
X171666819Y-53951094D02*
X171666819Y-53712999D01*
X171666819Y-53712999D02*
X171714438Y-53570142D01*
X171714438Y-53570142D02*
X171809676Y-53474904D01*
X171809676Y-53474904D02*
X171904914Y-53427285D01*
X171904914Y-53427285D02*
X172095390Y-53379666D01*
X172095390Y-53379666D02*
X172238247Y-53379666D01*
X172238247Y-53379666D02*
X172428723Y-53427285D01*
X172428723Y-53427285D02*
X172523961Y-53474904D01*
X172523961Y-53474904D02*
X172619200Y-53570142D01*
X172619200Y-53570142D02*
X172666819Y-53712999D01*
X172666819Y-53712999D02*
X172666819Y-53951094D01*
X172666819Y-52427285D02*
X172666819Y-52998713D01*
X172666819Y-52712999D02*
X171666819Y-52712999D01*
X171666819Y-52712999D02*
X171809676Y-52808237D01*
X171809676Y-52808237D02*
X171904914Y-52903475D01*
X171904914Y-52903475D02*
X171952533Y-52998713D01*
X175714819Y-54744904D02*
X174714819Y-54744904D01*
X175714819Y-54173476D02*
X175143390Y-54602047D01*
X174714819Y-54173476D02*
X175286247Y-54744904D01*
X117730819Y-49379094D02*
X116730819Y-49379094D01*
X116730819Y-49379094D02*
X116730819Y-49140999D01*
X116730819Y-49140999D02*
X116778438Y-48998142D01*
X116778438Y-48998142D02*
X116873676Y-48902904D01*
X116873676Y-48902904D02*
X116968914Y-48855285D01*
X116968914Y-48855285D02*
X117159390Y-48807666D01*
X117159390Y-48807666D02*
X117302247Y-48807666D01*
X117302247Y-48807666D02*
X117492723Y-48855285D01*
X117492723Y-48855285D02*
X117587961Y-48902904D01*
X117587961Y-48902904D02*
X117683200Y-48998142D01*
X117683200Y-48998142D02*
X117730819Y-49140999D01*
X117730819Y-49140999D02*
X117730819Y-49379094D01*
X116730819Y-47902904D02*
X116730819Y-48379094D01*
X116730819Y-48379094D02*
X117207009Y-48426713D01*
X117207009Y-48426713D02*
X117159390Y-48379094D01*
X117159390Y-48379094D02*
X117111771Y-48283856D01*
X117111771Y-48283856D02*
X117111771Y-48045761D01*
X117111771Y-48045761D02*
X117159390Y-47950523D01*
X117159390Y-47950523D02*
X117207009Y-47902904D01*
X117207009Y-47902904D02*
X117302247Y-47855285D01*
X117302247Y-47855285D02*
X117540342Y-47855285D01*
X117540342Y-47855285D02*
X117635580Y-47902904D01*
X117635580Y-47902904D02*
X117683200Y-47950523D01*
X117683200Y-47950523D02*
X117730819Y-48045761D01*
X117730819Y-48045761D02*
X117730819Y-48283856D01*
X117730819Y-48283856D02*
X117683200Y-48379094D01*
X117683200Y-48379094D02*
X117635580Y-48426713D01*
X127251666Y-68293819D02*
X127251666Y-69008104D01*
X127251666Y-69008104D02*
X127204047Y-69150961D01*
X127204047Y-69150961D02*
X127108809Y-69246200D01*
X127108809Y-69246200D02*
X126965952Y-69293819D01*
X126965952Y-69293819D02*
X126870714Y-69293819D01*
X127680238Y-68389057D02*
X127727857Y-68341438D01*
X127727857Y-68341438D02*
X127823095Y-68293819D01*
X127823095Y-68293819D02*
X128061190Y-68293819D01*
X128061190Y-68293819D02*
X128156428Y-68341438D01*
X128156428Y-68341438D02*
X128204047Y-68389057D01*
X128204047Y-68389057D02*
X128251666Y-68484295D01*
X128251666Y-68484295D02*
X128251666Y-68579533D01*
X128251666Y-68579533D02*
X128204047Y-68722390D01*
X128204047Y-68722390D02*
X127632619Y-69293819D01*
X127632619Y-69293819D02*
X128251666Y-69293819D01*
X168856819Y-53951094D02*
X167856819Y-53951094D01*
X167856819Y-53951094D02*
X167856819Y-53712999D01*
X167856819Y-53712999D02*
X167904438Y-53570142D01*
X167904438Y-53570142D02*
X167999676Y-53474904D01*
X167999676Y-53474904D02*
X168094914Y-53427285D01*
X168094914Y-53427285D02*
X168285390Y-53379666D01*
X168285390Y-53379666D02*
X168428247Y-53379666D01*
X168428247Y-53379666D02*
X168618723Y-53427285D01*
X168618723Y-53427285D02*
X168713961Y-53474904D01*
X168713961Y-53474904D02*
X168809200Y-53570142D01*
X168809200Y-53570142D02*
X168856819Y-53712999D01*
X168856819Y-53712999D02*
X168856819Y-53951094D01*
X167952057Y-52998713D02*
X167904438Y-52951094D01*
X167904438Y-52951094D02*
X167856819Y-52855856D01*
X167856819Y-52855856D02*
X167856819Y-52617761D01*
X167856819Y-52617761D02*
X167904438Y-52522523D01*
X167904438Y-52522523D02*
X167952057Y-52474904D01*
X167952057Y-52474904D02*
X168047295Y-52427285D01*
X168047295Y-52427285D02*
X168142533Y-52427285D01*
X168142533Y-52427285D02*
X168285390Y-52474904D01*
X168285390Y-52474904D02*
X168856819Y-53046332D01*
X168856819Y-53046332D02*
X168856819Y-52427285D01*
X166824819Y-54744904D02*
X165824819Y-54744904D01*
X166824819Y-54173476D02*
X166253390Y-54602047D01*
X165824819Y-54173476D02*
X166396247Y-54744904D01*
D15*
X176382667Y-49965271D02*
X176382667Y-50872414D01*
X176382667Y-50872414D02*
X176322190Y-51053842D01*
X176322190Y-51053842D02*
X176201238Y-51174795D01*
X176201238Y-51174795D02*
X176019809Y-51235271D01*
X176019809Y-51235271D02*
X175898857Y-51235271D01*
X177531714Y-50388604D02*
X177531714Y-51235271D01*
X177229333Y-49904795D02*
X176926952Y-50811937D01*
X176926952Y-50811937D02*
X177713143Y-50811937D01*
D14*
X127251666Y-85293819D02*
X127251666Y-86008104D01*
X127251666Y-86008104D02*
X127204047Y-86150961D01*
X127204047Y-86150961D02*
X127108809Y-86246200D01*
X127108809Y-86246200D02*
X126965952Y-86293819D01*
X126965952Y-86293819D02*
X126870714Y-86293819D01*
X128251666Y-86293819D02*
X127680238Y-86293819D01*
X127965952Y-86293819D02*
X127965952Y-85293819D01*
X127965952Y-85293819D02*
X127870714Y-85436676D01*
X127870714Y-85436676D02*
X127775476Y-85531914D01*
X127775476Y-85531914D02*
X127680238Y-85579533D01*
D16*
%TO.C,GND*%
X180992000Y-75455000D02*
X182372000Y-75455000D01*
X180992000Y-76835000D02*
X180992000Y-75455000D01*
X180992000Y-78105000D02*
X180992000Y-78215000D01*
X180992000Y-78105000D02*
X183752000Y-78105000D01*
X180992000Y-78215000D02*
X183752000Y-78215000D01*
X183752000Y-78105000D02*
X183752000Y-78215000D01*
%TO.C,R19*%
X175260000Y-76485000D02*
X175260000Y-77105000D01*
X176180000Y-75565000D02*
G75*
G02*
X174340000Y-75565000I-920000J0D01*
G01*
X174340000Y-75565000D02*
G75*
G02*
X176180000Y-75565000I920000J0D01*
G01*
%TO.C,R18*%
X171989000Y-75565000D02*
G75*
G02*
X170149000Y-75565000I-920000J0D01*
G01*
X170149000Y-75565000D02*
G75*
G02*
X171989000Y-75565000I920000J0D01*
G01*
X171069000Y-76485000D02*
X171069000Y-77105000D01*
%TO.C,VEE*%
X178916000Y-76353936D02*
X178916000Y-76808064D01*
X177446000Y-76353936D02*
X177446000Y-76808064D01*
%TO.C,VCC*%
X168883000Y-76353936D02*
X168883000Y-76808064D01*
X167413000Y-76353936D02*
X167413000Y-76808064D01*
%TO.C,PS1*%
X161536500Y-106491500D02*
X161536500Y-53751500D01*
X136516500Y-106871500D02*
X133516500Y-106871500D01*
X133896500Y-106491500D02*
X161536500Y-106491500D01*
X133896500Y-106491500D02*
X133896500Y-53751500D01*
X133896500Y-53751500D02*
X161536500Y-53751500D01*
X133516500Y-106871500D02*
X133516500Y-103871500D01*
D11*
%TO.C,F1*%
X139319000Y-108776000D02*
X139319000Y-111696000D01*
%TO.C,SW1*%
D10*
X123222000Y-93609000D02*
X110222000Y-93609000D01*
X110222000Y-107609000D01*
X123222000Y-107609000D01*
X123222000Y-93609000D01*
D11*
%TO.C,J3*%
X172944000Y-93456000D02*
X172944000Y-93456000D01*
X172944000Y-93656000D02*
X172944000Y-93656000D01*
X172944000Y-93456000D02*
G75*
G02*
X172944000Y-93656000I0J-100000D01*
G01*
X172944000Y-93656000D02*
G75*
G02*
X172944000Y-93456000I0J100000D01*
G01*
D16*
%TO.C,D1*%
X171250000Y-54405000D02*
X174190000Y-54405000D01*
X171250000Y-54525000D02*
X174190000Y-54525000D01*
X171250000Y-54645000D02*
X174190000Y-54645000D01*
X172720000Y-48965000D02*
X172720000Y-49985000D01*
X172720000Y-56445000D02*
X172720000Y-55425000D01*
X171250000Y-55425000D02*
X174190000Y-55425000D01*
X174190000Y-49985000D01*
X171250000Y-49985000D01*
X171250000Y-55425000D01*
%TO.C,D5*%
X107946000Y-51201000D02*
G75*
G02*
X107946000Y-46081000I0J2560000D01*
G01*
X114236000Y-49911000D02*
X114106000Y-49911000D01*
X114236000Y-47371000D02*
X114106000Y-47371000D01*
X114106000Y-51601000D02*
X112986000Y-51601000D01*
X114106000Y-51201000D02*
X114106000Y-51601000D01*
X114106000Y-51201000D02*
X107946000Y-51201000D01*
X114106000Y-49911000D02*
X114236000Y-49911000D01*
X114106000Y-47371000D02*
X114236000Y-47371000D01*
X114106000Y-46081000D02*
X114106000Y-51201000D01*
X114106000Y-46081000D02*
X107946000Y-46081000D01*
X112986000Y-51601000D02*
X112986000Y-51201000D01*
X112986000Y-51201000D02*
X114106000Y-51201000D01*
%TO.C,J2*%
X110325000Y-67859000D02*
X110325000Y-54859000D01*
X110325000Y-67859000D02*
X129525000Y-67859000D01*
X129525000Y-54859000D02*
X110325000Y-54859000D01*
X129525000Y-67859000D02*
X129525000Y-54859000D01*
%TO.C,D2*%
X167552000Y-54405000D02*
X170492000Y-54405000D01*
X167552000Y-54525000D02*
X170492000Y-54525000D01*
X167552000Y-54645000D02*
X170492000Y-54645000D01*
X169022000Y-48965000D02*
X169022000Y-49985000D01*
X169022000Y-56445000D02*
X169022000Y-55425000D01*
X167552000Y-55425000D02*
X170492000Y-55425000D01*
X170492000Y-49985000D01*
X167552000Y-49985000D01*
X167552000Y-55425000D01*
D10*
%TO.C,J4*%
X176402000Y-59624000D02*
G75*
G02*
X176302000Y-59624000I-50000J0D01*
G01*
X176302000Y-59624000D02*
G75*
G02*
X176402000Y-59624000I50000J0D01*
G01*
D11*
X199412000Y-66324000D02*
X199412000Y-56324000D01*
X199412000Y-56324000D02*
X198072000Y-56949000D01*
X198072000Y-65699000D02*
X199412000Y-66324000D01*
X198072000Y-56949000D02*
X196802000Y-56324000D01*
X196802000Y-66324000D02*
X198072000Y-65699000D01*
X196802000Y-56324000D02*
X195532000Y-56949000D01*
X195532000Y-65699000D02*
X196802000Y-66324000D01*
X195532000Y-56949000D02*
X194262000Y-56324000D01*
X194262000Y-66324000D02*
X195532000Y-65699000D01*
X194262000Y-56324000D02*
X192992000Y-56949000D01*
X192992000Y-65699000D02*
X194262000Y-66324000D01*
X192992000Y-56949000D02*
X191722000Y-56324000D01*
X191722000Y-56324000D02*
X190912000Y-56324000D01*
X191547000Y-66324000D02*
X192992000Y-65699000D01*
X190912000Y-66824000D02*
X190912000Y-55824000D01*
X190912000Y-66324000D02*
X191547000Y-66324000D01*
X190912000Y-55824000D02*
X189182000Y-55824000D01*
X189182000Y-66824000D02*
X190912000Y-66824000D01*
X189182000Y-66404000D02*
X189182000Y-66824000D01*
X189182000Y-66404000D02*
X189182000Y-56244000D01*
X189182000Y-56244000D02*
X187912000Y-56244000D01*
X189182000Y-55824000D02*
X189182000Y-56324000D01*
X187912000Y-67324000D02*
X185372000Y-67324000D01*
X187912000Y-66404000D02*
X189182000Y-66404000D01*
X187912000Y-61324000D02*
X187912000Y-67324000D01*
X187912000Y-55324000D02*
X187912000Y-61324000D01*
X185372000Y-67324000D02*
X185372000Y-55324000D01*
X185372000Y-67324000D02*
X182832000Y-67324000D01*
X185372000Y-66324000D02*
X182832000Y-66324000D01*
X185372000Y-56244000D02*
X182832000Y-56244000D01*
X185372000Y-55324000D02*
X187912000Y-55324000D01*
X185372000Y-55324000D02*
X182832000Y-55324000D01*
D10*
X176402000Y-59624000D02*
X176402000Y-59624000D01*
X176302000Y-59624000D02*
X176302000Y-59624000D01*
D16*
%TO.C,J1*%
X129525000Y-84859000D02*
X129525000Y-71859000D01*
X129525000Y-71859000D02*
X110325000Y-71859000D01*
X110325000Y-84859000D02*
X129525000Y-84859000D01*
X110325000Y-84859000D02*
X110325000Y-71859000D01*
%TD*%
M02*
