%TF.GenerationSoftware,KiCad,Pcbnew,9.0.6*%
%TF.CreationDate,2026-07-30T14:14:13-04:00*%
%TF.ProjectId,catpaw,63617470-6177-42e6-9b69-6361645f7063,rev?*%
%TF.SameCoordinates,Original*%
%TF.FileFunction,Soldermask,Top*%
%TF.FilePolarity,Negative*%
%FSLAX46Y46*%
G04 Gerber Fmt 4.6, Leading zero omitted, Abs format (unit mm)*
G04 Created by KiCad (PCBNEW 9.0.6) date 2026-07-30 14:14:13*
%MOMM*%
%LPD*%
G01*
G04 APERTURE LIST*
G04 Aperture macros list*
%AMRoundRect*
0 Rectangle with rounded corners*
0 $1 Rounding radius*
0 $2 $3 $4 $5 $6 $7 $8 $9 X,Y pos of 4 corners*
0 Add a 4 corners polygon primitive as box body*
4,1,4,$2,$3,$4,$5,$6,$7,$8,$9,$2,$3,0*
0 Add four circle primitives for the rounded corners*
1,1,$1+$1,$2,$3*
1,1,$1+$1,$4,$5*
1,1,$1+$1,$6,$7*
1,1,$1+$1,$8,$9*
0 Add four rect primitives between the rounded corners*
20,1,$1+$1,$2,$3,$4,$5,0*
20,1,$1+$1,$4,$5,$6,$7,0*
20,1,$1+$1,$6,$7,$8,$9,0*
20,1,$1+$1,$8,$9,$2,$3,0*%
G04 Aperture macros list end*
%ADD10R,1.700000X1.700000*%
%ADD11C,1.400000*%
%ADD12RoundRect,0.250000X-0.450000X0.350000X-0.450000X-0.350000X0.450000X-0.350000X0.450000X0.350000X0*%
%ADD13C,2.400000*%
%ADD14R,2.400000X2.400000*%
%ADD15R,2.160000X3.230000*%
%ADD16C,2.540000*%
%ADD17C,3.000000*%
%ADD18C,2.050000*%
%ADD19C,2.800000*%
%ADD20C,1.950000*%
%ADD21RoundRect,0.249999X0.850001X-0.850001X0.850001X0.850001X-0.850001X0.850001X-0.850001X-0.850001X0*%
%ADD22C,2.200000*%
%ADD23C,1.800000*%
%ADD24R,1.800000X1.800000*%
%ADD25C,3.200000*%
%ADD26C,2.300000*%
%ADD27C,4.500000*%
%ADD28C,1.700000*%
G04 APERTURE END LIST*
D10*
%TO.C,GND*%
X182372000Y-76835000D03*
%TD*%
D11*
%TO.C,R19*%
X175260000Y-75565000D03*
X175260000Y-78105000D03*
%TD*%
%TO.C,R18*%
X171069000Y-78105000D03*
X171069000Y-75565000D03*
%TD*%
D12*
%TO.C,VEE*%
X178181000Y-75581000D03*
X178181000Y-77581000D03*
%TD*%
%TO.C,VCC*%
X168148000Y-75581000D03*
X168148000Y-77581000D03*
%TD*%
D13*
%TO.C,PS1*%
X137406500Y-57151500D03*
X147566500Y-57151500D03*
X157726500Y-102871500D03*
D14*
X137406500Y-102871500D03*
%TD*%
D15*
%TO.C,F1*%
X143694000Y-110236000D03*
X134944000Y-110236000D03*
%TD*%
D16*
%TO.C,SW1*%
X129032000Y-95619000D03*
X129032000Y-100319000D03*
X129032000Y-105019000D03*
X125222000Y-95619000D03*
X125222000Y-100319000D03*
X125222000Y-105019000D03*
D17*
X112522000Y-102859000D03*
X112522000Y-97779000D03*
%TD*%
D18*
%TO.C,J3*%
X176212000Y-102824000D03*
D19*
X180212000Y-102824000D03*
D18*
X176212000Y-87824000D03*
D19*
X180212000Y-87824000D03*
D20*
X174444000Y-93556000D03*
X174444000Y-97092000D03*
X177980000Y-97092000D03*
X177980000Y-93556000D03*
X176212000Y-95324000D03*
%TD*%
D21*
%TO.C,D1*%
X172720000Y-57785000D03*
D22*
X172720000Y-47625000D03*
%TD*%
D23*
%TO.C,D5*%
X115316000Y-49911000D03*
D24*
X115316000Y-47371000D03*
%TD*%
D25*
%TO.C,J2*%
X123825000Y-61359000D03*
D26*
X127625000Y-66439000D03*
X127625000Y-56279000D03*
X117465000Y-66439000D03*
X117465000Y-56279000D03*
%TD*%
D21*
%TO.C,D2*%
X169022000Y-57785000D03*
D22*
X169022000Y-47625000D03*
%TD*%
D27*
%TO.C,J4*%
X179712000Y-67574000D03*
X179712000Y-55074000D03*
D28*
X178262000Y-62399000D03*
X180212000Y-63024000D03*
X178262000Y-60249000D03*
X180212000Y-59624000D03*
%TD*%
D26*
%TO.C,J1*%
X117465000Y-73279000D03*
X117465000Y-83439000D03*
X127625000Y-73279000D03*
X127625000Y-83439000D03*
D25*
X123825000Y-78359000D03*
%TD*%
M02*
