%TF.GenerationSoftware,KiCad,Pcbnew,9.0.6*%
%TF.CreationDate,2026-07-30T14:14:13-04:00*%
%TF.ProjectId,catpaw,63617470-6177-42e6-9b69-6361645f7063,rev?*%
%TF.SameCoordinates,Original*%
%TF.FileFunction,Legend,Bot*%
%TF.FilePolarity,Positive*%
%FSLAX46Y46*%
G04 Gerber Fmt 4.6, Leading zero omitted, Abs format (unit mm)*
G04 Created by KiCad (PCBNEW 9.0.6) date 2026-07-30 14:14:13*
%MOMM*%
%LPD*%
G01*
G04 APERTURE LIST*
%ADD10C,0.100000*%
%ADD11C,0.150000*%
%ADD12C,0.120000*%
G04 APERTURE END LIST*
D10*
X180131401Y-109616419D02*
X180131401Y-110330704D01*
X180131401Y-110330704D02*
X180179020Y-110473561D01*
X180179020Y-110473561D02*
X180274258Y-110568800D01*
X180274258Y-110568800D02*
X180417115Y-110616419D01*
X180417115Y-110616419D02*
X180512353Y-110616419D01*
X179179020Y-110616419D02*
X179655210Y-110616419D01*
X179655210Y-110616419D02*
X179655210Y-109616419D01*
X178274258Y-110521180D02*
X178321877Y-110568800D01*
X178321877Y-110568800D02*
X178464734Y-110616419D01*
X178464734Y-110616419D02*
X178559972Y-110616419D01*
X178559972Y-110616419D02*
X178702829Y-110568800D01*
X178702829Y-110568800D02*
X178798067Y-110473561D01*
X178798067Y-110473561D02*
X178845686Y-110378323D01*
X178845686Y-110378323D02*
X178893305Y-110187847D01*
X178893305Y-110187847D02*
X178893305Y-110044990D01*
X178893305Y-110044990D02*
X178845686Y-109854514D01*
X178845686Y-109854514D02*
X178798067Y-109759276D01*
X178798067Y-109759276D02*
X178702829Y-109664038D01*
X178702829Y-109664038D02*
X178559972Y-109616419D01*
X178559972Y-109616419D02*
X178464734Y-109616419D01*
X178464734Y-109616419D02*
X178321877Y-109664038D01*
X178321877Y-109664038D02*
X178274258Y-109711657D01*
X177559972Y-109616419D02*
X177559972Y-110330704D01*
X177559972Y-110330704D02*
X177607591Y-110473561D01*
X177607591Y-110473561D02*
X177702829Y-110568800D01*
X177702829Y-110568800D02*
X177845686Y-110616419D01*
X177845686Y-110616419D02*
X177940924Y-110616419D01*
X176607591Y-110616419D02*
X177083781Y-110616419D01*
X177083781Y-110616419D02*
X177083781Y-109616419D01*
X175702829Y-110521180D02*
X175750448Y-110568800D01*
X175750448Y-110568800D02*
X175893305Y-110616419D01*
X175893305Y-110616419D02*
X175988543Y-110616419D01*
X175988543Y-110616419D02*
X176131400Y-110568800D01*
X176131400Y-110568800D02*
X176226638Y-110473561D01*
X176226638Y-110473561D02*
X176274257Y-110378323D01*
X176274257Y-110378323D02*
X176321876Y-110187847D01*
X176321876Y-110187847D02*
X176321876Y-110044990D01*
X176321876Y-110044990D02*
X176274257Y-109854514D01*
X176274257Y-109854514D02*
X176226638Y-109759276D01*
X176226638Y-109759276D02*
X176131400Y-109664038D01*
X176131400Y-109664038D02*
X175988543Y-109616419D01*
X175988543Y-109616419D02*
X175893305Y-109616419D01*
X175893305Y-109616419D02*
X175750448Y-109664038D01*
X175750448Y-109664038D02*
X175702829Y-109711657D01*
X174988543Y-109616419D02*
X174988543Y-110330704D01*
X174988543Y-110330704D02*
X175036162Y-110473561D01*
X175036162Y-110473561D02*
X175131400Y-110568800D01*
X175131400Y-110568800D02*
X175274257Y-110616419D01*
X175274257Y-110616419D02*
X175369495Y-110616419D01*
X174036162Y-110616419D02*
X174512352Y-110616419D01*
X174512352Y-110616419D02*
X174512352Y-109616419D01*
X173131400Y-110521180D02*
X173179019Y-110568800D01*
X173179019Y-110568800D02*
X173321876Y-110616419D01*
X173321876Y-110616419D02*
X173417114Y-110616419D01*
X173417114Y-110616419D02*
X173559971Y-110568800D01*
X173559971Y-110568800D02*
X173655209Y-110473561D01*
X173655209Y-110473561D02*
X173702828Y-110378323D01*
X173702828Y-110378323D02*
X173750447Y-110187847D01*
X173750447Y-110187847D02*
X173750447Y-110044990D01*
X173750447Y-110044990D02*
X173702828Y-109854514D01*
X173702828Y-109854514D02*
X173655209Y-109759276D01*
X173655209Y-109759276D02*
X173559971Y-109664038D01*
X173559971Y-109664038D02*
X173417114Y-109616419D01*
X173417114Y-109616419D02*
X173321876Y-109616419D01*
X173321876Y-109616419D02*
X173179019Y-109664038D01*
X173179019Y-109664038D02*
X173131400Y-109711657D01*
X172417114Y-109616419D02*
X172417114Y-110330704D01*
X172417114Y-110330704D02*
X172464733Y-110473561D01*
X172464733Y-110473561D02*
X172559971Y-110568800D01*
X172559971Y-110568800D02*
X172702828Y-110616419D01*
X172702828Y-110616419D02*
X172798066Y-110616419D01*
X171464733Y-110616419D02*
X171940923Y-110616419D01*
X171940923Y-110616419D02*
X171940923Y-109616419D01*
X170559971Y-110521180D02*
X170607590Y-110568800D01*
X170607590Y-110568800D02*
X170750447Y-110616419D01*
X170750447Y-110616419D02*
X170845685Y-110616419D01*
X170845685Y-110616419D02*
X170988542Y-110568800D01*
X170988542Y-110568800D02*
X171083780Y-110473561D01*
X171083780Y-110473561D02*
X171131399Y-110378323D01*
X171131399Y-110378323D02*
X171179018Y-110187847D01*
X171179018Y-110187847D02*
X171179018Y-110044990D01*
X171179018Y-110044990D02*
X171131399Y-109854514D01*
X171131399Y-109854514D02*
X171083780Y-109759276D01*
X171083780Y-109759276D02*
X170988542Y-109664038D01*
X170988542Y-109664038D02*
X170845685Y-109616419D01*
X170845685Y-109616419D02*
X170750447Y-109616419D01*
X170750447Y-109616419D02*
X170607590Y-109664038D01*
X170607590Y-109664038D02*
X170559971Y-109711657D01*
X169845685Y-109616419D02*
X169845685Y-110330704D01*
X169845685Y-110330704D02*
X169893304Y-110473561D01*
X169893304Y-110473561D02*
X169988542Y-110568800D01*
X169988542Y-110568800D02*
X170131399Y-110616419D01*
X170131399Y-110616419D02*
X170226637Y-110616419D01*
X168893304Y-110616419D02*
X169369494Y-110616419D01*
X169369494Y-110616419D02*
X169369494Y-109616419D01*
X167988542Y-110521180D02*
X168036161Y-110568800D01*
X168036161Y-110568800D02*
X168179018Y-110616419D01*
X168179018Y-110616419D02*
X168274256Y-110616419D01*
X168274256Y-110616419D02*
X168417113Y-110568800D01*
X168417113Y-110568800D02*
X168512351Y-110473561D01*
X168512351Y-110473561D02*
X168559970Y-110378323D01*
X168559970Y-110378323D02*
X168607589Y-110187847D01*
X168607589Y-110187847D02*
X168607589Y-110044990D01*
X168607589Y-110044990D02*
X168559970Y-109854514D01*
X168559970Y-109854514D02*
X168512351Y-109759276D01*
X168512351Y-109759276D02*
X168417113Y-109664038D01*
X168417113Y-109664038D02*
X168274256Y-109616419D01*
X168274256Y-109616419D02*
X168179018Y-109616419D01*
X168179018Y-109616419D02*
X168036161Y-109664038D01*
X168036161Y-109664038D02*
X167988542Y-109711657D01*
D11*
X151204819Y-91527333D02*
X150728628Y-91194000D01*
X151204819Y-90955905D02*
X150204819Y-90955905D01*
X150204819Y-90955905D02*
X150204819Y-91336857D01*
X150204819Y-91336857D02*
X150252438Y-91432095D01*
X150252438Y-91432095D02*
X150300057Y-91479714D01*
X150300057Y-91479714D02*
X150395295Y-91527333D01*
X150395295Y-91527333D02*
X150538152Y-91527333D01*
X150538152Y-91527333D02*
X150633390Y-91479714D01*
X150633390Y-91479714D02*
X150681009Y-91432095D01*
X150681009Y-91432095D02*
X150728628Y-91336857D01*
X150728628Y-91336857D02*
X150728628Y-90955905D01*
X150204819Y-91860667D02*
X150204819Y-92527333D01*
X150204819Y-92527333D02*
X151204819Y-92098762D01*
X148028819Y-63603142D02*
X147552628Y-63269809D01*
X148028819Y-63031714D02*
X147028819Y-63031714D01*
X147028819Y-63031714D02*
X147028819Y-63412666D01*
X147028819Y-63412666D02*
X147076438Y-63507904D01*
X147076438Y-63507904D02*
X147124057Y-63555523D01*
X147124057Y-63555523D02*
X147219295Y-63603142D01*
X147219295Y-63603142D02*
X147362152Y-63603142D01*
X147362152Y-63603142D02*
X147457390Y-63555523D01*
X147457390Y-63555523D02*
X147505009Y-63507904D01*
X147505009Y-63507904D02*
X147552628Y-63412666D01*
X147552628Y-63412666D02*
X147552628Y-63031714D01*
X148028819Y-64555523D02*
X148028819Y-63984095D01*
X148028819Y-64269809D02*
X147028819Y-64269809D01*
X147028819Y-64269809D02*
X147171676Y-64174571D01*
X147171676Y-64174571D02*
X147266914Y-64079333D01*
X147266914Y-64079333D02*
X147314533Y-63984095D01*
X147028819Y-64888857D02*
X147028819Y-65507904D01*
X147028819Y-65507904D02*
X147409771Y-65174571D01*
X147409771Y-65174571D02*
X147409771Y-65317428D01*
X147409771Y-65317428D02*
X147457390Y-65412666D01*
X147457390Y-65412666D02*
X147505009Y-65460285D01*
X147505009Y-65460285D02*
X147600247Y-65507904D01*
X147600247Y-65507904D02*
X147838342Y-65507904D01*
X147838342Y-65507904D02*
X147933580Y-65460285D01*
X147933580Y-65460285D02*
X147981200Y-65412666D01*
X147981200Y-65412666D02*
X148028819Y-65317428D01*
X148028819Y-65317428D02*
X148028819Y-65031714D01*
X148028819Y-65031714D02*
X147981200Y-64936476D01*
X147981200Y-64936476D02*
X147933580Y-64888857D01*
X126118857Y-47825819D02*
X126452190Y-47349628D01*
X126690285Y-47825819D02*
X126690285Y-46825819D01*
X126690285Y-46825819D02*
X126309333Y-46825819D01*
X126309333Y-46825819D02*
X126214095Y-46873438D01*
X126214095Y-46873438D02*
X126166476Y-46921057D01*
X126166476Y-46921057D02*
X126118857Y-47016295D01*
X126118857Y-47016295D02*
X126118857Y-47159152D01*
X126118857Y-47159152D02*
X126166476Y-47254390D01*
X126166476Y-47254390D02*
X126214095Y-47302009D01*
X126214095Y-47302009D02*
X126309333Y-47349628D01*
X126309333Y-47349628D02*
X126690285Y-47349628D01*
X125166476Y-47825819D02*
X125737904Y-47825819D01*
X125452190Y-47825819D02*
X125452190Y-46825819D01*
X125452190Y-46825819D02*
X125547428Y-46968676D01*
X125547428Y-46968676D02*
X125642666Y-47063914D01*
X125642666Y-47063914D02*
X125737904Y-47111533D01*
X124309333Y-47159152D02*
X124309333Y-47825819D01*
X124547428Y-46778200D02*
X124785523Y-47492485D01*
X124785523Y-47492485D02*
X124166476Y-47492485D01*
X156376666Y-95450819D02*
X156709999Y-94974628D01*
X156948094Y-95450819D02*
X156948094Y-94450819D01*
X156948094Y-94450819D02*
X156567142Y-94450819D01*
X156567142Y-94450819D02*
X156471904Y-94498438D01*
X156471904Y-94498438D02*
X156424285Y-94546057D01*
X156424285Y-94546057D02*
X156376666Y-94641295D01*
X156376666Y-94641295D02*
X156376666Y-94784152D01*
X156376666Y-94784152D02*
X156424285Y-94879390D01*
X156424285Y-94879390D02*
X156471904Y-94927009D01*
X156471904Y-94927009D02*
X156567142Y-94974628D01*
X156567142Y-94974628D02*
X156948094Y-94974628D01*
X155900475Y-95450819D02*
X155709999Y-95450819D01*
X155709999Y-95450819D02*
X155614761Y-95403200D01*
X155614761Y-95403200D02*
X155567142Y-95355580D01*
X155567142Y-95355580D02*
X155471904Y-95212723D01*
X155471904Y-95212723D02*
X155424285Y-95022247D01*
X155424285Y-95022247D02*
X155424285Y-94641295D01*
X155424285Y-94641295D02*
X155471904Y-94546057D01*
X155471904Y-94546057D02*
X155519523Y-94498438D01*
X155519523Y-94498438D02*
X155614761Y-94450819D01*
X155614761Y-94450819D02*
X155805237Y-94450819D01*
X155805237Y-94450819D02*
X155900475Y-94498438D01*
X155900475Y-94498438D02*
X155948094Y-94546057D01*
X155948094Y-94546057D02*
X155995713Y-94641295D01*
X155995713Y-94641295D02*
X155995713Y-94879390D01*
X155995713Y-94879390D02*
X155948094Y-94974628D01*
X155948094Y-94974628D02*
X155900475Y-95022247D01*
X155900475Y-95022247D02*
X155805237Y-95069866D01*
X155805237Y-95069866D02*
X155614761Y-95069866D01*
X155614761Y-95069866D02*
X155519523Y-95022247D01*
X155519523Y-95022247D02*
X155471904Y-94974628D01*
X155471904Y-94974628D02*
X155424285Y-94879390D01*
X156392666Y-86560819D02*
X156725999Y-86084628D01*
X156964094Y-86560819D02*
X156964094Y-85560819D01*
X156964094Y-85560819D02*
X156583142Y-85560819D01*
X156583142Y-85560819D02*
X156487904Y-85608438D01*
X156487904Y-85608438D02*
X156440285Y-85656057D01*
X156440285Y-85656057D02*
X156392666Y-85751295D01*
X156392666Y-85751295D02*
X156392666Y-85894152D01*
X156392666Y-85894152D02*
X156440285Y-85989390D01*
X156440285Y-85989390D02*
X156487904Y-86037009D01*
X156487904Y-86037009D02*
X156583142Y-86084628D01*
X156583142Y-86084628D02*
X156964094Y-86084628D01*
X155821237Y-85989390D02*
X155916475Y-85941771D01*
X155916475Y-85941771D02*
X155964094Y-85894152D01*
X155964094Y-85894152D02*
X156011713Y-85798914D01*
X156011713Y-85798914D02*
X156011713Y-85751295D01*
X156011713Y-85751295D02*
X155964094Y-85656057D01*
X155964094Y-85656057D02*
X155916475Y-85608438D01*
X155916475Y-85608438D02*
X155821237Y-85560819D01*
X155821237Y-85560819D02*
X155630761Y-85560819D01*
X155630761Y-85560819D02*
X155535523Y-85608438D01*
X155535523Y-85608438D02*
X155487904Y-85656057D01*
X155487904Y-85656057D02*
X155440285Y-85751295D01*
X155440285Y-85751295D02*
X155440285Y-85798914D01*
X155440285Y-85798914D02*
X155487904Y-85894152D01*
X155487904Y-85894152D02*
X155535523Y-85941771D01*
X155535523Y-85941771D02*
X155630761Y-85989390D01*
X155630761Y-85989390D02*
X155821237Y-85989390D01*
X155821237Y-85989390D02*
X155916475Y-86037009D01*
X155916475Y-86037009D02*
X155964094Y-86084628D01*
X155964094Y-86084628D02*
X156011713Y-86179866D01*
X156011713Y-86179866D02*
X156011713Y-86370342D01*
X156011713Y-86370342D02*
X155964094Y-86465580D01*
X155964094Y-86465580D02*
X155916475Y-86513200D01*
X155916475Y-86513200D02*
X155821237Y-86560819D01*
X155821237Y-86560819D02*
X155630761Y-86560819D01*
X155630761Y-86560819D02*
X155535523Y-86513200D01*
X155535523Y-86513200D02*
X155487904Y-86465580D01*
X155487904Y-86465580D02*
X155440285Y-86370342D01*
X155440285Y-86370342D02*
X155440285Y-86179866D01*
X155440285Y-86179866D02*
X155487904Y-86084628D01*
X155487904Y-86084628D02*
X155535523Y-86037009D01*
X155535523Y-86037009D02*
X155630761Y-85989390D01*
X173555819Y-83812142D02*
X173079628Y-83478809D01*
X173555819Y-83240714D02*
X172555819Y-83240714D01*
X172555819Y-83240714D02*
X172555819Y-83621666D01*
X172555819Y-83621666D02*
X172603438Y-83716904D01*
X172603438Y-83716904D02*
X172651057Y-83764523D01*
X172651057Y-83764523D02*
X172746295Y-83812142D01*
X172746295Y-83812142D02*
X172889152Y-83812142D01*
X172889152Y-83812142D02*
X172984390Y-83764523D01*
X172984390Y-83764523D02*
X173032009Y-83716904D01*
X173032009Y-83716904D02*
X173079628Y-83621666D01*
X173079628Y-83621666D02*
X173079628Y-83240714D01*
X173555819Y-84764523D02*
X173555819Y-84193095D01*
X173555819Y-84478809D02*
X172555819Y-84478809D01*
X172555819Y-84478809D02*
X172698676Y-84383571D01*
X172698676Y-84383571D02*
X172793914Y-84288333D01*
X172793914Y-84288333D02*
X172841533Y-84193095D01*
X173555819Y-85716904D02*
X173555819Y-85145476D01*
X173555819Y-85431190D02*
X172555819Y-85431190D01*
X172555819Y-85431190D02*
X172698676Y-85335952D01*
X172698676Y-85335952D02*
X172793914Y-85240714D01*
X172793914Y-85240714D02*
X172841533Y-85145476D01*
X150964666Y-86052819D02*
X151297999Y-85576628D01*
X151536094Y-86052819D02*
X151536094Y-85052819D01*
X151536094Y-85052819D02*
X151155142Y-85052819D01*
X151155142Y-85052819D02*
X151059904Y-85100438D01*
X151059904Y-85100438D02*
X151012285Y-85148057D01*
X151012285Y-85148057D02*
X150964666Y-85243295D01*
X150964666Y-85243295D02*
X150964666Y-85386152D01*
X150964666Y-85386152D02*
X151012285Y-85481390D01*
X151012285Y-85481390D02*
X151059904Y-85529009D01*
X151059904Y-85529009D02*
X151155142Y-85576628D01*
X151155142Y-85576628D02*
X151536094Y-85576628D01*
X150631332Y-85052819D02*
X150012285Y-85052819D01*
X150012285Y-85052819D02*
X150345618Y-85433771D01*
X150345618Y-85433771D02*
X150202761Y-85433771D01*
X150202761Y-85433771D02*
X150107523Y-85481390D01*
X150107523Y-85481390D02*
X150059904Y-85529009D01*
X150059904Y-85529009D02*
X150012285Y-85624247D01*
X150012285Y-85624247D02*
X150012285Y-85862342D01*
X150012285Y-85862342D02*
X150059904Y-85957580D01*
X150059904Y-85957580D02*
X150107523Y-86005200D01*
X150107523Y-86005200D02*
X150202761Y-86052819D01*
X150202761Y-86052819D02*
X150488475Y-86052819D01*
X150488475Y-86052819D02*
X150583713Y-86005200D01*
X150583713Y-86005200D02*
X150631332Y-85957580D01*
X157237857Y-73987819D02*
X157571190Y-73511628D01*
X157809285Y-73987819D02*
X157809285Y-72987819D01*
X157809285Y-72987819D02*
X157428333Y-72987819D01*
X157428333Y-72987819D02*
X157333095Y-73035438D01*
X157333095Y-73035438D02*
X157285476Y-73083057D01*
X157285476Y-73083057D02*
X157237857Y-73178295D01*
X157237857Y-73178295D02*
X157237857Y-73321152D01*
X157237857Y-73321152D02*
X157285476Y-73416390D01*
X157285476Y-73416390D02*
X157333095Y-73464009D01*
X157333095Y-73464009D02*
X157428333Y-73511628D01*
X157428333Y-73511628D02*
X157809285Y-73511628D01*
X156285476Y-73987819D02*
X156856904Y-73987819D01*
X156571190Y-73987819D02*
X156571190Y-72987819D01*
X156571190Y-72987819D02*
X156666428Y-73130676D01*
X156666428Y-73130676D02*
X156761666Y-73225914D01*
X156761666Y-73225914D02*
X156856904Y-73273533D01*
X155380714Y-72987819D02*
X155856904Y-72987819D01*
X155856904Y-72987819D02*
X155904523Y-73464009D01*
X155904523Y-73464009D02*
X155856904Y-73416390D01*
X155856904Y-73416390D02*
X155761666Y-73368771D01*
X155761666Y-73368771D02*
X155523571Y-73368771D01*
X155523571Y-73368771D02*
X155428333Y-73416390D01*
X155428333Y-73416390D02*
X155380714Y-73464009D01*
X155380714Y-73464009D02*
X155333095Y-73559247D01*
X155333095Y-73559247D02*
X155333095Y-73797342D01*
X155333095Y-73797342D02*
X155380714Y-73892580D01*
X155380714Y-73892580D02*
X155428333Y-73940200D01*
X155428333Y-73940200D02*
X155523571Y-73987819D01*
X155523571Y-73987819D02*
X155761666Y-73987819D01*
X155761666Y-73987819D02*
X155856904Y-73940200D01*
X155856904Y-73940200D02*
X155904523Y-73892580D01*
X159078819Y-89924142D02*
X158602628Y-89590809D01*
X159078819Y-89352714D02*
X158078819Y-89352714D01*
X158078819Y-89352714D02*
X158078819Y-89733666D01*
X158078819Y-89733666D02*
X158126438Y-89828904D01*
X158126438Y-89828904D02*
X158174057Y-89876523D01*
X158174057Y-89876523D02*
X158269295Y-89924142D01*
X158269295Y-89924142D02*
X158412152Y-89924142D01*
X158412152Y-89924142D02*
X158507390Y-89876523D01*
X158507390Y-89876523D02*
X158555009Y-89828904D01*
X158555009Y-89828904D02*
X158602628Y-89733666D01*
X158602628Y-89733666D02*
X158602628Y-89352714D01*
X159078819Y-90876523D02*
X159078819Y-90305095D01*
X159078819Y-90590809D02*
X158078819Y-90590809D01*
X158078819Y-90590809D02*
X158221676Y-90495571D01*
X158221676Y-90495571D02*
X158316914Y-90400333D01*
X158316914Y-90400333D02*
X158364533Y-90305095D01*
X158078819Y-91495571D02*
X158078819Y-91590809D01*
X158078819Y-91590809D02*
X158126438Y-91686047D01*
X158126438Y-91686047D02*
X158174057Y-91733666D01*
X158174057Y-91733666D02*
X158269295Y-91781285D01*
X158269295Y-91781285D02*
X158459771Y-91828904D01*
X158459771Y-91828904D02*
X158697866Y-91828904D01*
X158697866Y-91828904D02*
X158888342Y-91781285D01*
X158888342Y-91781285D02*
X158983580Y-91733666D01*
X158983580Y-91733666D02*
X159031200Y-91686047D01*
X159031200Y-91686047D02*
X159078819Y-91590809D01*
X159078819Y-91590809D02*
X159078819Y-91495571D01*
X159078819Y-91495571D02*
X159031200Y-91400333D01*
X159031200Y-91400333D02*
X158983580Y-91352714D01*
X158983580Y-91352714D02*
X158888342Y-91305095D01*
X158888342Y-91305095D02*
X158697866Y-91257476D01*
X158697866Y-91257476D02*
X158459771Y-91257476D01*
X158459771Y-91257476D02*
X158269295Y-91305095D01*
X158269295Y-91305095D02*
X158174057Y-91352714D01*
X158174057Y-91352714D02*
X158126438Y-91400333D01*
X158126438Y-91400333D02*
X158078819Y-91495571D01*
X145099666Y-98498819D02*
X145432999Y-98022628D01*
X145671094Y-98498819D02*
X145671094Y-97498819D01*
X145671094Y-97498819D02*
X145290142Y-97498819D01*
X145290142Y-97498819D02*
X145194904Y-97546438D01*
X145194904Y-97546438D02*
X145147285Y-97594057D01*
X145147285Y-97594057D02*
X145099666Y-97689295D01*
X145099666Y-97689295D02*
X145099666Y-97832152D01*
X145099666Y-97832152D02*
X145147285Y-97927390D01*
X145147285Y-97927390D02*
X145194904Y-97975009D01*
X145194904Y-97975009D02*
X145290142Y-98022628D01*
X145290142Y-98022628D02*
X145671094Y-98022628D01*
X144194904Y-97498819D02*
X144671094Y-97498819D01*
X144671094Y-97498819D02*
X144718713Y-97975009D01*
X144718713Y-97975009D02*
X144671094Y-97927390D01*
X144671094Y-97927390D02*
X144575856Y-97879771D01*
X144575856Y-97879771D02*
X144337761Y-97879771D01*
X144337761Y-97879771D02*
X144242523Y-97927390D01*
X144242523Y-97927390D02*
X144194904Y-97975009D01*
X144194904Y-97975009D02*
X144147285Y-98070247D01*
X144147285Y-98070247D02*
X144147285Y-98308342D01*
X144147285Y-98308342D02*
X144194904Y-98403580D01*
X144194904Y-98403580D02*
X144242523Y-98451200D01*
X144242523Y-98451200D02*
X144337761Y-98498819D01*
X144337761Y-98498819D02*
X144575856Y-98498819D01*
X144575856Y-98498819D02*
X144671094Y-98451200D01*
X144671094Y-98451200D02*
X144718713Y-98403580D01*
X165542904Y-86322819D02*
X165542904Y-87132342D01*
X165542904Y-87132342D02*
X165495285Y-87227580D01*
X165495285Y-87227580D02*
X165447666Y-87275200D01*
X165447666Y-87275200D02*
X165352428Y-87322819D01*
X165352428Y-87322819D02*
X165161952Y-87322819D01*
X165161952Y-87322819D02*
X165066714Y-87275200D01*
X165066714Y-87275200D02*
X165019095Y-87227580D01*
X165019095Y-87227580D02*
X164971476Y-87132342D01*
X164971476Y-87132342D02*
X164971476Y-86322819D01*
X163971476Y-87322819D02*
X164542904Y-87322819D01*
X164257190Y-87322819D02*
X164257190Y-86322819D01*
X164257190Y-86322819D02*
X164352428Y-86465676D01*
X164352428Y-86465676D02*
X164447666Y-86560914D01*
X164447666Y-86560914D02*
X164542904Y-86608533D01*
X169838666Y-85449580D02*
X169886285Y-85497200D01*
X169886285Y-85497200D02*
X170029142Y-85544819D01*
X170029142Y-85544819D02*
X170124380Y-85544819D01*
X170124380Y-85544819D02*
X170267237Y-85497200D01*
X170267237Y-85497200D02*
X170362475Y-85401961D01*
X170362475Y-85401961D02*
X170410094Y-85306723D01*
X170410094Y-85306723D02*
X170457713Y-85116247D01*
X170457713Y-85116247D02*
X170457713Y-84973390D01*
X170457713Y-84973390D02*
X170410094Y-84782914D01*
X170410094Y-84782914D02*
X170362475Y-84687676D01*
X170362475Y-84687676D02*
X170267237Y-84592438D01*
X170267237Y-84592438D02*
X170124380Y-84544819D01*
X170124380Y-84544819D02*
X170029142Y-84544819D01*
X170029142Y-84544819D02*
X169886285Y-84592438D01*
X169886285Y-84592438D02*
X169838666Y-84640057D01*
X169457713Y-84640057D02*
X169410094Y-84592438D01*
X169410094Y-84592438D02*
X169314856Y-84544819D01*
X169314856Y-84544819D02*
X169076761Y-84544819D01*
X169076761Y-84544819D02*
X168981523Y-84592438D01*
X168981523Y-84592438D02*
X168933904Y-84640057D01*
X168933904Y-84640057D02*
X168886285Y-84735295D01*
X168886285Y-84735295D02*
X168886285Y-84830533D01*
X168886285Y-84830533D02*
X168933904Y-84973390D01*
X168933904Y-84973390D02*
X169505332Y-85544819D01*
X169505332Y-85544819D02*
X168886285Y-85544819D01*
X137868819Y-63603142D02*
X137392628Y-63269809D01*
X137868819Y-63031714D02*
X136868819Y-63031714D01*
X136868819Y-63031714D02*
X136868819Y-63412666D01*
X136868819Y-63412666D02*
X136916438Y-63507904D01*
X136916438Y-63507904D02*
X136964057Y-63555523D01*
X136964057Y-63555523D02*
X137059295Y-63603142D01*
X137059295Y-63603142D02*
X137202152Y-63603142D01*
X137202152Y-63603142D02*
X137297390Y-63555523D01*
X137297390Y-63555523D02*
X137345009Y-63507904D01*
X137345009Y-63507904D02*
X137392628Y-63412666D01*
X137392628Y-63412666D02*
X137392628Y-63031714D01*
X137868819Y-64555523D02*
X137868819Y-63984095D01*
X137868819Y-64269809D02*
X136868819Y-64269809D01*
X136868819Y-64269809D02*
X137011676Y-64174571D01*
X137011676Y-64174571D02*
X137106914Y-64079333D01*
X137106914Y-64079333D02*
X137154533Y-63984095D01*
X136964057Y-64936476D02*
X136916438Y-64984095D01*
X136916438Y-64984095D02*
X136868819Y-65079333D01*
X136868819Y-65079333D02*
X136868819Y-65317428D01*
X136868819Y-65317428D02*
X136916438Y-65412666D01*
X136916438Y-65412666D02*
X136964057Y-65460285D01*
X136964057Y-65460285D02*
X137059295Y-65507904D01*
X137059295Y-65507904D02*
X137154533Y-65507904D01*
X137154533Y-65507904D02*
X137297390Y-65460285D01*
X137297390Y-65460285D02*
X137868819Y-64888857D01*
X137868819Y-64888857D02*
X137868819Y-65507904D01*
X144724666Y-79226580D02*
X144772285Y-79274200D01*
X144772285Y-79274200D02*
X144915142Y-79321819D01*
X144915142Y-79321819D02*
X145010380Y-79321819D01*
X145010380Y-79321819D02*
X145153237Y-79274200D01*
X145153237Y-79274200D02*
X145248475Y-79178961D01*
X145248475Y-79178961D02*
X145296094Y-79083723D01*
X145296094Y-79083723D02*
X145343713Y-78893247D01*
X145343713Y-78893247D02*
X145343713Y-78750390D01*
X145343713Y-78750390D02*
X145296094Y-78559914D01*
X145296094Y-78559914D02*
X145248475Y-78464676D01*
X145248475Y-78464676D02*
X145153237Y-78369438D01*
X145153237Y-78369438D02*
X145010380Y-78321819D01*
X145010380Y-78321819D02*
X144915142Y-78321819D01*
X144915142Y-78321819D02*
X144772285Y-78369438D01*
X144772285Y-78369438D02*
X144724666Y-78417057D01*
X143867523Y-78655152D02*
X143867523Y-79321819D01*
X144105618Y-78274200D02*
X144343713Y-78988485D01*
X144343713Y-78988485D02*
X143724666Y-78988485D01*
X139104666Y-86052819D02*
X139437999Y-85576628D01*
X139676094Y-86052819D02*
X139676094Y-85052819D01*
X139676094Y-85052819D02*
X139295142Y-85052819D01*
X139295142Y-85052819D02*
X139199904Y-85100438D01*
X139199904Y-85100438D02*
X139152285Y-85148057D01*
X139152285Y-85148057D02*
X139104666Y-85243295D01*
X139104666Y-85243295D02*
X139104666Y-85386152D01*
X139104666Y-85386152D02*
X139152285Y-85481390D01*
X139152285Y-85481390D02*
X139199904Y-85529009D01*
X139199904Y-85529009D02*
X139295142Y-85576628D01*
X139295142Y-85576628D02*
X139676094Y-85576628D01*
X138152285Y-86052819D02*
X138723713Y-86052819D01*
X138437999Y-86052819D02*
X138437999Y-85052819D01*
X138437999Y-85052819D02*
X138533237Y-85195676D01*
X138533237Y-85195676D02*
X138628475Y-85290914D01*
X138628475Y-85290914D02*
X138723713Y-85338533D01*
X151016666Y-98498819D02*
X151349999Y-98022628D01*
X151588094Y-98498819D02*
X151588094Y-97498819D01*
X151588094Y-97498819D02*
X151207142Y-97498819D01*
X151207142Y-97498819D02*
X151111904Y-97546438D01*
X151111904Y-97546438D02*
X151064285Y-97594057D01*
X151064285Y-97594057D02*
X151016666Y-97689295D01*
X151016666Y-97689295D02*
X151016666Y-97832152D01*
X151016666Y-97832152D02*
X151064285Y-97927390D01*
X151064285Y-97927390D02*
X151111904Y-97975009D01*
X151111904Y-97975009D02*
X151207142Y-98022628D01*
X151207142Y-98022628D02*
X151588094Y-98022628D01*
X150159523Y-97498819D02*
X150349999Y-97498819D01*
X150349999Y-97498819D02*
X150445237Y-97546438D01*
X150445237Y-97546438D02*
X150492856Y-97594057D01*
X150492856Y-97594057D02*
X150588094Y-97736914D01*
X150588094Y-97736914D02*
X150635713Y-97927390D01*
X150635713Y-97927390D02*
X150635713Y-98308342D01*
X150635713Y-98308342D02*
X150588094Y-98403580D01*
X150588094Y-98403580D02*
X150540475Y-98451200D01*
X150540475Y-98451200D02*
X150445237Y-98498819D01*
X150445237Y-98498819D02*
X150254761Y-98498819D01*
X150254761Y-98498819D02*
X150159523Y-98451200D01*
X150159523Y-98451200D02*
X150111904Y-98403580D01*
X150111904Y-98403580D02*
X150064285Y-98308342D01*
X150064285Y-98308342D02*
X150064285Y-98070247D01*
X150064285Y-98070247D02*
X150111904Y-97975009D01*
X150111904Y-97975009D02*
X150159523Y-97927390D01*
X150159523Y-97927390D02*
X150254761Y-97879771D01*
X150254761Y-97879771D02*
X150445237Y-97879771D01*
X150445237Y-97879771D02*
X150540475Y-97927390D01*
X150540475Y-97927390D02*
X150588094Y-97975009D01*
X150588094Y-97975009D02*
X150635713Y-98070247D01*
X156376857Y-77543819D02*
X156710190Y-77067628D01*
X156948285Y-77543819D02*
X156948285Y-76543819D01*
X156948285Y-76543819D02*
X156567333Y-76543819D01*
X156567333Y-76543819D02*
X156472095Y-76591438D01*
X156472095Y-76591438D02*
X156424476Y-76639057D01*
X156424476Y-76639057D02*
X156376857Y-76734295D01*
X156376857Y-76734295D02*
X156376857Y-76877152D01*
X156376857Y-76877152D02*
X156424476Y-76972390D01*
X156424476Y-76972390D02*
X156472095Y-77020009D01*
X156472095Y-77020009D02*
X156567333Y-77067628D01*
X156567333Y-77067628D02*
X156948285Y-77067628D01*
X155424476Y-77543819D02*
X155995904Y-77543819D01*
X155710190Y-77543819D02*
X155710190Y-76543819D01*
X155710190Y-76543819D02*
X155805428Y-76686676D01*
X155805428Y-76686676D02*
X155900666Y-76781914D01*
X155900666Y-76781914D02*
X155995904Y-76829533D01*
X154567333Y-76543819D02*
X154757809Y-76543819D01*
X154757809Y-76543819D02*
X154853047Y-76591438D01*
X154853047Y-76591438D02*
X154900666Y-76639057D01*
X154900666Y-76639057D02*
X154995904Y-76781914D01*
X154995904Y-76781914D02*
X155043523Y-76972390D01*
X155043523Y-76972390D02*
X155043523Y-77353342D01*
X155043523Y-77353342D02*
X154995904Y-77448580D01*
X154995904Y-77448580D02*
X154948285Y-77496200D01*
X154948285Y-77496200D02*
X154853047Y-77543819D01*
X154853047Y-77543819D02*
X154662571Y-77543819D01*
X154662571Y-77543819D02*
X154567333Y-77496200D01*
X154567333Y-77496200D02*
X154519714Y-77448580D01*
X154519714Y-77448580D02*
X154472095Y-77353342D01*
X154472095Y-77353342D02*
X154472095Y-77115247D01*
X154472095Y-77115247D02*
X154519714Y-77020009D01*
X154519714Y-77020009D02*
X154567333Y-76972390D01*
X154567333Y-76972390D02*
X154662571Y-76924771D01*
X154662571Y-76924771D02*
X154853047Y-76924771D01*
X154853047Y-76924771D02*
X154948285Y-76972390D01*
X154948285Y-76972390D02*
X154995904Y-77020009D01*
X154995904Y-77020009D02*
X155043523Y-77115247D01*
X142222580Y-69683333D02*
X142270200Y-69635714D01*
X142270200Y-69635714D02*
X142317819Y-69492857D01*
X142317819Y-69492857D02*
X142317819Y-69397619D01*
X142317819Y-69397619D02*
X142270200Y-69254762D01*
X142270200Y-69254762D02*
X142174961Y-69159524D01*
X142174961Y-69159524D02*
X142079723Y-69111905D01*
X142079723Y-69111905D02*
X141889247Y-69064286D01*
X141889247Y-69064286D02*
X141746390Y-69064286D01*
X141746390Y-69064286D02*
X141555914Y-69111905D01*
X141555914Y-69111905D02*
X141460676Y-69159524D01*
X141460676Y-69159524D02*
X141365438Y-69254762D01*
X141365438Y-69254762D02*
X141317819Y-69397619D01*
X141317819Y-69397619D02*
X141317819Y-69492857D01*
X141317819Y-69492857D02*
X141365438Y-69635714D01*
X141365438Y-69635714D02*
X141413057Y-69683333D01*
X141317819Y-70016667D02*
X141317819Y-70635714D01*
X141317819Y-70635714D02*
X141698771Y-70302381D01*
X141698771Y-70302381D02*
X141698771Y-70445238D01*
X141698771Y-70445238D02*
X141746390Y-70540476D01*
X141746390Y-70540476D02*
X141794009Y-70588095D01*
X141794009Y-70588095D02*
X141889247Y-70635714D01*
X141889247Y-70635714D02*
X142127342Y-70635714D01*
X142127342Y-70635714D02*
X142222580Y-70588095D01*
X142222580Y-70588095D02*
X142270200Y-70540476D01*
X142270200Y-70540476D02*
X142317819Y-70445238D01*
X142317819Y-70445238D02*
X142317819Y-70159524D01*
X142317819Y-70159524D02*
X142270200Y-70064286D01*
X142270200Y-70064286D02*
X142222580Y-70016667D01*
X139182666Y-98498819D02*
X139515999Y-98022628D01*
X139754094Y-98498819D02*
X139754094Y-97498819D01*
X139754094Y-97498819D02*
X139373142Y-97498819D01*
X139373142Y-97498819D02*
X139277904Y-97546438D01*
X139277904Y-97546438D02*
X139230285Y-97594057D01*
X139230285Y-97594057D02*
X139182666Y-97689295D01*
X139182666Y-97689295D02*
X139182666Y-97832152D01*
X139182666Y-97832152D02*
X139230285Y-97927390D01*
X139230285Y-97927390D02*
X139277904Y-97975009D01*
X139277904Y-97975009D02*
X139373142Y-98022628D01*
X139373142Y-98022628D02*
X139754094Y-98022628D01*
X138325523Y-97832152D02*
X138325523Y-98498819D01*
X138563618Y-97451200D02*
X138801713Y-98165485D01*
X138801713Y-98165485D02*
X138182666Y-98165485D01*
X148367904Y-70193819D02*
X148367904Y-71003342D01*
X148367904Y-71003342D02*
X148320285Y-71098580D01*
X148320285Y-71098580D02*
X148272666Y-71146200D01*
X148272666Y-71146200D02*
X148177428Y-71193819D01*
X148177428Y-71193819D02*
X147986952Y-71193819D01*
X147986952Y-71193819D02*
X147891714Y-71146200D01*
X147891714Y-71146200D02*
X147844095Y-71098580D01*
X147844095Y-71098580D02*
X147796476Y-71003342D01*
X147796476Y-71003342D02*
X147796476Y-70193819D01*
X147367904Y-70289057D02*
X147320285Y-70241438D01*
X147320285Y-70241438D02*
X147225047Y-70193819D01*
X147225047Y-70193819D02*
X146986952Y-70193819D01*
X146986952Y-70193819D02*
X146891714Y-70241438D01*
X146891714Y-70241438D02*
X146844095Y-70289057D01*
X146844095Y-70289057D02*
X146796476Y-70384295D01*
X146796476Y-70384295D02*
X146796476Y-70479533D01*
X146796476Y-70479533D02*
X146844095Y-70622390D01*
X146844095Y-70622390D02*
X147415523Y-71193819D01*
X147415523Y-71193819D02*
X146796476Y-71193819D01*
X145034666Y-86052819D02*
X145367999Y-85576628D01*
X145606094Y-86052819D02*
X145606094Y-85052819D01*
X145606094Y-85052819D02*
X145225142Y-85052819D01*
X145225142Y-85052819D02*
X145129904Y-85100438D01*
X145129904Y-85100438D02*
X145082285Y-85148057D01*
X145082285Y-85148057D02*
X145034666Y-85243295D01*
X145034666Y-85243295D02*
X145034666Y-85386152D01*
X145034666Y-85386152D02*
X145082285Y-85481390D01*
X145082285Y-85481390D02*
X145129904Y-85529009D01*
X145129904Y-85529009D02*
X145225142Y-85576628D01*
X145225142Y-85576628D02*
X145606094Y-85576628D01*
X144653713Y-85148057D02*
X144606094Y-85100438D01*
X144606094Y-85100438D02*
X144510856Y-85052819D01*
X144510856Y-85052819D02*
X144272761Y-85052819D01*
X144272761Y-85052819D02*
X144177523Y-85100438D01*
X144177523Y-85100438D02*
X144129904Y-85148057D01*
X144129904Y-85148057D02*
X144082285Y-85243295D01*
X144082285Y-85243295D02*
X144082285Y-85338533D01*
X144082285Y-85338533D02*
X144129904Y-85481390D01*
X144129904Y-85481390D02*
X144701332Y-86052819D01*
X144701332Y-86052819D02*
X144082285Y-86052819D01*
X168757666Y-96879580D02*
X168805285Y-96927200D01*
X168805285Y-96927200D02*
X168948142Y-96974819D01*
X168948142Y-96974819D02*
X169043380Y-96974819D01*
X169043380Y-96974819D02*
X169186237Y-96927200D01*
X169186237Y-96927200D02*
X169281475Y-96831961D01*
X169281475Y-96831961D02*
X169329094Y-96736723D01*
X169329094Y-96736723D02*
X169376713Y-96546247D01*
X169376713Y-96546247D02*
X169376713Y-96403390D01*
X169376713Y-96403390D02*
X169329094Y-96212914D01*
X169329094Y-96212914D02*
X169281475Y-96117676D01*
X169281475Y-96117676D02*
X169186237Y-96022438D01*
X169186237Y-96022438D02*
X169043380Y-95974819D01*
X169043380Y-95974819D02*
X168948142Y-95974819D01*
X168948142Y-95974819D02*
X168805285Y-96022438D01*
X168805285Y-96022438D02*
X168757666Y-96070057D01*
X167805285Y-96974819D02*
X168376713Y-96974819D01*
X168090999Y-96974819D02*
X168090999Y-95974819D01*
X168090999Y-95974819D02*
X168186237Y-96117676D01*
X168186237Y-96117676D02*
X168281475Y-96212914D01*
X168281475Y-96212914D02*
X168376713Y-96260533D01*
D12*
%TO.C,R7*%
X151665000Y-91466936D02*
X151665000Y-91921064D01*
X153135000Y-91466936D02*
X153135000Y-91921064D01*
%TO.C,R13*%
X146839000Y-61187064D02*
X146839000Y-60732936D01*
X148309000Y-61187064D02*
X148309000Y-60732936D01*
%TO.C,R14*%
X121692936Y-46636000D02*
X122147064Y-46636000D01*
X121692936Y-48106000D02*
X122147064Y-48106000D01*
%TO.C,R9*%
X155998936Y-92483000D02*
X156453064Y-92483000D01*
X155998936Y-93953000D02*
X156453064Y-93953000D01*
%TO.C,R8*%
X155998936Y-87149000D02*
X156453064Y-87149000D01*
X155998936Y-88619000D02*
X156453064Y-88619000D01*
%TO.C,R11*%
X173709000Y-88873064D02*
X173709000Y-88418936D01*
X172239000Y-88873064D02*
X172239000Y-88418936D01*
%TO.C,R3*%
X151525064Y-86466000D02*
X150070936Y-86466000D01*
X151525064Y-88286000D02*
X150070936Y-88286000D01*
%TO.C,R15*%
X152557936Y-72798000D02*
X153012064Y-72798000D01*
X152557936Y-74268000D02*
X153012064Y-74268000D01*
%TO.C,R10*%
X159539000Y-90339936D02*
X159539000Y-90794064D01*
X161009000Y-90339936D02*
X161009000Y-90794064D01*
%TO.C,R5*%
X145660064Y-95102000D02*
X144205936Y-95102000D01*
X145660064Y-96922000D02*
X144205936Y-96922000D01*
%TO.C,U1*%
X164564000Y-87991000D02*
X164564000Y-88086000D01*
X164564000Y-93016000D02*
X164564000Y-93111000D01*
X164564000Y-93111000D02*
X168684000Y-93111000D01*
X168684000Y-87991000D02*
X164564000Y-87991000D01*
X168684000Y-88086000D02*
X168684000Y-87991000D01*
X168684000Y-93111000D02*
X168684000Y-93016000D01*
X164264000Y-93351000D02*
X163784000Y-93351000D01*
X164024000Y-93021000D01*
X164264000Y-93351000D01*
G36*
X164264000Y-93351000D02*
G01*
X163784000Y-93351000D01*
X164024000Y-93021000D01*
X164264000Y-93351000D01*
G37*
%TO.C,C2*%
X169818267Y-86104000D02*
X169525733Y-86104000D01*
X169818267Y-87124000D02*
X169525733Y-87124000D01*
%TO.C,R12*%
X136679000Y-61187064D02*
X136679000Y-60732936D01*
X138149000Y-61187064D02*
X138149000Y-60732936D01*
%TO.C,C4*%
X147359233Y-78357000D02*
X147651767Y-78357000D01*
X147359233Y-79377000D02*
X147651767Y-79377000D01*
%TO.C,R1*%
X139665064Y-86466000D02*
X138210936Y-86466000D01*
X139665064Y-88286000D02*
X138210936Y-88286000D01*
%TO.C,R6*%
X151577064Y-95102000D02*
X150122936Y-95102000D01*
X151577064Y-96922000D02*
X150122936Y-96922000D01*
%TO.C,R16*%
X151934936Y-76354000D02*
X152389064Y-76354000D01*
X151934936Y-77824000D02*
X152389064Y-77824000D01*
%TO.C,C3*%
X142877000Y-69703733D02*
X142877000Y-69996267D01*
X143897000Y-69703733D02*
X143897000Y-69996267D01*
%TO.C,R4*%
X139743064Y-95102000D02*
X138288936Y-95102000D01*
X139743064Y-96922000D02*
X138288936Y-96922000D01*
%TO.C,U2*%
X143768000Y-71989000D02*
X143768000Y-72084000D01*
X143768000Y-77014000D02*
X143768000Y-77109000D01*
X143768000Y-77109000D02*
X147888000Y-77109000D01*
X147888000Y-71989000D02*
X143768000Y-71989000D01*
X147888000Y-72084000D02*
X147888000Y-71989000D01*
X147888000Y-77109000D02*
X147888000Y-77014000D01*
X148428000Y-72079000D02*
X148188000Y-71749000D01*
X148668000Y-71749000D01*
X148428000Y-72079000D01*
G36*
X148428000Y-72079000D02*
G01*
X148188000Y-71749000D01*
X148668000Y-71749000D01*
X148428000Y-72079000D01*
G37*
%TO.C,R2*%
X145595064Y-86466000D02*
X144140936Y-86466000D01*
X145595064Y-88286000D02*
X144140936Y-88286000D01*
%TO.C,C1*%
X168344233Y-94232000D02*
X168636767Y-94232000D01*
X168344233Y-95252000D02*
X168636767Y-95252000D01*
%TD*%
M02*
