%TF.GenerationSoftware,KiCad,Pcbnew,9.0.6*%
%TF.CreationDate,2026-07-30T14:14:13-04:00*%
%TF.ProjectId,catpaw,63617470-6177-42e6-9b69-6361645f7063,rev?*%
%TF.SameCoordinates,Original*%
%TF.FileFunction,Soldermask,Bot*%
%TF.FilePolarity,Negative*%
%FSLAX46Y46*%
G04 Gerber Fmt 4.6, Leading zero omitted, Abs format (unit mm)*
G04 Created by KiCad (PCBNEW 9.0.6) date 2026-07-30 14:14:13*
%MOMM*%
%LPD*%
G01*
G04 APERTURE LIST*
G04 Aperture macros list*
%AMRoundRect*
0 Rectangle with rounded corners*
0 $1 Rounding radius*
0 $2 $3 $4 $5 $6 $7 $8 $9 X,Y pos of 4 corners*
0 Add a 4 corners polygon primitive as box body*
4,1,4,$2,$3,$4,$5,$6,$7,$8,$9,$2,$3,0*
0 Add four circle primitives for the rounded corners*
1,1,$1+$1,$2,$3*
1,1,$1+$1,$4,$5*
1,1,$1+$1,$6,$7*
1,1,$1+$1,$8,$9*
0 Add four rect primitives between the rounded corners*
20,1,$1+$1,$2,$3,$4,$5,0*
20,1,$1+$1,$4,$5,$6,$7,0*
20,1,$1+$1,$6,$7,$8,$9,0*
20,1,$1+$1,$8,$9,$2,$3,0*%
G04 Aperture macros list end*
%ADD10R,1.700000X1.700000*%
%ADD11C,1.400000*%
%ADD12C,2.400000*%
%ADD13R,2.400000X2.400000*%
%ADD14C,2.540000*%
%ADD15C,3.000000*%
%ADD16C,2.050000*%
%ADD17C,2.800000*%
%ADD18C,1.950000*%
%ADD19RoundRect,0.249999X0.850001X-0.850001X0.850001X0.850001X-0.850001X0.850001X-0.850001X-0.850001X0*%
%ADD20C,2.200000*%
%ADD21C,1.800000*%
%ADD22R,1.800000X1.800000*%
%ADD23C,3.200000*%
%ADD24C,2.300000*%
%ADD25C,4.500000*%
%ADD26C,1.700000*%
%ADD27RoundRect,0.250000X-0.450000X0.350000X-0.450000X-0.350000X0.450000X-0.350000X0.450000X0.350000X0*%
%ADD28RoundRect,0.250000X0.450000X-0.350000X0.450000X0.350000X-0.450000X0.350000X-0.450000X-0.350000X0*%
%ADD29RoundRect,0.250000X-0.350000X-0.450000X0.350000X-0.450000X0.350000X0.450000X-0.350000X0.450000X0*%
%ADD30RoundRect,0.250000X0.400000X0.625000X-0.400000X0.625000X-0.400000X-0.625000X0.400000X-0.625000X0*%
%ADD31RoundRect,0.150000X-0.825000X-0.150000X0.825000X-0.150000X0.825000X0.150000X-0.825000X0.150000X0*%
%ADD32RoundRect,0.237500X0.300000X0.237500X-0.300000X0.237500X-0.300000X-0.237500X0.300000X-0.237500X0*%
%ADD33RoundRect,0.237500X-0.300000X-0.237500X0.300000X-0.237500X0.300000X0.237500X-0.300000X0.237500X0*%
%ADD34RoundRect,0.237500X-0.237500X0.300000X-0.237500X-0.300000X0.237500X-0.300000X0.237500X0.300000X0*%
%ADD35RoundRect,0.150000X0.825000X0.150000X-0.825000X0.150000X-0.825000X-0.150000X0.825000X-0.150000X0*%
G04 APERTURE END LIST*
D10*
%TO.C,GND*%
X182372000Y-76835000D03*
%TD*%
D11*
%TO.C,R19*%
X175260000Y-75565000D03*
X175260000Y-78105000D03*
%TD*%
%TO.C,R18*%
X171069000Y-78105000D03*
X171069000Y-75565000D03*
%TD*%
D12*
%TO.C,PS1*%
X137406500Y-57151500D03*
X147566500Y-57151500D03*
X157726500Y-102871500D03*
D13*
X137406500Y-102871500D03*
%TD*%
D14*
%TO.C,SW1*%
X129032000Y-95619000D03*
X129032000Y-100319000D03*
X129032000Y-105019000D03*
X125222000Y-95619000D03*
X125222000Y-100319000D03*
X125222000Y-105019000D03*
D15*
X112522000Y-102859000D03*
X112522000Y-97779000D03*
%TD*%
D16*
%TO.C,J3*%
X176212000Y-102824000D03*
D17*
X180212000Y-102824000D03*
D16*
X176212000Y-87824000D03*
D17*
X180212000Y-87824000D03*
D18*
X174444000Y-93556000D03*
X174444000Y-97092000D03*
X177980000Y-97092000D03*
X177980000Y-93556000D03*
X176212000Y-95324000D03*
%TD*%
D19*
%TO.C,D1*%
X172720000Y-57785000D03*
D20*
X172720000Y-47625000D03*
%TD*%
D21*
%TO.C,D5*%
X115316000Y-49911000D03*
D22*
X115316000Y-47371000D03*
%TD*%
D23*
%TO.C,J2*%
X123825000Y-61359000D03*
D24*
X127625000Y-66439000D03*
X127625000Y-56279000D03*
X117465000Y-66439000D03*
X117465000Y-56279000D03*
%TD*%
D19*
%TO.C,D2*%
X169022000Y-57785000D03*
D20*
X169022000Y-47625000D03*
%TD*%
D25*
%TO.C,J4*%
X179712000Y-67574000D03*
X179712000Y-55074000D03*
D26*
X178262000Y-62399000D03*
X180212000Y-63024000D03*
X178262000Y-60249000D03*
X180212000Y-59624000D03*
%TD*%
D24*
%TO.C,J1*%
X117465000Y-73279000D03*
X117465000Y-83439000D03*
X127625000Y-73279000D03*
X127625000Y-83439000D03*
D23*
X123825000Y-78359000D03*
%TD*%
D27*
%TO.C,R7*%
X152400000Y-90694000D03*
X152400000Y-92694000D03*
%TD*%
D28*
%TO.C,R13*%
X147574000Y-61960000D03*
X147574000Y-59960000D03*
%TD*%
D29*
%TO.C,R14*%
X120920000Y-47371000D03*
X122920000Y-47371000D03*
%TD*%
%TO.C,R9*%
X155226000Y-93218000D03*
X157226000Y-93218000D03*
%TD*%
%TO.C,R8*%
X155226000Y-87884000D03*
X157226000Y-87884000D03*
%TD*%
D28*
%TO.C,R11*%
X172974000Y-87646000D03*
X172974000Y-89646000D03*
%TD*%
D30*
%TO.C,R3*%
X152348000Y-87376000D03*
X149248000Y-87376000D03*
%TD*%
D29*
%TO.C,R15*%
X151785000Y-73533000D03*
X153785000Y-73533000D03*
%TD*%
D27*
%TO.C,R10*%
X160274000Y-89567000D03*
X160274000Y-91567000D03*
%TD*%
D30*
%TO.C,R5*%
X146483000Y-96012000D03*
X143383000Y-96012000D03*
%TD*%
D31*
%TO.C,U1*%
X164149000Y-92456000D03*
X164149000Y-91186000D03*
X164149000Y-89916000D03*
X164149000Y-88646000D03*
X169099000Y-88646000D03*
X169099000Y-89916000D03*
X169099000Y-91186000D03*
X169099000Y-92456000D03*
%TD*%
D32*
%TO.C,C2*%
X170534500Y-86614000D03*
X168809500Y-86614000D03*
%TD*%
D28*
%TO.C,R12*%
X137414000Y-61960000D03*
X137414000Y-59960000D03*
%TD*%
D33*
%TO.C,C4*%
X146643000Y-78867000D03*
X148368000Y-78867000D03*
%TD*%
D30*
%TO.C,R1*%
X140488000Y-87376000D03*
X137388000Y-87376000D03*
%TD*%
%TO.C,R6*%
X152400000Y-96012000D03*
X149300000Y-96012000D03*
%TD*%
D29*
%TO.C,R16*%
X151162000Y-77089000D03*
X153162000Y-77089000D03*
%TD*%
D34*
%TO.C,C3*%
X143387000Y-68987500D03*
X143387000Y-70712500D03*
%TD*%
D30*
%TO.C,R4*%
X140566000Y-96012000D03*
X137466000Y-96012000D03*
%TD*%
D35*
%TO.C,U2*%
X148303000Y-72644000D03*
X148303000Y-73914000D03*
X148303000Y-75184000D03*
X148303000Y-76454000D03*
X143353000Y-76454000D03*
X143353000Y-75184000D03*
X143353000Y-73914000D03*
X143353000Y-72644000D03*
%TD*%
D30*
%TO.C,R2*%
X146418000Y-87376000D03*
X143318000Y-87376000D03*
%TD*%
D33*
%TO.C,C1*%
X167628000Y-94742000D03*
X169353000Y-94742000D03*
%TD*%
M02*
