M48
; DRILL file {KiCad 9.0.6} date 2026-07-30T14:14:09-0400
; FORMAT={-:-/ absolute / metric / decimal}
; #@! TF.CreationDate,2026-07-30T14:14:09-04:00
; #@! TF.GenerationSoftware,Kicad,Pcbnew,9.0.6
; #@! TF.FileFunction,Plated,1,2,PTH
FMAT,2
METRIC
; #@! TA.AperFunction,Plated,PTH,ViaDrill
T1C0.300
; #@! TA.AperFunction,Plated,PTH,ComponentDrill
T2C0.700
; #@! TA.AperFunction,Plated,PTH,ComponentDrill
T3C0.900
; #@! TA.AperFunction,Plated,PTH,ComponentDrill
T4C1.000
; #@! TA.AperFunction,Plated,PTH,ComponentDrill
T5C1.100
; #@! TA.AperFunction,Plated,PTH,ComponentDrill
T6C1.300
; #@! TA.AperFunction,Plated,PTH,ComponentDrill
T7C1.850
; #@! TA.AperFunction,Plated,PTH,ComponentDrill
T8C2.200
; #@! TA.AperFunction,Plated,PTH,ComponentDrill
T9C3.000
%
G90
G05
T1
X112.522Y-44.958
X112.522Y-52.832
X114.306Y-44.958
X114.478Y-52.832
X116.091Y-44.958
X116.434Y-52.832
X117.875Y-44.958
X118.389Y-52.832
X119.659Y-44.958
X120.345Y-52.832
X121.444Y-44.958
X122.301Y-52.832
X123.228Y-44.958
X124.257Y-52.832
X125.012Y-44.958
X126.213Y-52.832
X126.797Y-44.958
X128.168Y-52.832
X128.581Y-44.958
X130.124Y-52.832
X130.365Y-44.958
X132.08Y-52.832
X132.15Y-44.958
X133.934Y-44.958
X135.719Y-44.958
X137.414Y-67.282
X137.42Y-69.032
X137.427Y-74.281
X137.433Y-77.78
X137.439Y-70.781
X137.445Y-79.53
X137.452Y-72.531
X137.458Y-76.031
X137.464Y-65.532
X137.47Y-81.28
X137.503Y-44.958
X139.214Y-81.28
X139.287Y-44.958
X140.957Y-81.28
X141.072Y-44.958
X141.732Y-71.882
X142.24Y-71.12
X142.625Y-67.31
X142.701Y-81.28
X142.856Y-44.958
X143.387Y-67.31
X144.149Y-67.31
X144.444Y-81.28
X144.526Y-71.12
X144.64Y-44.958
X145.796Y-67.31
X146.188Y-81.28
X146.425Y-44.958
X147.931Y-81.28
X148.209Y-44.958
X149.675Y-81.28
X149.993Y-44.958
X150.245Y-78.74
X150.941Y-78.74
X151.418Y-81.28
X151.638Y-78.74
X151.778Y-44.958
X153.162Y-81.28
X153.562Y-44.958
X155.194Y-73.66
X155.346Y-44.958
X155.956Y-73.66
X157.131Y-44.958
X158.915Y-44.958
X160.699Y-44.958
X162.306Y-84.582
X162.306Y-85.344
X162.306Y-86.106
X162.484Y-44.958
X163.322Y-94.996
X163.322Y-96.661
X163.322Y-98.326
X163.322Y-99.991
X163.322Y-101.656
X163.322Y-103.322
X163.322Y-104.987
X163.322Y-106.652
X163.322Y-108.317
X163.322Y-109.982
X164.268Y-44.958
X164.592Y-111.76
X166.052Y-44.958
X166.116Y-86.614
X166.116Y-87.376
X166.134Y-111.76
X167.005Y-81.407
X167.676Y-111.76
X167.767Y-81.407
X167.837Y-44.958
X168.529Y-81.407
X168.656Y-84.963
X169.218Y-111.76
X169.291Y-93.556
X169.621Y-44.958
X170.688Y-94.996
X170.688Y-95.758
X170.761Y-111.76
X171.196Y-88.138
X171.196Y-88.9
X171.196Y-89.662
X171.406Y-44.958
X172.303Y-111.76
X172.339Y-86.106
X173.101Y-86.106
X173.19Y-44.958
X173.845Y-111.76
X173.863Y-86.106
X174.974Y-44.958
X175.387Y-111.76
X176.759Y-44.958
X176.929Y-111.76
X177.165Y-91.059
X177.927Y-91.059
X178.471Y-111.76
X178.543Y-44.958
X178.689Y-91.059
X180.013Y-111.76
X180.213Y-92.075
X180.213Y-92.837
X180.213Y-93.599
X180.327Y-44.958
X181.556Y-111.76
X182.112Y-44.958
X183.098Y-111.76
X183.896Y-44.958
X184.64Y-111.76
X186.182Y-111.76
X186.944Y-45.974
X186.944Y-47.498
X186.944Y-49.022
X186.944Y-50.546
X186.944Y-71.755
X186.944Y-73.0
X186.944Y-74.244
X186.944Y-75.489
X186.944Y-76.733
X186.944Y-77.978
X186.944Y-79.223
X186.944Y-80.467
X186.944Y-81.712
X186.944Y-82.956
X186.944Y-84.201
X186.944Y-106.652
X186.944Y-108.317
X186.944Y-109.982
T2
X171.069Y-75.565
X171.069Y-78.105
X175.26Y-75.565
X175.26Y-78.105
T3
X115.316Y-47.371
X115.316Y-49.911
T4
X182.372Y-76.835
T5
X169.022Y-47.625
X169.022Y-57.785
X172.72Y-47.625
X172.72Y-57.785
T6
X117.465Y-56.279
X117.465Y-66.439
X117.465Y-73.279
X117.465Y-83.439
X127.625Y-56.279
X127.625Y-66.439
X127.625Y-73.279
X127.625Y-83.439
X137.406Y-57.151
X137.406Y-102.871
X147.566Y-57.151
X157.726Y-102.871
X174.444Y-93.556
X174.444Y-97.092
X176.212Y-95.324
X177.98Y-93.556
X177.98Y-97.092
X178.262Y-60.249
X178.262Y-62.399
X180.212Y-59.624
X180.212Y-63.024
T7
X112.522Y-97.779
X112.522Y-102.859
X125.222Y-95.619
X125.222Y-100.319
X125.222Y-105.019
X129.032Y-95.619
X129.032Y-100.319
X129.032Y-105.019
T8
X123.825Y-61.359
X123.825Y-78.359
T9
X179.712Y-55.074
X179.712Y-67.574
M30
