%TF.GenerationSoftware,KiCad,Pcbnew,9.0.6*%
%TF.CreationDate,2026-07-30T14:14:13-04:00*%
%TF.ProjectId,catpaw,63617470-6177-42e6-9b69-6361645f7063,rev?*%
%TF.SameCoordinates,Original*%
%TF.FileFunction,Copper,L2,Bot*%
%TF.FilePolarity,Positive*%
%FSLAX46Y46*%
G04 Gerber Fmt 4.6, Leading zero omitted, Abs format (unit mm)*
G04 Created by KiCad (PCBNEW 9.0.6) date 2026-07-30 14:14:13*
%MOMM*%
%LPD*%
G01*
G04 APERTURE LIST*
G04 Aperture macros list*
%AMRoundRect*
0 Rectangle with rounded corners*
0 $1 Rounding radius*
0 $2 $3 $4 $5 $6 $7 $8 $9 X,Y pos of 4 corners*
0 Add a 4 corners polygon primitive as box body*
4,1,4,$2,$3,$4,$5,$6,$7,$8,$9,$2,$3,0*
0 Add four circle primitives for the rounded corners*
1,1,$1+$1,$2,$3*
1,1,$1+$1,$4,$5*
1,1,$1+$1,$6,$7*
1,1,$1+$1,$8,$9*
0 Add four rect primitives between the rounded corners*
20,1,$1+$1,$2,$3,$4,$5,0*
20,1,$1+$1,$4,$5,$6,$7,0*
20,1,$1+$1,$6,$7,$8,$9,0*
20,1,$1+$1,$8,$9,$2,$3,0*%
G04 Aperture macros list end*
%TA.AperFunction,ComponentPad*%
%ADD10R,1.700000X1.700000*%
%TD*%
%TA.AperFunction,ComponentPad*%
%ADD11C,1.400000*%
%TD*%
%TA.AperFunction,ComponentPad*%
%ADD12C,2.400000*%
%TD*%
%TA.AperFunction,ComponentPad*%
%ADD13R,2.400000X2.400000*%
%TD*%
%TA.AperFunction,ComponentPad*%
%ADD14C,2.540000*%
%TD*%
%TA.AperFunction,ComponentPad*%
%ADD15C,3.000000*%
%TD*%
%TA.AperFunction,ComponentPad*%
%ADD16C,1.950000*%
%TD*%
%TA.AperFunction,ComponentPad*%
%ADD17RoundRect,0.249999X0.850001X-0.850001X0.850001X0.850001X-0.850001X0.850001X-0.850001X-0.850001X0*%
%TD*%
%TA.AperFunction,ComponentPad*%
%ADD18C,2.200000*%
%TD*%
%TA.AperFunction,ComponentPad*%
%ADD19C,1.800000*%
%TD*%
%TA.AperFunction,ComponentPad*%
%ADD20R,1.800000X1.800000*%
%TD*%
%TA.AperFunction,ComponentPad*%
%ADD21C,3.200000*%
%TD*%
%TA.AperFunction,ComponentPad*%
%ADD22C,2.300000*%
%TD*%
%TA.AperFunction,ComponentPad*%
%ADD23C,4.500000*%
%TD*%
%TA.AperFunction,ComponentPad*%
%ADD24C,1.700000*%
%TD*%
%TA.AperFunction,SMDPad,CuDef*%
%ADD25RoundRect,0.250000X-0.450000X0.350000X-0.450000X-0.350000X0.450000X-0.350000X0.450000X0.350000X0*%
%TD*%
%TA.AperFunction,SMDPad,CuDef*%
%ADD26RoundRect,0.250000X0.450000X-0.350000X0.450000X0.350000X-0.450000X0.350000X-0.450000X-0.350000X0*%
%TD*%
%TA.AperFunction,SMDPad,CuDef*%
%ADD27RoundRect,0.250000X-0.350000X-0.450000X0.350000X-0.450000X0.350000X0.450000X-0.350000X0.450000X0*%
%TD*%
%TA.AperFunction,SMDPad,CuDef*%
%ADD28RoundRect,0.250000X0.400000X0.625000X-0.400000X0.625000X-0.400000X-0.625000X0.400000X-0.625000X0*%
%TD*%
%TA.AperFunction,SMDPad,CuDef*%
%ADD29RoundRect,0.150000X-0.825000X-0.150000X0.825000X-0.150000X0.825000X0.150000X-0.825000X0.150000X0*%
%TD*%
%TA.AperFunction,SMDPad,CuDef*%
%ADD30RoundRect,0.237500X0.300000X0.237500X-0.300000X0.237500X-0.300000X-0.237500X0.300000X-0.237500X0*%
%TD*%
%TA.AperFunction,SMDPad,CuDef*%
%ADD31RoundRect,0.237500X-0.300000X-0.237500X0.300000X-0.237500X0.300000X0.237500X-0.300000X0.237500X0*%
%TD*%
%TA.AperFunction,SMDPad,CuDef*%
%ADD32RoundRect,0.237500X-0.237500X0.300000X-0.237500X-0.300000X0.237500X-0.300000X0.237500X0.300000X0*%
%TD*%
%TA.AperFunction,SMDPad,CuDef*%
%ADD33RoundRect,0.150000X0.825000X0.150000X-0.825000X0.150000X-0.825000X-0.150000X0.825000X-0.150000X0*%
%TD*%
%TA.AperFunction,ViaPad*%
%ADD34C,0.600000*%
%TD*%
%TA.AperFunction,Conductor*%
%ADD35C,1.250000*%
%TD*%
%TA.AperFunction,Conductor*%
%ADD36C,1.500000*%
%TD*%
%TA.AperFunction,Conductor*%
%ADD37C,1.000000*%
%TD*%
%TA.AperFunction,Conductor*%
%ADD38C,0.750000*%
%TD*%
G04 APERTURE END LIST*
D10*
%TO.P,GND,1,Pin_1*%
%TO.N,GND*%
X182372000Y-76835000D03*
%TD*%
D11*
%TO.P,R19,1*%
%TO.N,/m8 GNDp*%
X175260000Y-75565000D03*
%TO.P,R19,2*%
%TO.N,/Vcc-*%
X175260000Y-78105000D03*
%TD*%
%TO.P,R18,2*%
%TO.N,/Vcc+*%
X171069000Y-78105000D03*
%TO.P,R18,1*%
%TO.N,/m8 Up*%
X171069000Y-75565000D03*
%TD*%
D12*
%TO.P,PS1,5,+Vout*%
%TO.N,/rakout+*%
X137406500Y-57151500D03*
%TO.P,PS1,4,-Vout*%
%TO.N,/m8 GNDp*%
X147566500Y-57151500D03*
%TO.P,PS1,2,AC(L)*%
%TO.N,Net-(PS1-AC(L))*%
X157726500Y-102871500D03*
D13*
%TO.P,PS1,1,AC(N)*%
%TO.N,Net-(PS1-AC(N))*%
X137406500Y-102871500D03*
%TD*%
D14*
%TO.P,SW1,6,C*%
%TO.N,unconnected-(SW1-C-Pad6)*%
X129032000Y-95619000D03*
%TO.P,SW1,5,B*%
%TO.N,/VACin-*%
X129032000Y-100319000D03*
%TO.P,SW1,4,A*%
%TO.N,Net-(PS1-AC(N))*%
X129032000Y-105019000D03*
%TO.P,SW1,3,C*%
%TO.N,unconnected-(SW1-C-Pad3)*%
X125222000Y-95619000D03*
%TO.P,SW1,2,B*%
%TO.N,/VACin+*%
X125222000Y-100319000D03*
%TO.P,SW1,1,A*%
%TO.N,Net-(F1-Pad1)*%
X125222000Y-105019000D03*
D15*
%TO.P,SW1,0*%
%TO.N,N/C*%
X112522000Y-102859000D03*
X112522000Y-97779000D03*
%TD*%
D16*
%TO.P,J3,1,Pin_1*%
%TO.N,/Vcc+*%
X174444000Y-93556000D03*
%TO.P,J3,2,Pin_2*%
%TO.N,/In+ Analog Input*%
X174444000Y-97092000D03*
%TO.P,J3,3,Pin_3*%
%TO.N,/Vcc-*%
X177980000Y-97092000D03*
%TO.P,J3,4,Pin_4*%
%TO.N,GND*%
X177980000Y-93556000D03*
%TO.P,J3,5,Pin_5*%
%TO.N,/cable shield*%
X176212000Y-95324000D03*
%TD*%
D17*
%TO.P,D1,1,K*%
%TO.N,/m8 Us*%
X172720000Y-57785000D03*
D18*
%TO.P,D1,2,A*%
%TO.N,/rakout+*%
X172720000Y-47625000D03*
%TD*%
D19*
%TO.P,D5,2,A*%
%TO.N,Net-(D5-A)*%
X115316000Y-49911000D03*
D20*
%TO.P,D5,1,K*%
%TO.N,Net-(D5-K)*%
X115316000Y-47371000D03*
%TD*%
D21*
%TO.P,J2,1,Pin_1*%
%TO.N,/VACin-*%
X123825000Y-61359000D03*
D22*
%TO.P,J2,2*%
%TO.N,N/C*%
X127625000Y-66439000D03*
X127625000Y-56279000D03*
X117465000Y-66439000D03*
X117465000Y-56279000D03*
%TD*%
D17*
%TO.P,D2,1,K*%
%TO.N,/m8 Up*%
X169022000Y-57785000D03*
D18*
%TO.P,D2,2,A*%
%TO.N,/rakout+*%
X169022000Y-47625000D03*
%TD*%
D23*
%TO.P,J4,6*%
%TO.N,N/C*%
X179712000Y-67574000D03*
%TO.P,J4,5*%
X179712000Y-55074000D03*
D24*
%TO.P,J4,4,Pin_4*%
%TO.N,/m8 GNDp*%
X178262000Y-62399000D03*
%TO.P,J4,3,Pin_3*%
X180212000Y-63024000D03*
%TO.P,J4,2,Pin_2*%
%TO.N,/m8 Up*%
X178262000Y-60249000D03*
%TO.P,J4,1,Pin_1*%
%TO.N,/m8 Us*%
X180212000Y-59624000D03*
%TD*%
D22*
%TO.P,J1,2*%
%TO.N,N/C*%
X117465000Y-73279000D03*
X117465000Y-83439000D03*
X127625000Y-73279000D03*
X127625000Y-83439000D03*
D21*
%TO.P,J1,1,Pin_1*%
%TO.N,/VACin+*%
X123825000Y-78359000D03*
%TD*%
D25*
%TO.P,R7,1*%
%TO.N,Net-(R3-Pad1)*%
X152400000Y-90694000D03*
%TO.P,R7,2*%
%TO.N,Net-(R6-Pad1)*%
X152400000Y-92694000D03*
%TD*%
D26*
%TO.P,R13,1*%
%TO.N,Net-(U2B-+)*%
X147574000Y-61960000D03*
%TO.P,R13,2*%
%TO.N,/m8 GNDp*%
X147574000Y-59960000D03*
%TD*%
D27*
%TO.P,R14,1*%
%TO.N,Net-(D5-K)*%
X120920000Y-47371000D03*
%TO.P,R14,2*%
%TO.N,GND*%
X122920000Y-47371000D03*
%TD*%
%TO.P,R9,1*%
%TO.N,Net-(R6-Pad1)*%
X155226000Y-93218000D03*
%TO.P,R9,2*%
%TO.N,Net-(U1--)*%
X157226000Y-93218000D03*
%TD*%
%TO.P,R8,1*%
%TO.N,Net-(R3-Pad1)*%
X155226000Y-87884000D03*
%TO.P,R8,2*%
%TO.N,Net-(U1-+)*%
X157226000Y-87884000D03*
%TD*%
D26*
%TO.P,R11,2*%
%TO.N,GND*%
X172974000Y-87646000D03*
%TO.P,R11,1*%
%TO.N,/In+ Analog Input*%
X172974000Y-89646000D03*
%TD*%
D28*
%TO.P,R3,1*%
%TO.N,Net-(R3-Pad1)*%
X152348000Y-87376000D03*
%TO.P,R3,2*%
%TO.N,Net-(R2-Pad1)*%
X149248000Y-87376000D03*
%TD*%
D27*
%TO.P,R15,1*%
%TO.N,Net-(U2A-+)*%
X151785000Y-73533000D03*
%TO.P,R15,2*%
%TO.N,/Vcc+*%
X153785000Y-73533000D03*
%TD*%
D25*
%TO.P,R10,1*%
%TO.N,Net-(R10-Pad1)*%
X160274000Y-89567000D03*
%TO.P,R10,2*%
%TO.N,Net-(R10-Pad2)*%
X160274000Y-91567000D03*
%TD*%
D28*
%TO.P,R5,1*%
%TO.N,Net-(R5-Pad1)*%
X146483000Y-96012000D03*
%TO.P,R5,2*%
%TO.N,Net-(R4-Pad1)*%
X143383000Y-96012000D03*
%TD*%
D29*
%TO.P,U1,1,-*%
%TO.N,Net-(U1--)*%
X164149000Y-92456000D03*
%TO.P,U1,2,Rg*%
%TO.N,Net-(R10-Pad2)*%
X164149000Y-91186000D03*
%TO.P,U1,3,Rg*%
%TO.N,Net-(R10-Pad1)*%
X164149000Y-89916000D03*
%TO.P,U1,4,+*%
%TO.N,Net-(U1-+)*%
X164149000Y-88646000D03*
%TO.P,U1,5,Vs-*%
%TO.N,/Vcc-*%
X169099000Y-88646000D03*
%TO.P,U1,6,Ref*%
%TO.N,GND*%
X169099000Y-89916000D03*
%TO.P,U1,7*%
%TO.N,/In+ Analog Input*%
X169099000Y-91186000D03*
%TO.P,U1,8,Vs+*%
%TO.N,/Vcc+*%
X169099000Y-92456000D03*
%TD*%
D30*
%TO.P,C2,1*%
%TO.N,GND*%
X170534500Y-86614000D03*
%TO.P,C2,2*%
%TO.N,/Vcc-*%
X168809500Y-86614000D03*
%TD*%
D26*
%TO.P,R12,1*%
%TO.N,Net-(U2B-+)*%
X137414000Y-61960000D03*
%TO.P,R12,2*%
%TO.N,/rakout+*%
X137414000Y-59960000D03*
%TD*%
D31*
%TO.P,C4,1*%
%TO.N,GND*%
X146643000Y-78867000D03*
%TO.P,C4,2*%
%TO.N,/Vcc-*%
X148368000Y-78867000D03*
%TD*%
D28*
%TO.P,R1,1*%
%TO.N,Net-(R1-Pad1)*%
X140488000Y-87376000D03*
%TO.P,R1,2*%
%TO.N,/VACin+*%
X137388000Y-87376000D03*
%TD*%
%TO.P,R6,1*%
%TO.N,Net-(R6-Pad1)*%
X152400000Y-96012000D03*
%TO.P,R6,2*%
%TO.N,Net-(R5-Pad1)*%
X149300000Y-96012000D03*
%TD*%
D27*
%TO.P,R16,1*%
%TO.N,/Vcc-*%
X151162000Y-77089000D03*
%TO.P,R16,2*%
%TO.N,Net-(U2A-+)*%
X153162000Y-77089000D03*
%TD*%
D32*
%TO.P,C3,1*%
%TO.N,GND*%
X143387000Y-68987500D03*
%TO.P,C3,2*%
%TO.N,/Vcc+*%
X143387000Y-70712500D03*
%TD*%
D28*
%TO.P,R4,1*%
%TO.N,Net-(R4-Pad1)*%
X140566000Y-96012000D03*
%TO.P,R4,2*%
%TO.N,/VACin-*%
X137466000Y-96012000D03*
%TD*%
D33*
%TO.P,U2,1*%
%TO.N,GND*%
X148303000Y-72644000D03*
%TO.P,U2,2,-*%
X148303000Y-73914000D03*
%TO.P,U2,3,+*%
%TO.N,Net-(U2A-+)*%
X148303000Y-75184000D03*
%TO.P,U2,4,V-*%
%TO.N,/Vcc-*%
X148303000Y-76454000D03*
%TO.P,U2,5,+*%
%TO.N,Net-(U2B-+)*%
X143353000Y-76454000D03*
%TO.P,U2,6,-*%
%TO.N,Net-(D5-A)*%
X143353000Y-75184000D03*
%TO.P,U2,7*%
X143353000Y-73914000D03*
%TO.P,U2,8,V+*%
%TO.N,/Vcc+*%
X143353000Y-72644000D03*
%TD*%
D28*
%TO.P,R2,1*%
%TO.N,Net-(R2-Pad1)*%
X146418000Y-87376000D03*
%TO.P,R2,2*%
%TO.N,Net-(R1-Pad1)*%
X143318000Y-87376000D03*
%TD*%
D31*
%TO.P,C1,1*%
%TO.N,GND*%
X167628000Y-94742000D03*
%TO.P,C1,2*%
%TO.N,/Vcc+*%
X169353000Y-94742000D03*
%TD*%
D34*
%TO.N,GND*%
X167767000Y-81407000D03*
X168529000Y-81407000D03*
X167005000Y-81407000D03*
%TO.N,/Vcc-*%
X168656000Y-84963000D03*
%TO.N,GND*%
X186944000Y-109982000D03*
X186944000Y-106651778D03*
X186944000Y-108316889D03*
%TO.N,/Vcc+*%
X169291000Y-93556000D03*
%TO.N,GND*%
X173101000Y-86106000D03*
X173863000Y-86106000D03*
X172339000Y-86106000D03*
X186944000Y-76733400D03*
%TO.N,/Vcc+*%
X155956000Y-73660000D03*
X141732000Y-71882000D03*
X144526000Y-71120000D03*
X170688000Y-94996000D03*
X142240000Y-71120000D03*
X170688000Y-95758000D03*
X155194000Y-73660000D03*
%TO.N,GND*%
X186944000Y-49022000D03*
X146187975Y-81280000D03*
X149674988Y-81280000D03*
X180213000Y-92075000D03*
X162483800Y-44958000D03*
X164592000Y-111760000D03*
X132149850Y-44958000D03*
X137502900Y-44958000D03*
X162306000Y-85344000D03*
X141071600Y-44958000D03*
X137426543Y-74280889D03*
X173189900Y-44958000D03*
X144444469Y-81280000D03*
X183896000Y-44958000D03*
X143387000Y-67310000D03*
X130365500Y-44958000D03*
X163322000Y-96661111D03*
X149993350Y-44958000D03*
X137445358Y-79530222D03*
X186944000Y-71755000D03*
X171196000Y-88900000D03*
X137432815Y-77780444D03*
X186944000Y-45974000D03*
X163322000Y-108316889D03*
X186944000Y-84201000D03*
X167836850Y-44958000D03*
X171405550Y-44958000D03*
X178471286Y-111760000D03*
X112522000Y-44958000D03*
X116433600Y-52832000D03*
X155346400Y-44958000D03*
X163322000Y-106651778D03*
X144640300Y-44958000D03*
X151777700Y-44958000D03*
X180327300Y-44958000D03*
X153562050Y-44958000D03*
X123228100Y-44958000D03*
X186944000Y-74244200D03*
X114306350Y-44958000D03*
X117875050Y-44958000D03*
X137439086Y-70781333D03*
X125012450Y-44958000D03*
X163322000Y-109982000D03*
X186944000Y-79222600D03*
X163322000Y-98326222D03*
X166052500Y-44958000D03*
X175387000Y-111760000D03*
X162306000Y-84582000D03*
X151418494Y-81280000D03*
X137414000Y-67281778D03*
X142700963Y-81280000D03*
X137470444Y-81280000D03*
X172302714Y-111760000D03*
X186944000Y-72999600D03*
X126796800Y-44958000D03*
X126212600Y-52832000D03*
X186944000Y-50546000D03*
X164268150Y-44958000D03*
X186944000Y-82956400D03*
X178542950Y-44958000D03*
X167676286Y-111760000D03*
X146424650Y-44958000D03*
X180213000Y-93599000D03*
X139287250Y-44958000D03*
X162306000Y-86106000D03*
X163322000Y-99991333D03*
X177165000Y-91059000D03*
X133934200Y-44958000D03*
X163322000Y-101656444D03*
X158915100Y-44958000D03*
X119659400Y-44958000D03*
X174974250Y-44958000D03*
X160699450Y-44958000D03*
X128168400Y-52832000D03*
X135718550Y-44958000D03*
X173844857Y-111760000D03*
X137457901Y-76030667D03*
X163322000Y-94996000D03*
X186944000Y-81711800D03*
X130124200Y-52832000D03*
X137420272Y-69031556D03*
X171196000Y-89662000D03*
X118389400Y-52832000D03*
X169218429Y-111760000D03*
X182111650Y-44958000D03*
X163322000Y-104986667D03*
X186944000Y-80467200D03*
X153162000Y-81280000D03*
X166134143Y-111760000D03*
X178689000Y-91059000D03*
X176758600Y-44958000D03*
X157130750Y-44958000D03*
X169621200Y-44958000D03*
X171196000Y-88138000D03*
X170760571Y-111760000D03*
X144149000Y-67310000D03*
X176929143Y-111760000D03*
X124256800Y-52832000D03*
X148209000Y-44958000D03*
X137451629Y-72531111D03*
X121443750Y-44958000D03*
X142625000Y-67310000D03*
X128581150Y-44958000D03*
X181555571Y-111760000D03*
X122301000Y-52832000D03*
X120345200Y-52832000D03*
X186944000Y-77978000D03*
X140957456Y-81280000D03*
X186182000Y-111760000D03*
X112522000Y-52832000D03*
X163322000Y-103321556D03*
X186944000Y-75488800D03*
X116090700Y-44958000D03*
X132080000Y-52832000D03*
X186944000Y-47498000D03*
X147931481Y-81280000D03*
X139213950Y-81280000D03*
X142855950Y-44958000D03*
X177927000Y-91059000D03*
X114477800Y-52832000D03*
X180013429Y-111760000D03*
X183097714Y-111760000D03*
X184639857Y-111760000D03*
X137464172Y-65532000D03*
X180213000Y-92837000D03*
%TO.N,/Vcc-*%
X151638000Y-78740000D03*
X166116000Y-87376000D03*
X150245000Y-78740000D03*
X150941500Y-78740000D03*
X166116000Y-86614000D03*
%TO.N,Net-(D5-A)*%
X145796000Y-67310000D03*
%TD*%
D35*
%TO.N,Net-(R4-Pad1)*%
X143383000Y-96012000D02*
X140566000Y-96012000D01*
%TO.N,Net-(R5-Pad1)*%
X149300000Y-96012000D02*
X146483000Y-96012000D01*
%TO.N,Net-(R2-Pad1)*%
X146418000Y-87376000D02*
X149248000Y-87376000D01*
%TO.N,Net-(R1-Pad1)*%
X140488000Y-87376000D02*
X143318000Y-87376000D01*
D36*
%TO.N,/VACin+*%
X137388000Y-87376000D02*
X134874000Y-87376000D01*
%TO.N,/VACin-*%
X137466000Y-96012000D02*
X134366000Y-96012000D01*
X134366000Y-96012000D02*
X130059000Y-100319000D01*
X130059000Y-100319000D02*
X129032000Y-100319000D01*
D37*
%TO.N,/m8 GNDp*%
X178262000Y-62399000D02*
X167682000Y-62399000D01*
X167682000Y-62399000D02*
X162434500Y-57151500D01*
X162434500Y-57151500D02*
X147566500Y-57151500D01*
X180212000Y-63024000D02*
X178887000Y-63024000D01*
X178887000Y-63024000D02*
X178262000Y-62399000D01*
%TO.N,/m8 Up*%
X169022000Y-57785000D02*
X169022000Y-59294000D01*
X169022000Y-59294000D02*
X169977000Y-60249000D01*
X169977000Y-60249000D02*
X178262000Y-60249000D01*
%TO.N,/m8 Us*%
X179008000Y-58420000D02*
X178181000Y-58420000D01*
X178181000Y-58420000D02*
X177546000Y-57785000D01*
X180212000Y-59624000D02*
X179008000Y-58420000D01*
X177546000Y-57785000D02*
X172720000Y-57785000D01*
%TO.N,/rakout+*%
X137406500Y-57151500D02*
X146933000Y-47625000D01*
X146933000Y-47625000D02*
X169022000Y-47625000D01*
D36*
%TO.N,/VACin+*%
X123776000Y-87073000D02*
X123825000Y-87024000D01*
X123825000Y-87024000D02*
X123825000Y-78359000D01*
D38*
%TO.N,/In+ Analog Input*%
X174444000Y-96842000D02*
X171704000Y-94102000D01*
X171704000Y-94102000D02*
X171704000Y-91186000D01*
X169099000Y-91186000D02*
X171704000Y-91186000D01*
X171704000Y-91186000D02*
X172974000Y-89916000D01*
X172974000Y-89916000D02*
X172974000Y-89646000D01*
%TO.N,Net-(D5-K)*%
X120920000Y-47371000D02*
X115316000Y-47371000D01*
D36*
%TO.N,/VACin+*%
X125349000Y-88646000D02*
X123776000Y-87073000D01*
X134874000Y-87376000D02*
X133604000Y-88646000D01*
X133604000Y-88646000D02*
X125349000Y-88646000D01*
D38*
%TO.N,/Vcc+*%
X143387000Y-70712500D02*
X143387000Y-72610000D01*
X155579000Y-73660000D02*
X153912000Y-73660000D01*
X143387000Y-72610000D02*
X143353000Y-72644000D01*
X155579000Y-73660000D02*
X156210000Y-73660000D01*
X153912000Y-73660000D02*
X153785000Y-73533000D01*
%TO.N,/Vcc-*%
X148303000Y-78802000D02*
X148368000Y-78867000D01*
%TO.N,/rakout+*%
X137414000Y-59960000D02*
X137414000Y-57159000D01*
X137414000Y-57159000D02*
X137406500Y-57151500D01*
%TO.N,/m8 GNDp*%
X147574000Y-59960000D02*
X147574000Y-57159000D01*
X147574000Y-57159000D02*
X147566500Y-57151500D01*
%TO.N,Net-(D5-A)*%
X145796000Y-73406000D02*
X145796000Y-67310000D01*
X143353000Y-73914000D02*
X145288000Y-73914000D01*
X143353000Y-75184000D02*
X142117000Y-75184000D01*
X142117000Y-73914000D02*
X142117000Y-75184000D01*
X143353000Y-73914000D02*
X142117000Y-73914000D01*
X145288000Y-73914000D02*
X145796000Y-73406000D01*
D37*
%TO.N,Net-(R3-Pad1)*%
X152400000Y-87428000D02*
X152348000Y-87376000D01*
X155226000Y-87884000D02*
X152400000Y-87884000D01*
X152400000Y-90694000D02*
X152400000Y-87428000D01*
%TO.N,Net-(R6-Pad1)*%
X155226000Y-93218000D02*
X152400000Y-93218000D01*
X152400000Y-96012000D02*
X152400000Y-92694000D01*
D38*
%TO.N,Net-(U1-+)*%
X164149000Y-88646000D02*
X162814000Y-88646000D01*
X162814000Y-88646000D02*
X162052000Y-87884000D01*
X162052000Y-87884000D02*
X157226000Y-87884000D01*
%TO.N,Net-(R10-Pad2)*%
X164149000Y-91186000D02*
X162306000Y-91186000D01*
X161925000Y-91567000D02*
X160274000Y-91567000D01*
X162306000Y-91186000D02*
X161925000Y-91567000D01*
%TO.N,Net-(R10-Pad1)*%
X162306000Y-89916000D02*
X161957000Y-89567000D01*
X164149000Y-89916000D02*
X162306000Y-89916000D01*
X161957000Y-89567000D02*
X160274000Y-89567000D01*
%TO.N,Net-(U1--)*%
X164149000Y-92456000D02*
X163068000Y-92456000D01*
X163068000Y-92456000D02*
X162306000Y-93218000D01*
X162306000Y-93218000D02*
X157226000Y-93218000D01*
%TO.N,Net-(U2B-+)*%
X141355000Y-69342000D02*
X141355000Y-62091000D01*
X140847000Y-76454000D02*
X139831000Y-75438000D01*
X139831000Y-75438000D02*
X139831000Y-70866000D01*
X141355000Y-62091000D02*
X141224000Y-61960000D01*
X137414000Y-61960000D02*
X141224000Y-61960000D01*
X143353000Y-76454000D02*
X140847000Y-76454000D01*
X139831000Y-70866000D02*
X141355000Y-69342000D01*
X141224000Y-61960000D02*
X141732000Y-61960000D01*
X141732000Y-61960000D02*
X147574000Y-61960000D01*
%TO.N,Net-(U2A-+)*%
X151785000Y-73533000D02*
X151785000Y-74946000D01*
X148303000Y-75184000D02*
X151261000Y-75184000D01*
X151261000Y-75184000D02*
X152023000Y-75184000D01*
X153162000Y-77089000D02*
X153162000Y-75815000D01*
X151785000Y-74946000D02*
X152023000Y-75184000D01*
X153162000Y-75815000D02*
X152531000Y-75184000D01*
X152531000Y-75184000D02*
X152023000Y-75184000D01*
%TD*%
%TA.AperFunction,Conductor*%
%TO.N,GND*%
G36*
X185707103Y-43945625D02*
G01*
X185978797Y-43964625D01*
X185996320Y-43967118D01*
X186258197Y-44023694D01*
X186275182Y-44028656D01*
X186526319Y-44121960D01*
X186542435Y-44129296D01*
X186777713Y-44257424D01*
X186792615Y-44266978D01*
X187007246Y-44427321D01*
X187020632Y-44438899D01*
X187210230Y-44628182D01*
X187221838Y-44641559D01*
X187382532Y-44855919D01*
X187392116Y-44870812D01*
X187520628Y-45105870D01*
X187527992Y-45121977D01*
X187621710Y-45372957D01*
X187626705Y-45389948D01*
X187683711Y-45651712D01*
X187686234Y-45669243D01*
X187705683Y-45940886D01*
X187706000Y-45949741D01*
X187706000Y-110771572D01*
X187705684Y-110780418D01*
X187686275Y-111051785D01*
X187683757Y-111069297D01*
X187626872Y-111330794D01*
X187621888Y-111347770D01*
X187528361Y-111598524D01*
X187521011Y-111614617D01*
X187392758Y-111849496D01*
X187383193Y-111864380D01*
X187222811Y-112078624D01*
X187211225Y-112091994D01*
X187021994Y-112281225D01*
X187008624Y-112292811D01*
X186794380Y-112453193D01*
X186779496Y-112462758D01*
X186544617Y-112591011D01*
X186528524Y-112598361D01*
X186277770Y-112691888D01*
X186260794Y-112696872D01*
X185999297Y-112753757D01*
X185981785Y-112756275D01*
X185710418Y-112775684D01*
X185701572Y-112776000D01*
X164303076Y-112776000D01*
X164294252Y-112775686D01*
X164203674Y-112769223D01*
X164023503Y-112756367D01*
X164006032Y-112753860D01*
X163745122Y-112697240D01*
X163728182Y-112692279D01*
X163477939Y-112599181D01*
X163461877Y-112591865D01*
X163227394Y-112464184D01*
X163212532Y-112454661D01*
X162998550Y-112294978D01*
X162985191Y-112283441D01*
X162796051Y-112094996D01*
X162784466Y-112081680D01*
X162624002Y-111868295D01*
X162614424Y-111853469D01*
X162612242Y-111849496D01*
X162485873Y-111619441D01*
X162478506Y-111603422D01*
X162384483Y-111353512D01*
X162379466Y-111336615D01*
X162321878Y-111075880D01*
X162319311Y-111058436D01*
X162298995Y-110787747D01*
X162298649Y-110778962D01*
X162268999Y-102723616D01*
X174936500Y-102723616D01*
X174936500Y-102924384D01*
X174941175Y-102953902D01*
X174967907Y-103122680D01*
X175029949Y-103313626D01*
X175083784Y-103419281D01*
X175121095Y-103492508D01*
X175239103Y-103654932D01*
X175381068Y-103796897D01*
X175543492Y-103914905D01*
X175628007Y-103957967D01*
X175722373Y-104006050D01*
X175722375Y-104006050D01*
X175722378Y-104006052D01*
X175913320Y-104068093D01*
X176111616Y-104099500D01*
X176111617Y-104099500D01*
X176312383Y-104099500D01*
X176312384Y-104099500D01*
X176510680Y-104068093D01*
X176701622Y-104006052D01*
X176880508Y-103914905D01*
X177042932Y-103796897D01*
X177184897Y-103654932D01*
X177302905Y-103492508D01*
X177394052Y-103313622D01*
X177456093Y-103122680D01*
X177487500Y-102924384D01*
X177487500Y-102723616D01*
X177482825Y-102694097D01*
X178561500Y-102694097D01*
X178561500Y-102953902D01*
X178602140Y-103210493D01*
X178682422Y-103457576D01*
X178763534Y-103616764D01*
X178782982Y-103654934D01*
X178800368Y-103689054D01*
X178894252Y-103818274D01*
X178953069Y-103899229D01*
X179136771Y-104082931D01*
X179346949Y-104235634D01*
X179450602Y-104288448D01*
X179578423Y-104353577D01*
X179578425Y-104353577D01*
X179578428Y-104353579D01*
X179825507Y-104433860D01*
X179957706Y-104454797D01*
X180082098Y-104474500D01*
X180082103Y-104474500D01*
X180341902Y-104474500D01*
X180455298Y-104456539D01*
X180598493Y-104433860D01*
X180845572Y-104353579D01*
X181077051Y-104235634D01*
X181287229Y-104082931D01*
X181470931Y-103899229D01*
X181623634Y-103689051D01*
X181741579Y-103457572D01*
X181821860Y-103210493D01*
X181856763Y-102990120D01*
X181862500Y-102953902D01*
X181862500Y-102694097D01*
X181826671Y-102467884D01*
X181821860Y-102437507D01*
X181741579Y-102190428D01*
X181741577Y-102190425D01*
X181741577Y-102190423D01*
X181690153Y-102089500D01*
X181623634Y-101958949D01*
X181470931Y-101748771D01*
X181287229Y-101565069D01*
X181250948Y-101538709D01*
X181077054Y-101412368D01*
X181077053Y-101412367D01*
X181077051Y-101412366D01*
X181004764Y-101375534D01*
X180845576Y-101294422D01*
X180598493Y-101214140D01*
X180341902Y-101173500D01*
X180341897Y-101173500D01*
X180082103Y-101173500D01*
X180082098Y-101173500D01*
X179825506Y-101214140D01*
X179578423Y-101294422D01*
X179346945Y-101412368D01*
X179136774Y-101565066D01*
X179136768Y-101565071D01*
X178953071Y-101748768D01*
X178953066Y-101748774D01*
X178800368Y-101958945D01*
X178682422Y-102190423D01*
X178602140Y-102437506D01*
X178561500Y-102694097D01*
X177482825Y-102694097D01*
X177456093Y-102525320D01*
X177394052Y-102334378D01*
X177394050Y-102334375D01*
X177394050Y-102334373D01*
X177333012Y-102214581D01*
X177302905Y-102155492D01*
X177184897Y-101993068D01*
X177042932Y-101851103D01*
X176880508Y-101733095D01*
X176701626Y-101641949D01*
X176510680Y-101579907D01*
X176417009Y-101565071D01*
X176312384Y-101548500D01*
X176111616Y-101548500D01*
X176013646Y-101564017D01*
X175913319Y-101579907D01*
X175722373Y-101641949D01*
X175543491Y-101733095D01*
X175459284Y-101794276D01*
X175381068Y-101851103D01*
X175381066Y-101851105D01*
X175381065Y-101851105D01*
X175239105Y-101993065D01*
X175239105Y-101993066D01*
X175239103Y-101993068D01*
X175234694Y-101999137D01*
X175121095Y-102155491D01*
X175029949Y-102334373D01*
X174996439Y-102437507D01*
X174967907Y-102525320D01*
X174936500Y-102723616D01*
X162268999Y-102723616D01*
X162240676Y-95028654D01*
X166590501Y-95028654D01*
X166600819Y-95129652D01*
X166655046Y-95293300D01*
X166655051Y-95293311D01*
X166745552Y-95440034D01*
X166745555Y-95440038D01*
X166867461Y-95561944D01*
X166867465Y-95561947D01*
X167014188Y-95652448D01*
X167014199Y-95652453D01*
X167177847Y-95706680D01*
X167278851Y-95716999D01*
X167378000Y-95716998D01*
X167378000Y-94992000D01*
X166590501Y-94992000D01*
X166590501Y-95028654D01*
X162240676Y-95028654D01*
X162238566Y-94455345D01*
X166590500Y-94455345D01*
X166590500Y-94492000D01*
X167504000Y-94492000D01*
X167571039Y-94511685D01*
X167616794Y-94564489D01*
X167628000Y-94616000D01*
X167628000Y-94742000D01*
X167754000Y-94742000D01*
X167821039Y-94761685D01*
X167866794Y-94814489D01*
X167878000Y-94866000D01*
X167878000Y-95716999D01*
X167977140Y-95716999D01*
X167977154Y-95716998D01*
X168078152Y-95706680D01*
X168241807Y-95652451D01*
X168300810Y-95616056D01*
X168368202Y-95597614D01*
X168434866Y-95618535D01*
X168446603Y-95627442D01*
X169824737Y-96808700D01*
X169851662Y-96830231D01*
X169865217Y-96840332D01*
X169893549Y-96859978D01*
X170009842Y-96934879D01*
X170020770Y-96941917D01*
X170081103Y-96975189D01*
X170081111Y-96975192D01*
X170081117Y-96975196D01*
X170111695Y-96989433D01*
X170111699Y-96989434D01*
X170111700Y-96989435D01*
X170111719Y-96989443D01*
X170175993Y-97014190D01*
X170175993Y-97014191D01*
X170312417Y-97056291D01*
X170366609Y-97069043D01*
X170379485Y-97072073D01*
X170412769Y-97077544D01*
X170481382Y-97084061D01*
X170624101Y-97087839D01*
X170692959Y-97084962D01*
X170726485Y-97081260D01*
X170794302Y-97069046D01*
X170932754Y-97034224D01*
X170994320Y-97014190D01*
X170998257Y-97012909D01*
X170998269Y-97012904D01*
X170998284Y-97012900D01*
X170998288Y-97012898D01*
X170998292Y-97012897D01*
X171009157Y-97008521D01*
X171029573Y-97000300D01*
X171091594Y-96970260D01*
X171222968Y-96895169D01*
X171252313Y-96877040D01*
X171266383Y-96867670D01*
X171294398Y-96847602D01*
X172213754Y-96140403D01*
X172269908Y-96083134D01*
X172330897Y-96049050D01*
X172400635Y-96053349D01*
X172446126Y-96082270D01*
X172976974Y-96613118D01*
X173010459Y-96674441D01*
X173007227Y-96739108D01*
X173004832Y-96746478D01*
X173004831Y-96746485D01*
X172968500Y-96975870D01*
X172968500Y-97208129D01*
X173004831Y-97437514D01*
X173076601Y-97658400D01*
X173182039Y-97865331D01*
X173318551Y-98053224D01*
X173482776Y-98217449D01*
X173670669Y-98353961D01*
X173768436Y-98403776D01*
X173877599Y-98459398D01*
X173877601Y-98459398D01*
X173877604Y-98459400D01*
X174098486Y-98531169D01*
X174207912Y-98548500D01*
X174327871Y-98567500D01*
X174327876Y-98567500D01*
X174560129Y-98567500D01*
X174661502Y-98551443D01*
X174789514Y-98531169D01*
X175010396Y-98459400D01*
X175217331Y-98353961D01*
X175405224Y-98217449D01*
X175569449Y-98053224D01*
X175705961Y-97865331D01*
X175811400Y-97658396D01*
X175883169Y-97437514D01*
X175916081Y-97229712D01*
X175919500Y-97208129D01*
X175919500Y-96975871D01*
X175913007Y-96934879D01*
X175921961Y-96865585D01*
X175966957Y-96812133D01*
X176033708Y-96791493D01*
X176054879Y-96793007D01*
X176095872Y-96799500D01*
X176095876Y-96799500D01*
X176328128Y-96799500D01*
X176369120Y-96793007D01*
X176438413Y-96801961D01*
X176491866Y-96846957D01*
X176512506Y-96913708D01*
X176510993Y-96934876D01*
X176504500Y-96975875D01*
X176504500Y-97208129D01*
X176540831Y-97437514D01*
X176612601Y-97658400D01*
X176718039Y-97865331D01*
X176854551Y-98053224D01*
X177018776Y-98217449D01*
X177206669Y-98353961D01*
X177304436Y-98403776D01*
X177413599Y-98459398D01*
X177413601Y-98459398D01*
X177413604Y-98459400D01*
X177634486Y-98531169D01*
X177743912Y-98548500D01*
X177863871Y-98567500D01*
X177863876Y-98567500D01*
X178096129Y-98567500D01*
X178197502Y-98551443D01*
X178325514Y-98531169D01*
X178546396Y-98459400D01*
X178753331Y-98353961D01*
X178941224Y-98217449D01*
X179105449Y-98053224D01*
X179241961Y-97865331D01*
X179347400Y-97658396D01*
X179419169Y-97437514D01*
X179452081Y-97229712D01*
X179455500Y-97208129D01*
X179455500Y-96975870D01*
X179434031Y-96840325D01*
X179419169Y-96746486D01*
X179347400Y-96525604D01*
X179347398Y-96525601D01*
X179347398Y-96525599D01*
X179241960Y-96318668D01*
X179207849Y-96271718D01*
X179105449Y-96130776D01*
X178941224Y-95966551D01*
X178753331Y-95830039D01*
X178546400Y-95724601D01*
X178325514Y-95652831D01*
X178096129Y-95616500D01*
X178096124Y-95616500D01*
X177863876Y-95616500D01*
X177863875Y-95616500D01*
X177822876Y-95622993D01*
X177753583Y-95614037D01*
X177700131Y-95569040D01*
X177679493Y-95502288D01*
X177681007Y-95481120D01*
X177687500Y-95440128D01*
X177687500Y-95207870D01*
X177680925Y-95166358D01*
X177689880Y-95097065D01*
X177734876Y-95043613D01*
X177801627Y-95022973D01*
X177822797Y-95024487D01*
X177863917Y-95031000D01*
X178096090Y-95031000D01*
X178325393Y-94994681D01*
X178546205Y-94922934D01*
X178753071Y-94817530D01*
X178831207Y-94760762D01*
X178831208Y-94760760D01*
X178227488Y-94157041D01*
X178287890Y-94132022D01*
X178394351Y-94060888D01*
X178484888Y-93970351D01*
X178556022Y-93863890D01*
X178581041Y-93803489D01*
X179184760Y-94407208D01*
X179184762Y-94407207D01*
X179241530Y-94329071D01*
X179346934Y-94122205D01*
X179418681Y-93901393D01*
X179455000Y-93672090D01*
X179455000Y-93439909D01*
X179418681Y-93210606D01*
X179346934Y-92989794D01*
X179241534Y-92782935D01*
X179184760Y-92704791D01*
X179184759Y-92704791D01*
X178581041Y-93308510D01*
X178556022Y-93248110D01*
X178484888Y-93141649D01*
X178394351Y-93051112D01*
X178287890Y-92979978D01*
X178227487Y-92954957D01*
X178831207Y-92351238D01*
X178753064Y-92294465D01*
X178546205Y-92189065D01*
X178325393Y-92117318D01*
X178096090Y-92081000D01*
X177863910Y-92081000D01*
X177634606Y-92117318D01*
X177413794Y-92189065D01*
X177206925Y-92294470D01*
X177128791Y-92351237D01*
X177128791Y-92351238D01*
X177732511Y-92954958D01*
X177672110Y-92979978D01*
X177565649Y-93051112D01*
X177475112Y-93141649D01*
X177403978Y-93248110D01*
X177378958Y-93308511D01*
X176775238Y-92704791D01*
X176775237Y-92704791D01*
X176718470Y-92782925D01*
X176613065Y-92989794D01*
X176541318Y-93210606D01*
X176505000Y-93439909D01*
X176505000Y-93672086D01*
X176511512Y-93713205D01*
X176502556Y-93782498D01*
X176457559Y-93835949D01*
X176390807Y-93856588D01*
X176369642Y-93855075D01*
X176328125Y-93848500D01*
X176328124Y-93848500D01*
X176095876Y-93848500D01*
X176095875Y-93848500D01*
X176054876Y-93854993D01*
X175985583Y-93846037D01*
X175932131Y-93801040D01*
X175911493Y-93734288D01*
X175913007Y-93713120D01*
X175919500Y-93672128D01*
X175919500Y-93439871D01*
X175894027Y-93279042D01*
X175892500Y-93259644D01*
X175892500Y-92606140D01*
X175892500Y-92606125D01*
X175891417Y-92573060D01*
X175890356Y-92556874D01*
X175887114Y-92523956D01*
X175868157Y-92379968D01*
X175855257Y-92315117D01*
X175846879Y-92283850D01*
X175825625Y-92221238D01*
X175773185Y-92094636D01*
X175743942Y-92035335D01*
X175743935Y-92035323D01*
X175743934Y-92035320D01*
X175727764Y-92007314D01*
X175727757Y-92007301D01*
X175715225Y-91988547D01*
X175691018Y-91952318D01*
X175654045Y-91904135D01*
X175607595Y-91843600D01*
X175607587Y-91843591D01*
X175563994Y-91793884D01*
X175563989Y-91793879D01*
X175563982Y-91793871D01*
X175541118Y-91771007D01*
X175491411Y-91727414D01*
X175491400Y-91727405D01*
X175382684Y-91643982D01*
X175327699Y-91607243D01*
X175327679Y-91607231D01*
X175299671Y-91591061D01*
X175299670Y-91591060D01*
X175299664Y-91591057D01*
X175240363Y-91561814D01*
X175240364Y-91561814D01*
X175240351Y-91561808D01*
X175240345Y-91561806D01*
X175113774Y-91509379D01*
X175113752Y-91509371D01*
X175051154Y-91488121D01*
X175051140Y-91488117D01*
X175019892Y-91479744D01*
X175019880Y-91479741D01*
X174955030Y-91466841D01*
X174955025Y-91466840D01*
X174811042Y-91447885D01*
X174778141Y-91444645D01*
X174778126Y-91444644D01*
X174761941Y-91443583D01*
X174728874Y-91442500D01*
X172985005Y-91442500D01*
X172917966Y-91422815D01*
X172872211Y-91370011D01*
X172862267Y-91300853D01*
X172891292Y-91237297D01*
X172897324Y-91230819D01*
X173345325Y-90782818D01*
X173406648Y-90749333D01*
X173433006Y-90746499D01*
X173474002Y-90746499D01*
X173474008Y-90746499D01*
X173576797Y-90735999D01*
X173743334Y-90680814D01*
X173892656Y-90588712D01*
X174016712Y-90464656D01*
X174108814Y-90315334D01*
X174163999Y-90148797D01*
X174174500Y-90046009D01*
X174174499Y-89245992D01*
X174163999Y-89143203D01*
X174108814Y-88976666D01*
X174016712Y-88827344D01*
X173922695Y-88733327D01*
X173889210Y-88672004D01*
X173894194Y-88602312D01*
X173922695Y-88557964D01*
X174016317Y-88464342D01*
X174108356Y-88315124D01*
X174108358Y-88315119D01*
X174163505Y-88148697D01*
X174163506Y-88148690D01*
X174173999Y-88045986D01*
X174174000Y-88045973D01*
X174174000Y-87896000D01*
X171774001Y-87896000D01*
X171774001Y-88045986D01*
X171784494Y-88148697D01*
X171839641Y-88315119D01*
X171839643Y-88315124D01*
X171931684Y-88464345D01*
X172025304Y-88557965D01*
X172058789Y-88619288D01*
X172053805Y-88688980D01*
X172025305Y-88733327D01*
X171931287Y-88827345D01*
X171839187Y-88976663D01*
X171839185Y-88976668D01*
X171812767Y-89056393D01*
X171784001Y-89143203D01*
X171784001Y-89143204D01*
X171784000Y-89143204D01*
X171773500Y-89245983D01*
X171773500Y-89826993D01*
X171753815Y-89894032D01*
X171737181Y-89914674D01*
X171377675Y-90274181D01*
X171316352Y-90307666D01*
X171289994Y-90310500D01*
X170693862Y-90310500D01*
X170626823Y-90290815D01*
X170581068Y-90238011D01*
X170571996Y-90174917D01*
X170570603Y-90174808D01*
X170571295Y-90166000D01*
X167626705Y-90166000D01*
X167626704Y-90166001D01*
X167626899Y-90168486D01*
X167672718Y-90326198D01*
X167756314Y-90467552D01*
X167761100Y-90473722D01*
X167758640Y-90475629D01*
X167785210Y-90524288D01*
X167780226Y-90593980D01*
X167759162Y-90626781D01*
X167760699Y-90627974D01*
X167755915Y-90634140D01*
X167672255Y-90775603D01*
X167672254Y-90775606D01*
X167626402Y-90933426D01*
X167626401Y-90933432D01*
X167623500Y-90970298D01*
X167623500Y-91401701D01*
X167626401Y-91438567D01*
X167626402Y-91438573D01*
X167672254Y-91596393D01*
X167672255Y-91596396D01*
X167714298Y-91667487D01*
X167731481Y-91735211D01*
X167709321Y-91801474D01*
X167700796Y-91812365D01*
X167673411Y-91843591D01*
X167589966Y-91952338D01*
X167553256Y-92007280D01*
X167553231Y-92007319D01*
X167537063Y-92035323D01*
X167507812Y-92094639D01*
X167455375Y-92221235D01*
X167455371Y-92221246D01*
X167434118Y-92283853D01*
X167425738Y-92315131D01*
X167412840Y-92379979D01*
X167393885Y-92523956D01*
X167390645Y-92556857D01*
X167389583Y-92573058D01*
X167388500Y-92606139D01*
X167388500Y-93643821D01*
X167368815Y-93710860D01*
X167316011Y-93756615D01*
X167277103Y-93767179D01*
X167177847Y-93777319D01*
X167014199Y-93831546D01*
X167014188Y-93831551D01*
X166867465Y-93922052D01*
X166867461Y-93922055D01*
X166745555Y-94043961D01*
X166745552Y-94043965D01*
X166655051Y-94190688D01*
X166655046Y-94190699D01*
X166600819Y-94354347D01*
X166590500Y-94455345D01*
X162238566Y-94455345D01*
X162237692Y-94217955D01*
X162257129Y-94150845D01*
X162309765Y-94104896D01*
X162361691Y-94093500D01*
X162392231Y-94093500D01*
X162392232Y-94093499D01*
X162561374Y-94059855D01*
X162720705Y-93993858D01*
X162864099Y-93898045D01*
X163394325Y-93367819D01*
X163455648Y-93334334D01*
X163482006Y-93331500D01*
X164235231Y-93331500D01*
X164235232Y-93331499D01*
X164404374Y-93297855D01*
X164481426Y-93265938D01*
X164528879Y-93256500D01*
X165039686Y-93256500D01*
X165039694Y-93256500D01*
X165076569Y-93253598D01*
X165076571Y-93253597D01*
X165076573Y-93253597D01*
X165118191Y-93241505D01*
X165234398Y-93207744D01*
X165375865Y-93124081D01*
X165492081Y-93007865D01*
X165575744Y-92866398D01*
X165621598Y-92708569D01*
X165624500Y-92671694D01*
X165624500Y-92240306D01*
X165621598Y-92203431D01*
X165618045Y-92191203D01*
X165575745Y-92045606D01*
X165575744Y-92045603D01*
X165575744Y-92045602D01*
X165492081Y-91904135D01*
X165492078Y-91904132D01*
X165487298Y-91897969D01*
X165489750Y-91896066D01*
X165463155Y-91847421D01*
X165468104Y-91777726D01*
X165488940Y-91745304D01*
X165487298Y-91744031D01*
X165492075Y-91737870D01*
X165492081Y-91737865D01*
X165575744Y-91596398D01*
X165613384Y-91466840D01*
X165621597Y-91438573D01*
X165621598Y-91438567D01*
X165624499Y-91401701D01*
X165624500Y-91401694D01*
X165624500Y-90970306D01*
X165621598Y-90933431D01*
X165611207Y-90897666D01*
X165575745Y-90775606D01*
X165575744Y-90775603D01*
X165575744Y-90775602D01*
X165492081Y-90634135D01*
X165492078Y-90634132D01*
X165487298Y-90627969D01*
X165489750Y-90626066D01*
X165463155Y-90577421D01*
X165468104Y-90507726D01*
X165488940Y-90475304D01*
X165487298Y-90474031D01*
X165492075Y-90467870D01*
X165492081Y-90467865D01*
X165575744Y-90326398D01*
X165619754Y-90174917D01*
X165621597Y-90168573D01*
X165621598Y-90168567D01*
X165624500Y-90131694D01*
X165624500Y-89700306D01*
X165621598Y-89663431D01*
X165619575Y-89656469D01*
X165586981Y-89544279D01*
X165587180Y-89474410D01*
X165625122Y-89415740D01*
X165688760Y-89386896D01*
X165757890Y-89397037D01*
X165774945Y-89406579D01*
X165782364Y-89411537D01*
X165782368Y-89411539D01*
X165782369Y-89411540D01*
X165782370Y-89411541D01*
X165824907Y-89437036D01*
X165824915Y-89437041D01*
X165976229Y-89517920D01*
X165976233Y-89517922D01*
X165976252Y-89517932D01*
X166021086Y-89539138D01*
X166043544Y-89548441D01*
X166090263Y-89565158D01*
X166254486Y-89614974D01*
X166302611Y-89627028D01*
X166326452Y-89631770D01*
X166375516Y-89639048D01*
X166552390Y-89656469D01*
X166577139Y-89658294D01*
X166589293Y-89658891D01*
X166614093Y-89659500D01*
X166614110Y-89659500D01*
X167566457Y-89659500D01*
X167588593Y-89666000D01*
X170571295Y-89666000D01*
X170571295Y-89665998D01*
X170571100Y-89663513D01*
X170525281Y-89505801D01*
X170441685Y-89364447D01*
X170436900Y-89358278D01*
X170439366Y-89356364D01*
X170412802Y-89307776D01*
X170417749Y-89238082D01*
X170438856Y-89205232D01*
X170437301Y-89204026D01*
X170442077Y-89197868D01*
X170442081Y-89197865D01*
X170525744Y-89056398D01*
X170571406Y-88899229D01*
X170571597Y-88898573D01*
X170571598Y-88898567D01*
X170574499Y-88861701D01*
X170574500Y-88861694D01*
X170574500Y-88430306D01*
X170571598Y-88393431D01*
X170550361Y-88320334D01*
X170523568Y-88228111D01*
X170526175Y-88227353D01*
X170519258Y-88186407D01*
X170518719Y-88186381D01*
X170518794Y-88184861D01*
X170519391Y-88172707D01*
X170520000Y-88147907D01*
X170520000Y-87723616D01*
X174936500Y-87723616D01*
X174936500Y-87924384D01*
X174941175Y-87953902D01*
X174967907Y-88122680D01*
X175029949Y-88313626D01*
X175070613Y-88393432D01*
X175121095Y-88492508D01*
X175239103Y-88654932D01*
X175381068Y-88796897D01*
X175543492Y-88914905D01*
X175566665Y-88926712D01*
X175722373Y-89006050D01*
X175722375Y-89006050D01*
X175722378Y-89006052D01*
X175913320Y-89068093D01*
X176111616Y-89099500D01*
X176111617Y-89099500D01*
X176312383Y-89099500D01*
X176312384Y-89099500D01*
X176510680Y-89068093D01*
X176701622Y-89006052D01*
X176880508Y-88914905D01*
X177042932Y-88796897D01*
X177184897Y-88654932D01*
X177302905Y-88492508D01*
X177394052Y-88313622D01*
X177456093Y-88122680D01*
X177487500Y-87924384D01*
X177487500Y-87723616D01*
X177482825Y-87694097D01*
X178561500Y-87694097D01*
X178561500Y-87953902D01*
X178602140Y-88210493D01*
X178682422Y-88457576D01*
X178733574Y-88557965D01*
X178782982Y-88654934D01*
X178800368Y-88689054D01*
X178900842Y-88827345D01*
X178953069Y-88899229D01*
X179136771Y-89082931D01*
X179346949Y-89235634D01*
X179488535Y-89307776D01*
X179578423Y-89353577D01*
X179578425Y-89353577D01*
X179578428Y-89353579D01*
X179825507Y-89433860D01*
X179957706Y-89454797D01*
X180082098Y-89474500D01*
X180082103Y-89474500D01*
X180341902Y-89474500D01*
X180455298Y-89456539D01*
X180598493Y-89433860D01*
X180845572Y-89353579D01*
X181077051Y-89235634D01*
X181287229Y-89082931D01*
X181470931Y-88899229D01*
X181623634Y-88689051D01*
X181741579Y-88457572D01*
X181821860Y-88210493D01*
X181847119Y-88051009D01*
X181862500Y-87953902D01*
X181862500Y-87694097D01*
X181835768Y-87525319D01*
X181821860Y-87437507D01*
X181741579Y-87190428D01*
X181741577Y-87190425D01*
X181741577Y-87190423D01*
X181666025Y-87042146D01*
X181623634Y-86958949D01*
X181470931Y-86748771D01*
X181287229Y-86565069D01*
X181264424Y-86548500D01*
X181077054Y-86412368D01*
X181077053Y-86412367D01*
X181077051Y-86412366D01*
X180960681Y-86353072D01*
X180845576Y-86294422D01*
X180598493Y-86214140D01*
X180341902Y-86173500D01*
X180341897Y-86173500D01*
X180082103Y-86173500D01*
X180082098Y-86173500D01*
X179825506Y-86214140D01*
X179578423Y-86294422D01*
X179346945Y-86412368D01*
X179136774Y-86565066D01*
X179136768Y-86565071D01*
X178953071Y-86748768D01*
X178953066Y-86748774D01*
X178800368Y-86958945D01*
X178682422Y-87190423D01*
X178602140Y-87437506D01*
X178561500Y-87694097D01*
X177482825Y-87694097D01*
X177456093Y-87525320D01*
X177394052Y-87334378D01*
X177394050Y-87334375D01*
X177394050Y-87334373D01*
X177327598Y-87203955D01*
X177302905Y-87155492D01*
X177184897Y-86993068D01*
X177042932Y-86851103D01*
X176880508Y-86733095D01*
X176822786Y-86703684D01*
X176701626Y-86641949D01*
X176510680Y-86579907D01*
X176417009Y-86565071D01*
X176312384Y-86548500D01*
X176111616Y-86548500D01*
X176061144Y-86556494D01*
X175913319Y-86579907D01*
X175722373Y-86641949D01*
X175543491Y-86733095D01*
X175478693Y-86780174D01*
X175381068Y-86851103D01*
X175381066Y-86851105D01*
X175381065Y-86851105D01*
X175239105Y-86993065D01*
X175239105Y-86993066D01*
X175239103Y-86993068D01*
X175203446Y-87042146D01*
X175121095Y-87155491D01*
X175029949Y-87334373D01*
X174967907Y-87525319D01*
X174957821Y-87588998D01*
X174936500Y-87723616D01*
X170520000Y-87723616D01*
X170520000Y-87645603D01*
X170520000Y-87645584D01*
X170519258Y-87618238D01*
X170519258Y-87618223D01*
X170518530Y-87604802D01*
X170517242Y-87588999D01*
X170784500Y-87588999D01*
X170883640Y-87588999D01*
X170883654Y-87588998D01*
X170984652Y-87578680D01*
X171148300Y-87524453D01*
X171148311Y-87524448D01*
X171295034Y-87433947D01*
X171295038Y-87433944D01*
X171416945Y-87312037D01*
X171457670Y-87246013D01*
X171774000Y-87246013D01*
X171774000Y-87396000D01*
X172724000Y-87396000D01*
X173224000Y-87396000D01*
X174173999Y-87396000D01*
X174173999Y-87246028D01*
X174173998Y-87246013D01*
X174163505Y-87143302D01*
X174108358Y-86976880D01*
X174108356Y-86976875D01*
X174016315Y-86827654D01*
X173892345Y-86703684D01*
X173743124Y-86611643D01*
X173743119Y-86611641D01*
X173576697Y-86556494D01*
X173576690Y-86556493D01*
X173473986Y-86546000D01*
X173224000Y-86546000D01*
X173224000Y-87396000D01*
X172724000Y-87396000D01*
X172724000Y-86546000D01*
X172474029Y-86546000D01*
X172474012Y-86546001D01*
X172371302Y-86556494D01*
X172204880Y-86611641D01*
X172204875Y-86611643D01*
X172055654Y-86703684D01*
X171931684Y-86827654D01*
X171839643Y-86976875D01*
X171839641Y-86976880D01*
X171784494Y-87143302D01*
X171784493Y-87143309D01*
X171774000Y-87246013D01*
X171457670Y-87246013D01*
X171499766Y-87177766D01*
X171507450Y-87165307D01*
X171507453Y-87165300D01*
X171561680Y-87001652D01*
X171571999Y-86900654D01*
X171572000Y-86900641D01*
X171572000Y-86864000D01*
X170784500Y-86864000D01*
X170784500Y-87588999D01*
X170517242Y-87588999D01*
X170516302Y-87577469D01*
X170480532Y-87438106D01*
X170453707Y-87373591D01*
X170380123Y-87249952D01*
X170375881Y-87246013D01*
X170324126Y-87197956D01*
X170288393Y-87137915D01*
X170284500Y-87107088D01*
X170284500Y-86364000D01*
X170784500Y-86364000D01*
X171571999Y-86364000D01*
X171571999Y-86327360D01*
X171571998Y-86327345D01*
X171561680Y-86226347D01*
X171507453Y-86062699D01*
X171507448Y-86062688D01*
X171416947Y-85915965D01*
X171416944Y-85915961D01*
X171295038Y-85794055D01*
X171295034Y-85794052D01*
X171148311Y-85703551D01*
X171148300Y-85703546D01*
X170984652Y-85649319D01*
X170883654Y-85639000D01*
X170784500Y-85639000D01*
X170784500Y-86364000D01*
X170284500Y-86364000D01*
X170284500Y-86123922D01*
X170304185Y-86056883D01*
X170323134Y-86035018D01*
X170322715Y-86034599D01*
X170325842Y-86031471D01*
X170325847Y-86031467D01*
X170420067Y-85922733D01*
X170479838Y-85791856D01*
X170499523Y-85724817D01*
X170499524Y-85724813D01*
X170520000Y-85582397D01*
X170520000Y-84949842D01*
X170519391Y-84925042D01*
X170518794Y-84912888D01*
X170516969Y-84888140D01*
X170499611Y-84711901D01*
X170492333Y-84662836D01*
X170487591Y-84638995D01*
X170475536Y-84590868D01*
X170425904Y-84427254D01*
X170409188Y-84380537D01*
X170399885Y-84358079D01*
X170378679Y-84313244D01*
X170298085Y-84162464D01*
X170272584Y-84119919D01*
X170259079Y-84099707D01*
X170259065Y-84099689D01*
X170259061Y-84099682D01*
X170229536Y-84059872D01*
X170229534Y-84059869D01*
X170213391Y-84040199D01*
X170121063Y-83927696D01*
X170121058Y-83927690D01*
X170087755Y-83890946D01*
X170070552Y-83873743D01*
X170033808Y-83840440D01*
X169901629Y-83731964D01*
X169901626Y-83731962D01*
X169861816Y-83702437D01*
X169861805Y-83702429D01*
X169861792Y-83702420D01*
X169841580Y-83688915D01*
X169820546Y-83676308D01*
X169799025Y-83663408D01*
X169648275Y-83582830D01*
X169648259Y-83582822D01*
X169648253Y-83582819D01*
X169641124Y-83579447D01*
X169603436Y-83561620D01*
X169603414Y-83561611D01*
X169603408Y-83561608D01*
X169580956Y-83552308D01*
X169580944Y-83552304D01*
X169580940Y-83552302D01*
X169564457Y-83546404D01*
X169534248Y-83535596D01*
X169370625Y-83485961D01*
X169370617Y-83485959D01*
X169370604Y-83485955D01*
X169322483Y-83473903D01*
X169298664Y-83469166D01*
X169298654Y-83469164D01*
X169298652Y-83469164D01*
X169298643Y-83469162D01*
X169298620Y-83469159D01*
X169249594Y-83461888D01*
X169249600Y-83461888D01*
X169073352Y-83444530D01*
X169048624Y-83442706D01*
X169036466Y-83442109D01*
X169029989Y-83441950D01*
X169011658Y-83441500D01*
X168979593Y-83441500D01*
X168962729Y-83441914D01*
X168954785Y-83442109D01*
X168942626Y-83442706D01*
X168917895Y-83444530D01*
X168750292Y-83461037D01*
X168750253Y-83461042D01*
X168701192Y-83468321D01*
X168677346Y-83473065D01*
X168629228Y-83485120D01*
X168473934Y-83532229D01*
X168427284Y-83548919D01*
X168427257Y-83548929D01*
X168404841Y-83558211D01*
X168404790Y-83558234D01*
X168359943Y-83579443D01*
X168359932Y-83579449D01*
X168216785Y-83655962D01*
X168174239Y-83681464D01*
X168154042Y-83694960D01*
X168154024Y-83694973D01*
X168114206Y-83724505D01*
X168114184Y-83724523D01*
X167988724Y-83827485D01*
X167951981Y-83860787D01*
X167934787Y-83877981D01*
X167901485Y-83914724D01*
X167798523Y-84040184D01*
X167798505Y-84040206D01*
X167768973Y-84080024D01*
X167768960Y-84080042D01*
X167755464Y-84100239D01*
X167729962Y-84142785D01*
X167653449Y-84285932D01*
X167653443Y-84285943D01*
X167632234Y-84330790D01*
X167632211Y-84330841D01*
X167622929Y-84353257D01*
X167622919Y-84353284D01*
X167606229Y-84399934D01*
X167559120Y-84555228D01*
X167547065Y-84603346D01*
X167542321Y-84627192D01*
X167535042Y-84676253D01*
X167535037Y-84676292D01*
X167518530Y-84843894D01*
X167516706Y-84868625D01*
X167516109Y-84880784D01*
X167515500Y-84905608D01*
X167515500Y-85222500D01*
X167495815Y-85289539D01*
X167443011Y-85335294D01*
X167391500Y-85346500D01*
X166614093Y-85346500D01*
X166597229Y-85346914D01*
X166589285Y-85347109D01*
X166577126Y-85347706D01*
X166552399Y-85349530D01*
X166375523Y-85366950D01*
X166375503Y-85366952D01*
X166326449Y-85374228D01*
X166310347Y-85377431D01*
X166302612Y-85378970D01*
X166286490Y-85383008D01*
X166254502Y-85391021D01*
X166090259Y-85440842D01*
X166043541Y-85457558D01*
X166043504Y-85457573D01*
X166021103Y-85466853D01*
X166021079Y-85466863D01*
X165976269Y-85488058D01*
X165976264Y-85488060D01*
X165976259Y-85488063D01*
X165824905Y-85568963D01*
X165824897Y-85568967D01*
X165824891Y-85568971D01*
X165782359Y-85594463D01*
X165762129Y-85607981D01*
X165722329Y-85637499D01*
X165722299Y-85637522D01*
X165589656Y-85746379D01*
X165589631Y-85746401D01*
X165552884Y-85779707D01*
X165552877Y-85779715D01*
X165535715Y-85796877D01*
X165535707Y-85796884D01*
X165502401Y-85833631D01*
X165502379Y-85833656D01*
X165393522Y-85966299D01*
X165393499Y-85966329D01*
X165363981Y-86006129D01*
X165350463Y-86026359D01*
X165324971Y-86068891D01*
X165324963Y-86068905D01*
X165278000Y-86156767D01*
X165244058Y-86220269D01*
X165222863Y-86265079D01*
X165222853Y-86265103D01*
X165213573Y-86287504D01*
X165213558Y-86287541D01*
X165196842Y-86334259D01*
X165173149Y-86412368D01*
X165147023Y-86498496D01*
X165134970Y-86546612D01*
X165134036Y-86551303D01*
X165130228Y-86570447D01*
X165122954Y-86619490D01*
X165122949Y-86619534D01*
X165105530Y-86796398D01*
X165103706Y-86821125D01*
X165103109Y-86833284D01*
X165102500Y-86858108D01*
X165102500Y-87721500D01*
X165082815Y-87788539D01*
X165030011Y-87834294D01*
X164978500Y-87845500D01*
X164528879Y-87845500D01*
X164481426Y-87836061D01*
X164404374Y-87804145D01*
X164404366Y-87804143D01*
X164235232Y-87770500D01*
X164235229Y-87770500D01*
X163228006Y-87770500D01*
X163160967Y-87750815D01*
X163140325Y-87734181D01*
X162610102Y-87203957D01*
X162610098Y-87203954D01*
X162466711Y-87108145D01*
X162466698Y-87108138D01*
X162307378Y-87042146D01*
X162307366Y-87042143D01*
X162138232Y-87008500D01*
X162138229Y-87008500D01*
X161241660Y-87008500D01*
X161174621Y-86988815D01*
X161136953Y-86950926D01*
X160137579Y-85375582D01*
X160137578Y-85375581D01*
X159616594Y-85127865D01*
X159616590Y-85127863D01*
X158032648Y-84374734D01*
X157544825Y-84142785D01*
X155477396Y-83159769D01*
X155257804Y-83111081D01*
X155257690Y-83111055D01*
X153840696Y-82796881D01*
X152204000Y-82433994D01*
X152203998Y-82433994D01*
X151977398Y-82435684D01*
X151977393Y-82435684D01*
X151418820Y-82439850D01*
X138671362Y-82534936D01*
X138662472Y-82534683D01*
X138389696Y-82517125D01*
X138372084Y-82514715D01*
X138108975Y-82459252D01*
X138091889Y-82454348D01*
X137839414Y-82361834D01*
X137823205Y-82354537D01*
X137586562Y-82226879D01*
X137571562Y-82217339D01*
X137355594Y-82057147D01*
X137342113Y-82045562D01*
X137151276Y-81856144D01*
X137139589Y-81842749D01*
X136977794Y-81627984D01*
X136968143Y-81613056D01*
X136931886Y-81547030D01*
X136838714Y-81377356D01*
X136831303Y-81361215D01*
X136736905Y-81109428D01*
X136731878Y-81092394D01*
X136674453Y-80829700D01*
X136671912Y-80812112D01*
X136652319Y-80539464D01*
X136652000Y-80530576D01*
X136652000Y-79153654D01*
X145605501Y-79153654D01*
X145615819Y-79254652D01*
X145670046Y-79418300D01*
X145670051Y-79418311D01*
X145760552Y-79565034D01*
X145760555Y-79565038D01*
X145882461Y-79686944D01*
X145882465Y-79686947D01*
X146029188Y-79777448D01*
X146029199Y-79777453D01*
X146192847Y-79831680D01*
X146293851Y-79841999D01*
X146393000Y-79841998D01*
X146393000Y-79117000D01*
X145605501Y-79117000D01*
X145605501Y-79153654D01*
X136652000Y-79153654D01*
X136652000Y-78580345D01*
X145605500Y-78580345D01*
X145605500Y-78617000D01*
X146393000Y-78617000D01*
X146393000Y-77891999D01*
X146293860Y-77892000D01*
X146293844Y-77892001D01*
X146192847Y-77902319D01*
X146029199Y-77956546D01*
X146029188Y-77956551D01*
X145882465Y-78047052D01*
X145882461Y-78047055D01*
X145760555Y-78168961D01*
X145760552Y-78168965D01*
X145670051Y-78315688D01*
X145670046Y-78315699D01*
X145615819Y-78479347D01*
X145605500Y-78580345D01*
X136652000Y-78580345D01*
X136652000Y-65744421D01*
X135572501Y-63246002D01*
X135572500Y-63246000D01*
X132966341Y-60793144D01*
X132960404Y-60787163D01*
X132784269Y-60597227D01*
X132773681Y-60584127D01*
X132627339Y-60375530D01*
X132618635Y-60361135D01*
X132501909Y-60134618D01*
X132495230Y-60119160D01*
X132479778Y-60075459D01*
X132410285Y-59878926D01*
X132405766Y-59862716D01*
X132354161Y-59613173D01*
X132351881Y-59596502D01*
X132334286Y-59338054D01*
X132334000Y-59329632D01*
X132334000Y-57340501D01*
X132333999Y-57340497D01*
X132201361Y-57094910D01*
X132171731Y-57040049D01*
X135706000Y-57040049D01*
X135706000Y-57262950D01*
X135706001Y-57262966D01*
X135735094Y-57483952D01*
X135735095Y-57483957D01*
X135735096Y-57483963D01*
X135735400Y-57485096D01*
X135792790Y-57699280D01*
X135792793Y-57699290D01*
X135844657Y-57824500D01*
X135878095Y-57905226D01*
X135989552Y-58098274D01*
X135989557Y-58098280D01*
X135989558Y-58098282D01*
X136125251Y-58275122D01*
X136125257Y-58275129D01*
X136282870Y-58432742D01*
X136282877Y-58432748D01*
X136459724Y-58568447D01*
X136459726Y-58568448D01*
X136476498Y-58578131D01*
X136484782Y-58586818D01*
X136495703Y-58591806D01*
X136508446Y-58611635D01*
X136524714Y-58628695D01*
X136527930Y-58641953D01*
X136533477Y-58650584D01*
X136538500Y-58685519D01*
X136538500Y-58923132D01*
X136518815Y-58990171D01*
X136499616Y-59011346D01*
X136500451Y-59012181D01*
X136371289Y-59141342D01*
X136279187Y-59290663D01*
X136279185Y-59290668D01*
X136269527Y-59319814D01*
X136224001Y-59457203D01*
X136224001Y-59457204D01*
X136224000Y-59457204D01*
X136213500Y-59559983D01*
X136213500Y-60360001D01*
X136213501Y-60360019D01*
X136224000Y-60462796D01*
X136224001Y-60462799D01*
X136279185Y-60629331D01*
X136279187Y-60629336D01*
X136371289Y-60778657D01*
X136464951Y-60872319D01*
X136498436Y-60933642D01*
X136493452Y-61003334D01*
X136464951Y-61047681D01*
X136371289Y-61141342D01*
X136279187Y-61290663D01*
X136279186Y-61290666D01*
X136224001Y-61457203D01*
X136224001Y-61457204D01*
X136224000Y-61457204D01*
X136213500Y-61559983D01*
X136213500Y-62360001D01*
X136213501Y-62360019D01*
X136224000Y-62462796D01*
X136224001Y-62462799D01*
X136279185Y-62629331D01*
X136279186Y-62629334D01*
X136371288Y-62778656D01*
X136495344Y-62902712D01*
X136644666Y-62994814D01*
X136811203Y-63049999D01*
X136913991Y-63060500D01*
X137914008Y-63060499D01*
X137914016Y-63060498D01*
X137914019Y-63060498D01*
X137970302Y-63054748D01*
X138016797Y-63049999D01*
X138183334Y-62994814D01*
X138332656Y-62902712D01*
X138363549Y-62871819D01*
X138424872Y-62838334D01*
X138451230Y-62835500D01*
X140355500Y-62835500D01*
X140422539Y-62855185D01*
X140468294Y-62907989D01*
X140479500Y-62959500D01*
X140479500Y-68927994D01*
X140459815Y-68995033D01*
X140443181Y-69015675D01*
X139272901Y-70185955D01*
X139237692Y-70221164D01*
X139150953Y-70307902D01*
X139055145Y-70451288D01*
X139055138Y-70451301D01*
X138989146Y-70610621D01*
X138989143Y-70610633D01*
X138955500Y-70779766D01*
X138955500Y-75524233D01*
X138989143Y-75693366D01*
X138989146Y-75693378D01*
X139055138Y-75852698D01*
X139055145Y-75852711D01*
X139150954Y-75996098D01*
X139150957Y-75996102D01*
X140166955Y-77012099D01*
X140233096Y-77078240D01*
X140288902Y-77134046D01*
X140432288Y-77229854D01*
X140432301Y-77229861D01*
X140591621Y-77295853D01*
X140591626Y-77295855D01*
X140760766Y-77329499D01*
X140760769Y-77329500D01*
X140760771Y-77329500D01*
X143439231Y-77329500D01*
X143439232Y-77329499D01*
X143608374Y-77295855D01*
X143685426Y-77263938D01*
X143732879Y-77254500D01*
X144243686Y-77254500D01*
X144243694Y-77254500D01*
X144280569Y-77251598D01*
X144280571Y-77251597D01*
X144280573Y-77251597D01*
X144337358Y-77235099D01*
X144438398Y-77205744D01*
X144579865Y-77122081D01*
X144696081Y-77005865D01*
X144727873Y-76952108D01*
X146691500Y-76952108D01*
X146691500Y-77849864D01*
X146704065Y-77961873D01*
X146704066Y-77961880D01*
X146704067Y-77961882D01*
X146716245Y-78015472D01*
X146753326Y-78121926D01*
X146833341Y-78241505D01*
X146861194Y-78272471D01*
X146891390Y-78335477D01*
X146893000Y-78355394D01*
X146893000Y-79841999D01*
X146992140Y-79841999D01*
X146992154Y-79841998D01*
X147093148Y-79831681D01*
X147099768Y-79830264D01*
X147100075Y-79831700D01*
X147162105Y-79829561D01*
X147222150Y-79865287D01*
X147229891Y-79874478D01*
X147256489Y-79909355D01*
X147256493Y-79909360D01*
X147306337Y-79958322D01*
X147422284Y-80043514D01*
X147422287Y-80043515D01*
X147422289Y-80043517D01*
X147565229Y-80119920D01*
X147565233Y-80119922D01*
X147565252Y-80119932D01*
X147610086Y-80141138D01*
X147632544Y-80150441D01*
X147679263Y-80167158D01*
X147843486Y-80216974D01*
X147891611Y-80229028D01*
X147915452Y-80233770D01*
X147964516Y-80241048D01*
X148141390Y-80258469D01*
X148166139Y-80260294D01*
X148178293Y-80260891D01*
X148203093Y-80261500D01*
X148203110Y-80261500D01*
X151016890Y-80261500D01*
X151016907Y-80261500D01*
X151041707Y-80260891D01*
X151053861Y-80260294D01*
X151078610Y-80258469D01*
X151255483Y-80241048D01*
X151304547Y-80233770D01*
X151328388Y-80229028D01*
X151376513Y-80216974D01*
X151540736Y-80167158D01*
X151587455Y-80150441D01*
X151609913Y-80141138D01*
X151654747Y-80119932D01*
X151806089Y-80039038D01*
X151848635Y-80013537D01*
X151868847Y-80000032D01*
X151908696Y-79970479D01*
X152041352Y-79861611D01*
X152078108Y-79828296D01*
X152078109Y-79828295D01*
X152078117Y-79828288D01*
X152095288Y-79811117D01*
X152095295Y-79811109D01*
X152095296Y-79811108D01*
X152128611Y-79774352D01*
X152237479Y-79641696D01*
X152267032Y-79601847D01*
X152280537Y-79581635D01*
X152306038Y-79539089D01*
X152386932Y-79387747D01*
X152408138Y-79342913D01*
X152417441Y-79320455D01*
X152434158Y-79273736D01*
X152483974Y-79109513D01*
X152496028Y-79061388D01*
X152500770Y-79037547D01*
X152508048Y-78988483D01*
X152525469Y-78811610D01*
X152527294Y-78786861D01*
X152527891Y-78774707D01*
X152528500Y-78749907D01*
X152528500Y-78402959D01*
X152548185Y-78335920D01*
X152600989Y-78290165D01*
X152665100Y-78279601D01*
X152761991Y-78289500D01*
X153562008Y-78289499D01*
X153562016Y-78289498D01*
X153562019Y-78289498D01*
X153618302Y-78283748D01*
X153664797Y-78278999D01*
X153831334Y-78223814D01*
X153980656Y-78131712D01*
X154104712Y-78007656D01*
X154196814Y-77858334D01*
X154251999Y-77691797D01*
X154262500Y-77589009D01*
X154262499Y-76588992D01*
X154251999Y-76486203D01*
X154196814Y-76319666D01*
X154104712Y-76170344D01*
X154073819Y-76139451D01*
X154040334Y-76078128D01*
X154037500Y-76051770D01*
X154037500Y-75728768D01*
X154037499Y-75728766D01*
X154030459Y-75693374D01*
X154003855Y-75559626D01*
X153966943Y-75470513D01*
X169868500Y-75470513D01*
X169868500Y-75659486D01*
X169898059Y-75846118D01*
X169956454Y-76025836D01*
X170030084Y-76170342D01*
X170042240Y-76194199D01*
X170153310Y-76347073D01*
X170286927Y-76480690D01*
X170439801Y-76591760D01*
X170473148Y-76608751D01*
X170608163Y-76677545D01*
X170608165Y-76677545D01*
X170608168Y-76677547D01*
X170697482Y-76706567D01*
X170729803Y-76717069D01*
X170787478Y-76756507D01*
X170814676Y-76820866D01*
X170802761Y-76889712D01*
X170755516Y-76941188D01*
X170729803Y-76952931D01*
X170608163Y-76992454D01*
X170439800Y-77078240D01*
X170379466Y-77122076D01*
X170286927Y-77189310D01*
X170286925Y-77189312D01*
X170286924Y-77189312D01*
X170153312Y-77322924D01*
X170153312Y-77322925D01*
X170153310Y-77322927D01*
X170105610Y-77388579D01*
X170042240Y-77475800D01*
X169956454Y-77644163D01*
X169898059Y-77823881D01*
X169868500Y-78010513D01*
X169868500Y-78199486D01*
X169898059Y-78386118D01*
X169956454Y-78565836D01*
X169982524Y-78617000D01*
X170042240Y-78734199D01*
X170153310Y-78887073D01*
X170286927Y-79020690D01*
X170439801Y-79131760D01*
X170472271Y-79148304D01*
X170608163Y-79217545D01*
X170608165Y-79217545D01*
X170608168Y-79217547D01*
X170704497Y-79248846D01*
X170787881Y-79275940D01*
X170974514Y-79305500D01*
X170974519Y-79305500D01*
X171163486Y-79305500D01*
X171350118Y-79275940D01*
X171367787Y-79270199D01*
X171529832Y-79217547D01*
X171698199Y-79131760D01*
X171851073Y-79020690D01*
X171984690Y-78887073D01*
X172095760Y-78734199D01*
X172181547Y-78565832D01*
X172239940Y-78386118D01*
X172244806Y-78355394D01*
X172269500Y-78199486D01*
X172269500Y-78010513D01*
X172239940Y-77823881D01*
X172181545Y-77644163D01*
X172095759Y-77475800D01*
X171984690Y-77322927D01*
X171851073Y-77189310D01*
X171698199Y-77078240D01*
X171529836Y-76992454D01*
X171455472Y-76968291D01*
X171408195Y-76952930D01*
X171350521Y-76913493D01*
X171323323Y-76849134D01*
X171335238Y-76780288D01*
X171382482Y-76728812D01*
X171408194Y-76717069D01*
X171529832Y-76677547D01*
X171698199Y-76591760D01*
X171851073Y-76480690D01*
X171984690Y-76347073D01*
X172095760Y-76194199D01*
X172181547Y-76025832D01*
X172239940Y-75846118D01*
X172251089Y-75775726D01*
X172269500Y-75659486D01*
X172269500Y-75470513D01*
X174059500Y-75470513D01*
X174059500Y-75659486D01*
X174089059Y-75846118D01*
X174147454Y-76025836D01*
X174221084Y-76170342D01*
X174233240Y-76194199D01*
X174344310Y-76347073D01*
X174477927Y-76480690D01*
X174630801Y-76591760D01*
X174664148Y-76608751D01*
X174799163Y-76677545D01*
X174799165Y-76677545D01*
X174799168Y-76677547D01*
X174888482Y-76706567D01*
X174920803Y-76717069D01*
X174978478Y-76756507D01*
X175005676Y-76820866D01*
X174993761Y-76889712D01*
X174946516Y-76941188D01*
X174920803Y-76952931D01*
X174799163Y-76992454D01*
X174630800Y-77078240D01*
X174570466Y-77122076D01*
X174477927Y-77189310D01*
X174477925Y-77189312D01*
X174477924Y-77189312D01*
X174344312Y-77322924D01*
X174344312Y-77322925D01*
X174344310Y-77322927D01*
X174296610Y-77388579D01*
X174233240Y-77475800D01*
X174147454Y-77644163D01*
X174089059Y-77823881D01*
X174059500Y-78010513D01*
X174059500Y-78199486D01*
X174089059Y-78386118D01*
X174147454Y-78565836D01*
X174173524Y-78617000D01*
X174233240Y-78734199D01*
X174344310Y-78887073D01*
X174477927Y-79020690D01*
X174630801Y-79131760D01*
X174663271Y-79148304D01*
X174799163Y-79217545D01*
X174799165Y-79217545D01*
X174799168Y-79217547D01*
X174895497Y-79248846D01*
X174978881Y-79275940D01*
X175165514Y-79305500D01*
X175165519Y-79305500D01*
X175354486Y-79305500D01*
X175541118Y-79275940D01*
X175558787Y-79270199D01*
X175720832Y-79217547D01*
X175889199Y-79131760D01*
X176042073Y-79020690D01*
X176175690Y-78887073D01*
X176286760Y-78734199D01*
X176372547Y-78565832D01*
X176430940Y-78386118D01*
X176435806Y-78355394D01*
X176460500Y-78199486D01*
X176460500Y-78010513D01*
X176430940Y-77823881D01*
X176372545Y-77644163D01*
X176286759Y-77475800D01*
X176175690Y-77322927D01*
X176042073Y-77189310D01*
X175889199Y-77078240D01*
X175720836Y-76992454D01*
X175646472Y-76968291D01*
X175599195Y-76952930D01*
X175541521Y-76913493D01*
X175514323Y-76849134D01*
X175526238Y-76780288D01*
X175573482Y-76728812D01*
X175599194Y-76717069D01*
X175720832Y-76677547D01*
X175889199Y-76591760D01*
X176042073Y-76480690D01*
X176175690Y-76347073D01*
X176286760Y-76194199D01*
X176372547Y-76025832D01*
X176401360Y-75937155D01*
X181022000Y-75937155D01*
X181022000Y-76585000D01*
X181938988Y-76585000D01*
X181906075Y-76642007D01*
X181872000Y-76769174D01*
X181872000Y-76900826D01*
X181906075Y-77027993D01*
X181938988Y-77085000D01*
X181022000Y-77085000D01*
X181022000Y-77732844D01*
X181028401Y-77792372D01*
X181028403Y-77792379D01*
X181078645Y-77927086D01*
X181078649Y-77927093D01*
X181164809Y-78042187D01*
X181164812Y-78042190D01*
X181279906Y-78128350D01*
X181279913Y-78128354D01*
X181414620Y-78178596D01*
X181414627Y-78178598D01*
X181474155Y-78184999D01*
X181474172Y-78185000D01*
X182122000Y-78185000D01*
X182122000Y-77268012D01*
X182179007Y-77300925D01*
X182306174Y-77335000D01*
X182437826Y-77335000D01*
X182564993Y-77300925D01*
X182622000Y-77268012D01*
X182622000Y-78185000D01*
X183269828Y-78185000D01*
X183269844Y-78184999D01*
X183329372Y-78178598D01*
X183329379Y-78178596D01*
X183464086Y-78128354D01*
X183464093Y-78128350D01*
X183579187Y-78042190D01*
X183579190Y-78042187D01*
X183665350Y-77927093D01*
X183665354Y-77927086D01*
X183715596Y-77792379D01*
X183715598Y-77792372D01*
X183721999Y-77732844D01*
X183722000Y-77732827D01*
X183722000Y-77085000D01*
X182805012Y-77085000D01*
X182837925Y-77027993D01*
X182872000Y-76900826D01*
X182872000Y-76769174D01*
X182837925Y-76642007D01*
X182805012Y-76585000D01*
X183722000Y-76585000D01*
X183722000Y-75937172D01*
X183721999Y-75937155D01*
X183715598Y-75877627D01*
X183715596Y-75877620D01*
X183665354Y-75742913D01*
X183665350Y-75742906D01*
X183579190Y-75627812D01*
X183579187Y-75627809D01*
X183464093Y-75541649D01*
X183464086Y-75541645D01*
X183329379Y-75491403D01*
X183329372Y-75491401D01*
X183269844Y-75485000D01*
X182622000Y-75485000D01*
X182622000Y-76401988D01*
X182564993Y-76369075D01*
X182437826Y-76335000D01*
X182306174Y-76335000D01*
X182179007Y-76369075D01*
X182122000Y-76401988D01*
X182122000Y-75485000D01*
X181474155Y-75485000D01*
X181414627Y-75491401D01*
X181414620Y-75491403D01*
X181279913Y-75541645D01*
X181279906Y-75541649D01*
X181164812Y-75627809D01*
X181164809Y-75627812D01*
X181078649Y-75742906D01*
X181078645Y-75742913D01*
X181028403Y-75877620D01*
X181028401Y-75877627D01*
X181022000Y-75937155D01*
X176401360Y-75937155D01*
X176430940Y-75846118D01*
X176442089Y-75775726D01*
X176460500Y-75659486D01*
X176460500Y-75470513D01*
X176430940Y-75283881D01*
X176403846Y-75200497D01*
X176372547Y-75104168D01*
X176372545Y-75104165D01*
X176372545Y-75104163D01*
X176327290Y-75015347D01*
X176286760Y-74935801D01*
X176175690Y-74782927D01*
X176042073Y-74649310D01*
X175889199Y-74538240D01*
X175883821Y-74535500D01*
X175720836Y-74452454D01*
X175541118Y-74394059D01*
X175354486Y-74364500D01*
X175354481Y-74364500D01*
X175165519Y-74364500D01*
X175165514Y-74364500D01*
X174978881Y-74394059D01*
X174799163Y-74452454D01*
X174630800Y-74538240D01*
X174553992Y-74594045D01*
X174477927Y-74649310D01*
X174477925Y-74649312D01*
X174477924Y-74649312D01*
X174344312Y-74782924D01*
X174344312Y-74782925D01*
X174344310Y-74782927D01*
X174325673Y-74808579D01*
X174233240Y-74935800D01*
X174147454Y-75104163D01*
X174089059Y-75283881D01*
X174059500Y-75470513D01*
X172269500Y-75470513D01*
X172239940Y-75283881D01*
X172212846Y-75200497D01*
X172181547Y-75104168D01*
X172181545Y-75104165D01*
X172181545Y-75104163D01*
X172136290Y-75015347D01*
X172095760Y-74935801D01*
X171984690Y-74782927D01*
X171851073Y-74649310D01*
X171698199Y-74538240D01*
X171692821Y-74535500D01*
X171529836Y-74452454D01*
X171350118Y-74394059D01*
X171163486Y-74364500D01*
X171163481Y-74364500D01*
X170974519Y-74364500D01*
X170974514Y-74364500D01*
X170787881Y-74394059D01*
X170608163Y-74452454D01*
X170439800Y-74538240D01*
X170362992Y-74594045D01*
X170286927Y-74649310D01*
X170286925Y-74649312D01*
X170286924Y-74649312D01*
X170153312Y-74782924D01*
X170153312Y-74782925D01*
X170153310Y-74782927D01*
X170134673Y-74808579D01*
X170042240Y-74935800D01*
X169956454Y-75104163D01*
X169898059Y-75283881D01*
X169868500Y-75470513D01*
X153966943Y-75470513D01*
X153961815Y-75458132D01*
X153937861Y-75400301D01*
X153937854Y-75400288D01*
X153842046Y-75256902D01*
X153842045Y-75256901D01*
X153720099Y-75134955D01*
X153530324Y-74945180D01*
X153496839Y-74883857D01*
X153501823Y-74814165D01*
X153543695Y-74758232D01*
X153609159Y-74733815D01*
X153617985Y-74733499D01*
X154185008Y-74733499D01*
X154185016Y-74733498D01*
X154185019Y-74733498D01*
X154258908Y-74725950D01*
X154287797Y-74722999D01*
X154454334Y-74667814D01*
X154603656Y-74575712D01*
X154607549Y-74571819D01*
X154668872Y-74538334D01*
X154695230Y-74535500D01*
X156296231Y-74535500D01*
X156296232Y-74535499D01*
X156465374Y-74501855D01*
X156624705Y-74435858D01*
X156768099Y-74340045D01*
X156890045Y-74218099D01*
X156985858Y-74074705D01*
X157051855Y-73915374D01*
X157085500Y-73746229D01*
X157085500Y-73573771D01*
X157085500Y-73573768D01*
X157085499Y-73573766D01*
X157057904Y-73435038D01*
X157051855Y-73404626D01*
X157031073Y-73354453D01*
X156985861Y-73245301D01*
X156985854Y-73245288D01*
X156890045Y-73101901D01*
X156890042Y-73101897D01*
X156768102Y-72979957D01*
X156768098Y-72979954D01*
X156624711Y-72884145D01*
X156624698Y-72884138D01*
X156465378Y-72818146D01*
X156465366Y-72818143D01*
X156296232Y-72784500D01*
X156296229Y-72784500D01*
X155665229Y-72784500D01*
X154901872Y-72784500D01*
X154834833Y-72764815D01*
X154796333Y-72725597D01*
X154785000Y-72707223D01*
X154727712Y-72614344D01*
X154603656Y-72490288D01*
X154454334Y-72398186D01*
X154287797Y-72343001D01*
X154287795Y-72343000D01*
X154185010Y-72332500D01*
X153384998Y-72332500D01*
X153384980Y-72332501D01*
X153282203Y-72343000D01*
X153282200Y-72343001D01*
X153115668Y-72398185D01*
X153115663Y-72398187D01*
X152966342Y-72490289D01*
X152872681Y-72583951D01*
X152811358Y-72617436D01*
X152741666Y-72612452D01*
X152697319Y-72583951D01*
X152603657Y-72490289D01*
X152603656Y-72490288D01*
X152454334Y-72398186D01*
X152287797Y-72343001D01*
X152287795Y-72343000D01*
X152185010Y-72332500D01*
X151384998Y-72332500D01*
X151384980Y-72332501D01*
X151282203Y-72343000D01*
X151282200Y-72343001D01*
X151115668Y-72398185D01*
X151115663Y-72398187D01*
X150966342Y-72490289D01*
X150842289Y-72614342D01*
X150750187Y-72763663D01*
X150750186Y-72763666D01*
X150695001Y-72930203D01*
X150695001Y-72930204D01*
X150695000Y-72930204D01*
X150684500Y-73032983D01*
X150684500Y-74033001D01*
X150684501Y-74033019D01*
X150695000Y-74135796D01*
X150695002Y-74135801D01*
X150698214Y-74145494D01*
X150700617Y-74215322D01*
X150664887Y-74275365D01*
X150602367Y-74306558D01*
X150580509Y-74308500D01*
X149897862Y-74308500D01*
X149830823Y-74288815D01*
X149785068Y-74236011D01*
X149775996Y-74172917D01*
X149774603Y-74172808D01*
X149775295Y-74164000D01*
X146830705Y-74164000D01*
X146830704Y-74164001D01*
X146830899Y-74166486D01*
X146876718Y-74324198D01*
X146960314Y-74465552D01*
X146965100Y-74471722D01*
X146962640Y-74473629D01*
X146989210Y-74522288D01*
X146984226Y-74591980D01*
X146963162Y-74624781D01*
X146964699Y-74625974D01*
X146959915Y-74632140D01*
X146876255Y-74773603D01*
X146876254Y-74773606D01*
X146830402Y-74931426D01*
X146830401Y-74931432D01*
X146827500Y-74968298D01*
X146827500Y-75399701D01*
X146830401Y-75436567D01*
X146830402Y-75436573D01*
X146876254Y-75594393D01*
X146876255Y-75594396D01*
X146959917Y-75735862D01*
X146964702Y-75742031D01*
X146962256Y-75743927D01*
X146988857Y-75792642D01*
X146983873Y-75862334D01*
X146963069Y-75894703D01*
X146964702Y-75895969D01*
X146959917Y-75902137D01*
X146876255Y-76043603D01*
X146876254Y-76043606D01*
X146830402Y-76201426D01*
X146830401Y-76201432D01*
X146827500Y-76238298D01*
X146827500Y-76298174D01*
X146815597Y-76351187D01*
X146811854Y-76359100D01*
X146802573Y-76381504D01*
X146802558Y-76381541D01*
X146785842Y-76428259D01*
X146736021Y-76592502D01*
X146723970Y-76640613D01*
X146719228Y-76664447D01*
X146711954Y-76713490D01*
X146711949Y-76713534D01*
X146694530Y-76890398D01*
X146692706Y-76915125D01*
X146692109Y-76927284D01*
X146691500Y-76952108D01*
X144727873Y-76952108D01*
X144742549Y-76927292D01*
X144766112Y-76887449D01*
X144768336Y-76883687D01*
X144779744Y-76864398D01*
X144819136Y-76728812D01*
X144825597Y-76706573D01*
X144825598Y-76706567D01*
X144828499Y-76669701D01*
X144828500Y-76669694D01*
X144828500Y-76238306D01*
X144825598Y-76201431D01*
X144816566Y-76170344D01*
X144779745Y-76043606D01*
X144779744Y-76043603D01*
X144779744Y-76043602D01*
X144696081Y-75902135D01*
X144696078Y-75902132D01*
X144691298Y-75895969D01*
X144693750Y-75894066D01*
X144667155Y-75845421D01*
X144672104Y-75775726D01*
X144692940Y-75743304D01*
X144691298Y-75742031D01*
X144696075Y-75735870D01*
X144696081Y-75735865D01*
X144779744Y-75594398D01*
X144825598Y-75436569D01*
X144828500Y-75399694D01*
X144828500Y-74968306D01*
X144825598Y-74931431D01*
X144825101Y-74925114D01*
X144827530Y-74924922D01*
X144833723Y-74866267D01*
X144877460Y-74811779D01*
X144943712Y-74789588D01*
X144948375Y-74789500D01*
X145374231Y-74789500D01*
X145374232Y-74789499D01*
X145543374Y-74755855D01*
X145702705Y-74689858D01*
X145846099Y-74594045D01*
X146476045Y-73964099D01*
X146571858Y-73820705D01*
X146622650Y-73698081D01*
X146666491Y-73643678D01*
X146732785Y-73621613D01*
X146800484Y-73638892D01*
X146828267Y-73661363D01*
X146830705Y-73664000D01*
X148053000Y-73664000D01*
X148553000Y-73664000D01*
X149775295Y-73664000D01*
X149775295Y-73663998D01*
X149775100Y-73661513D01*
X149729281Y-73503801D01*
X149645685Y-73362447D01*
X149640900Y-73356278D01*
X149643252Y-73354453D01*
X149616445Y-73305405D01*
X149621402Y-73235712D01*
X149642465Y-73202936D01*
X149640900Y-73201722D01*
X149645685Y-73195552D01*
X149729281Y-73054198D01*
X149775100Y-72896486D01*
X149775295Y-72894001D01*
X149775295Y-72894000D01*
X148553000Y-72894000D01*
X148553000Y-73664000D01*
X148053000Y-73664000D01*
X148053000Y-72394000D01*
X148553000Y-72394000D01*
X149775295Y-72394000D01*
X149775295Y-72393998D01*
X149775100Y-72391513D01*
X149729281Y-72233801D01*
X149645685Y-72092447D01*
X149645678Y-72092438D01*
X149529561Y-71976321D01*
X149529552Y-71976314D01*
X149388196Y-71892717D01*
X149388193Y-71892716D01*
X149230495Y-71846900D01*
X149230489Y-71846899D01*
X149193649Y-71844000D01*
X148553000Y-71844000D01*
X148553000Y-72394000D01*
X148053000Y-72394000D01*
X148053000Y-71844000D01*
X147412350Y-71844000D01*
X147375510Y-71846899D01*
X147375504Y-71846900D01*
X147217806Y-71892716D01*
X147217803Y-71892717D01*
X147076447Y-71976314D01*
X147076438Y-71976321D01*
X146960321Y-72092438D01*
X146960314Y-72092447D01*
X146902232Y-72190660D01*
X146851163Y-72238344D01*
X146782421Y-72250847D01*
X146717832Y-72224202D01*
X146677902Y-72166866D01*
X146671500Y-72127539D01*
X146671500Y-67419528D01*
X176961500Y-67419528D01*
X176961500Y-67728471D01*
X176996086Y-68035437D01*
X176996089Y-68035455D01*
X177064831Y-68336635D01*
X177064835Y-68336647D01*
X177166862Y-68628222D01*
X177166868Y-68628236D01*
X177300903Y-68906562D01*
X177300905Y-68906565D01*
X177465265Y-69168143D01*
X177533452Y-69253646D01*
X177641410Y-69389022D01*
X177657880Y-69409674D01*
X177876326Y-69628120D01*
X178117857Y-69820735D01*
X178379435Y-69985095D01*
X178657771Y-70119135D01*
X178657777Y-70119137D01*
X178949352Y-70221164D01*
X178949364Y-70221168D01*
X179250548Y-70289911D01*
X179250554Y-70289911D01*
X179250562Y-70289913D01*
X179455206Y-70312970D01*
X179557529Y-70324499D01*
X179557532Y-70324500D01*
X179557535Y-70324500D01*
X179866468Y-70324500D01*
X179866469Y-70324499D01*
X180023356Y-70306822D01*
X180173437Y-70289913D01*
X180173442Y-70289912D01*
X180173452Y-70289911D01*
X180474636Y-70221168D01*
X180766229Y-70119135D01*
X181044565Y-69985095D01*
X181306143Y-69820735D01*
X181547674Y-69628120D01*
X181766120Y-69409674D01*
X181958735Y-69168143D01*
X182123095Y-68906565D01*
X182257135Y-68628229D01*
X182359168Y-68336636D01*
X182427911Y-68035452D01*
X182436377Y-67960319D01*
X182462499Y-67728471D01*
X182462500Y-67728467D01*
X182462500Y-67419532D01*
X182462499Y-67419528D01*
X182427913Y-67112562D01*
X182427910Y-67112544D01*
X182359168Y-66811364D01*
X182359164Y-66811352D01*
X182257137Y-66519777D01*
X182257135Y-66519771D01*
X182123095Y-66241435D01*
X181958735Y-65979857D01*
X181766120Y-65738326D01*
X181547674Y-65519880D01*
X181306143Y-65327265D01*
X181125485Y-65213750D01*
X181044562Y-65162903D01*
X180766236Y-65028868D01*
X180766222Y-65028862D01*
X180474647Y-64926835D01*
X180474635Y-64926831D01*
X180173455Y-64858089D01*
X180173437Y-64858086D01*
X179866471Y-64823500D01*
X179866465Y-64823500D01*
X179557535Y-64823500D01*
X179557528Y-64823500D01*
X179250562Y-64858086D01*
X179250544Y-64858089D01*
X178949364Y-64926831D01*
X178949352Y-64926835D01*
X178657777Y-65028862D01*
X178657763Y-65028868D01*
X178379437Y-65162903D01*
X178117858Y-65327264D01*
X177876326Y-65519879D01*
X177657879Y-65738326D01*
X177465264Y-65979858D01*
X177300903Y-66241437D01*
X177166868Y-66519763D01*
X177166862Y-66519777D01*
X177064835Y-66811352D01*
X177064831Y-66811364D01*
X176996089Y-67112544D01*
X176996086Y-67112562D01*
X176961500Y-67419528D01*
X146671500Y-67419528D01*
X146671500Y-67223768D01*
X146671499Y-67223766D01*
X146649376Y-67112548D01*
X146637855Y-67054626D01*
X146637853Y-67054621D01*
X146571861Y-66895301D01*
X146571854Y-66895288D01*
X146476045Y-66751901D01*
X146476042Y-66751897D01*
X146354102Y-66629957D01*
X146354098Y-66629954D01*
X146210711Y-66534145D01*
X146210698Y-66534138D01*
X146051378Y-66468146D01*
X146051366Y-66468143D01*
X145882232Y-66434500D01*
X145882229Y-66434500D01*
X145709771Y-66434500D01*
X145709768Y-66434500D01*
X145540633Y-66468143D01*
X145540621Y-66468146D01*
X145381301Y-66534138D01*
X145381288Y-66534145D01*
X145237901Y-66629954D01*
X145237897Y-66629957D01*
X145115957Y-66751897D01*
X145115954Y-66751901D01*
X145020145Y-66895288D01*
X145020138Y-66895301D01*
X144954146Y-67054621D01*
X144954143Y-67054633D01*
X144920500Y-67223766D01*
X144920500Y-69349113D01*
X144900815Y-69416152D01*
X144848011Y-69461907D01*
X144778853Y-69471851D01*
X144749043Y-69463672D01*
X144729486Y-69455570D01*
X144729474Y-69455565D01*
X144688676Y-69440966D01*
X144682739Y-69438842D01*
X144586582Y-69409673D01*
X144518504Y-69389022D01*
X144491022Y-69382139D01*
X144470373Y-69376967D01*
X144470348Y-69376962D01*
X144461807Y-69375263D01*
X144399897Y-69342877D01*
X144365323Y-69282161D01*
X144362000Y-69253646D01*
X144362000Y-69237500D01*
X143511000Y-69237500D01*
X143443961Y-69217815D01*
X143398206Y-69165011D01*
X143387000Y-69113500D01*
X143387000Y-68987500D01*
X143261000Y-68987500D01*
X143193961Y-68967815D01*
X143148206Y-68915011D01*
X143137000Y-68863500D01*
X143137000Y-68737500D01*
X143637000Y-68737500D01*
X144361999Y-68737500D01*
X144361999Y-68638360D01*
X144361998Y-68638345D01*
X144351680Y-68537347D01*
X144297453Y-68373699D01*
X144297448Y-68373688D01*
X144206947Y-68226965D01*
X144206944Y-68226961D01*
X144085038Y-68105055D01*
X144085034Y-68105052D01*
X143938311Y-68014551D01*
X143938300Y-68014546D01*
X143774652Y-67960319D01*
X143673654Y-67950000D01*
X143637000Y-67950000D01*
X143637000Y-68737500D01*
X143137000Y-68737500D01*
X143137000Y-67950000D01*
X143100361Y-67950000D01*
X143100343Y-67950001D01*
X142999347Y-67960319D01*
X142835699Y-68014546D01*
X142835688Y-68014551D01*
X142688965Y-68105052D01*
X142688961Y-68105055D01*
X142567055Y-68226961D01*
X142567052Y-68226965D01*
X142476551Y-68373688D01*
X142476547Y-68373697D01*
X142472206Y-68386799D01*
X142432432Y-68444244D01*
X142367916Y-68471066D01*
X142299141Y-68458750D01*
X142247941Y-68411207D01*
X142230500Y-68347794D01*
X142230500Y-62959500D01*
X142250185Y-62892461D01*
X142302989Y-62846706D01*
X142354500Y-62835500D01*
X146536770Y-62835500D01*
X146603809Y-62855185D01*
X146624451Y-62871819D01*
X146655344Y-62902712D01*
X146804666Y-62994814D01*
X146971203Y-63049999D01*
X147073991Y-63060500D01*
X148074008Y-63060499D01*
X148074016Y-63060498D01*
X148074019Y-63060498D01*
X148130302Y-63054748D01*
X148176797Y-63049999D01*
X148343334Y-62994814D01*
X148492656Y-62902712D01*
X148616712Y-62778656D01*
X148708814Y-62629334D01*
X148763999Y-62462797D01*
X148774500Y-62360009D01*
X148774499Y-61559992D01*
X148770333Y-61519213D01*
X148763999Y-61457203D01*
X148763998Y-61457200D01*
X148748914Y-61411681D01*
X148708814Y-61290666D01*
X148616712Y-61141344D01*
X148523049Y-61047681D01*
X148489564Y-60986358D01*
X148494548Y-60916666D01*
X148523049Y-60872319D01*
X148558630Y-60836738D01*
X148616712Y-60778656D01*
X148708814Y-60629334D01*
X148763999Y-60462797D01*
X148774500Y-60360009D01*
X148774499Y-59559992D01*
X148770971Y-59525459D01*
X148763999Y-59457203D01*
X148763998Y-59457200D01*
X148751837Y-59420501D01*
X148708814Y-59290666D01*
X148616712Y-59141344D01*
X148492656Y-59017288D01*
X148487549Y-59012181D01*
X148488614Y-59011115D01*
X148474851Y-58989699D01*
X148456212Y-58963375D01*
X148455608Y-58959755D01*
X148454523Y-58958067D01*
X148449500Y-58923132D01*
X148449500Y-58676858D01*
X148469185Y-58609819D01*
X148510028Y-58570877D01*
X148509908Y-58570697D01*
X148510943Y-58570005D01*
X148511506Y-58569468D01*
X148513274Y-58568448D01*
X148690124Y-58432747D01*
X148847747Y-58275124D01*
X148904997Y-58200513D01*
X148961424Y-58159311D01*
X149003373Y-58152000D01*
X161968718Y-58152000D01*
X162035757Y-58171685D01*
X162056399Y-58188319D01*
X167044215Y-63176137D01*
X167044219Y-63176140D01*
X167208079Y-63285628D01*
X167208085Y-63285631D01*
X167208086Y-63285632D01*
X167390165Y-63361052D01*
X167551389Y-63393121D01*
X167583457Y-63399499D01*
X167583458Y-63399500D01*
X167583459Y-63399500D01*
X167583460Y-63399500D01*
X167780541Y-63399500D01*
X177301800Y-63399500D01*
X177368839Y-63419185D01*
X177381365Y-63428493D01*
X177554179Y-63554048D01*
X177554181Y-63554049D01*
X177554184Y-63554051D01*
X177743588Y-63650557D01*
X177945757Y-63716246D01*
X178155713Y-63749500D01*
X178155714Y-63749500D01*
X178160525Y-63750262D01*
X178160357Y-63751320D01*
X178220829Y-63774363D01*
X178233504Y-63785425D01*
X178249215Y-63801137D01*
X178249217Y-63801139D01*
X178402840Y-63903786D01*
X178413086Y-63910632D01*
X178519745Y-63954811D01*
X178595164Y-63986051D01*
X178788454Y-64024499D01*
X178788457Y-64024500D01*
X178788459Y-64024500D01*
X178985540Y-64024500D01*
X179251800Y-64024500D01*
X179318839Y-64044185D01*
X179331365Y-64053493D01*
X179504179Y-64179048D01*
X179504181Y-64179049D01*
X179504184Y-64179051D01*
X179693588Y-64275557D01*
X179895757Y-64341246D01*
X180105713Y-64374500D01*
X180105714Y-64374500D01*
X180318286Y-64374500D01*
X180318287Y-64374500D01*
X180528243Y-64341246D01*
X180730412Y-64275557D01*
X180919816Y-64179051D01*
X180941789Y-64163086D01*
X181091786Y-64054109D01*
X181091788Y-64054106D01*
X181091792Y-64054104D01*
X181242104Y-63903792D01*
X181242106Y-63903788D01*
X181242109Y-63903786D01*
X181367048Y-63731820D01*
X181367047Y-63731820D01*
X181367051Y-63731816D01*
X181463557Y-63542412D01*
X181529246Y-63340243D01*
X181562500Y-63130287D01*
X181562500Y-62917713D01*
X181529246Y-62707757D01*
X181463557Y-62505588D01*
X181367051Y-62316184D01*
X181367049Y-62316181D01*
X181367048Y-62316179D01*
X181242109Y-62144213D01*
X181091786Y-61993890D01*
X180919820Y-61868951D01*
X180730414Y-61772444D01*
X180730413Y-61772443D01*
X180730412Y-61772443D01*
X180528243Y-61706754D01*
X180528241Y-61706753D01*
X180528240Y-61706753D01*
X180366957Y-61681208D01*
X180318287Y-61673500D01*
X180105713Y-61673500D01*
X180057042Y-61681208D01*
X179895760Y-61706753D01*
X179693582Y-61772445D01*
X179617401Y-61811261D01*
X179548732Y-61824157D01*
X179483992Y-61797880D01*
X179450622Y-61757071D01*
X179424984Y-61706754D01*
X179417051Y-61691184D01*
X179417049Y-61691181D01*
X179417048Y-61691179D01*
X179292109Y-61519213D01*
X179184577Y-61411681D01*
X179151092Y-61350358D01*
X179156076Y-61280666D01*
X179184577Y-61236319D01*
X179231935Y-61188961D01*
X179292104Y-61128792D01*
X179292106Y-61128788D01*
X179292109Y-61128786D01*
X179373116Y-61017288D01*
X179417051Y-60956816D01*
X179450622Y-60890926D01*
X179498594Y-60840133D01*
X179566415Y-60823337D01*
X179617401Y-60836738D01*
X179650820Y-60853765D01*
X179693588Y-60875557D01*
X179895757Y-60941246D01*
X180105713Y-60974500D01*
X180105714Y-60974500D01*
X180318286Y-60974500D01*
X180318287Y-60974500D01*
X180528243Y-60941246D01*
X180730412Y-60875557D01*
X180919816Y-60779051D01*
X181052890Y-60682368D01*
X181091786Y-60654109D01*
X181091788Y-60654106D01*
X181091792Y-60654104D01*
X181242104Y-60503792D01*
X181242106Y-60503788D01*
X181242109Y-60503786D01*
X181367048Y-60331820D01*
X181367047Y-60331820D01*
X181367051Y-60331816D01*
X181463557Y-60142412D01*
X181529246Y-59940243D01*
X181562500Y-59730287D01*
X181562500Y-59517713D01*
X181529246Y-59307757D01*
X181463557Y-59105588D01*
X181367051Y-58916184D01*
X181367049Y-58916181D01*
X181367048Y-58916179D01*
X181242109Y-58744213D01*
X181091786Y-58593890D01*
X180919820Y-58468951D01*
X180730414Y-58372444D01*
X180730413Y-58372443D01*
X180730412Y-58372443D01*
X180528243Y-58306754D01*
X180528241Y-58306753D01*
X180528240Y-58306753D01*
X180361544Y-58280351D01*
X180318287Y-58273500D01*
X180318286Y-58273500D01*
X180313475Y-58272738D01*
X180313641Y-58271683D01*
X180253151Y-58248622D01*
X180240496Y-58237576D01*
X180013445Y-58010525D01*
X179979960Y-57949202D01*
X179984944Y-57879510D01*
X180026816Y-57823577D01*
X180087243Y-57799624D01*
X180137276Y-57793986D01*
X180173436Y-57789913D01*
X180173440Y-57789912D01*
X180173452Y-57789911D01*
X180474636Y-57721168D01*
X180766229Y-57619135D01*
X181044565Y-57485095D01*
X181306143Y-57320735D01*
X181547674Y-57128120D01*
X181766120Y-56909674D01*
X181958735Y-56668143D01*
X182123095Y-56406565D01*
X182257135Y-56128229D01*
X182359168Y-55836636D01*
X182427911Y-55535452D01*
X182434149Y-55480094D01*
X182462499Y-55228471D01*
X182462500Y-55228467D01*
X182462500Y-54919532D01*
X182462499Y-54919528D01*
X182427913Y-54612562D01*
X182427910Y-54612544D01*
X182359168Y-54311364D01*
X182359164Y-54311352D01*
X182257137Y-54019777D01*
X182257135Y-54019771D01*
X182123095Y-53741435D01*
X181958735Y-53479857D01*
X181766120Y-53238326D01*
X181547674Y-53019880D01*
X181306143Y-52827265D01*
X181044565Y-52662905D01*
X181044562Y-52662903D01*
X180766236Y-52528868D01*
X180766222Y-52528862D01*
X180474647Y-52426835D01*
X180474635Y-52426831D01*
X180173455Y-52358089D01*
X180173437Y-52358086D01*
X179866471Y-52323500D01*
X179866465Y-52323500D01*
X179557535Y-52323500D01*
X179557528Y-52323500D01*
X179250562Y-52358086D01*
X179250544Y-52358089D01*
X178949364Y-52426831D01*
X178949352Y-52426835D01*
X178657777Y-52528862D01*
X178657763Y-52528868D01*
X178379437Y-52662903D01*
X178117858Y-52827264D01*
X177876326Y-53019879D01*
X177657879Y-53238326D01*
X177465264Y-53479858D01*
X177300903Y-53741437D01*
X177166868Y-54019763D01*
X177166862Y-54019777D01*
X177064835Y-54311352D01*
X177064831Y-54311364D01*
X176996089Y-54612544D01*
X176996086Y-54612562D01*
X176961500Y-54919528D01*
X176961500Y-55228471D01*
X176996086Y-55535437D01*
X176996089Y-55535455D01*
X177064831Y-55836635D01*
X177064835Y-55836647D01*
X177166862Y-56128222D01*
X177166868Y-56128236D01*
X177300903Y-56406562D01*
X177419010Y-56594528D01*
X177438010Y-56661765D01*
X177417642Y-56728600D01*
X177364374Y-56773814D01*
X177314016Y-56784500D01*
X174400301Y-56784500D01*
X174333262Y-56764815D01*
X174287507Y-56712011D01*
X174282598Y-56699512D01*
X174254814Y-56615665D01*
X174162712Y-56466344D01*
X174038656Y-56342288D01*
X173913143Y-56264871D01*
X173889337Y-56250187D01*
X173889332Y-56250185D01*
X173887863Y-56249698D01*
X173722798Y-56195001D01*
X173722796Y-56195000D01*
X173620017Y-56184500D01*
X173620010Y-56184500D01*
X171819990Y-56184500D01*
X171819982Y-56184500D01*
X171717203Y-56195000D01*
X171717202Y-56195001D01*
X171667297Y-56211538D01*
X171550667Y-56250185D01*
X171550662Y-56250187D01*
X171401342Y-56342289D01*
X171277289Y-56466342D01*
X171185187Y-56615662D01*
X171185185Y-56615667D01*
X171167797Y-56668141D01*
X171130001Y-56782202D01*
X171130001Y-56782203D01*
X171130000Y-56782203D01*
X171119500Y-56884982D01*
X171119500Y-58685017D01*
X171130000Y-58787796D01*
X171185185Y-58954332D01*
X171185187Y-58954337D01*
X171249993Y-59059403D01*
X171268433Y-59126796D01*
X171247510Y-59193459D01*
X171193868Y-59238229D01*
X171144454Y-59248500D01*
X170597546Y-59248500D01*
X170530507Y-59228815D01*
X170484752Y-59176011D01*
X170474808Y-59106853D01*
X170492007Y-59059403D01*
X170521649Y-59011346D01*
X170556814Y-58954335D01*
X170611999Y-58787798D01*
X170622500Y-58685010D01*
X170622500Y-56884990D01*
X170611999Y-56782202D01*
X170556814Y-56615665D01*
X170464712Y-56466344D01*
X170340656Y-56342288D01*
X170215143Y-56264871D01*
X170191337Y-56250187D01*
X170191332Y-56250185D01*
X170189863Y-56249698D01*
X170024798Y-56195001D01*
X170024796Y-56195000D01*
X169922017Y-56184500D01*
X169922010Y-56184500D01*
X168121990Y-56184500D01*
X168121982Y-56184500D01*
X168019203Y-56195000D01*
X168019202Y-56195001D01*
X167969297Y-56211538D01*
X167852667Y-56250185D01*
X167852662Y-56250187D01*
X167703342Y-56342289D01*
X167579289Y-56466342D01*
X167487187Y-56615662D01*
X167487185Y-56615667D01*
X167469797Y-56668141D01*
X167432001Y-56782202D01*
X167432001Y-56782203D01*
X167432000Y-56782203D01*
X167421500Y-56884982D01*
X167421500Y-58685017D01*
X167432000Y-58787796D01*
X167474542Y-58916179D01*
X167487186Y-58954335D01*
X167579288Y-59103656D01*
X167703344Y-59227712D01*
X167852665Y-59319814D01*
X167949398Y-59351868D01*
X167959634Y-59358955D01*
X167971752Y-59361819D01*
X167987819Y-59378469D01*
X168006842Y-59391641D01*
X168012795Y-59404354D01*
X168020268Y-59412098D01*
X168032010Y-59445382D01*
X168047939Y-59525459D01*
X168047939Y-59525460D01*
X168059946Y-59585828D01*
X168059949Y-59585837D01*
X168135364Y-59767907D01*
X168135371Y-59767920D01*
X168244860Y-59931781D01*
X168244863Y-59931785D01*
X168388537Y-60075459D01*
X168388559Y-60075479D01*
X169196735Y-60883655D01*
X169196764Y-60883686D01*
X169339214Y-61026136D01*
X169339218Y-61026139D01*
X169503079Y-61135628D01*
X169503088Y-61135633D01*
X169561768Y-61159939D01*
X169616171Y-61203780D01*
X169638236Y-61270074D01*
X169620957Y-61337773D01*
X169569820Y-61385384D01*
X169514315Y-61398500D01*
X168147783Y-61398500D01*
X168080744Y-61378815D01*
X168060102Y-61362181D01*
X163218709Y-56520789D01*
X163218706Y-56520785D01*
X163218706Y-56520786D01*
X163211639Y-56513719D01*
X163211639Y-56513718D01*
X163072282Y-56374361D01*
X163072281Y-56374360D01*
X163072280Y-56374359D01*
X162908420Y-56264871D01*
X162908411Y-56264866D01*
X162786882Y-56214527D01*
X162786879Y-56214526D01*
X162779665Y-56211538D01*
X162726336Y-56189449D01*
X162616011Y-56167504D01*
X162611733Y-56166653D01*
X162611722Y-56166650D01*
X162533043Y-56151000D01*
X162533041Y-56151000D01*
X149003373Y-56151000D01*
X148936334Y-56131315D01*
X148904997Y-56102486D01*
X148847748Y-56027877D01*
X148847742Y-56027870D01*
X148690129Y-55870257D01*
X148690122Y-55870251D01*
X148513282Y-55734558D01*
X148513280Y-55734557D01*
X148513274Y-55734552D01*
X148320226Y-55623095D01*
X148320222Y-55623093D01*
X148114290Y-55537793D01*
X148114283Y-55537791D01*
X148114281Y-55537790D01*
X147898963Y-55480096D01*
X147898957Y-55480095D01*
X147898952Y-55480094D01*
X147677966Y-55451001D01*
X147677963Y-55451000D01*
X147677957Y-55451000D01*
X147455043Y-55451000D01*
X147455037Y-55451000D01*
X147455033Y-55451001D01*
X147234047Y-55480094D01*
X147234040Y-55480095D01*
X147234037Y-55480096D01*
X147027501Y-55535437D01*
X147018719Y-55537790D01*
X147018709Y-55537793D01*
X146812777Y-55623093D01*
X146812773Y-55623095D01*
X146619726Y-55734552D01*
X146619717Y-55734558D01*
X146442877Y-55870251D01*
X146442870Y-55870257D01*
X146285257Y-56027870D01*
X146285251Y-56027877D01*
X146149558Y-56204717D01*
X146149552Y-56204726D01*
X146038095Y-56397773D01*
X146038093Y-56397777D01*
X145952793Y-56603709D01*
X145952790Y-56603719D01*
X145907214Y-56773814D01*
X145895097Y-56819034D01*
X145895094Y-56819047D01*
X145866001Y-57040033D01*
X145866000Y-57040049D01*
X145866000Y-57262950D01*
X145866001Y-57262966D01*
X145895094Y-57483952D01*
X145895095Y-57483957D01*
X145895096Y-57483963D01*
X145895400Y-57485096D01*
X145952790Y-57699280D01*
X145952793Y-57699290D01*
X146004657Y-57824500D01*
X146038095Y-57905226D01*
X146149552Y-58098274D01*
X146149557Y-58098280D01*
X146149558Y-58098282D01*
X146285251Y-58275122D01*
X146285257Y-58275129D01*
X146442870Y-58432742D01*
X146442877Y-58432748D01*
X146619724Y-58568447D01*
X146619726Y-58568448D01*
X146636498Y-58578131D01*
X146644782Y-58586818D01*
X146655703Y-58591806D01*
X146668446Y-58611635D01*
X146684714Y-58628695D01*
X146687930Y-58641953D01*
X146693477Y-58650584D01*
X146698500Y-58685519D01*
X146698500Y-58923132D01*
X146678815Y-58990171D01*
X146659616Y-59011346D01*
X146660451Y-59012181D01*
X146531289Y-59141342D01*
X146439187Y-59290663D01*
X146439185Y-59290668D01*
X146429527Y-59319814D01*
X146384001Y-59457203D01*
X146384001Y-59457204D01*
X146384000Y-59457204D01*
X146373500Y-59559983D01*
X146373500Y-60360001D01*
X146373501Y-60360019D01*
X146384000Y-60462796D01*
X146384001Y-60462799D01*
X146439185Y-60629331D01*
X146439187Y-60629336D01*
X146531289Y-60778657D01*
X146624951Y-60872319D01*
X146629289Y-60880264D01*
X146636537Y-60885690D01*
X146645771Y-60910449D01*
X146658436Y-60933642D01*
X146657790Y-60942671D01*
X146660954Y-60951154D01*
X146655337Y-60976974D01*
X146653452Y-61003334D01*
X146647633Y-61012387D01*
X146646102Y-61019427D01*
X146624951Y-61047681D01*
X146624451Y-61048181D01*
X146563128Y-61081666D01*
X146536770Y-61084500D01*
X138451230Y-61084500D01*
X138384191Y-61064815D01*
X138363549Y-61048181D01*
X138363049Y-61047681D01*
X138329564Y-60986358D01*
X138334548Y-60916666D01*
X138363049Y-60872319D01*
X138398630Y-60836738D01*
X138456712Y-60778656D01*
X138548814Y-60629334D01*
X138603999Y-60462797D01*
X138614500Y-60360009D01*
X138614499Y-59559992D01*
X138610971Y-59525459D01*
X138603999Y-59457203D01*
X138603998Y-59457200D01*
X138591837Y-59420501D01*
X138548814Y-59290666D01*
X138456712Y-59141344D01*
X138332656Y-59017288D01*
X138327549Y-59012181D01*
X138328614Y-59011115D01*
X138314851Y-58989699D01*
X138296212Y-58963375D01*
X138295608Y-58959755D01*
X138294523Y-58958067D01*
X138289500Y-58923132D01*
X138289500Y-58676858D01*
X138309185Y-58609819D01*
X138350028Y-58570877D01*
X138349908Y-58570697D01*
X138350943Y-58570005D01*
X138351506Y-58569468D01*
X138353274Y-58568448D01*
X138530124Y-58432747D01*
X138687747Y-58275124D01*
X138823448Y-58098274D01*
X138934905Y-57905226D01*
X139020210Y-57699281D01*
X139077904Y-57483963D01*
X139107000Y-57262957D01*
X139107000Y-57040043D01*
X139094724Y-56946800D01*
X139105489Y-56877768D01*
X139129979Y-56842939D01*
X147311102Y-48661819D01*
X147372425Y-48628334D01*
X147398783Y-48625500D01*
X167708038Y-48625500D01*
X167775077Y-48645185D01*
X167797349Y-48664623D01*
X167797762Y-48664211D01*
X167979345Y-48845794D01*
X167979350Y-48845798D01*
X168081769Y-48920209D01*
X168183155Y-48993870D01*
X168326184Y-49066747D01*
X168407616Y-49108239D01*
X168407618Y-49108239D01*
X168407621Y-49108241D01*
X168647215Y-49186090D01*
X168896038Y-49225500D01*
X168896039Y-49225500D01*
X169147961Y-49225500D01*
X169147962Y-49225500D01*
X169396785Y-49186090D01*
X169636379Y-49108241D01*
X169860845Y-48993870D01*
X170064656Y-48845793D01*
X170242793Y-48667656D01*
X170390870Y-48463845D01*
X170505241Y-48239379D01*
X170583090Y-47999785D01*
X170622500Y-47750962D01*
X170622500Y-47499038D01*
X171119500Y-47499038D01*
X171119500Y-47750961D01*
X171158910Y-47999785D01*
X171236760Y-48239383D01*
X171351132Y-48463848D01*
X171499201Y-48667649D01*
X171499205Y-48667654D01*
X171677345Y-48845794D01*
X171677350Y-48845798D01*
X171779769Y-48920209D01*
X171881155Y-48993870D01*
X172024184Y-49066747D01*
X172105616Y-49108239D01*
X172105618Y-49108239D01*
X172105621Y-49108241D01*
X172345215Y-49186090D01*
X172594038Y-49225500D01*
X172594039Y-49225500D01*
X172845961Y-49225500D01*
X172845962Y-49225500D01*
X173094785Y-49186090D01*
X173334379Y-49108241D01*
X173558845Y-48993870D01*
X173762656Y-48845793D01*
X173940793Y-48667656D01*
X174088870Y-48463845D01*
X174203241Y-48239379D01*
X174281090Y-47999785D01*
X174320500Y-47750962D01*
X174320500Y-47499038D01*
X174281090Y-47250215D01*
X174203241Y-47010621D01*
X174203239Y-47010618D01*
X174203239Y-47010616D01*
X174132107Y-46871013D01*
X174088870Y-46786155D01*
X173999354Y-46662946D01*
X173940798Y-46582350D01*
X173940794Y-46582345D01*
X173762654Y-46404205D01*
X173762649Y-46404201D01*
X173558848Y-46256132D01*
X173558847Y-46256131D01*
X173558845Y-46256130D01*
X173488747Y-46220413D01*
X173334383Y-46141760D01*
X173094785Y-46063910D01*
X173078199Y-46061283D01*
X172845962Y-46024500D01*
X172594038Y-46024500D01*
X172469626Y-46044205D01*
X172345214Y-46063910D01*
X172105616Y-46141760D01*
X171881151Y-46256132D01*
X171677350Y-46404201D01*
X171677345Y-46404205D01*
X171499205Y-46582345D01*
X171499201Y-46582350D01*
X171351132Y-46786151D01*
X171236760Y-47010616D01*
X171158910Y-47250214D01*
X171119500Y-47499038D01*
X170622500Y-47499038D01*
X170583090Y-47250215D01*
X170505241Y-47010621D01*
X170505239Y-47010618D01*
X170505239Y-47010616D01*
X170434107Y-46871013D01*
X170390870Y-46786155D01*
X170301354Y-46662946D01*
X170242798Y-46582350D01*
X170242794Y-46582345D01*
X170064654Y-46404205D01*
X170064649Y-46404201D01*
X169860848Y-46256132D01*
X169860847Y-46256131D01*
X169860845Y-46256130D01*
X169790747Y-46220413D01*
X169636383Y-46141760D01*
X169396785Y-46063910D01*
X169380199Y-46061283D01*
X169147962Y-46024500D01*
X168896038Y-46024500D01*
X168771626Y-46044205D01*
X168647214Y-46063910D01*
X168407616Y-46141760D01*
X168183151Y-46256132D01*
X167979350Y-46404201D01*
X167979345Y-46404205D01*
X167797762Y-46585789D01*
X167796687Y-46584714D01*
X167743820Y-46619225D01*
X167708038Y-46624500D01*
X147037675Y-46624500D01*
X147037655Y-46624499D01*
X147031541Y-46624499D01*
X146834460Y-46624499D01*
X146834457Y-46624499D01*
X146641172Y-46662946D01*
X146641164Y-46662948D01*
X146459088Y-46738366D01*
X146459079Y-46738371D01*
X146295219Y-46847859D01*
X146295215Y-46847862D01*
X137715062Y-55428016D01*
X137653739Y-55461501D01*
X137611197Y-55463274D01*
X137517959Y-55451000D01*
X137517957Y-55451000D01*
X137295043Y-55451000D01*
X137295037Y-55451000D01*
X137295033Y-55451001D01*
X137074047Y-55480094D01*
X137074040Y-55480095D01*
X137074037Y-55480096D01*
X136867501Y-55535437D01*
X136858719Y-55537790D01*
X136858709Y-55537793D01*
X136652777Y-55623093D01*
X136652773Y-55623095D01*
X136459726Y-55734552D01*
X136459717Y-55734558D01*
X136282877Y-55870251D01*
X136282870Y-55870257D01*
X136125257Y-56027870D01*
X136125251Y-56027877D01*
X135989558Y-56204717D01*
X135989552Y-56204726D01*
X135878095Y-56397773D01*
X135878093Y-56397777D01*
X135792793Y-56603709D01*
X135792790Y-56603719D01*
X135747214Y-56773814D01*
X135735097Y-56819034D01*
X135735094Y-56819047D01*
X135706001Y-57040033D01*
X135706000Y-57040049D01*
X132171731Y-57040049D01*
X132093748Y-56895659D01*
X131777024Y-56309224D01*
X131777013Y-56309205D01*
X131537478Y-55865691D01*
X131537474Y-55865687D01*
X129229747Y-54352423D01*
X129229744Y-54352422D01*
X129092216Y-54311352D01*
X127540621Y-53848000D01*
X127540619Y-53848000D01*
X113017811Y-53959492D01*
X113008920Y-53959242D01*
X112736082Y-53941738D01*
X112718467Y-53939330D01*
X112455324Y-53883911D01*
X112438235Y-53879010D01*
X112185707Y-53786525D01*
X112169500Y-53779233D01*
X111932785Y-53651580D01*
X111917790Y-53642046D01*
X111701778Y-53481866D01*
X111688297Y-53470283D01*
X111592849Y-53375566D01*
X111497406Y-53280852D01*
X111485717Y-53267457D01*
X111323881Y-53052679D01*
X111314230Y-53037754D01*
X111184767Y-52802030D01*
X111177354Y-52785888D01*
X111082929Y-52534069D01*
X111077900Y-52517031D01*
X111020456Y-52254290D01*
X111017917Y-52236716D01*
X110998319Y-51964025D01*
X110998000Y-51955136D01*
X110998000Y-46423135D01*
X113915500Y-46423135D01*
X113915500Y-48318870D01*
X113915501Y-48318876D01*
X113921908Y-48378483D01*
X113972202Y-48513328D01*
X113972206Y-48513335D01*
X114058452Y-48628544D01*
X114058455Y-48628547D01*
X114173664Y-48714793D01*
X114173671Y-48714797D01*
X114253580Y-48744601D01*
X114309514Y-48786472D01*
X114333931Y-48851936D01*
X114319080Y-48920209D01*
X114297929Y-48948463D01*
X114247756Y-48998636D01*
X114247752Y-48998641D01*
X114118187Y-49176974D01*
X114018104Y-49373393D01*
X114018103Y-49373396D01*
X113949985Y-49583047D01*
X113915500Y-49800778D01*
X113915500Y-50021221D01*
X113949985Y-50238952D01*
X114018103Y-50448603D01*
X114018104Y-50448606D01*
X114118187Y-50645025D01*
X114247752Y-50823358D01*
X114247756Y-50823363D01*
X114403636Y-50979243D01*
X114403641Y-50979247D01*
X114559192Y-51092260D01*
X114581978Y-51108815D01*
X114710375Y-51174237D01*
X114778393Y-51208895D01*
X114778396Y-51208896D01*
X114883221Y-51242955D01*
X114988049Y-51277015D01*
X115205778Y-51311500D01*
X115205779Y-51311500D01*
X115426221Y-51311500D01*
X115426222Y-51311500D01*
X115643951Y-51277015D01*
X115853606Y-51208895D01*
X116050022Y-51108815D01*
X116228365Y-50979242D01*
X116384242Y-50823365D01*
X116513815Y-50645022D01*
X116613895Y-50448606D01*
X116682015Y-50238951D01*
X116716500Y-50021222D01*
X116716500Y-49800778D01*
X116682015Y-49583049D01*
X116613895Y-49373394D01*
X116613895Y-49373393D01*
X116538538Y-49225500D01*
X116513815Y-49176978D01*
X116463875Y-49108241D01*
X116384247Y-48998641D01*
X116384243Y-48998636D01*
X116334071Y-48948464D01*
X116300586Y-48887141D01*
X116305570Y-48817449D01*
X116347442Y-48761516D01*
X116378420Y-48744601D01*
X116458326Y-48714798D01*
X116458326Y-48714797D01*
X116458331Y-48714796D01*
X116573546Y-48628546D01*
X116659796Y-48513331D01*
X116710091Y-48378483D01*
X116712375Y-48357243D01*
X116739114Y-48292692D01*
X116796507Y-48252845D01*
X116835664Y-48246500D01*
X119883132Y-48246500D01*
X119950171Y-48266185D01*
X119971346Y-48285383D01*
X119972181Y-48284549D01*
X119977288Y-48289656D01*
X120101344Y-48413712D01*
X120250666Y-48505814D01*
X120417203Y-48560999D01*
X120519991Y-48571500D01*
X121320008Y-48571499D01*
X121320016Y-48571498D01*
X121320019Y-48571498D01*
X121376302Y-48565748D01*
X121422797Y-48560999D01*
X121589334Y-48505814D01*
X121738656Y-48413712D01*
X121832675Y-48319692D01*
X121893994Y-48286210D01*
X121963686Y-48291194D01*
X122008034Y-48319695D01*
X122101654Y-48413315D01*
X122250875Y-48505356D01*
X122250880Y-48505358D01*
X122417302Y-48560505D01*
X122417309Y-48560506D01*
X122520019Y-48570999D01*
X122669999Y-48570999D01*
X123170000Y-48570999D01*
X123319972Y-48570999D01*
X123319986Y-48570998D01*
X123422697Y-48560505D01*
X123589119Y-48505358D01*
X123589124Y-48505356D01*
X123738345Y-48413315D01*
X123862315Y-48289345D01*
X123954356Y-48140124D01*
X123954358Y-48140119D01*
X124009505Y-47973697D01*
X124009506Y-47973690D01*
X124019999Y-47870986D01*
X124020000Y-47870973D01*
X124020000Y-47621000D01*
X123170000Y-47621000D01*
X123170000Y-48570999D01*
X122669999Y-48570999D01*
X122670000Y-48570998D01*
X122670000Y-47121000D01*
X123170000Y-47121000D01*
X124019999Y-47121000D01*
X124019999Y-46871028D01*
X124019998Y-46871013D01*
X124009505Y-46768302D01*
X123954358Y-46601880D01*
X123954356Y-46601875D01*
X123862315Y-46452654D01*
X123738345Y-46328684D01*
X123589124Y-46236643D01*
X123589119Y-46236641D01*
X123422697Y-46181494D01*
X123422690Y-46181493D01*
X123319986Y-46171000D01*
X123170000Y-46171000D01*
X123170000Y-47121000D01*
X122670000Y-47121000D01*
X122670000Y-46171000D01*
X122520027Y-46171000D01*
X122520012Y-46171001D01*
X122417302Y-46181494D01*
X122250880Y-46236641D01*
X122250875Y-46236643D01*
X122101657Y-46328682D01*
X122008034Y-46422305D01*
X121946710Y-46455789D01*
X121877019Y-46450805D01*
X121832672Y-46422304D01*
X121738657Y-46328289D01*
X121738656Y-46328288D01*
X121589334Y-46236186D01*
X121422797Y-46181001D01*
X121422795Y-46181000D01*
X121320010Y-46170500D01*
X120519998Y-46170500D01*
X120519980Y-46170501D01*
X120417203Y-46181000D01*
X120417200Y-46181001D01*
X120250668Y-46236185D01*
X120250663Y-46236187D01*
X120101342Y-46328289D01*
X119972181Y-46457451D01*
X119970294Y-46455564D01*
X119923375Y-46488788D01*
X119883132Y-46495500D01*
X116835664Y-46495500D01*
X116768625Y-46475815D01*
X116722870Y-46423011D01*
X116712374Y-46384754D01*
X116712170Y-46382857D01*
X116710091Y-46363517D01*
X116662770Y-46236643D01*
X116659797Y-46228671D01*
X116659793Y-46228664D01*
X116573547Y-46113455D01*
X116573544Y-46113452D01*
X116458335Y-46027206D01*
X116458328Y-46027202D01*
X116323482Y-45976908D01*
X116323483Y-45976908D01*
X116263883Y-45970501D01*
X116263881Y-45970500D01*
X116263873Y-45970500D01*
X116263864Y-45970500D01*
X114368129Y-45970500D01*
X114368123Y-45970501D01*
X114308516Y-45976908D01*
X114173671Y-46027202D01*
X114173664Y-46027206D01*
X114058455Y-46113452D01*
X114058452Y-46113455D01*
X113972206Y-46228664D01*
X113972202Y-46228671D01*
X113921908Y-46363517D01*
X113915501Y-46423116D01*
X113915500Y-46423135D01*
X110998000Y-46423135D01*
X110998000Y-46070119D01*
X110998315Y-46061283D01*
X111006600Y-45945314D01*
X111017683Y-45790182D01*
X111020192Y-45772713D01*
X111076966Y-45511450D01*
X111081933Y-45494513D01*
X111175272Y-45243971D01*
X111182597Y-45227913D01*
X111310603Y-44993196D01*
X111320145Y-44978327D01*
X111480211Y-44764203D01*
X111491771Y-44750843D01*
X111607966Y-44634455D01*
X111680658Y-44561641D01*
X111693992Y-44550066D01*
X111907872Y-44389631D01*
X111922700Y-44380079D01*
X112157217Y-44251678D01*
X112173272Y-44244324D01*
X112423647Y-44150574D01*
X112440580Y-44145577D01*
X112701738Y-44088374D01*
X112719219Y-44085833D01*
X112990290Y-44066015D01*
X112999089Y-44065686D01*
X146609689Y-44010040D01*
X185698266Y-43945324D01*
X185707103Y-43945625D01*
G37*
%TD.AperFunction*%
%TD*%
%TA.AperFunction,Conductor*%
%TO.N,/Vcc-*%
G36*
X147984780Y-75999824D02*
G01*
X148047621Y-76025853D01*
X148047626Y-76025855D01*
X148216766Y-76059499D01*
X148216769Y-76059500D01*
X148216771Y-76059500D01*
X151174771Y-76059500D01*
X151444556Y-76059500D01*
X151458568Y-76063009D01*
X151469831Y-76062103D01*
X151503004Y-76074139D01*
X151567807Y-76108777D01*
X151588010Y-76122277D01*
X151720666Y-76231145D01*
X151737854Y-76248333D01*
X151846722Y-76380989D01*
X151860227Y-76401201D01*
X151941121Y-76552543D01*
X151950424Y-76575001D01*
X152000240Y-76739224D01*
X152004982Y-76763065D01*
X152022403Y-76939938D01*
X152023000Y-76952092D01*
X152023000Y-78749907D01*
X152022403Y-78762061D01*
X152004982Y-78938934D01*
X152000240Y-78962775D01*
X151950424Y-79126998D01*
X151941121Y-79149456D01*
X151860227Y-79300798D01*
X151846722Y-79321010D01*
X151737854Y-79453666D01*
X151720666Y-79470854D01*
X151588010Y-79579722D01*
X151567798Y-79593227D01*
X151416456Y-79674121D01*
X151393998Y-79683424D01*
X151229775Y-79733240D01*
X151205934Y-79737982D01*
X151029061Y-79755403D01*
X151016907Y-79756000D01*
X148203093Y-79756000D01*
X148190939Y-79755403D01*
X148014065Y-79737982D01*
X147990224Y-79733240D01*
X147826001Y-79683424D01*
X147803543Y-79674121D01*
X147660575Y-79597703D01*
X147610731Y-79548741D01*
X147595270Y-79480603D01*
X147613491Y-79423245D01*
X147616408Y-79418516D01*
X147670674Y-79254753D01*
X147681000Y-79153677D01*
X147680999Y-78580324D01*
X147670674Y-78479247D01*
X147616408Y-78315484D01*
X147525840Y-78168650D01*
X147403850Y-78046660D01*
X147403846Y-78046657D01*
X147255903Y-77955404D01*
X147209178Y-77903456D01*
X147197000Y-77849866D01*
X147197000Y-76952092D01*
X147197597Y-76939938D01*
X147215018Y-76763056D01*
X147219757Y-76739232D01*
X147269577Y-76574994D01*
X147278875Y-76552549D01*
X147359775Y-76401195D01*
X147373272Y-76380995D01*
X147482149Y-76248328D01*
X147499328Y-76231149D01*
X147631995Y-76122272D01*
X147652195Y-76108775D01*
X147803549Y-76027875D01*
X147825998Y-76018576D01*
X147901334Y-75995723D01*
X147971201Y-75995101D01*
X147984780Y-75999824D01*
G37*
%TD.AperFunction*%
%TD*%
%TA.AperFunction,Conductor*%
%TO.N,/Vcc+*%
G36*
X142685604Y-69868461D02*
G01*
X142688649Y-69870339D01*
X142688650Y-69870340D01*
X142835484Y-69960908D01*
X142999247Y-70015174D01*
X143100323Y-70025500D01*
X143673676Y-70025499D01*
X143673684Y-70025498D01*
X143673687Y-70025498D01*
X143729030Y-70019844D01*
X143774753Y-70015174D01*
X143938516Y-69960908D01*
X144085350Y-69870340D01*
X144085350Y-69870339D01*
X144088396Y-69868461D01*
X144104955Y-69863764D01*
X144118558Y-69855023D01*
X144153493Y-69850000D01*
X144158907Y-69850000D01*
X144171061Y-69850597D01*
X144347941Y-69868018D01*
X144371769Y-69872757D01*
X144536001Y-69922576D01*
X144558453Y-69931877D01*
X144612765Y-69960907D01*
X144709798Y-70012772D01*
X144730010Y-70026277D01*
X144862666Y-70135145D01*
X144879850Y-70152328D01*
X144892352Y-70167561D01*
X144919666Y-70231868D01*
X144920500Y-70246227D01*
X144920500Y-72755771D01*
X144900815Y-72822810D01*
X144892353Y-72834437D01*
X144879853Y-72849668D01*
X144862665Y-72866855D01*
X144730010Y-72975722D01*
X144709799Y-72989227D01*
X144645008Y-73023858D01*
X144586556Y-73038500D01*
X142030768Y-73038500D01*
X141861628Y-73072143D01*
X141861620Y-73072146D01*
X141836827Y-73082416D01*
X141812147Y-73085069D01*
X141788268Y-73091850D01*
X141772088Y-73089376D01*
X141767357Y-73089885D01*
X141753382Y-73086516D01*
X141729999Y-73079423D01*
X141707543Y-73070121D01*
X141556201Y-72989227D01*
X141535989Y-72975722D01*
X141403333Y-72866854D01*
X141386145Y-72849666D01*
X141277277Y-72717010D01*
X141263772Y-72696798D01*
X141182878Y-72545456D01*
X141173575Y-72522998D01*
X141123757Y-72358769D01*
X141119018Y-72334941D01*
X141101597Y-72158061D01*
X141101000Y-72145907D01*
X141101000Y-70885505D01*
X141120685Y-70818466D01*
X141137314Y-70797829D01*
X142035045Y-69900099D01*
X142035047Y-69900095D01*
X142038909Y-69895391D01*
X142041081Y-69897173D01*
X142085667Y-69860149D01*
X142134800Y-69850000D01*
X142620507Y-69850000D01*
X142685604Y-69868461D01*
G37*
%TD.AperFunction*%
%TD*%
%TA.AperFunction,Conductor*%
%TO.N,/Vcc-*%
G36*
X169023811Y-83947597D02*
G01*
X169036587Y-83948855D01*
X169200055Y-83964955D01*
X169223885Y-83969694D01*
X169387508Y-84019329D01*
X169409960Y-84028629D01*
X169560743Y-84109225D01*
X169580955Y-84122730D01*
X169713118Y-84231193D01*
X169730306Y-84248381D01*
X169838769Y-84380544D01*
X169852274Y-84400756D01*
X169932868Y-84551536D01*
X169942171Y-84573994D01*
X169991803Y-84737608D01*
X169996545Y-84761449D01*
X170013903Y-84937688D01*
X170014500Y-84949842D01*
X170014500Y-85582397D01*
X169994815Y-85649436D01*
X169942011Y-85695191D01*
X169929512Y-85700100D01*
X169926879Y-85700972D01*
X169920485Y-85703091D01*
X169920481Y-85703093D01*
X169773648Y-85793661D01*
X169651661Y-85915648D01*
X169561093Y-86062481D01*
X169561092Y-86062484D01*
X169506826Y-86226247D01*
X169506826Y-86226248D01*
X169506825Y-86226248D01*
X169496500Y-86327315D01*
X169496500Y-86900669D01*
X169496501Y-86900687D01*
X169506825Y-87001752D01*
X169543109Y-87111249D01*
X169561092Y-87165516D01*
X169651660Y-87312350D01*
X169773650Y-87434340D01*
X169920484Y-87524908D01*
X169920486Y-87524909D01*
X169929501Y-87527896D01*
X169986947Y-87567667D01*
X170013772Y-87632182D01*
X170014500Y-87645603D01*
X170014500Y-88147907D01*
X170013903Y-88160061D01*
X169996482Y-88336934D01*
X169991740Y-88360775D01*
X169941924Y-88524998D01*
X169932621Y-88547456D01*
X169851727Y-88698798D01*
X169838222Y-88719010D01*
X169729354Y-88851666D01*
X169712166Y-88868854D01*
X169579510Y-88977722D01*
X169559298Y-88991227D01*
X169407956Y-89072121D01*
X169385499Y-89081423D01*
X169290767Y-89110160D01*
X169254771Y-89115500D01*
X168208298Y-89115500D01*
X168171432Y-89118401D01*
X168171426Y-89118402D01*
X168065851Y-89149076D01*
X168031256Y-89154000D01*
X166614093Y-89154000D01*
X166601939Y-89153403D01*
X166425065Y-89135982D01*
X166401224Y-89131240D01*
X166237001Y-89081424D01*
X166214543Y-89072121D01*
X166063201Y-88991227D01*
X166042989Y-88977722D01*
X165910333Y-88868854D01*
X165893145Y-88851666D01*
X165784277Y-88719010D01*
X165770772Y-88698798D01*
X165689878Y-88547456D01*
X165680575Y-88524998D01*
X165630757Y-88360769D01*
X165626018Y-88336941D01*
X165608597Y-88160061D01*
X165608000Y-88147907D01*
X165608000Y-86858092D01*
X165608597Y-86845938D01*
X165626018Y-86669056D01*
X165630757Y-86645232D01*
X165680577Y-86480994D01*
X165689875Y-86458549D01*
X165770775Y-86307195D01*
X165784272Y-86286995D01*
X165893149Y-86154328D01*
X165910328Y-86137149D01*
X166042995Y-86028272D01*
X166063195Y-86014775D01*
X166214549Y-85933875D01*
X166236994Y-85924577D01*
X166401232Y-85874757D01*
X166425056Y-85870018D01*
X166601939Y-85852597D01*
X166614093Y-85852000D01*
X168021000Y-85852000D01*
X168021000Y-84905592D01*
X168021597Y-84893438D01*
X168038105Y-84725824D01*
X168042847Y-84701990D01*
X168089962Y-84546676D01*
X168099258Y-84524229D01*
X168175775Y-84381076D01*
X168189267Y-84360885D01*
X168292237Y-84235416D01*
X168309416Y-84218237D01*
X168434885Y-84115267D01*
X168455076Y-84101775D01*
X168598229Y-84025258D01*
X168620676Y-84015962D01*
X168775990Y-83968847D01*
X168799824Y-83964105D01*
X168967439Y-83947597D01*
X168979593Y-83947000D01*
X169011658Y-83947000D01*
X169023811Y-83947597D01*
G37*
%TD.AperFunction*%
%TD*%
%TA.AperFunction,Conductor*%
%TO.N,/Vcc+*%
G36*
X168766573Y-91995938D02*
G01*
X168843626Y-92027855D01*
X169012766Y-92061499D01*
X169012769Y-92061500D01*
X169012771Y-92061500D01*
X170704500Y-92061500D01*
X170771539Y-92081185D01*
X170817294Y-92133989D01*
X170828500Y-92185500D01*
X170828500Y-94188233D01*
X170862143Y-94357366D01*
X170862146Y-94357378D01*
X170928138Y-94516698D01*
X170928145Y-94516711D01*
X171023954Y-94660098D01*
X171023957Y-94660102D01*
X171917622Y-95553766D01*
X171951107Y-95615089D01*
X171946123Y-95684780D01*
X171905545Y-95739732D01*
X170986189Y-96446931D01*
X170972119Y-96456301D01*
X170840745Y-96531392D01*
X170809456Y-96543992D01*
X170671004Y-96578814D01*
X170637478Y-96582516D01*
X170494759Y-96578738D01*
X170461475Y-96573267D01*
X170325061Y-96531170D01*
X170294483Y-96516933D01*
X170167267Y-96434997D01*
X170153712Y-96424896D01*
X168703883Y-95182185D01*
X168665793Y-95123610D01*
X168661223Y-95075434D01*
X168665999Y-95028684D01*
X168666000Y-95028677D01*
X168665999Y-94455324D01*
X168655674Y-94354247D01*
X168601408Y-94190484D01*
X168510840Y-94043650D01*
X168388850Y-93921660D01*
X168242016Y-93831092D01*
X168078253Y-93776826D01*
X168078251Y-93776825D01*
X168005396Y-93769382D01*
X167940705Y-93742985D01*
X167900554Y-93685804D01*
X167894000Y-93646024D01*
X167894000Y-92606125D01*
X167895061Y-92589940D01*
X167914017Y-92445952D01*
X167914017Y-92445951D01*
X167922393Y-92414690D01*
X167974838Y-92288076D01*
X167991015Y-92260056D01*
X168074450Y-92151322D01*
X168097322Y-92128450D01*
X168206056Y-92045015D01*
X168234080Y-92028836D01*
X168313503Y-91995939D01*
X168360955Y-91986500D01*
X168719121Y-91986500D01*
X168766573Y-91995938D01*
G37*
%TD.AperFunction*%
%TA.AperFunction,Conductor*%
G36*
X174745059Y-91949061D02*
G01*
X174889048Y-91968017D01*
X174920311Y-91976394D01*
X175046919Y-92028836D01*
X175074946Y-92045017D01*
X175183673Y-92128447D01*
X175206552Y-92151326D01*
X175289980Y-92260050D01*
X175306164Y-92288082D01*
X175358604Y-92414684D01*
X175366982Y-92445951D01*
X175385939Y-92589939D01*
X175387000Y-92606125D01*
X175387000Y-93786538D01*
X175386123Y-93801263D01*
X175370429Y-93932484D01*
X175363484Y-93961102D01*
X175319891Y-94077949D01*
X175306393Y-94104124D01*
X175236476Y-94207393D01*
X175217187Y-94229646D01*
X175124888Y-94313517D01*
X175100896Y-94330594D01*
X175038881Y-94364435D01*
X174984883Y-94393901D01*
X174971544Y-94400181D01*
X174615962Y-94542415D01*
X173810875Y-94864448D01*
X173741320Y-94871069D01*
X173679227Y-94839035D01*
X173677142Y-94836998D01*
X172615819Y-93775675D01*
X172582334Y-93714352D01*
X172579500Y-93687994D01*
X172579500Y-92072000D01*
X172599185Y-92004961D01*
X172651989Y-91959206D01*
X172703500Y-91948000D01*
X174728874Y-91948000D01*
X174745059Y-91949061D01*
G37*
%TD.AperFunction*%
%TD*%
M02*
