%TF.GenerationSoftware,KiCad,Pcbnew,9.0.6*%
%TF.CreationDate,2026-07-30T14:14:13-04:00*%
%TF.ProjectId,catpaw,63617470-6177-42e6-9b69-6361645f7063,rev?*%
%TF.SameCoordinates,Original*%
%TF.FileFunction,Copper,L1,Top*%
%TF.FilePolarity,Positive*%
%FSLAX46Y46*%
G04 Gerber Fmt 4.6, Leading zero omitted, Abs format (unit mm)*
G04 Created by KiCad (PCBNEW 9.0.6) date 2026-07-30 14:14:13*
%MOMM*%
%LPD*%
G01*
G04 APERTURE LIST*
G04 Aperture macros list*
%AMRoundRect*
0 Rectangle with rounded corners*
0 $1 Rounding radius*
0 $2 $3 $4 $5 $6 $7 $8 $9 X,Y pos of 4 corners*
0 Add a 4 corners polygon primitive as box body*
4,1,4,$2,$3,$4,$5,$6,$7,$8,$9,$2,$3,0*
0 Add four circle primitives for the rounded corners*
1,1,$1+$1,$2,$3*
1,1,$1+$1,$4,$5*
1,1,$1+$1,$6,$7*
1,1,$1+$1,$8,$9*
0 Add four rect primitives between the rounded corners*
20,1,$1+$1,$2,$3,$4,$5,0*
20,1,$1+$1,$4,$5,$6,$7,0*
20,1,$1+$1,$6,$7,$8,$9,0*
20,1,$1+$1,$8,$9,$2,$3,0*%
G04 Aperture macros list end*
%TA.AperFunction,ComponentPad*%
%ADD10R,1.700000X1.700000*%
%TD*%
%TA.AperFunction,ComponentPad*%
%ADD11C,1.400000*%
%TD*%
%TA.AperFunction,SMDPad,CuDef*%
%ADD12RoundRect,0.250000X-0.450000X0.350000X-0.450000X-0.350000X0.450000X-0.350000X0.450000X0.350000X0*%
%TD*%
%TA.AperFunction,ComponentPad*%
%ADD13C,2.400000*%
%TD*%
%TA.AperFunction,ComponentPad*%
%ADD14R,2.400000X2.400000*%
%TD*%
%TA.AperFunction,SMDPad,CuDef*%
%ADD15R,2.160000X3.230000*%
%TD*%
%TA.AperFunction,ComponentPad*%
%ADD16C,2.540000*%
%TD*%
%TA.AperFunction,ComponentPad*%
%ADD17C,3.000000*%
%TD*%
%TA.AperFunction,ComponentPad*%
%ADD18C,1.950000*%
%TD*%
%TA.AperFunction,ComponentPad*%
%ADD19RoundRect,0.249999X0.850001X-0.850001X0.850001X0.850001X-0.850001X0.850001X-0.850001X-0.850001X0*%
%TD*%
%TA.AperFunction,ComponentPad*%
%ADD20C,2.200000*%
%TD*%
%TA.AperFunction,ComponentPad*%
%ADD21C,1.800000*%
%TD*%
%TA.AperFunction,ComponentPad*%
%ADD22R,1.800000X1.800000*%
%TD*%
%TA.AperFunction,ComponentPad*%
%ADD23C,3.200000*%
%TD*%
%TA.AperFunction,ComponentPad*%
%ADD24C,2.300000*%
%TD*%
%TA.AperFunction,ComponentPad*%
%ADD25C,4.500000*%
%TD*%
%TA.AperFunction,ComponentPad*%
%ADD26C,1.700000*%
%TD*%
%TA.AperFunction,ViaPad*%
%ADD27C,0.600000*%
%TD*%
%TA.AperFunction,Conductor*%
%ADD28C,0.750000*%
%TD*%
%TA.AperFunction,Conductor*%
%ADD29C,1.000000*%
%TD*%
%TA.AperFunction,Conductor*%
%ADD30C,1.250000*%
%TD*%
%TA.AperFunction,Conductor*%
%ADD31C,1.500000*%
%TD*%
G04 APERTURE END LIST*
D10*
%TO.P,GND,1,Pin_1*%
%TO.N,GND*%
X182372000Y-76835000D03*
%TD*%
D11*
%TO.P,R19,1*%
%TO.N,/m8 GNDp*%
X175260000Y-75565000D03*
%TO.P,R19,2*%
%TO.N,/Vcc-*%
X175260000Y-78105000D03*
%TD*%
%TO.P,R18,2*%
%TO.N,/Vcc+*%
X171069000Y-78105000D03*
%TO.P,R18,1*%
%TO.N,/m8 Up*%
X171069000Y-75565000D03*
%TD*%
D12*
%TO.P,VEE,1*%
%TO.N,/m8 GNDp*%
X178181000Y-75581000D03*
%TO.P,VEE,2*%
%TO.N,/Vcc-*%
X178181000Y-77581000D03*
%TD*%
%TO.P,VCC,1*%
%TO.N,/m8 Up*%
X168148000Y-75581000D03*
%TO.P,VCC,2*%
%TO.N,/Vcc+*%
X168148000Y-77581000D03*
%TD*%
D13*
%TO.P,PS1,5,+Vout*%
%TO.N,/rakout+*%
X137406500Y-57151500D03*
%TO.P,PS1,4,-Vout*%
%TO.N,/m8 GNDp*%
X147566500Y-57151500D03*
%TO.P,PS1,2,AC(L)*%
%TO.N,Net-(PS1-AC(L))*%
X157726500Y-102871500D03*
D14*
%TO.P,PS1,1,AC(N)*%
%TO.N,Net-(PS1-AC(N))*%
X137406500Y-102871500D03*
%TD*%
D15*
%TO.P,F1,2*%
%TO.N,Net-(PS1-AC(L))*%
X143694000Y-110236000D03*
%TO.P,F1,1*%
%TO.N,Net-(F1-Pad1)*%
X134944000Y-110236000D03*
%TD*%
D16*
%TO.P,SW1,6,C*%
%TO.N,unconnected-(SW1-C-Pad6)*%
X129032000Y-95619000D03*
%TO.P,SW1,5,B*%
%TO.N,/VACin-*%
X129032000Y-100319000D03*
%TO.P,SW1,4,A*%
%TO.N,Net-(PS1-AC(N))*%
X129032000Y-105019000D03*
%TO.P,SW1,3,C*%
%TO.N,unconnected-(SW1-C-Pad3)*%
X125222000Y-95619000D03*
%TO.P,SW1,2,B*%
%TO.N,/VACin+*%
X125222000Y-100319000D03*
%TO.P,SW1,1,A*%
%TO.N,Net-(F1-Pad1)*%
X125222000Y-105019000D03*
D17*
%TO.P,SW1,0*%
%TO.N,N/C*%
X112522000Y-102859000D03*
X112522000Y-97779000D03*
%TD*%
D18*
%TO.P,J3,1,Pin_1*%
%TO.N,/Vcc+*%
X174444000Y-93556000D03*
%TO.P,J3,2,Pin_2*%
%TO.N,/In+ Analog Input*%
X174444000Y-97092000D03*
%TO.P,J3,3,Pin_3*%
%TO.N,/Vcc-*%
X177980000Y-97092000D03*
%TO.P,J3,4,Pin_4*%
%TO.N,GND*%
X177980000Y-93556000D03*
%TO.P,J3,5,Pin_5*%
%TO.N,/cable shield*%
X176212000Y-95324000D03*
%TD*%
D19*
%TO.P,D1,1,K*%
%TO.N,/m8 Us*%
X172720000Y-57785000D03*
D20*
%TO.P,D1,2,A*%
%TO.N,/rakout+*%
X172720000Y-47625000D03*
%TD*%
D21*
%TO.P,D5,2,A*%
%TO.N,Net-(D5-A)*%
X115316000Y-49911000D03*
D22*
%TO.P,D5,1,K*%
%TO.N,Net-(D5-K)*%
X115316000Y-47371000D03*
%TD*%
D23*
%TO.P,J2,1,Pin_1*%
%TO.N,/VACin-*%
X123825000Y-61359000D03*
D24*
%TO.P,J2,2*%
%TO.N,N/C*%
X127625000Y-66439000D03*
X127625000Y-56279000D03*
X117465000Y-66439000D03*
X117465000Y-56279000D03*
%TD*%
D19*
%TO.P,D2,1,K*%
%TO.N,/m8 Up*%
X169022000Y-57785000D03*
D20*
%TO.P,D2,2,A*%
%TO.N,/rakout+*%
X169022000Y-47625000D03*
%TD*%
D25*
%TO.P,J4,6*%
%TO.N,N/C*%
X179712000Y-67574000D03*
%TO.P,J4,5*%
X179712000Y-55074000D03*
D26*
%TO.P,J4,4,Pin_4*%
%TO.N,/m8 GNDp*%
X178262000Y-62399000D03*
%TO.P,J4,3,Pin_3*%
X180212000Y-63024000D03*
%TO.P,J4,2,Pin_2*%
%TO.N,/m8 Up*%
X178262000Y-60249000D03*
%TO.P,J4,1,Pin_1*%
%TO.N,/m8 Us*%
X180212000Y-59624000D03*
%TD*%
D24*
%TO.P,J1,2*%
%TO.N,N/C*%
X117465000Y-73279000D03*
X117465000Y-83439000D03*
X127625000Y-73279000D03*
X127625000Y-83439000D03*
D23*
%TO.P,J1,1,Pin_1*%
%TO.N,/VACin+*%
X123825000Y-78359000D03*
%TD*%
D27*
%TO.N,GND*%
X167767000Y-81407000D03*
X168529000Y-81407000D03*
X167005000Y-81407000D03*
%TO.N,/Vcc-*%
X168656000Y-84963000D03*
%TO.N,GND*%
X186944000Y-109982000D03*
X186944000Y-106651778D03*
X186944000Y-108316889D03*
%TO.N,/Vcc+*%
X169291000Y-93556000D03*
%TO.N,GND*%
X173101000Y-86106000D03*
X173863000Y-86106000D03*
X172339000Y-86106000D03*
X186944000Y-76733400D03*
%TO.N,/Vcc+*%
X155956000Y-73660000D03*
X141732000Y-71882000D03*
X144526000Y-71120000D03*
X170688000Y-94996000D03*
X142240000Y-71120000D03*
X170688000Y-95758000D03*
X155194000Y-73660000D03*
%TO.N,GND*%
X186944000Y-49022000D03*
X146187975Y-81280000D03*
X149674988Y-81280000D03*
X180213000Y-92075000D03*
X162483800Y-44958000D03*
X164592000Y-111760000D03*
X132149850Y-44958000D03*
X137502900Y-44958000D03*
X162306000Y-85344000D03*
X141071600Y-44958000D03*
X137426543Y-74280889D03*
X173189900Y-44958000D03*
X144444469Y-81280000D03*
X183896000Y-44958000D03*
X143387000Y-67310000D03*
X130365500Y-44958000D03*
X163322000Y-96661111D03*
X149993350Y-44958000D03*
X137445358Y-79530222D03*
X186944000Y-71755000D03*
X171196000Y-88900000D03*
X137432815Y-77780444D03*
X186944000Y-45974000D03*
X163322000Y-108316889D03*
X186944000Y-84201000D03*
X167836850Y-44958000D03*
X171405550Y-44958000D03*
X178471286Y-111760000D03*
X112522000Y-44958000D03*
X116433600Y-52832000D03*
X155346400Y-44958000D03*
X163322000Y-106651778D03*
X144640300Y-44958000D03*
X151777700Y-44958000D03*
X180327300Y-44958000D03*
X153562050Y-44958000D03*
X123228100Y-44958000D03*
X186944000Y-74244200D03*
X114306350Y-44958000D03*
X117875050Y-44958000D03*
X137439086Y-70781333D03*
X125012450Y-44958000D03*
X163322000Y-109982000D03*
X186944000Y-79222600D03*
X163322000Y-98326222D03*
X166052500Y-44958000D03*
X175387000Y-111760000D03*
X162306000Y-84582000D03*
X151418494Y-81280000D03*
X137414000Y-67281778D03*
X142700963Y-81280000D03*
X137470444Y-81280000D03*
X172302714Y-111760000D03*
X186944000Y-72999600D03*
X126796800Y-44958000D03*
X126212600Y-52832000D03*
X186944000Y-50546000D03*
X164268150Y-44958000D03*
X186944000Y-82956400D03*
X178542950Y-44958000D03*
X167676286Y-111760000D03*
X146424650Y-44958000D03*
X180213000Y-93599000D03*
X139287250Y-44958000D03*
X162306000Y-86106000D03*
X163322000Y-99991333D03*
X177165000Y-91059000D03*
X133934200Y-44958000D03*
X163322000Y-101656444D03*
X158915100Y-44958000D03*
X119659400Y-44958000D03*
X174974250Y-44958000D03*
X160699450Y-44958000D03*
X128168400Y-52832000D03*
X135718550Y-44958000D03*
X173844857Y-111760000D03*
X137457901Y-76030667D03*
X163322000Y-94996000D03*
X186944000Y-81711800D03*
X130124200Y-52832000D03*
X137420272Y-69031556D03*
X171196000Y-89662000D03*
X118389400Y-52832000D03*
X169218429Y-111760000D03*
X182111650Y-44958000D03*
X163322000Y-104986667D03*
X186944000Y-80467200D03*
X153162000Y-81280000D03*
X166134143Y-111760000D03*
X178689000Y-91059000D03*
X176758600Y-44958000D03*
X157130750Y-44958000D03*
X169621200Y-44958000D03*
X171196000Y-88138000D03*
X170760571Y-111760000D03*
X144149000Y-67310000D03*
X176929143Y-111760000D03*
X124256800Y-52832000D03*
X148209000Y-44958000D03*
X137451629Y-72531111D03*
X121443750Y-44958000D03*
X142625000Y-67310000D03*
X128581150Y-44958000D03*
X181555571Y-111760000D03*
X122301000Y-52832000D03*
X120345200Y-52832000D03*
X186944000Y-77978000D03*
X140957456Y-81280000D03*
X186182000Y-111760000D03*
X112522000Y-52832000D03*
X163322000Y-103321556D03*
X186944000Y-75488800D03*
X116090700Y-44958000D03*
X132080000Y-52832000D03*
X186944000Y-47498000D03*
X147931481Y-81280000D03*
X139213950Y-81280000D03*
X142855950Y-44958000D03*
X177927000Y-91059000D03*
X114477800Y-52832000D03*
X180013429Y-111760000D03*
X183097714Y-111760000D03*
X184639857Y-111760000D03*
X137464172Y-65532000D03*
X180213000Y-92837000D03*
%TO.N,/Vcc-*%
X151638000Y-78740000D03*
X166116000Y-87376000D03*
X150245000Y-78740000D03*
X150941500Y-78740000D03*
X166116000Y-86614000D03*
%TO.N,Net-(D5-A)*%
X145796000Y-67310000D03*
%TD*%
D28*
%TO.N,/Vcc+*%
X168148000Y-77581000D02*
X169148000Y-77581000D01*
X169148000Y-77581000D02*
X169672000Y-78105000D01*
X169672000Y-78105000D02*
X171069000Y-78105000D01*
%TO.N,/Vcc-*%
X178181000Y-77581000D02*
X177181000Y-77581000D01*
X177181000Y-77581000D02*
X176657000Y-78105000D01*
X176657000Y-78105000D02*
X175260000Y-78105000D01*
D29*
%TO.N,/m8 Up*%
X171069000Y-75565000D02*
X171069000Y-72390000D01*
X171069000Y-72390000D02*
X169022000Y-70343000D01*
X169022000Y-70343000D02*
X169022000Y-57785000D01*
D28*
%TO.N,/m8 GNDp*%
X175260000Y-75565000D02*
X178165000Y-75565000D01*
X178165000Y-75565000D02*
X178181000Y-75581000D01*
%TO.N,/m8 Up*%
X171069000Y-75565000D02*
X168164000Y-75565000D01*
X168164000Y-75565000D02*
X168148000Y-75581000D01*
%TO.N,/Vcc-*%
X175260000Y-78105000D02*
X168656000Y-84709000D01*
X168656000Y-84709000D02*
X168656000Y-84963000D01*
%TO.N,/Vcc+*%
X163966314Y-81270686D02*
X156355628Y-73660000D01*
X163966314Y-81270686D02*
X167656000Y-77581000D01*
X167656000Y-77581000D02*
X168148000Y-77581000D01*
X167132000Y-84436372D02*
X163966314Y-81270686D01*
D29*
%TO.N,/m8 GNDp*%
X178262000Y-62399000D02*
X175260000Y-65401000D01*
X175260000Y-65401000D02*
X175260000Y-75565000D01*
D30*
%TO.N,/m8 Up*%
X171053000Y-75581000D02*
X171069000Y-75565000D01*
D28*
%TO.N,/Vcc-*%
X150245000Y-78740000D02*
X160020000Y-78740000D01*
X166116000Y-84836000D02*
X166116000Y-94869000D01*
X166116000Y-94869000D02*
X170434000Y-99187000D01*
X160020000Y-78740000D02*
X166116000Y-84836000D01*
X170434000Y-99187000D02*
X175635000Y-99187000D01*
X175635000Y-99187000D02*
X177980000Y-96842000D01*
D31*
%TO.N,/VACin-*%
X123825000Y-61609000D02*
X128284000Y-61609000D01*
X133096000Y-66421000D02*
X133096000Y-97028000D01*
X128284000Y-61609000D02*
X133096000Y-66421000D01*
X133096000Y-97028000D02*
X129805000Y-100319000D01*
X129805000Y-100319000D02*
X129032000Y-100319000D01*
%TO.N,Net-(PS1-AC(N))*%
X129032000Y-105019000D02*
X135259000Y-105019000D01*
X135259000Y-105019000D02*
X137406500Y-102871500D01*
%TO.N,/VACin+*%
X125222000Y-100319000D02*
X122798000Y-100319000D01*
X122798000Y-100319000D02*
X120396000Y-97917000D01*
X120396000Y-97917000D02*
X120396000Y-81788000D01*
X120396000Y-81788000D02*
X123825000Y-78359000D01*
D28*
%TO.N,/Vcc+*%
X169291000Y-93556000D02*
X168105000Y-93556000D01*
X174444000Y-93556000D02*
X169291000Y-93556000D01*
X168105000Y-93556000D02*
X167132000Y-92583000D01*
X167132000Y-92583000D02*
X167132000Y-84436372D01*
X156355628Y-73660000D02*
X155579000Y-73660000D01*
D29*
%TO.N,/rakout+*%
X169022000Y-47625000D02*
X172720000Y-47625000D01*
D28*
%TO.N,Net-(D5-A)*%
X145796000Y-67310000D02*
X145796000Y-66548000D01*
X145796000Y-66548000D02*
X143002000Y-63754000D01*
X143002000Y-63754000D02*
X143002000Y-56388000D01*
X143002000Y-56388000D02*
X136525000Y-49911000D01*
X136525000Y-49911000D02*
X115316000Y-49911000D01*
%TO.N,/Vcc+*%
X155579000Y-73660000D02*
X154940000Y-73660000D01*
X154940000Y-73660000D02*
X152400000Y-71120000D01*
X141732000Y-71628000D02*
X141732000Y-71882000D01*
X155579000Y-73660000D02*
X155448000Y-73660000D01*
X142240000Y-71120000D02*
X152400000Y-71120000D01*
X142240000Y-71120000D02*
X141732000Y-71628000D01*
D31*
%TO.N,Net-(PS1-AC(L))*%
X150362000Y-110236000D02*
X157726500Y-102871500D01*
X143694000Y-110236000D02*
X150362000Y-110236000D01*
%TO.N,Net-(F1-Pad1)*%
X125222000Y-107950000D02*
X125222000Y-105019000D01*
X127508000Y-110236000D02*
X125222000Y-107950000D01*
X134944000Y-110236000D02*
X127508000Y-110236000D01*
%TD*%
%TA.AperFunction,Conductor*%
%TO.N,GND*%
G36*
X185707103Y-43945625D02*
G01*
X185978797Y-43964625D01*
X185996320Y-43967118D01*
X186258197Y-44023694D01*
X186275182Y-44028656D01*
X186526319Y-44121960D01*
X186542435Y-44129296D01*
X186777713Y-44257424D01*
X186792615Y-44266978D01*
X187007246Y-44427321D01*
X187020632Y-44438899D01*
X187210230Y-44628182D01*
X187221838Y-44641559D01*
X187382532Y-44855919D01*
X187392116Y-44870812D01*
X187520628Y-45105870D01*
X187527992Y-45121977D01*
X187621710Y-45372957D01*
X187626705Y-45389948D01*
X187683711Y-45651712D01*
X187686234Y-45669243D01*
X187705683Y-45940886D01*
X187706000Y-45949741D01*
X187706000Y-110771572D01*
X187705684Y-110780418D01*
X187686275Y-111051785D01*
X187683757Y-111069297D01*
X187626872Y-111330794D01*
X187621888Y-111347770D01*
X187528361Y-111598524D01*
X187521011Y-111614617D01*
X187392758Y-111849496D01*
X187383193Y-111864380D01*
X187222811Y-112078624D01*
X187211225Y-112091994D01*
X187021994Y-112281225D01*
X187008624Y-112292811D01*
X186794380Y-112453193D01*
X186779496Y-112462758D01*
X186544617Y-112591011D01*
X186528524Y-112598361D01*
X186277770Y-112691888D01*
X186260794Y-112696872D01*
X185999297Y-112753757D01*
X185981785Y-112756275D01*
X185710418Y-112775684D01*
X185701572Y-112776000D01*
X164303076Y-112776000D01*
X164294252Y-112775686D01*
X164203674Y-112769223D01*
X164023503Y-112756367D01*
X164006032Y-112753860D01*
X163745122Y-112697240D01*
X163728182Y-112692279D01*
X163477939Y-112599181D01*
X163461877Y-112591865D01*
X163227394Y-112464184D01*
X163212532Y-112454661D01*
X162998550Y-112294978D01*
X162985191Y-112283441D01*
X162796051Y-112094996D01*
X162784466Y-112081680D01*
X162624002Y-111868295D01*
X162614424Y-111853469D01*
X162612242Y-111849496D01*
X162485873Y-111619441D01*
X162478506Y-111603422D01*
X162384483Y-111353512D01*
X162379466Y-111336615D01*
X162321878Y-111075880D01*
X162319311Y-111058436D01*
X162298995Y-110787747D01*
X162298649Y-110778962D01*
X162268999Y-102723616D01*
X174936500Y-102723616D01*
X174936500Y-102924384D01*
X174941175Y-102953902D01*
X174967907Y-103122680D01*
X175029949Y-103313626D01*
X175083784Y-103419281D01*
X175121095Y-103492508D01*
X175239103Y-103654932D01*
X175381068Y-103796897D01*
X175543492Y-103914905D01*
X175628007Y-103957967D01*
X175722373Y-104006050D01*
X175722375Y-104006050D01*
X175722378Y-104006052D01*
X175913320Y-104068093D01*
X176111616Y-104099500D01*
X176111617Y-104099500D01*
X176312383Y-104099500D01*
X176312384Y-104099500D01*
X176510680Y-104068093D01*
X176701622Y-104006052D01*
X176880508Y-103914905D01*
X177042932Y-103796897D01*
X177184897Y-103654932D01*
X177302905Y-103492508D01*
X177394052Y-103313622D01*
X177456093Y-103122680D01*
X177487500Y-102924384D01*
X177487500Y-102723616D01*
X177482825Y-102694097D01*
X178561500Y-102694097D01*
X178561500Y-102953902D01*
X178602140Y-103210493D01*
X178682422Y-103457576D01*
X178763534Y-103616764D01*
X178782982Y-103654934D01*
X178800368Y-103689054D01*
X178894252Y-103818274D01*
X178953069Y-103899229D01*
X179136771Y-104082931D01*
X179346949Y-104235634D01*
X179450602Y-104288448D01*
X179578423Y-104353577D01*
X179578425Y-104353577D01*
X179578428Y-104353579D01*
X179825507Y-104433860D01*
X179957706Y-104454797D01*
X180082098Y-104474500D01*
X180082103Y-104474500D01*
X180341902Y-104474500D01*
X180455298Y-104456539D01*
X180598493Y-104433860D01*
X180845572Y-104353579D01*
X181077051Y-104235634D01*
X181287229Y-104082931D01*
X181470931Y-103899229D01*
X181623634Y-103689051D01*
X181741579Y-103457572D01*
X181821860Y-103210493D01*
X181856763Y-102990120D01*
X181862500Y-102953902D01*
X181862500Y-102694097D01*
X181826671Y-102467884D01*
X181821860Y-102437507D01*
X181741579Y-102190428D01*
X181741577Y-102190425D01*
X181741577Y-102190423D01*
X181690153Y-102089500D01*
X181623634Y-101958949D01*
X181470931Y-101748771D01*
X181287229Y-101565069D01*
X181250948Y-101538709D01*
X181077054Y-101412368D01*
X181077053Y-101412367D01*
X181077051Y-101412366D01*
X181004764Y-101375534D01*
X180845576Y-101294422D01*
X180598493Y-101214140D01*
X180341902Y-101173500D01*
X180341897Y-101173500D01*
X180082103Y-101173500D01*
X180082098Y-101173500D01*
X179825506Y-101214140D01*
X179578423Y-101294422D01*
X179346945Y-101412368D01*
X179136774Y-101565066D01*
X179136768Y-101565071D01*
X178953071Y-101748768D01*
X178953066Y-101748774D01*
X178800368Y-101958945D01*
X178682422Y-102190423D01*
X178602140Y-102437506D01*
X178561500Y-102694097D01*
X177482825Y-102694097D01*
X177456093Y-102525320D01*
X177394052Y-102334378D01*
X177394050Y-102334375D01*
X177394050Y-102334373D01*
X177333012Y-102214581D01*
X177302905Y-102155492D01*
X177184897Y-101993068D01*
X177042932Y-101851103D01*
X176880508Y-101733095D01*
X176701626Y-101641949D01*
X176510680Y-101579907D01*
X176312384Y-101548500D01*
X176111616Y-101548500D01*
X176013646Y-101564017D01*
X175913319Y-101579907D01*
X175722373Y-101641949D01*
X175543491Y-101733095D01*
X175459284Y-101794276D01*
X175381068Y-101851103D01*
X175381066Y-101851105D01*
X175381065Y-101851105D01*
X175239105Y-101993065D01*
X175239105Y-101993066D01*
X175239103Y-101993068D01*
X175234694Y-101999137D01*
X175121095Y-102155491D01*
X175029949Y-102334373D01*
X174996439Y-102437507D01*
X174967907Y-102525320D01*
X174936500Y-102723616D01*
X162268999Y-102723616D01*
X162219335Y-89230650D01*
X162217212Y-88653771D01*
X160137579Y-85375582D01*
X160137578Y-85375581D01*
X159616594Y-85127865D01*
X159616590Y-85127863D01*
X158032648Y-84374734D01*
X157286034Y-84019736D01*
X155477396Y-83159769D01*
X155257804Y-83111081D01*
X155257690Y-83111055D01*
X153840696Y-82796881D01*
X152204000Y-82433994D01*
X152203998Y-82433994D01*
X151977398Y-82435684D01*
X151977393Y-82435684D01*
X151418820Y-82439850D01*
X138671362Y-82534936D01*
X138662472Y-82534683D01*
X138389696Y-82517125D01*
X138372084Y-82514715D01*
X138108975Y-82459252D01*
X138091889Y-82454348D01*
X137839414Y-82361834D01*
X137823205Y-82354537D01*
X137586562Y-82226879D01*
X137571562Y-82217339D01*
X137355594Y-82057147D01*
X137342113Y-82045562D01*
X137151276Y-81856144D01*
X137139589Y-81842749D01*
X136977794Y-81627984D01*
X136968143Y-81613056D01*
X136931886Y-81547030D01*
X136838714Y-81377356D01*
X136831303Y-81361215D01*
X136736905Y-81109428D01*
X136731878Y-81092394D01*
X136674453Y-80829700D01*
X136671912Y-80812112D01*
X136652319Y-80539464D01*
X136652000Y-80530576D01*
X136652000Y-71541766D01*
X140856500Y-71541766D01*
X140856500Y-71968233D01*
X140890143Y-72137366D01*
X140890146Y-72137378D01*
X140956138Y-72296698D01*
X140956145Y-72296711D01*
X141051954Y-72440098D01*
X141051957Y-72440102D01*
X141173897Y-72562042D01*
X141173901Y-72562045D01*
X141317288Y-72657854D01*
X141317301Y-72657861D01*
X141476621Y-72723853D01*
X141476626Y-72723855D01*
X141645766Y-72757499D01*
X141645769Y-72757500D01*
X141645771Y-72757500D01*
X141818231Y-72757500D01*
X141818232Y-72757499D01*
X141987374Y-72723855D01*
X142146705Y-72657858D01*
X142290099Y-72562045D01*
X142412045Y-72440099D01*
X142507858Y-72296705D01*
X142573855Y-72137374D01*
X142582222Y-72095308D01*
X142614605Y-72033399D01*
X142675321Y-71998824D01*
X142703839Y-71995500D01*
X151985994Y-71995500D01*
X152053033Y-72015185D01*
X152073675Y-72031819D01*
X154381897Y-74340042D01*
X154381901Y-74340045D01*
X154525288Y-74435854D01*
X154525301Y-74435861D01*
X154658422Y-74491001D01*
X154684626Y-74501855D01*
X154853766Y-74535499D01*
X154853769Y-74535500D01*
X154853771Y-74535500D01*
X155026229Y-74535500D01*
X155361771Y-74535500D01*
X155492771Y-74535500D01*
X155941622Y-74535500D01*
X156008661Y-74555185D01*
X156029303Y-74571819D01*
X159110303Y-77652819D01*
X159143788Y-77714142D01*
X159138804Y-77783834D01*
X159096932Y-77839767D01*
X159031468Y-77864184D01*
X159022622Y-77864500D01*
X150158768Y-77864500D01*
X149989633Y-77898143D01*
X149989621Y-77898146D01*
X149830301Y-77964138D01*
X149830288Y-77964145D01*
X149686901Y-78059954D01*
X149686897Y-78059957D01*
X149564957Y-78181897D01*
X149564954Y-78181901D01*
X149469145Y-78325288D01*
X149469138Y-78325301D01*
X149403146Y-78484621D01*
X149403143Y-78484633D01*
X149369500Y-78653766D01*
X149369500Y-78826233D01*
X149403143Y-78995366D01*
X149403146Y-78995378D01*
X149469138Y-79154698D01*
X149469145Y-79154711D01*
X149564954Y-79298098D01*
X149564957Y-79298102D01*
X149686897Y-79420042D01*
X149686901Y-79420045D01*
X149830288Y-79515854D01*
X149830301Y-79515861D01*
X149989621Y-79581853D01*
X149989626Y-79581855D01*
X150158766Y-79615499D01*
X150158769Y-79615500D01*
X150158771Y-79615500D01*
X159605994Y-79615500D01*
X159673033Y-79635185D01*
X159693675Y-79651819D01*
X165204181Y-85162325D01*
X165237666Y-85223648D01*
X165240500Y-85250006D01*
X165240500Y-94955233D01*
X165274143Y-95124366D01*
X165274146Y-95124378D01*
X165340138Y-95283698D01*
X165340145Y-95283711D01*
X165435954Y-95427098D01*
X165435957Y-95427102D01*
X169753955Y-99745099D01*
X169875898Y-99867042D01*
X169875902Y-99867046D01*
X170019288Y-99962854D01*
X170019301Y-99962861D01*
X170178621Y-100028853D01*
X170178626Y-100028855D01*
X170347766Y-100062499D01*
X170347769Y-100062500D01*
X170347771Y-100062500D01*
X175721231Y-100062500D01*
X175721232Y-100062499D01*
X175890374Y-100028855D01*
X176049705Y-99962858D01*
X176193099Y-99867045D01*
X177501120Y-98559022D01*
X177562441Y-98525539D01*
X177627117Y-98528774D01*
X177634486Y-98531169D01*
X177700026Y-98541549D01*
X177863871Y-98567500D01*
X177863876Y-98567500D01*
X178096129Y-98567500D01*
X178197502Y-98551443D01*
X178325514Y-98531169D01*
X178546396Y-98459400D01*
X178753331Y-98353961D01*
X178941224Y-98217449D01*
X179105449Y-98053224D01*
X179241961Y-97865331D01*
X179347400Y-97658396D01*
X179419169Y-97437514D01*
X179441085Y-97299137D01*
X179455500Y-97208129D01*
X179455500Y-96975870D01*
X179433796Y-96838838D01*
X179419169Y-96746486D01*
X179347400Y-96525604D01*
X179347398Y-96525601D01*
X179347398Y-96525599D01*
X179241960Y-96318668D01*
X179207849Y-96271718D01*
X179105449Y-96130776D01*
X178941224Y-95966551D01*
X178753331Y-95830039D01*
X178546400Y-95724601D01*
X178325514Y-95652831D01*
X178096129Y-95616500D01*
X178096124Y-95616500D01*
X177863876Y-95616500D01*
X177863875Y-95616500D01*
X177822876Y-95622993D01*
X177753583Y-95614037D01*
X177700131Y-95569040D01*
X177679493Y-95502288D01*
X177681007Y-95481120D01*
X177687500Y-95440128D01*
X177687500Y-95207870D01*
X177680925Y-95166358D01*
X177689880Y-95097065D01*
X177734876Y-95043613D01*
X177801627Y-95022973D01*
X177822797Y-95024487D01*
X177863917Y-95031000D01*
X178096090Y-95031000D01*
X178325393Y-94994681D01*
X178546205Y-94922934D01*
X178753071Y-94817530D01*
X178831207Y-94760762D01*
X178831208Y-94760760D01*
X178227488Y-94157041D01*
X178287890Y-94132022D01*
X178394351Y-94060888D01*
X178484888Y-93970351D01*
X178556022Y-93863890D01*
X178581041Y-93803489D01*
X179184760Y-94407208D01*
X179184762Y-94407207D01*
X179241530Y-94329071D01*
X179346934Y-94122205D01*
X179418681Y-93901393D01*
X179455000Y-93672090D01*
X179455000Y-93439909D01*
X179418681Y-93210606D01*
X179346934Y-92989794D01*
X179241534Y-92782935D01*
X179184760Y-92704791D01*
X179184759Y-92704791D01*
X178581041Y-93308510D01*
X178556022Y-93248110D01*
X178484888Y-93141649D01*
X178394351Y-93051112D01*
X178287890Y-92979978D01*
X178227487Y-92954957D01*
X178831207Y-92351238D01*
X178753064Y-92294465D01*
X178546205Y-92189065D01*
X178325393Y-92117318D01*
X178096090Y-92081000D01*
X177863910Y-92081000D01*
X177634606Y-92117318D01*
X177413794Y-92189065D01*
X177206925Y-92294470D01*
X177128791Y-92351237D01*
X177128791Y-92351238D01*
X177732511Y-92954958D01*
X177672110Y-92979978D01*
X177565649Y-93051112D01*
X177475112Y-93141649D01*
X177403978Y-93248110D01*
X177378958Y-93308511D01*
X176775238Y-92704791D01*
X176775237Y-92704791D01*
X176718470Y-92782925D01*
X176613065Y-92989794D01*
X176541318Y-93210606D01*
X176505000Y-93439909D01*
X176505000Y-93672086D01*
X176511512Y-93713205D01*
X176502556Y-93782498D01*
X176457559Y-93835949D01*
X176390807Y-93856588D01*
X176369642Y-93855075D01*
X176328125Y-93848500D01*
X176328124Y-93848500D01*
X176095876Y-93848500D01*
X176095875Y-93848500D01*
X176054876Y-93854993D01*
X175985583Y-93846037D01*
X175932131Y-93801040D01*
X175911493Y-93734288D01*
X175913007Y-93713120D01*
X175919500Y-93672128D01*
X175919500Y-93439871D01*
X175894027Y-93279042D01*
X175892500Y-93259644D01*
X175892500Y-92606140D01*
X175892500Y-92606125D01*
X175891417Y-92573060D01*
X175890356Y-92556874D01*
X175887114Y-92523956D01*
X175868157Y-92379968D01*
X175855257Y-92315117D01*
X175846879Y-92283850D01*
X175825625Y-92221238D01*
X175773185Y-92094636D01*
X175743942Y-92035335D01*
X175743937Y-92035327D01*
X175743934Y-92035320D01*
X175727764Y-92007314D01*
X175727757Y-92007301D01*
X175715225Y-91988547D01*
X175691018Y-91952318D01*
X175607590Y-91843594D01*
X175563994Y-91793884D01*
X175563989Y-91793879D01*
X175563982Y-91793871D01*
X175541118Y-91771007D01*
X175491411Y-91727414D01*
X175491400Y-91727405D01*
X175382684Y-91643982D01*
X175327699Y-91607243D01*
X175327679Y-91607231D01*
X175299671Y-91591061D01*
X175299670Y-91591060D01*
X175299664Y-91591057D01*
X175240363Y-91561814D01*
X175240364Y-91561814D01*
X175240351Y-91561808D01*
X175240345Y-91561806D01*
X175113774Y-91509379D01*
X175113752Y-91509371D01*
X175051154Y-91488121D01*
X175051140Y-91488117D01*
X175019892Y-91479744D01*
X175019880Y-91479741D01*
X174955030Y-91466841D01*
X174955025Y-91466840D01*
X174811042Y-91447885D01*
X174778141Y-91444645D01*
X174778126Y-91444644D01*
X174761941Y-91443583D01*
X174728874Y-91442500D01*
X168552126Y-91442500D01*
X168523192Y-91443447D01*
X168519057Y-91443583D01*
X168502862Y-91444644D01*
X168469955Y-91447885D01*
X168325976Y-91466840D01*
X168325959Y-91466843D01*
X168261123Y-91479740D01*
X168261113Y-91479742D01*
X168261106Y-91479744D01*
X168261085Y-91479749D01*
X168229859Y-91488116D01*
X168171358Y-91507975D01*
X168101549Y-91510883D01*
X168041249Y-91475589D01*
X168009603Y-91413296D01*
X168007500Y-91390555D01*
X168007500Y-87723616D01*
X174936500Y-87723616D01*
X174936500Y-87924384D01*
X174941175Y-87953902D01*
X174967907Y-88122680D01*
X175029949Y-88313626D01*
X175103294Y-88457572D01*
X175121095Y-88492508D01*
X175239103Y-88654932D01*
X175381068Y-88796897D01*
X175543492Y-88914905D01*
X175628007Y-88957967D01*
X175722373Y-89006050D01*
X175722375Y-89006050D01*
X175722378Y-89006052D01*
X175913320Y-89068093D01*
X176111616Y-89099500D01*
X176111617Y-89099500D01*
X176312383Y-89099500D01*
X176312384Y-89099500D01*
X176510680Y-89068093D01*
X176701622Y-89006052D01*
X176880508Y-88914905D01*
X177042932Y-88796897D01*
X177184897Y-88654932D01*
X177302905Y-88492508D01*
X177394052Y-88313622D01*
X177456093Y-88122680D01*
X177487500Y-87924384D01*
X177487500Y-87723616D01*
X177482825Y-87694097D01*
X178561500Y-87694097D01*
X178561500Y-87953902D01*
X178602140Y-88210493D01*
X178682422Y-88457576D01*
X178763534Y-88616764D01*
X178782982Y-88654934D01*
X178800368Y-88689054D01*
X178953066Y-88899225D01*
X178953069Y-88899229D01*
X179136771Y-89082931D01*
X179346949Y-89235634D01*
X179494445Y-89310787D01*
X179578423Y-89353577D01*
X179578425Y-89353577D01*
X179578428Y-89353579D01*
X179825507Y-89433860D01*
X179957706Y-89454797D01*
X180082098Y-89474500D01*
X180082103Y-89474500D01*
X180341902Y-89474500D01*
X180455298Y-89456539D01*
X180598493Y-89433860D01*
X180845572Y-89353579D01*
X181077051Y-89235634D01*
X181287229Y-89082931D01*
X181470931Y-88899229D01*
X181623634Y-88689051D01*
X181741579Y-88457572D01*
X181821860Y-88210493D01*
X181844539Y-88067298D01*
X181862500Y-87953902D01*
X181862500Y-87694097D01*
X181835768Y-87525319D01*
X181821860Y-87437507D01*
X181741579Y-87190428D01*
X181741577Y-87190425D01*
X181741577Y-87190423D01*
X181698787Y-87106445D01*
X181623634Y-86958949D01*
X181470931Y-86748771D01*
X181287229Y-86565069D01*
X181077051Y-86412366D01*
X181004764Y-86375534D01*
X180845576Y-86294422D01*
X180598493Y-86214140D01*
X180341902Y-86173500D01*
X180341897Y-86173500D01*
X180082103Y-86173500D01*
X180082098Y-86173500D01*
X179825506Y-86214140D01*
X179578423Y-86294422D01*
X179346945Y-86412368D01*
X179136774Y-86565066D01*
X179136768Y-86565071D01*
X178953071Y-86748768D01*
X178953066Y-86748774D01*
X178800368Y-86958945D01*
X178682422Y-87190423D01*
X178602140Y-87437506D01*
X178561500Y-87694097D01*
X177482825Y-87694097D01*
X177456093Y-87525320D01*
X177394052Y-87334378D01*
X177394050Y-87334375D01*
X177394050Y-87334373D01*
X177345967Y-87240007D01*
X177302905Y-87155492D01*
X177184897Y-86993068D01*
X177042932Y-86851103D01*
X176880508Y-86733095D01*
X176701626Y-86641949D01*
X176510680Y-86579907D01*
X176417009Y-86565071D01*
X176312384Y-86548500D01*
X176111616Y-86548500D01*
X176012468Y-86564203D01*
X175913319Y-86579907D01*
X175722373Y-86641949D01*
X175543491Y-86733095D01*
X175450822Y-86800423D01*
X175381068Y-86851103D01*
X175381066Y-86851105D01*
X175381065Y-86851105D01*
X175239105Y-86993065D01*
X175239105Y-86993066D01*
X175239103Y-86993068D01*
X175188423Y-87062822D01*
X175121095Y-87155491D01*
X175029949Y-87334373D01*
X174996439Y-87437507D01*
X174967907Y-87525320D01*
X174936500Y-87723616D01*
X168007500Y-87723616D01*
X168007500Y-85814629D01*
X168027185Y-85747590D01*
X168079989Y-85701835D01*
X168149147Y-85691891D01*
X168200391Y-85711527D01*
X168241295Y-85738858D01*
X168241297Y-85738859D01*
X168241301Y-85738861D01*
X168400621Y-85804853D01*
X168400626Y-85804855D01*
X168569766Y-85838499D01*
X168569769Y-85838500D01*
X168569771Y-85838500D01*
X168742231Y-85838500D01*
X168742232Y-85838499D01*
X168911374Y-85804855D01*
X169070705Y-85738858D01*
X169214099Y-85643045D01*
X169336045Y-85521099D01*
X169431858Y-85377705D01*
X169497855Y-85218374D01*
X169518596Y-85114098D01*
X169550978Y-85052191D01*
X169552473Y-85050669D01*
X175261325Y-79341819D01*
X175322648Y-79308334D01*
X175349006Y-79305500D01*
X175354486Y-79305500D01*
X175541118Y-79275940D01*
X175720832Y-79217547D01*
X175889199Y-79131760D01*
X176042073Y-79020690D01*
X176045944Y-79016819D01*
X176107267Y-78983334D01*
X176133625Y-78980500D01*
X176743231Y-78980500D01*
X176743232Y-78980499D01*
X176912374Y-78946855D01*
X177071705Y-78880858D01*
X177215099Y-78785045D01*
X177337051Y-78663091D01*
X177398371Y-78629607D01*
X177463731Y-78633066D01*
X177578203Y-78670999D01*
X177680991Y-78681500D01*
X178681008Y-78681499D01*
X178681016Y-78681498D01*
X178681019Y-78681498D01*
X178737302Y-78675748D01*
X178783797Y-78670999D01*
X178950334Y-78615814D01*
X179099656Y-78523712D01*
X179223712Y-78399656D01*
X179315814Y-78250334D01*
X179370999Y-78083797D01*
X179381500Y-77981009D01*
X179381499Y-77180992D01*
X179370999Y-77078203D01*
X179370997Y-77078195D01*
X179369161Y-77072653D01*
X179369157Y-77072643D01*
X179343246Y-76994451D01*
X179315814Y-76911666D01*
X179223712Y-76762344D01*
X179130049Y-76668681D01*
X179096564Y-76607358D01*
X179101548Y-76537666D01*
X179130049Y-76493319D01*
X179174224Y-76449144D01*
X179223712Y-76399656D01*
X179315814Y-76250334D01*
X179370999Y-76083797D01*
X179381500Y-75981009D01*
X179381500Y-75937155D01*
X181022000Y-75937155D01*
X181022000Y-76585000D01*
X181938988Y-76585000D01*
X181906075Y-76642007D01*
X181872000Y-76769174D01*
X181872000Y-76900826D01*
X181906075Y-77027993D01*
X181938988Y-77085000D01*
X181022000Y-77085000D01*
X181022000Y-77732844D01*
X181028401Y-77792372D01*
X181028403Y-77792379D01*
X181078645Y-77927086D01*
X181078649Y-77927093D01*
X181164809Y-78042187D01*
X181164812Y-78042190D01*
X181279906Y-78128350D01*
X181279913Y-78128354D01*
X181414620Y-78178596D01*
X181414627Y-78178598D01*
X181474155Y-78184999D01*
X181474172Y-78185000D01*
X182122000Y-78185000D01*
X182122000Y-77268012D01*
X182179007Y-77300925D01*
X182306174Y-77335000D01*
X182437826Y-77335000D01*
X182564993Y-77300925D01*
X182622000Y-77268012D01*
X182622000Y-78185000D01*
X183269828Y-78185000D01*
X183269844Y-78184999D01*
X183329372Y-78178598D01*
X183329379Y-78178596D01*
X183464086Y-78128354D01*
X183464093Y-78128350D01*
X183579187Y-78042190D01*
X183579190Y-78042187D01*
X183665350Y-77927093D01*
X183665354Y-77927086D01*
X183715596Y-77792379D01*
X183715598Y-77792372D01*
X183721999Y-77732844D01*
X183722000Y-77732827D01*
X183722000Y-77085000D01*
X182805012Y-77085000D01*
X182837925Y-77027993D01*
X182872000Y-76900826D01*
X182872000Y-76769174D01*
X182837925Y-76642007D01*
X182805012Y-76585000D01*
X183722000Y-76585000D01*
X183722000Y-75937172D01*
X183721999Y-75937155D01*
X183715598Y-75877627D01*
X183715596Y-75877620D01*
X183665354Y-75742913D01*
X183665350Y-75742906D01*
X183579190Y-75627812D01*
X183579187Y-75627809D01*
X183464093Y-75541649D01*
X183464086Y-75541645D01*
X183329379Y-75491403D01*
X183329372Y-75491401D01*
X183269844Y-75485000D01*
X182622000Y-75485000D01*
X182622000Y-76401988D01*
X182564993Y-76369075D01*
X182437826Y-76335000D01*
X182306174Y-76335000D01*
X182179007Y-76369075D01*
X182122000Y-76401988D01*
X182122000Y-75485000D01*
X181474155Y-75485000D01*
X181414627Y-75491401D01*
X181414620Y-75491403D01*
X181279913Y-75541645D01*
X181279906Y-75541649D01*
X181164812Y-75627809D01*
X181164809Y-75627812D01*
X181078649Y-75742906D01*
X181078645Y-75742913D01*
X181028403Y-75877620D01*
X181028401Y-75877627D01*
X181022000Y-75937155D01*
X179381500Y-75937155D01*
X179381499Y-75180992D01*
X179370999Y-75078203D01*
X179315814Y-74911666D01*
X179223712Y-74762344D01*
X179099656Y-74638288D01*
X178950334Y-74546186D01*
X178783797Y-74491001D01*
X178783795Y-74491000D01*
X178681010Y-74480500D01*
X177680998Y-74480500D01*
X177680980Y-74480501D01*
X177578203Y-74491000D01*
X177578200Y-74491001D01*
X177411668Y-74546185D01*
X177411663Y-74546187D01*
X177262342Y-74638289D01*
X177247451Y-74653181D01*
X177186128Y-74686666D01*
X177159770Y-74689500D01*
X176384500Y-74689500D01*
X176317461Y-74669815D01*
X176271706Y-74617011D01*
X176260500Y-74565500D01*
X176260500Y-67419528D01*
X176961500Y-67419528D01*
X176961500Y-67728471D01*
X176996086Y-68035437D01*
X176996089Y-68035455D01*
X177064831Y-68336635D01*
X177064835Y-68336647D01*
X177166862Y-68628222D01*
X177166868Y-68628236D01*
X177300903Y-68906562D01*
X177300905Y-68906565D01*
X177465265Y-69168143D01*
X177657880Y-69409674D01*
X177876326Y-69628120D01*
X178117857Y-69820735D01*
X178379435Y-69985095D01*
X178657771Y-70119135D01*
X178657777Y-70119137D01*
X178949352Y-70221164D01*
X178949364Y-70221168D01*
X179250548Y-70289911D01*
X179250554Y-70289911D01*
X179250562Y-70289913D01*
X179455206Y-70312970D01*
X179557529Y-70324499D01*
X179557532Y-70324500D01*
X179557535Y-70324500D01*
X179866468Y-70324500D01*
X179866469Y-70324499D01*
X180023356Y-70306822D01*
X180173437Y-70289913D01*
X180173442Y-70289912D01*
X180173452Y-70289911D01*
X180474636Y-70221168D01*
X180766229Y-70119135D01*
X181044565Y-69985095D01*
X181306143Y-69820735D01*
X181547674Y-69628120D01*
X181766120Y-69409674D01*
X181958735Y-69168143D01*
X182123095Y-68906565D01*
X182257135Y-68628229D01*
X182359168Y-68336636D01*
X182427911Y-68035452D01*
X182433028Y-67990042D01*
X182462499Y-67728471D01*
X182462500Y-67728467D01*
X182462500Y-67419532D01*
X182462499Y-67419528D01*
X182459874Y-67396233D01*
X182427911Y-67112548D01*
X182359168Y-66811364D01*
X182257135Y-66519771D01*
X182123095Y-66241435D01*
X181958735Y-65979857D01*
X181766120Y-65738326D01*
X181547674Y-65519880D01*
X181306143Y-65327265D01*
X181082228Y-65186570D01*
X181044562Y-65162903D01*
X180766236Y-65028868D01*
X180766222Y-65028862D01*
X180474647Y-64926835D01*
X180474635Y-64926831D01*
X180173455Y-64858089D01*
X180173437Y-64858086D01*
X179866471Y-64823500D01*
X179866465Y-64823500D01*
X179557535Y-64823500D01*
X179557528Y-64823500D01*
X179250562Y-64858086D01*
X179250544Y-64858089D01*
X178949364Y-64926831D01*
X178949352Y-64926835D01*
X178657777Y-65028862D01*
X178657763Y-65028868D01*
X178379437Y-65162903D01*
X178117858Y-65327264D01*
X177876326Y-65519879D01*
X177657879Y-65738326D01*
X177465264Y-65979858D01*
X177300903Y-66241437D01*
X177166868Y-66519763D01*
X177166862Y-66519777D01*
X177064835Y-66811352D01*
X177064831Y-66811364D01*
X176996089Y-67112544D01*
X176996086Y-67112562D01*
X176961500Y-67419528D01*
X176260500Y-67419528D01*
X176260500Y-65866782D01*
X176280185Y-65799743D01*
X176296819Y-65779101D01*
X177287420Y-64788500D01*
X178290498Y-63785421D01*
X178351819Y-63751938D01*
X178367279Y-63749659D01*
X178368283Y-63749500D01*
X178368287Y-63749500D01*
X178578243Y-63716246D01*
X178780412Y-63650557D01*
X178856598Y-63611737D01*
X178925265Y-63598841D01*
X178990006Y-63625117D01*
X179023376Y-63665926D01*
X179049016Y-63716246D01*
X179056951Y-63731820D01*
X179181890Y-63903786D01*
X179332213Y-64054109D01*
X179504179Y-64179048D01*
X179504181Y-64179049D01*
X179504184Y-64179051D01*
X179693588Y-64275557D01*
X179895757Y-64341246D01*
X180105713Y-64374500D01*
X180105714Y-64374500D01*
X180318286Y-64374500D01*
X180318287Y-64374500D01*
X180528243Y-64341246D01*
X180730412Y-64275557D01*
X180919816Y-64179051D01*
X180941789Y-64163086D01*
X181091786Y-64054109D01*
X181091788Y-64054106D01*
X181091792Y-64054104D01*
X181242104Y-63903792D01*
X181242106Y-63903788D01*
X181242109Y-63903786D01*
X181367048Y-63731820D01*
X181367047Y-63731820D01*
X181367051Y-63731816D01*
X181463557Y-63542412D01*
X181529246Y-63340243D01*
X181562500Y-63130287D01*
X181562500Y-62917713D01*
X181529246Y-62707757D01*
X181463557Y-62505588D01*
X181367051Y-62316184D01*
X181367049Y-62316181D01*
X181367048Y-62316179D01*
X181242109Y-62144213D01*
X181091786Y-61993890D01*
X180919820Y-61868951D01*
X180730414Y-61772444D01*
X180730413Y-61772443D01*
X180730412Y-61772443D01*
X180528243Y-61706754D01*
X180528241Y-61706753D01*
X180528240Y-61706753D01*
X180366957Y-61681208D01*
X180318287Y-61673500D01*
X180105713Y-61673500D01*
X180057042Y-61681208D01*
X179895760Y-61706753D01*
X179693582Y-61772445D01*
X179617401Y-61811261D01*
X179548732Y-61824157D01*
X179483992Y-61797880D01*
X179450622Y-61757071D01*
X179424984Y-61706754D01*
X179417051Y-61691184D01*
X179417049Y-61691181D01*
X179417048Y-61691179D01*
X179292109Y-61519213D01*
X179184577Y-61411681D01*
X179151092Y-61350358D01*
X179156076Y-61280666D01*
X179184577Y-61236319D01*
X179199570Y-61221326D01*
X179292104Y-61128792D01*
X179292106Y-61128788D01*
X179292109Y-61128786D01*
X179350313Y-61048672D01*
X179417051Y-60956816D01*
X179450622Y-60890926D01*
X179498594Y-60840133D01*
X179566415Y-60823337D01*
X179617401Y-60836738D01*
X179650820Y-60853765D01*
X179693588Y-60875557D01*
X179895757Y-60941246D01*
X180105713Y-60974500D01*
X180105714Y-60974500D01*
X180318286Y-60974500D01*
X180318287Y-60974500D01*
X180528243Y-60941246D01*
X180730412Y-60875557D01*
X180919816Y-60779051D01*
X181052890Y-60682368D01*
X181091786Y-60654109D01*
X181091788Y-60654106D01*
X181091792Y-60654104D01*
X181242104Y-60503792D01*
X181242106Y-60503788D01*
X181242109Y-60503786D01*
X181367048Y-60331820D01*
X181367047Y-60331820D01*
X181367051Y-60331816D01*
X181463557Y-60142412D01*
X181529246Y-59940243D01*
X181562500Y-59730287D01*
X181562500Y-59517713D01*
X181529246Y-59307757D01*
X181463557Y-59105588D01*
X181367051Y-58916184D01*
X181367049Y-58916181D01*
X181367048Y-58916179D01*
X181242109Y-58744213D01*
X181091786Y-58593890D01*
X180919820Y-58468951D01*
X180730414Y-58372444D01*
X180730413Y-58372443D01*
X180730412Y-58372443D01*
X180528243Y-58306754D01*
X180528241Y-58306753D01*
X180528240Y-58306753D01*
X180366957Y-58281208D01*
X180318287Y-58273500D01*
X180105713Y-58273500D01*
X180057042Y-58281208D01*
X179895760Y-58306753D01*
X179693585Y-58372444D01*
X179504179Y-58468951D01*
X179332213Y-58593890D01*
X179181890Y-58744213D01*
X179056949Y-58916182D01*
X179023376Y-58982072D01*
X178975401Y-59032868D01*
X178907580Y-59049662D01*
X178856597Y-59036261D01*
X178780414Y-58997444D01*
X178780413Y-58997443D01*
X178780412Y-58997443D01*
X178578243Y-58931754D01*
X178578241Y-58931753D01*
X178578240Y-58931753D01*
X178416957Y-58906208D01*
X178368287Y-58898500D01*
X178155713Y-58898500D01*
X178107042Y-58906208D01*
X177945760Y-58931753D01*
X177743585Y-58997444D01*
X177554179Y-59093951D01*
X177382213Y-59218890D01*
X177231890Y-59369213D01*
X177106951Y-59541179D01*
X177010444Y-59730585D01*
X176944753Y-59932760D01*
X176911500Y-60142713D01*
X176911500Y-60355286D01*
X176926519Y-60450116D01*
X176944754Y-60565243D01*
X176982810Y-60682368D01*
X177010444Y-60767414D01*
X177106951Y-60956820D01*
X177231890Y-61128786D01*
X177339423Y-61236319D01*
X177372908Y-61297642D01*
X177367924Y-61367334D01*
X177339423Y-61411681D01*
X177231894Y-61519209D01*
X177231890Y-61519213D01*
X177106951Y-61691179D01*
X177010444Y-61880585D01*
X176944753Y-62082760D01*
X176935021Y-62144208D01*
X176911927Y-62290021D01*
X176910738Y-62297525D01*
X176909684Y-62297358D01*
X176886621Y-62357850D01*
X176875576Y-62370503D01*
X175703667Y-63542412D01*
X174622221Y-64623858D01*
X174622218Y-64623861D01*
X174552538Y-64693540D01*
X174482859Y-64763219D01*
X174373371Y-64927079D01*
X174373364Y-64927092D01*
X174333957Y-65022231D01*
X174333954Y-65022240D01*
X174331831Y-65027366D01*
X174297949Y-65109164D01*
X174283845Y-65180069D01*
X174282553Y-65186562D01*
X174282551Y-65186570D01*
X174259500Y-65302456D01*
X174259500Y-74859366D01*
X174239815Y-74926405D01*
X174235821Y-74932247D01*
X174233242Y-74935796D01*
X174147454Y-75104163D01*
X174089059Y-75283881D01*
X174059500Y-75470513D01*
X174059500Y-75659486D01*
X174089059Y-75846118D01*
X174147454Y-76025836D01*
X174233240Y-76194199D01*
X174344310Y-76347073D01*
X174477927Y-76480690D01*
X174630801Y-76591760D01*
X174661414Y-76607358D01*
X174799163Y-76677545D01*
X174799165Y-76677545D01*
X174799168Y-76677547D01*
X174876476Y-76702666D01*
X174920803Y-76717069D01*
X174978478Y-76756507D01*
X175005676Y-76820866D01*
X174993761Y-76889712D01*
X174946516Y-76941188D01*
X174920803Y-76952931D01*
X174799163Y-76992454D01*
X174630800Y-77078240D01*
X174543579Y-77141610D01*
X174477927Y-77189310D01*
X174477925Y-77189312D01*
X174477924Y-77189312D01*
X174344312Y-77322924D01*
X174344312Y-77322925D01*
X174344310Y-77322927D01*
X174296610Y-77388579D01*
X174233240Y-77475800D01*
X174147454Y-77644163D01*
X174089059Y-77823881D01*
X174059500Y-78010513D01*
X174059500Y-78015994D01*
X174039815Y-78083033D01*
X174023181Y-78103675D01*
X168097901Y-84028955D01*
X168093727Y-84033129D01*
X168032400Y-84066606D01*
X167962708Y-84061614D01*
X167906780Y-84019736D01*
X167902954Y-84014328D01*
X167812046Y-83878274D01*
X167759265Y-83825493D01*
X167690099Y-83756327D01*
X165292138Y-81358366D01*
X165258653Y-81297043D01*
X165263637Y-81227351D01*
X165292134Y-81183009D01*
X167757325Y-78717817D01*
X167818648Y-78684333D01*
X167845006Y-78681499D01*
X168648002Y-78681499D01*
X168648008Y-78681499D01*
X168750797Y-78670999D01*
X168865265Y-78633067D01*
X168880830Y-78632532D01*
X168895422Y-78627090D01*
X168915032Y-78631356D01*
X168935092Y-78630666D01*
X168949417Y-78638836D01*
X168963695Y-78641942D01*
X168991949Y-78663093D01*
X168991955Y-78663099D01*
X169063055Y-78734199D01*
X169113902Y-78785046D01*
X169257288Y-78880854D01*
X169257301Y-78880861D01*
X169416621Y-78946853D01*
X169416626Y-78946855D01*
X169585766Y-78980499D01*
X169585769Y-78980500D01*
X169585771Y-78980500D01*
X170195375Y-78980500D01*
X170262414Y-79000185D01*
X170283056Y-79016819D01*
X170286927Y-79020690D01*
X170439801Y-79131760D01*
X170484845Y-79154711D01*
X170608163Y-79217545D01*
X170608165Y-79217545D01*
X170608168Y-79217547D01*
X170704497Y-79248846D01*
X170787881Y-79275940D01*
X170974514Y-79305500D01*
X170974519Y-79305500D01*
X171163486Y-79305500D01*
X171350118Y-79275940D01*
X171529832Y-79217547D01*
X171698199Y-79131760D01*
X171851073Y-79020690D01*
X171984690Y-78887073D01*
X172095760Y-78734199D01*
X172181547Y-78565832D01*
X172239940Y-78386118D01*
X172269500Y-78199486D01*
X172269500Y-78010513D01*
X172239940Y-77823881D01*
X172181545Y-77644163D01*
X172095759Y-77475800D01*
X171984690Y-77322927D01*
X171851073Y-77189310D01*
X171698199Y-77078240D01*
X171687214Y-77072643D01*
X171529836Y-76992454D01*
X171455472Y-76968291D01*
X171408195Y-76952930D01*
X171350521Y-76913493D01*
X171323323Y-76849134D01*
X171335238Y-76780288D01*
X171382482Y-76728812D01*
X171408194Y-76717069D01*
X171529832Y-76677547D01*
X171698199Y-76591760D01*
X171851073Y-76480690D01*
X171984690Y-76347073D01*
X172095760Y-76194199D01*
X172181547Y-76025832D01*
X172239940Y-75846118D01*
X172256287Y-75742906D01*
X172269500Y-75659486D01*
X172269500Y-75470513D01*
X172239940Y-75283881D01*
X172181545Y-75104163D01*
X172095757Y-74935796D01*
X172093179Y-74932247D01*
X172069702Y-74866439D01*
X172069500Y-74859366D01*
X172069500Y-72291456D01*
X172031052Y-72098170D01*
X172031051Y-72098169D01*
X172031051Y-72098165D01*
X171977232Y-71968233D01*
X171955635Y-71916092D01*
X171955628Y-71916079D01*
X171846139Y-71752218D01*
X171846136Y-71752214D01*
X171703686Y-71609764D01*
X171703655Y-71609735D01*
X170058819Y-69964899D01*
X170025334Y-69903576D01*
X170022500Y-69877218D01*
X170022500Y-59465301D01*
X170042185Y-59398262D01*
X170094989Y-59352507D01*
X170107487Y-59347598D01*
X170191335Y-59319814D01*
X170340656Y-59227712D01*
X170464712Y-59103656D01*
X170556814Y-58954335D01*
X170611999Y-58787798D01*
X170622500Y-58685010D01*
X170622500Y-56884990D01*
X170622499Y-56884982D01*
X171119500Y-56884982D01*
X171119500Y-58685017D01*
X171130000Y-58787796D01*
X171130001Y-58787798D01*
X171185186Y-58954335D01*
X171277288Y-59103656D01*
X171401344Y-59227712D01*
X171550665Y-59319814D01*
X171717202Y-59374999D01*
X171819990Y-59385500D01*
X171819995Y-59385500D01*
X173620005Y-59385500D01*
X173620010Y-59385500D01*
X173722798Y-59374999D01*
X173889335Y-59319814D01*
X174038656Y-59227712D01*
X174162712Y-59103656D01*
X174254814Y-58954335D01*
X174309999Y-58787798D01*
X174320500Y-58685010D01*
X174320500Y-56884990D01*
X174309999Y-56782202D01*
X174254814Y-56615665D01*
X174162712Y-56466344D01*
X174038656Y-56342288D01*
X173889335Y-56250186D01*
X173722798Y-56195001D01*
X173722796Y-56195000D01*
X173620017Y-56184500D01*
X173620010Y-56184500D01*
X171819990Y-56184500D01*
X171819982Y-56184500D01*
X171717203Y-56195000D01*
X171717202Y-56195001D01*
X171634669Y-56222349D01*
X171550667Y-56250185D01*
X171550662Y-56250187D01*
X171401342Y-56342289D01*
X171277289Y-56466342D01*
X171185187Y-56615662D01*
X171185185Y-56615667D01*
X171167797Y-56668141D01*
X171130001Y-56782202D01*
X171130001Y-56782203D01*
X171130000Y-56782203D01*
X171119500Y-56884982D01*
X170622499Y-56884982D01*
X170611999Y-56782202D01*
X170556814Y-56615665D01*
X170464712Y-56466344D01*
X170340656Y-56342288D01*
X170191335Y-56250186D01*
X170024798Y-56195001D01*
X170024796Y-56195000D01*
X169922017Y-56184500D01*
X169922010Y-56184500D01*
X168121990Y-56184500D01*
X168121982Y-56184500D01*
X168019203Y-56195000D01*
X168019202Y-56195001D01*
X167936669Y-56222349D01*
X167852667Y-56250185D01*
X167852662Y-56250187D01*
X167703342Y-56342289D01*
X167579289Y-56466342D01*
X167487187Y-56615662D01*
X167487185Y-56615667D01*
X167469797Y-56668141D01*
X167432001Y-56782202D01*
X167432001Y-56782203D01*
X167432000Y-56782203D01*
X167421500Y-56884982D01*
X167421500Y-58685017D01*
X167432000Y-58787796D01*
X167432001Y-58787798D01*
X167487186Y-58954335D01*
X167579288Y-59103656D01*
X167703344Y-59227712D01*
X167852665Y-59319814D01*
X167936505Y-59347596D01*
X167993949Y-59387368D01*
X168020772Y-59451883D01*
X168021500Y-59465301D01*
X168021500Y-70441544D01*
X168040724Y-70538188D01*
X168055948Y-70614724D01*
X168059949Y-70634835D01*
X168059950Y-70634839D01*
X168135364Y-70816907D01*
X168135371Y-70816920D01*
X168244860Y-70980781D01*
X168244863Y-70980785D01*
X168388537Y-71124459D01*
X168388559Y-71124479D01*
X170032181Y-72768101D01*
X170065666Y-72829424D01*
X170068500Y-72855782D01*
X170068500Y-74565500D01*
X170048815Y-74632539D01*
X169996011Y-74678294D01*
X169944500Y-74689500D01*
X169169230Y-74689500D01*
X169102191Y-74669815D01*
X169081549Y-74653181D01*
X169066657Y-74638289D01*
X169066656Y-74638288D01*
X168917334Y-74546186D01*
X168750797Y-74491001D01*
X168750795Y-74491000D01*
X168648010Y-74480500D01*
X167647998Y-74480500D01*
X167647980Y-74480501D01*
X167545203Y-74491000D01*
X167545200Y-74491001D01*
X167378668Y-74546185D01*
X167378663Y-74546187D01*
X167229342Y-74638289D01*
X167105289Y-74762342D01*
X167013187Y-74911663D01*
X167013186Y-74911666D01*
X166958001Y-75078203D01*
X166958001Y-75078204D01*
X166958000Y-75078204D01*
X166947500Y-75180983D01*
X166947500Y-75981001D01*
X166947501Y-75981019D01*
X166958000Y-76083796D01*
X166958001Y-76083799D01*
X167013185Y-76250331D01*
X167013186Y-76250334D01*
X167072855Y-76347074D01*
X167105289Y-76399657D01*
X167198951Y-76493319D01*
X167232436Y-76554642D01*
X167227452Y-76624334D01*
X167198951Y-76668681D01*
X167105289Y-76762342D01*
X167013184Y-76911668D01*
X166985752Y-76994451D01*
X166955728Y-77043126D01*
X164053994Y-79944860D01*
X163992671Y-79978345D01*
X163922979Y-79973361D01*
X163878632Y-79944860D01*
X156913730Y-72979957D01*
X156913726Y-72979954D01*
X156770339Y-72884145D01*
X156770326Y-72884138D01*
X156611006Y-72818146D01*
X156610994Y-72818143D01*
X156441860Y-72784500D01*
X156441857Y-72784500D01*
X155665229Y-72784500D01*
X155354006Y-72784500D01*
X155286967Y-72764815D01*
X155266325Y-72748181D01*
X152958102Y-70439957D01*
X152958098Y-70439954D01*
X152814711Y-70344145D01*
X152814698Y-70344138D01*
X152655378Y-70278146D01*
X152655366Y-70278143D01*
X152486232Y-70244500D01*
X152486229Y-70244500D01*
X142326228Y-70244500D01*
X142153771Y-70244500D01*
X142153768Y-70244500D01*
X141984633Y-70278143D01*
X141984621Y-70278146D01*
X141825301Y-70344138D01*
X141825288Y-70344145D01*
X141681901Y-70439954D01*
X141681897Y-70439957D01*
X141173901Y-70947955D01*
X141141075Y-70980781D01*
X141051953Y-71069902D01*
X140956145Y-71213288D01*
X140956138Y-71213301D01*
X140890146Y-71372621D01*
X140890143Y-71372633D01*
X140856500Y-71541766D01*
X136652000Y-71541766D01*
X136652000Y-65744421D01*
X135572501Y-63246002D01*
X135572500Y-63246000D01*
X132966341Y-60793144D01*
X132960404Y-60787163D01*
X132784269Y-60597227D01*
X132773681Y-60584127D01*
X132760430Y-60565239D01*
X132627339Y-60375530D01*
X132618635Y-60361135D01*
X132501909Y-60134618D01*
X132495230Y-60119160D01*
X132410285Y-59878926D01*
X132405766Y-59862716D01*
X132354161Y-59613173D01*
X132351881Y-59596502D01*
X132335270Y-59352507D01*
X132334286Y-59338054D01*
X132334000Y-59329632D01*
X132334000Y-57340501D01*
X132333999Y-57340497D01*
X132201361Y-57094910D01*
X132171731Y-57040049D01*
X135706000Y-57040049D01*
X135706000Y-57262950D01*
X135706001Y-57262966D01*
X135735094Y-57483952D01*
X135735095Y-57483957D01*
X135735096Y-57483963D01*
X135735400Y-57485096D01*
X135792790Y-57699280D01*
X135792793Y-57699290D01*
X135844657Y-57824500D01*
X135878095Y-57905226D01*
X135989552Y-58098274D01*
X135989557Y-58098280D01*
X135989558Y-58098282D01*
X136125251Y-58275122D01*
X136125257Y-58275129D01*
X136282870Y-58432742D01*
X136282877Y-58432748D01*
X136330058Y-58468951D01*
X136459726Y-58568448D01*
X136652774Y-58679905D01*
X136782640Y-58733697D01*
X136808015Y-58744208D01*
X136858719Y-58765210D01*
X137074037Y-58822904D01*
X137295043Y-58852000D01*
X137295050Y-58852000D01*
X137517950Y-58852000D01*
X137517957Y-58852000D01*
X137738963Y-58822904D01*
X137954281Y-58765210D01*
X138160226Y-58679905D01*
X138353274Y-58568448D01*
X138530124Y-58432747D01*
X138687747Y-58275124D01*
X138823448Y-58098274D01*
X138934905Y-57905226D01*
X139020210Y-57699281D01*
X139077904Y-57483963D01*
X139107000Y-57262957D01*
X139107000Y-57040043D01*
X139077904Y-56819037D01*
X139020210Y-56603719D01*
X138934905Y-56397774D01*
X138823448Y-56204726D01*
X138768120Y-56132621D01*
X138687748Y-56027877D01*
X138687742Y-56027870D01*
X138530129Y-55870257D01*
X138530122Y-55870251D01*
X138353282Y-55734558D01*
X138353280Y-55734557D01*
X138353274Y-55734552D01*
X138160226Y-55623095D01*
X138160222Y-55623093D01*
X137954290Y-55537793D01*
X137954283Y-55537791D01*
X137954281Y-55537790D01*
X137738963Y-55480096D01*
X137738957Y-55480095D01*
X137738952Y-55480094D01*
X137517966Y-55451001D01*
X137517963Y-55451000D01*
X137517957Y-55451000D01*
X137295043Y-55451000D01*
X137295037Y-55451000D01*
X137295033Y-55451001D01*
X137074047Y-55480094D01*
X137074040Y-55480095D01*
X137074037Y-55480096D01*
X136867501Y-55535437D01*
X136858719Y-55537790D01*
X136858709Y-55537793D01*
X136652777Y-55623093D01*
X136652773Y-55623095D01*
X136459726Y-55734552D01*
X136459717Y-55734558D01*
X136282877Y-55870251D01*
X136282870Y-55870257D01*
X136125257Y-56027870D01*
X136125251Y-56027877D01*
X135989558Y-56204717D01*
X135989552Y-56204726D01*
X135878095Y-56397773D01*
X135878093Y-56397777D01*
X135792793Y-56603709D01*
X135792790Y-56603719D01*
X135739660Y-56802006D01*
X135735097Y-56819034D01*
X135735094Y-56819047D01*
X135706001Y-57040033D01*
X135706000Y-57040049D01*
X132171731Y-57040049D01*
X132093748Y-56895659D01*
X131777024Y-56309224D01*
X131777013Y-56309205D01*
X131772996Y-56301768D01*
X131539944Y-55870257D01*
X131537478Y-55865691D01*
X131537474Y-55865687D01*
X129229747Y-54352423D01*
X129229744Y-54352422D01*
X129092216Y-54311352D01*
X127540621Y-53848000D01*
X127540619Y-53848000D01*
X113017811Y-53959492D01*
X113008920Y-53959242D01*
X112736082Y-53941738D01*
X112718467Y-53939330D01*
X112455324Y-53883911D01*
X112438235Y-53879010D01*
X112185707Y-53786525D01*
X112169500Y-53779233D01*
X111932785Y-53651580D01*
X111917790Y-53642046D01*
X111701778Y-53481866D01*
X111688297Y-53470283D01*
X111592849Y-53375566D01*
X111497406Y-53280852D01*
X111485717Y-53267457D01*
X111323881Y-53052679D01*
X111314230Y-53037754D01*
X111184767Y-52802030D01*
X111177354Y-52785888D01*
X111082929Y-52534069D01*
X111077900Y-52517031D01*
X111020456Y-52254290D01*
X111017917Y-52236716D01*
X110998319Y-51964025D01*
X110998000Y-51955136D01*
X110998000Y-46423135D01*
X113915500Y-46423135D01*
X113915500Y-48318870D01*
X113915501Y-48318876D01*
X113921908Y-48378483D01*
X113972202Y-48513328D01*
X113972206Y-48513335D01*
X114058452Y-48628544D01*
X114058455Y-48628547D01*
X114173664Y-48714793D01*
X114173671Y-48714797D01*
X114253580Y-48744601D01*
X114309514Y-48786472D01*
X114333931Y-48851936D01*
X114319080Y-48920209D01*
X114297929Y-48948463D01*
X114247756Y-48998636D01*
X114247752Y-48998641D01*
X114118187Y-49176974D01*
X114018104Y-49373393D01*
X114018103Y-49373396D01*
X113949985Y-49583047D01*
X113915500Y-49800778D01*
X113915500Y-50021221D01*
X113949985Y-50238952D01*
X114018103Y-50448603D01*
X114018104Y-50448606D01*
X114118187Y-50645025D01*
X114247752Y-50823358D01*
X114247756Y-50823363D01*
X114403636Y-50979243D01*
X114403641Y-50979247D01*
X114559192Y-51092260D01*
X114581978Y-51108815D01*
X114710375Y-51174237D01*
X114778393Y-51208895D01*
X114778396Y-51208896D01*
X114883221Y-51242955D01*
X114988049Y-51277015D01*
X115205778Y-51311500D01*
X115205779Y-51311500D01*
X115426221Y-51311500D01*
X115426222Y-51311500D01*
X115643951Y-51277015D01*
X115853606Y-51208895D01*
X116050022Y-51108815D01*
X116228365Y-50979242D01*
X116384242Y-50823365D01*
X116384242Y-50823364D01*
X116384788Y-50822819D01*
X116446111Y-50789334D01*
X116472469Y-50786500D01*
X136110994Y-50786500D01*
X136178033Y-50806185D01*
X136198675Y-50822819D01*
X142090181Y-56714325D01*
X142123666Y-56775648D01*
X142126500Y-56802006D01*
X142126500Y-63840233D01*
X142160143Y-64009366D01*
X142160146Y-64009378D01*
X142226138Y-64168698D01*
X142226145Y-64168711D01*
X142321954Y-64312098D01*
X142321957Y-64312102D01*
X144884181Y-66874325D01*
X144917666Y-66935648D01*
X144920500Y-66962006D01*
X144920500Y-67396233D01*
X144954143Y-67565366D01*
X144954146Y-67565378D01*
X145020138Y-67724698D01*
X145020145Y-67724711D01*
X145115954Y-67868098D01*
X145115957Y-67868102D01*
X145237897Y-67990042D01*
X145237901Y-67990045D01*
X145381288Y-68085854D01*
X145381301Y-68085861D01*
X145540621Y-68151853D01*
X145540626Y-68151855D01*
X145709766Y-68185499D01*
X145709769Y-68185500D01*
X145709771Y-68185500D01*
X145882231Y-68185500D01*
X145882232Y-68185499D01*
X146051374Y-68151855D01*
X146174604Y-68100811D01*
X146210698Y-68085861D01*
X146210698Y-68085860D01*
X146210705Y-68085858D01*
X146354099Y-67990045D01*
X146476045Y-67868099D01*
X146571858Y-67724705D01*
X146637855Y-67565374D01*
X146671500Y-67396229D01*
X146671500Y-66461771D01*
X146671500Y-66461768D01*
X146671499Y-66461766D01*
X146637855Y-66292626D01*
X146616651Y-66241435D01*
X146571861Y-66133301D01*
X146571854Y-66133288D01*
X146476046Y-65989902D01*
X146427118Y-65940974D01*
X146354099Y-65867955D01*
X143913819Y-63427675D01*
X143880334Y-63366352D01*
X143877500Y-63339994D01*
X143877500Y-57040049D01*
X145866000Y-57040049D01*
X145866000Y-57262950D01*
X145866001Y-57262966D01*
X145895094Y-57483952D01*
X145895095Y-57483957D01*
X145895096Y-57483963D01*
X145895400Y-57485096D01*
X145952790Y-57699280D01*
X145952793Y-57699290D01*
X146004657Y-57824500D01*
X146038095Y-57905226D01*
X146149552Y-58098274D01*
X146149557Y-58098280D01*
X146149558Y-58098282D01*
X146285251Y-58275122D01*
X146285257Y-58275129D01*
X146442870Y-58432742D01*
X146442877Y-58432748D01*
X146490058Y-58468951D01*
X146619726Y-58568448D01*
X146812774Y-58679905D01*
X146942640Y-58733697D01*
X146968015Y-58744208D01*
X147018719Y-58765210D01*
X147234037Y-58822904D01*
X147455043Y-58852000D01*
X147455050Y-58852000D01*
X147677950Y-58852000D01*
X147677957Y-58852000D01*
X147898963Y-58822904D01*
X148114281Y-58765210D01*
X148320226Y-58679905D01*
X148513274Y-58568448D01*
X148690124Y-58432747D01*
X148847747Y-58275124D01*
X148983448Y-58098274D01*
X149094905Y-57905226D01*
X149180210Y-57699281D01*
X149237904Y-57483963D01*
X149267000Y-57262957D01*
X149267000Y-57040043D01*
X149237904Y-56819037D01*
X149180210Y-56603719D01*
X149094905Y-56397774D01*
X148983448Y-56204726D01*
X148928120Y-56132621D01*
X148847748Y-56027877D01*
X148847742Y-56027870D01*
X148690129Y-55870257D01*
X148690122Y-55870251D01*
X148513282Y-55734558D01*
X148513280Y-55734557D01*
X148513274Y-55734552D01*
X148320226Y-55623095D01*
X148320222Y-55623093D01*
X148114290Y-55537793D01*
X148114283Y-55537791D01*
X148114281Y-55537790D01*
X147898963Y-55480096D01*
X147898957Y-55480095D01*
X147898952Y-55480094D01*
X147677966Y-55451001D01*
X147677963Y-55451000D01*
X147677957Y-55451000D01*
X147455043Y-55451000D01*
X147455037Y-55451000D01*
X147455033Y-55451001D01*
X147234047Y-55480094D01*
X147234040Y-55480095D01*
X147234037Y-55480096D01*
X147027501Y-55535437D01*
X147018719Y-55537790D01*
X147018709Y-55537793D01*
X146812777Y-55623093D01*
X146812773Y-55623095D01*
X146619726Y-55734552D01*
X146619717Y-55734558D01*
X146442877Y-55870251D01*
X146442870Y-55870257D01*
X146285257Y-56027870D01*
X146285251Y-56027877D01*
X146149558Y-56204717D01*
X146149552Y-56204726D01*
X146038095Y-56397773D01*
X146038093Y-56397777D01*
X145952793Y-56603709D01*
X145952790Y-56603719D01*
X145899660Y-56802006D01*
X145895097Y-56819034D01*
X145895094Y-56819047D01*
X145866001Y-57040033D01*
X145866000Y-57040049D01*
X143877500Y-57040049D01*
X143877500Y-56301768D01*
X143877499Y-56301766D01*
X143867239Y-56250185D01*
X143843855Y-56132626D01*
X143800467Y-56027877D01*
X143777861Y-55973301D01*
X143777854Y-55973288D01*
X143682046Y-55829902D01*
X143682045Y-55829901D01*
X143560099Y-55707955D01*
X142771672Y-54919528D01*
X176961500Y-54919528D01*
X176961500Y-55228471D01*
X176996086Y-55535437D01*
X176996089Y-55535455D01*
X177064831Y-55836635D01*
X177064835Y-55836647D01*
X177166862Y-56128222D01*
X177166868Y-56128236D01*
X177300903Y-56406562D01*
X177300905Y-56406565D01*
X177465265Y-56668143D01*
X177657880Y-56909674D01*
X177876326Y-57128120D01*
X178117857Y-57320735D01*
X178379435Y-57485095D01*
X178657771Y-57619135D01*
X178657777Y-57619137D01*
X178949352Y-57721164D01*
X178949364Y-57721168D01*
X179250548Y-57789911D01*
X179250554Y-57789911D01*
X179250562Y-57789913D01*
X179455206Y-57812970D01*
X179557529Y-57824499D01*
X179557532Y-57824500D01*
X179557535Y-57824500D01*
X179866468Y-57824500D01*
X179866469Y-57824499D01*
X180023356Y-57806822D01*
X180173437Y-57789913D01*
X180173442Y-57789912D01*
X180173452Y-57789911D01*
X180474636Y-57721168D01*
X180766229Y-57619135D01*
X181044565Y-57485095D01*
X181306143Y-57320735D01*
X181547674Y-57128120D01*
X181766120Y-56909674D01*
X181958735Y-56668143D01*
X182123095Y-56406565D01*
X182257135Y-56128229D01*
X182359168Y-55836636D01*
X182427911Y-55535452D01*
X182434149Y-55480094D01*
X182462499Y-55228471D01*
X182462500Y-55228467D01*
X182462500Y-54919532D01*
X182462499Y-54919528D01*
X182427913Y-54612562D01*
X182427910Y-54612544D01*
X182359168Y-54311364D01*
X182359164Y-54311352D01*
X182257137Y-54019777D01*
X182257135Y-54019771D01*
X182123095Y-53741435D01*
X181958735Y-53479857D01*
X181766120Y-53238326D01*
X181547674Y-53019880D01*
X181306143Y-52827265D01*
X181044565Y-52662905D01*
X181044562Y-52662903D01*
X180766236Y-52528868D01*
X180766222Y-52528862D01*
X180474647Y-52426835D01*
X180474635Y-52426831D01*
X180173455Y-52358089D01*
X180173437Y-52358086D01*
X179866471Y-52323500D01*
X179866465Y-52323500D01*
X179557535Y-52323500D01*
X179557528Y-52323500D01*
X179250562Y-52358086D01*
X179250544Y-52358089D01*
X178949364Y-52426831D01*
X178949352Y-52426835D01*
X178657777Y-52528862D01*
X178657763Y-52528868D01*
X178379437Y-52662903D01*
X178117858Y-52827264D01*
X177876326Y-53019879D01*
X177657879Y-53238326D01*
X177465264Y-53479858D01*
X177300903Y-53741437D01*
X177166868Y-54019763D01*
X177166862Y-54019777D01*
X177064835Y-54311352D01*
X177064831Y-54311364D01*
X176996089Y-54612544D01*
X176996086Y-54612562D01*
X176961500Y-54919528D01*
X142771672Y-54919528D01*
X140088860Y-52236716D01*
X137083102Y-49230957D01*
X137083098Y-49230954D01*
X136939711Y-49135145D01*
X136939698Y-49135138D01*
X136780378Y-49069146D01*
X136780366Y-49069143D01*
X136611232Y-49035500D01*
X136611229Y-49035500D01*
X116472469Y-49035500D01*
X116443028Y-49026855D01*
X116413042Y-49020332D01*
X116408026Y-49016577D01*
X116405430Y-49015815D01*
X116384788Y-48999181D01*
X116334071Y-48948464D01*
X116300586Y-48887141D01*
X116305570Y-48817449D01*
X116347442Y-48761516D01*
X116378420Y-48744601D01*
X116458326Y-48714798D01*
X116458326Y-48714797D01*
X116458331Y-48714796D01*
X116573546Y-48628546D01*
X116659796Y-48513331D01*
X116710091Y-48378483D01*
X116716500Y-48318873D01*
X116716499Y-47499038D01*
X167421500Y-47499038D01*
X167421500Y-47750961D01*
X167460910Y-47999785D01*
X167538760Y-48239383D01*
X167653132Y-48463848D01*
X167801201Y-48667649D01*
X167801205Y-48667654D01*
X167979345Y-48845794D01*
X167979350Y-48845798D01*
X168081769Y-48920209D01*
X168183155Y-48993870D01*
X168264859Y-49035500D01*
X168407616Y-49108239D01*
X168407618Y-49108239D01*
X168407621Y-49108241D01*
X168647215Y-49186090D01*
X168896038Y-49225500D01*
X168896039Y-49225500D01*
X169147961Y-49225500D01*
X169147962Y-49225500D01*
X169396785Y-49186090D01*
X169636379Y-49108241D01*
X169860845Y-48993870D01*
X170064656Y-48845793D01*
X170242793Y-48667656D01*
X170242793Y-48667655D01*
X170246238Y-48664211D01*
X170247312Y-48665285D01*
X170300180Y-48630775D01*
X170335962Y-48625500D01*
X171406038Y-48625500D01*
X171473077Y-48645185D01*
X171495349Y-48664623D01*
X171495762Y-48664211D01*
X171677345Y-48845794D01*
X171677350Y-48845798D01*
X171779769Y-48920209D01*
X171881155Y-48993870D01*
X171962859Y-49035500D01*
X172105616Y-49108239D01*
X172105618Y-49108239D01*
X172105621Y-49108241D01*
X172345215Y-49186090D01*
X172594038Y-49225500D01*
X172594039Y-49225500D01*
X172845961Y-49225500D01*
X172845962Y-49225500D01*
X173094785Y-49186090D01*
X173334379Y-49108241D01*
X173558845Y-48993870D01*
X173762656Y-48845793D01*
X173940793Y-48667656D01*
X174088870Y-48463845D01*
X174203241Y-48239379D01*
X174281090Y-47999785D01*
X174320500Y-47750962D01*
X174320500Y-47499038D01*
X174281090Y-47250215D01*
X174203241Y-47010621D01*
X174203239Y-47010618D01*
X174203239Y-47010616D01*
X174161747Y-46929184D01*
X174088870Y-46786155D01*
X174069952Y-46760117D01*
X173940798Y-46582350D01*
X173940794Y-46582345D01*
X173762654Y-46404205D01*
X173762649Y-46404201D01*
X173558848Y-46256132D01*
X173558847Y-46256131D01*
X173558845Y-46256130D01*
X173488747Y-46220413D01*
X173334383Y-46141760D01*
X173094785Y-46063910D01*
X173078199Y-46061283D01*
X172845962Y-46024500D01*
X172594038Y-46024500D01*
X172469626Y-46044205D01*
X172345214Y-46063910D01*
X172105616Y-46141760D01*
X171881151Y-46256132D01*
X171677350Y-46404201D01*
X171677345Y-46404205D01*
X171495762Y-46585789D01*
X171494687Y-46584714D01*
X171441820Y-46619225D01*
X171406038Y-46624500D01*
X170335962Y-46624500D01*
X170268923Y-46604815D01*
X170246650Y-46585376D01*
X170246238Y-46585789D01*
X170064654Y-46404205D01*
X170064649Y-46404201D01*
X169860848Y-46256132D01*
X169860847Y-46256131D01*
X169860845Y-46256130D01*
X169790747Y-46220413D01*
X169636383Y-46141760D01*
X169396785Y-46063910D01*
X169380199Y-46061283D01*
X169147962Y-46024500D01*
X168896038Y-46024500D01*
X168771626Y-46044205D01*
X168647214Y-46063910D01*
X168407616Y-46141760D01*
X168183151Y-46256132D01*
X167979350Y-46404201D01*
X167979345Y-46404205D01*
X167801205Y-46582345D01*
X167801201Y-46582350D01*
X167653132Y-46786151D01*
X167538760Y-47010616D01*
X167460910Y-47250214D01*
X167421500Y-47499038D01*
X116716499Y-47499038D01*
X116716499Y-47250215D01*
X116716499Y-46423129D01*
X116716498Y-46423123D01*
X116716497Y-46423116D01*
X116710091Y-46363517D01*
X116670038Y-46256130D01*
X116659797Y-46228671D01*
X116659793Y-46228664D01*
X116573547Y-46113455D01*
X116573544Y-46113452D01*
X116458335Y-46027206D01*
X116458328Y-46027202D01*
X116323482Y-45976908D01*
X116323483Y-45976908D01*
X116263883Y-45970501D01*
X116263881Y-45970500D01*
X116263873Y-45970500D01*
X116263864Y-45970500D01*
X114368129Y-45970500D01*
X114368123Y-45970501D01*
X114308516Y-45976908D01*
X114173671Y-46027202D01*
X114173664Y-46027206D01*
X114058455Y-46113452D01*
X114058452Y-46113455D01*
X113972206Y-46228664D01*
X113972202Y-46228671D01*
X113921908Y-46363517D01*
X113917534Y-46404205D01*
X113915501Y-46423123D01*
X113915500Y-46423135D01*
X110998000Y-46423135D01*
X110998000Y-46070119D01*
X110998315Y-46061283D01*
X111006600Y-45945314D01*
X111017683Y-45790182D01*
X111020192Y-45772713D01*
X111076966Y-45511450D01*
X111081933Y-45494513D01*
X111175272Y-45243971D01*
X111182597Y-45227913D01*
X111310603Y-44993196D01*
X111320145Y-44978327D01*
X111480211Y-44764203D01*
X111491771Y-44750843D01*
X111607966Y-44634455D01*
X111680658Y-44561641D01*
X111693992Y-44550066D01*
X111907872Y-44389631D01*
X111922700Y-44380079D01*
X112157217Y-44251678D01*
X112173272Y-44244324D01*
X112423647Y-44150574D01*
X112440580Y-44145577D01*
X112701738Y-44088374D01*
X112719219Y-44085833D01*
X112990290Y-44066015D01*
X112999089Y-44065686D01*
X146609689Y-44010040D01*
X185698266Y-43945324D01*
X185707103Y-43945625D01*
G37*
%TD.AperFunction*%
%TD*%
%TA.AperFunction,Conductor*%
%TO.N,/Vcc+*%
G36*
X174745059Y-91949061D02*
G01*
X174889048Y-91968017D01*
X174920311Y-91976394D01*
X175046919Y-92028836D01*
X175074946Y-92045017D01*
X175183673Y-92128447D01*
X175206552Y-92151326D01*
X175289980Y-92260050D01*
X175306164Y-92288082D01*
X175358604Y-92414684D01*
X175366982Y-92445951D01*
X175385939Y-92589939D01*
X175387000Y-92606125D01*
X175387000Y-93786538D01*
X175386123Y-93801263D01*
X175370429Y-93932484D01*
X175363484Y-93961102D01*
X175319891Y-94077949D01*
X175306393Y-94104124D01*
X175236476Y-94207393D01*
X175217187Y-94229646D01*
X175124888Y-94313517D01*
X175100896Y-94330594D01*
X175055208Y-94355526D01*
X174984883Y-94393901D01*
X174971544Y-94400181D01*
X174615962Y-94542415D01*
X172212001Y-95503998D01*
X172168099Y-95537769D01*
X172140660Y-95558877D01*
X170986189Y-96446931D01*
X170972119Y-96456301D01*
X170840745Y-96531392D01*
X170809456Y-96543992D01*
X170671004Y-96578814D01*
X170637478Y-96582516D01*
X170494759Y-96578738D01*
X170461475Y-96573267D01*
X170325061Y-96531170D01*
X170294483Y-96516933D01*
X170167267Y-96434997D01*
X170153712Y-96424896D01*
X168127761Y-94688366D01*
X168115111Y-94675840D01*
X168010257Y-94555922D01*
X167990951Y-94526117D01*
X167928153Y-94389580D01*
X167918088Y-94355526D01*
X167895278Y-94197873D01*
X167894000Y-94180117D01*
X167894000Y-92606125D01*
X167895061Y-92589940D01*
X167914017Y-92445952D01*
X167914017Y-92445951D01*
X167922393Y-92414690D01*
X167974838Y-92288076D01*
X167991015Y-92260056D01*
X168074450Y-92151322D01*
X168097322Y-92128450D01*
X168206056Y-92045015D01*
X168234076Y-92028838D01*
X168360690Y-91976393D01*
X168391949Y-91968017D01*
X168535941Y-91949061D01*
X168552126Y-91948000D01*
X174728874Y-91948000D01*
X174745059Y-91949061D01*
G37*
%TD.AperFunction*%
%TD*%
M02*
