%TF.GenerationSoftware,KiCad,Pcbnew,9.0.6*%
%TF.CreationDate,2026-07-30T14:19:56-04:00*%
%TF.ProjectId,catpaw,63617470-6177-42e6-9b69-6361645f7063,rev?*%
%TF.SameCoordinates,Original*%
%TF.FileFunction,Paste,Bot*%
%TF.FilePolarity,Positive*%
%FSLAX46Y46*%
G04 Gerber Fmt 4.6, Leading zero omitted, Abs format (unit mm)*
G04 Created by KiCad (PCBNEW 9.0.6) date 2026-07-30 14:19:56*
%MOMM*%
%LPD*%
G01*
G04 APERTURE LIST*
G04 Aperture macros list*
%AMRoundRect*
0 Rectangle with rounded corners*
0 $1 Rounding radius*
0 $2 $3 $4 $5 $6 $7 $8 $9 X,Y pos of 4 corners*
0 Add a 4 corners polygon primitive as box body*
4,1,4,$2,$3,$4,$5,$6,$7,$8,$9,$2,$3,0*
0 Add four circle primitives for the rounded corners*
1,1,$1+$1,$2,$3*
1,1,$1+$1,$4,$5*
1,1,$1+$1,$6,$7*
1,1,$1+$1,$8,$9*
0 Add four rect primitives between the rounded corners*
20,1,$1+$1,$2,$3,$4,$5,0*
20,1,$1+$1,$4,$5,$6,$7,0*
20,1,$1+$1,$6,$7,$8,$9,0*
20,1,$1+$1,$8,$9,$2,$3,0*%
G04 Aperture macros list end*
%ADD10RoundRect,0.250000X-0.450000X0.350000X-0.450000X-0.350000X0.450000X-0.350000X0.450000X0.350000X0*%
%ADD11RoundRect,0.250000X0.450000X-0.350000X0.450000X0.350000X-0.450000X0.350000X-0.450000X-0.350000X0*%
%ADD12RoundRect,0.250000X-0.350000X-0.450000X0.350000X-0.450000X0.350000X0.450000X-0.350000X0.450000X0*%
%ADD13RoundRect,0.250000X0.400000X0.625000X-0.400000X0.625000X-0.400000X-0.625000X0.400000X-0.625000X0*%
%ADD14RoundRect,0.150000X-0.825000X-0.150000X0.825000X-0.150000X0.825000X0.150000X-0.825000X0.150000X0*%
%ADD15RoundRect,0.237500X0.300000X0.237500X-0.300000X0.237500X-0.300000X-0.237500X0.300000X-0.237500X0*%
%ADD16RoundRect,0.237500X-0.300000X-0.237500X0.300000X-0.237500X0.300000X0.237500X-0.300000X0.237500X0*%
%ADD17RoundRect,0.237500X-0.237500X0.300000X-0.237500X-0.300000X0.237500X-0.300000X0.237500X0.300000X0*%
%ADD18RoundRect,0.150000X0.825000X0.150000X-0.825000X0.150000X-0.825000X-0.150000X0.825000X-0.150000X0*%
G04 APERTURE END LIST*
D10*
%TO.C,R7*%
X152400000Y-90694000D03*
X152400000Y-92694000D03*
%TD*%
D11*
%TO.C,R13*%
X147574000Y-61960000D03*
X147574000Y-59960000D03*
%TD*%
D12*
%TO.C,R14*%
X120920000Y-47371000D03*
X122920000Y-47371000D03*
%TD*%
%TO.C,R9*%
X155226000Y-93218000D03*
X157226000Y-93218000D03*
%TD*%
%TO.C,R8*%
X155226000Y-87884000D03*
X157226000Y-87884000D03*
%TD*%
D11*
%TO.C,R11*%
X172974000Y-87646000D03*
X172974000Y-89646000D03*
%TD*%
D13*
%TO.C,R3*%
X152348000Y-87376000D03*
X149248000Y-87376000D03*
%TD*%
D12*
%TO.C,R15*%
X151785000Y-73533000D03*
X153785000Y-73533000D03*
%TD*%
D10*
%TO.C,R10*%
X160274000Y-89567000D03*
X160274000Y-91567000D03*
%TD*%
D13*
%TO.C,R5*%
X146483000Y-96012000D03*
X143383000Y-96012000D03*
%TD*%
D14*
%TO.C,U1*%
X164149000Y-92456000D03*
X164149000Y-91186000D03*
X164149000Y-89916000D03*
X164149000Y-88646000D03*
X169099000Y-88646000D03*
X169099000Y-89916000D03*
X169099000Y-91186000D03*
X169099000Y-92456000D03*
%TD*%
D15*
%TO.C,C2*%
X170534500Y-86614000D03*
X168809500Y-86614000D03*
%TD*%
D11*
%TO.C,R12*%
X137414000Y-61960000D03*
X137414000Y-59960000D03*
%TD*%
D16*
%TO.C,C4*%
X146643000Y-78867000D03*
X148368000Y-78867000D03*
%TD*%
D13*
%TO.C,R1*%
X140488000Y-87376000D03*
X137388000Y-87376000D03*
%TD*%
%TO.C,R6*%
X152400000Y-96012000D03*
X149300000Y-96012000D03*
%TD*%
D12*
%TO.C,R16*%
X151162000Y-77089000D03*
X153162000Y-77089000D03*
%TD*%
D17*
%TO.C,C3*%
X143387000Y-68987500D03*
X143387000Y-70712500D03*
%TD*%
D13*
%TO.C,R4*%
X140566000Y-96012000D03*
X137466000Y-96012000D03*
%TD*%
D18*
%TO.C,U2*%
X148303000Y-72644000D03*
X148303000Y-73914000D03*
X148303000Y-75184000D03*
X148303000Y-76454000D03*
X143353000Y-76454000D03*
X143353000Y-75184000D03*
X143353000Y-73914000D03*
X143353000Y-72644000D03*
%TD*%
D13*
%TO.C,R2*%
X146418000Y-87376000D03*
X143318000Y-87376000D03*
%TD*%
D16*
%TO.C,C1*%
X167628000Y-94742000D03*
X169353000Y-94742000D03*
%TD*%
M02*
