%TF.GenerationSoftware,KiCad,Pcbnew,9.0.6*%
%TF.CreationDate,2026-09-21T15:13:43-04:00*%
%TF.ProjectId,catpaw,63617470-6177-42e6-9b69-6361645f7063,rev?*%
%TF.SameCoordinates,Original*%
%TF.FileFunction,Legend,Bot*%
%TF.FilePolarity,Positive*%
%FSLAX46Y46*%
G04 Gerber Fmt 4.6, Leading zero omitted, Abs format (unit mm)*
G04 Created by KiCad (PCBNEW 9.0.6) date 2026-09-21 15:13:43*
%MOMM*%
%LPD*%
G01*
G04 APERTURE LIST*
%ADD10C,0.150000*%
%ADD11C,0.120000*%
G04 APERTURE END LIST*
D10*
X141932819Y-62349142D02*
X141456628Y-62015809D01*
X141932819Y-61777714D02*
X140932819Y-61777714D01*
X140932819Y-61777714D02*
X140932819Y-62158666D01*
X140932819Y-62158666D02*
X140980438Y-62253904D01*
X140980438Y-62253904D02*
X141028057Y-62301523D01*
X141028057Y-62301523D02*
X141123295Y-62349142D01*
X141123295Y-62349142D02*
X141266152Y-62349142D01*
X141266152Y-62349142D02*
X141361390Y-62301523D01*
X141361390Y-62301523D02*
X141409009Y-62253904D01*
X141409009Y-62253904D02*
X141456628Y-62158666D01*
X141456628Y-62158666D02*
X141456628Y-61777714D01*
X141932819Y-63301523D02*
X141932819Y-62730095D01*
X141932819Y-63015809D02*
X140932819Y-63015809D01*
X140932819Y-63015809D02*
X141075676Y-62920571D01*
X141075676Y-62920571D02*
X141170914Y-62825333D01*
X141170914Y-62825333D02*
X141218533Y-62730095D01*
X140932819Y-63634857D02*
X140932819Y-64253904D01*
X140932819Y-64253904D02*
X141313771Y-63920571D01*
X141313771Y-63920571D02*
X141313771Y-64063428D01*
X141313771Y-64063428D02*
X141361390Y-64158666D01*
X141361390Y-64158666D02*
X141409009Y-64206285D01*
X141409009Y-64206285D02*
X141504247Y-64253904D01*
X141504247Y-64253904D02*
X141742342Y-64253904D01*
X141742342Y-64253904D02*
X141837580Y-64206285D01*
X141837580Y-64206285D02*
X141885200Y-64158666D01*
X141885200Y-64158666D02*
X141932819Y-64063428D01*
X141932819Y-64063428D02*
X141932819Y-63777714D01*
X141932819Y-63777714D02*
X141885200Y-63682476D01*
X141885200Y-63682476D02*
X141837580Y-63634857D01*
X155014819Y-86193333D02*
X154538628Y-85860000D01*
X155014819Y-85621905D02*
X154014819Y-85621905D01*
X154014819Y-85621905D02*
X154014819Y-86002857D01*
X154014819Y-86002857D02*
X154062438Y-86098095D01*
X154062438Y-86098095D02*
X154110057Y-86145714D01*
X154110057Y-86145714D02*
X154205295Y-86193333D01*
X154205295Y-86193333D02*
X154348152Y-86193333D01*
X154348152Y-86193333D02*
X154443390Y-86145714D01*
X154443390Y-86145714D02*
X154491009Y-86098095D01*
X154491009Y-86098095D02*
X154538628Y-86002857D01*
X154538628Y-86002857D02*
X154538628Y-85621905D01*
X154014819Y-86526667D02*
X154014819Y-87193333D01*
X154014819Y-87193333D02*
X155014819Y-86764762D01*
X126118857Y-47825819D02*
X126452190Y-47349628D01*
X126690285Y-47825819D02*
X126690285Y-46825819D01*
X126690285Y-46825819D02*
X126309333Y-46825819D01*
X126309333Y-46825819D02*
X126214095Y-46873438D01*
X126214095Y-46873438D02*
X126166476Y-46921057D01*
X126166476Y-46921057D02*
X126118857Y-47016295D01*
X126118857Y-47016295D02*
X126118857Y-47159152D01*
X126118857Y-47159152D02*
X126166476Y-47254390D01*
X126166476Y-47254390D02*
X126214095Y-47302009D01*
X126214095Y-47302009D02*
X126309333Y-47349628D01*
X126309333Y-47349628D02*
X126690285Y-47349628D01*
X125166476Y-47825819D02*
X125737904Y-47825819D01*
X125452190Y-47825819D02*
X125452190Y-46825819D01*
X125452190Y-46825819D02*
X125547428Y-46968676D01*
X125547428Y-46968676D02*
X125642666Y-47063914D01*
X125642666Y-47063914D02*
X125737904Y-47111533D01*
X124309333Y-47159152D02*
X124309333Y-47825819D01*
X124547428Y-46778200D02*
X124785523Y-47492485D01*
X124785523Y-47492485D02*
X124166476Y-47492485D01*
X160011857Y-95831819D02*
X160345190Y-95355628D01*
X160583285Y-95831819D02*
X160583285Y-94831819D01*
X160583285Y-94831819D02*
X160202333Y-94831819D01*
X160202333Y-94831819D02*
X160107095Y-94879438D01*
X160107095Y-94879438D02*
X160059476Y-94927057D01*
X160059476Y-94927057D02*
X160011857Y-95022295D01*
X160011857Y-95022295D02*
X160011857Y-95165152D01*
X160011857Y-95165152D02*
X160059476Y-95260390D01*
X160059476Y-95260390D02*
X160107095Y-95308009D01*
X160107095Y-95308009D02*
X160202333Y-95355628D01*
X160202333Y-95355628D02*
X160583285Y-95355628D01*
X159059476Y-95831819D02*
X159630904Y-95831819D01*
X159345190Y-95831819D02*
X159345190Y-94831819D01*
X159345190Y-94831819D02*
X159440428Y-94974676D01*
X159440428Y-94974676D02*
X159535666Y-95069914D01*
X159535666Y-95069914D02*
X159630904Y-95117533D01*
X158440428Y-94831819D02*
X158345190Y-94831819D01*
X158345190Y-94831819D02*
X158249952Y-94879438D01*
X158249952Y-94879438D02*
X158202333Y-94927057D01*
X158202333Y-94927057D02*
X158154714Y-95022295D01*
X158154714Y-95022295D02*
X158107095Y-95212771D01*
X158107095Y-95212771D02*
X158107095Y-95450866D01*
X158107095Y-95450866D02*
X158154714Y-95641342D01*
X158154714Y-95641342D02*
X158202333Y-95736580D01*
X158202333Y-95736580D02*
X158249952Y-95784200D01*
X158249952Y-95784200D02*
X158345190Y-95831819D01*
X158345190Y-95831819D02*
X158440428Y-95831819D01*
X158440428Y-95831819D02*
X158535666Y-95784200D01*
X158535666Y-95784200D02*
X158583285Y-95736580D01*
X158583285Y-95736580D02*
X158630904Y-95641342D01*
X158630904Y-95641342D02*
X158678523Y-95450866D01*
X158678523Y-95450866D02*
X158678523Y-95212771D01*
X158678523Y-95212771D02*
X158630904Y-95022295D01*
X158630904Y-95022295D02*
X158583285Y-94927057D01*
X158583285Y-94927057D02*
X158535666Y-94879438D01*
X158535666Y-94879438D02*
X158440428Y-94831819D01*
X159551666Y-86179819D02*
X159884999Y-85703628D01*
X160123094Y-86179819D02*
X160123094Y-85179819D01*
X160123094Y-85179819D02*
X159742142Y-85179819D01*
X159742142Y-85179819D02*
X159646904Y-85227438D01*
X159646904Y-85227438D02*
X159599285Y-85275057D01*
X159599285Y-85275057D02*
X159551666Y-85370295D01*
X159551666Y-85370295D02*
X159551666Y-85513152D01*
X159551666Y-85513152D02*
X159599285Y-85608390D01*
X159599285Y-85608390D02*
X159646904Y-85656009D01*
X159646904Y-85656009D02*
X159742142Y-85703628D01*
X159742142Y-85703628D02*
X160123094Y-85703628D01*
X159075475Y-86179819D02*
X158884999Y-86179819D01*
X158884999Y-86179819D02*
X158789761Y-86132200D01*
X158789761Y-86132200D02*
X158742142Y-86084580D01*
X158742142Y-86084580D02*
X158646904Y-85941723D01*
X158646904Y-85941723D02*
X158599285Y-85751247D01*
X158599285Y-85751247D02*
X158599285Y-85370295D01*
X158599285Y-85370295D02*
X158646904Y-85275057D01*
X158646904Y-85275057D02*
X158694523Y-85227438D01*
X158694523Y-85227438D02*
X158789761Y-85179819D01*
X158789761Y-85179819D02*
X158980237Y-85179819D01*
X158980237Y-85179819D02*
X159075475Y-85227438D01*
X159075475Y-85227438D02*
X159123094Y-85275057D01*
X159123094Y-85275057D02*
X159170713Y-85370295D01*
X159170713Y-85370295D02*
X159170713Y-85608390D01*
X159170713Y-85608390D02*
X159123094Y-85703628D01*
X159123094Y-85703628D02*
X159075475Y-85751247D01*
X159075475Y-85751247D02*
X158980237Y-85798866D01*
X158980237Y-85798866D02*
X158789761Y-85798866D01*
X158789761Y-85798866D02*
X158694523Y-85751247D01*
X158694523Y-85751247D02*
X158646904Y-85703628D01*
X158646904Y-85703628D02*
X158599285Y-85608390D01*
X176349819Y-88638142D02*
X175873628Y-88304809D01*
X176349819Y-88066714D02*
X175349819Y-88066714D01*
X175349819Y-88066714D02*
X175349819Y-88447666D01*
X175349819Y-88447666D02*
X175397438Y-88542904D01*
X175397438Y-88542904D02*
X175445057Y-88590523D01*
X175445057Y-88590523D02*
X175540295Y-88638142D01*
X175540295Y-88638142D02*
X175683152Y-88638142D01*
X175683152Y-88638142D02*
X175778390Y-88590523D01*
X175778390Y-88590523D02*
X175826009Y-88542904D01*
X175826009Y-88542904D02*
X175873628Y-88447666D01*
X175873628Y-88447666D02*
X175873628Y-88066714D01*
X175445057Y-89019095D02*
X175397438Y-89066714D01*
X175397438Y-89066714D02*
X175349819Y-89161952D01*
X175349819Y-89161952D02*
X175349819Y-89400047D01*
X175349819Y-89400047D02*
X175397438Y-89495285D01*
X175397438Y-89495285D02*
X175445057Y-89542904D01*
X175445057Y-89542904D02*
X175540295Y-89590523D01*
X175540295Y-89590523D02*
X175635533Y-89590523D01*
X175635533Y-89590523D02*
X175778390Y-89542904D01*
X175778390Y-89542904D02*
X176349819Y-88971476D01*
X176349819Y-88971476D02*
X176349819Y-89590523D01*
X176349819Y-90542904D02*
X176349819Y-89971476D01*
X176349819Y-90257190D02*
X175349819Y-90257190D01*
X175349819Y-90257190D02*
X175492676Y-90161952D01*
X175492676Y-90161952D02*
X175587914Y-90066714D01*
X175587914Y-90066714D02*
X175635533Y-89971476D01*
X150964666Y-85163819D02*
X151297999Y-84687628D01*
X151536094Y-85163819D02*
X151536094Y-84163819D01*
X151536094Y-84163819D02*
X151155142Y-84163819D01*
X151155142Y-84163819D02*
X151059904Y-84211438D01*
X151059904Y-84211438D02*
X151012285Y-84259057D01*
X151012285Y-84259057D02*
X150964666Y-84354295D01*
X150964666Y-84354295D02*
X150964666Y-84497152D01*
X150964666Y-84497152D02*
X151012285Y-84592390D01*
X151012285Y-84592390D02*
X151059904Y-84640009D01*
X151059904Y-84640009D02*
X151155142Y-84687628D01*
X151155142Y-84687628D02*
X151536094Y-84687628D01*
X150631332Y-84163819D02*
X150012285Y-84163819D01*
X150012285Y-84163819D02*
X150345618Y-84544771D01*
X150345618Y-84544771D02*
X150202761Y-84544771D01*
X150202761Y-84544771D02*
X150107523Y-84592390D01*
X150107523Y-84592390D02*
X150059904Y-84640009D01*
X150059904Y-84640009D02*
X150012285Y-84735247D01*
X150012285Y-84735247D02*
X150012285Y-84973342D01*
X150012285Y-84973342D02*
X150059904Y-85068580D01*
X150059904Y-85068580D02*
X150107523Y-85116200D01*
X150107523Y-85116200D02*
X150202761Y-85163819D01*
X150202761Y-85163819D02*
X150488475Y-85163819D01*
X150488475Y-85163819D02*
X150583713Y-85116200D01*
X150583713Y-85116200D02*
X150631332Y-85068580D01*
X155014819Y-94321333D02*
X154538628Y-93988000D01*
X155014819Y-93749905D02*
X154014819Y-93749905D01*
X154014819Y-93749905D02*
X154014819Y-94130857D01*
X154014819Y-94130857D02*
X154062438Y-94226095D01*
X154062438Y-94226095D02*
X154110057Y-94273714D01*
X154110057Y-94273714D02*
X154205295Y-94321333D01*
X154205295Y-94321333D02*
X154348152Y-94321333D01*
X154348152Y-94321333D02*
X154443390Y-94273714D01*
X154443390Y-94273714D02*
X154491009Y-94226095D01*
X154491009Y-94226095D02*
X154538628Y-94130857D01*
X154538628Y-94130857D02*
X154538628Y-93749905D01*
X154443390Y-94892762D02*
X154395771Y-94797524D01*
X154395771Y-94797524D02*
X154348152Y-94749905D01*
X154348152Y-94749905D02*
X154252914Y-94702286D01*
X154252914Y-94702286D02*
X154205295Y-94702286D01*
X154205295Y-94702286D02*
X154110057Y-94749905D01*
X154110057Y-94749905D02*
X154062438Y-94797524D01*
X154062438Y-94797524D02*
X154014819Y-94892762D01*
X154014819Y-94892762D02*
X154014819Y-95083238D01*
X154014819Y-95083238D02*
X154062438Y-95178476D01*
X154062438Y-95178476D02*
X154110057Y-95226095D01*
X154110057Y-95226095D02*
X154205295Y-95273714D01*
X154205295Y-95273714D02*
X154252914Y-95273714D01*
X154252914Y-95273714D02*
X154348152Y-95226095D01*
X154348152Y-95226095D02*
X154395771Y-95178476D01*
X154395771Y-95178476D02*
X154443390Y-95083238D01*
X154443390Y-95083238D02*
X154443390Y-94892762D01*
X154443390Y-94892762D02*
X154491009Y-94797524D01*
X154491009Y-94797524D02*
X154538628Y-94749905D01*
X154538628Y-94749905D02*
X154633866Y-94702286D01*
X154633866Y-94702286D02*
X154824342Y-94702286D01*
X154824342Y-94702286D02*
X154919580Y-94749905D01*
X154919580Y-94749905D02*
X154967200Y-94797524D01*
X154967200Y-94797524D02*
X155014819Y-94892762D01*
X155014819Y-94892762D02*
X155014819Y-95083238D01*
X155014819Y-95083238D02*
X154967200Y-95178476D01*
X154967200Y-95178476D02*
X154919580Y-95226095D01*
X154919580Y-95226095D02*
X154824342Y-95273714D01*
X154824342Y-95273714D02*
X154633866Y-95273714D01*
X154633866Y-95273714D02*
X154538628Y-95226095D01*
X154538628Y-95226095D02*
X154491009Y-95178476D01*
X154491009Y-95178476D02*
X154443390Y-95083238D01*
X153423857Y-72082819D02*
X153757190Y-71606628D01*
X153995285Y-72082819D02*
X153995285Y-71082819D01*
X153995285Y-71082819D02*
X153614333Y-71082819D01*
X153614333Y-71082819D02*
X153519095Y-71130438D01*
X153519095Y-71130438D02*
X153471476Y-71178057D01*
X153471476Y-71178057D02*
X153423857Y-71273295D01*
X153423857Y-71273295D02*
X153423857Y-71416152D01*
X153423857Y-71416152D02*
X153471476Y-71511390D01*
X153471476Y-71511390D02*
X153519095Y-71559009D01*
X153519095Y-71559009D02*
X153614333Y-71606628D01*
X153614333Y-71606628D02*
X153995285Y-71606628D01*
X152471476Y-72082819D02*
X153042904Y-72082819D01*
X152757190Y-72082819D02*
X152757190Y-71082819D01*
X152757190Y-71082819D02*
X152852428Y-71225676D01*
X152852428Y-71225676D02*
X152947666Y-71320914D01*
X152947666Y-71320914D02*
X153042904Y-71368533D01*
X151566714Y-71082819D02*
X152042904Y-71082819D01*
X152042904Y-71082819D02*
X152090523Y-71559009D01*
X152090523Y-71559009D02*
X152042904Y-71511390D01*
X152042904Y-71511390D02*
X151947666Y-71463771D01*
X151947666Y-71463771D02*
X151709571Y-71463771D01*
X151709571Y-71463771D02*
X151614333Y-71511390D01*
X151614333Y-71511390D02*
X151566714Y-71559009D01*
X151566714Y-71559009D02*
X151519095Y-71654247D01*
X151519095Y-71654247D02*
X151519095Y-71892342D01*
X151519095Y-71892342D02*
X151566714Y-71987580D01*
X151566714Y-71987580D02*
X151614333Y-72035200D01*
X151614333Y-72035200D02*
X151709571Y-72082819D01*
X151709571Y-72082819D02*
X151947666Y-72082819D01*
X151947666Y-72082819D02*
X152042904Y-72035200D01*
X152042904Y-72035200D02*
X152090523Y-71987580D01*
X159078819Y-89924142D02*
X158602628Y-89590809D01*
X159078819Y-89352714D02*
X158078819Y-89352714D01*
X158078819Y-89352714D02*
X158078819Y-89733666D01*
X158078819Y-89733666D02*
X158126438Y-89828904D01*
X158126438Y-89828904D02*
X158174057Y-89876523D01*
X158174057Y-89876523D02*
X158269295Y-89924142D01*
X158269295Y-89924142D02*
X158412152Y-89924142D01*
X158412152Y-89924142D02*
X158507390Y-89876523D01*
X158507390Y-89876523D02*
X158555009Y-89828904D01*
X158555009Y-89828904D02*
X158602628Y-89733666D01*
X158602628Y-89733666D02*
X158602628Y-89352714D01*
X159078819Y-90876523D02*
X159078819Y-90305095D01*
X159078819Y-90590809D02*
X158078819Y-90590809D01*
X158078819Y-90590809D02*
X158221676Y-90495571D01*
X158221676Y-90495571D02*
X158316914Y-90400333D01*
X158316914Y-90400333D02*
X158364533Y-90305095D01*
X159078819Y-91828904D02*
X159078819Y-91257476D01*
X159078819Y-91543190D02*
X158078819Y-91543190D01*
X158078819Y-91543190D02*
X158221676Y-91447952D01*
X158221676Y-91447952D02*
X158316914Y-91352714D01*
X158316914Y-91352714D02*
X158364533Y-91257476D01*
X145099666Y-97609819D02*
X145432999Y-97133628D01*
X145671094Y-97609819D02*
X145671094Y-96609819D01*
X145671094Y-96609819D02*
X145290142Y-96609819D01*
X145290142Y-96609819D02*
X145194904Y-96657438D01*
X145194904Y-96657438D02*
X145147285Y-96705057D01*
X145147285Y-96705057D02*
X145099666Y-96800295D01*
X145099666Y-96800295D02*
X145099666Y-96943152D01*
X145099666Y-96943152D02*
X145147285Y-97038390D01*
X145147285Y-97038390D02*
X145194904Y-97086009D01*
X145194904Y-97086009D02*
X145290142Y-97133628D01*
X145290142Y-97133628D02*
X145671094Y-97133628D01*
X144194904Y-96609819D02*
X144671094Y-96609819D01*
X144671094Y-96609819D02*
X144718713Y-97086009D01*
X144718713Y-97086009D02*
X144671094Y-97038390D01*
X144671094Y-97038390D02*
X144575856Y-96990771D01*
X144575856Y-96990771D02*
X144337761Y-96990771D01*
X144337761Y-96990771D02*
X144242523Y-97038390D01*
X144242523Y-97038390D02*
X144194904Y-97086009D01*
X144194904Y-97086009D02*
X144147285Y-97181247D01*
X144147285Y-97181247D02*
X144147285Y-97419342D01*
X144147285Y-97419342D02*
X144194904Y-97514580D01*
X144194904Y-97514580D02*
X144242523Y-97562200D01*
X144242523Y-97562200D02*
X144337761Y-97609819D01*
X144337761Y-97609819D02*
X144575856Y-97609819D01*
X144575856Y-97609819D02*
X144671094Y-97562200D01*
X144671094Y-97562200D02*
X144718713Y-97514580D01*
X165542904Y-86322819D02*
X165542904Y-87132342D01*
X165542904Y-87132342D02*
X165495285Y-87227580D01*
X165495285Y-87227580D02*
X165447666Y-87275200D01*
X165447666Y-87275200D02*
X165352428Y-87322819D01*
X165352428Y-87322819D02*
X165161952Y-87322819D01*
X165161952Y-87322819D02*
X165066714Y-87275200D01*
X165066714Y-87275200D02*
X165019095Y-87227580D01*
X165019095Y-87227580D02*
X164971476Y-87132342D01*
X164971476Y-87132342D02*
X164971476Y-86322819D01*
X163971476Y-87322819D02*
X164542904Y-87322819D01*
X164257190Y-87322819D02*
X164257190Y-86322819D01*
X164257190Y-86322819D02*
X164352428Y-86465676D01*
X164352428Y-86465676D02*
X164447666Y-86560914D01*
X164447666Y-86560914D02*
X164542904Y-86608533D01*
X169838666Y-85449580D02*
X169886285Y-85497200D01*
X169886285Y-85497200D02*
X170029142Y-85544819D01*
X170029142Y-85544819D02*
X170124380Y-85544819D01*
X170124380Y-85544819D02*
X170267237Y-85497200D01*
X170267237Y-85497200D02*
X170362475Y-85401961D01*
X170362475Y-85401961D02*
X170410094Y-85306723D01*
X170410094Y-85306723D02*
X170457713Y-85116247D01*
X170457713Y-85116247D02*
X170457713Y-84973390D01*
X170457713Y-84973390D02*
X170410094Y-84782914D01*
X170410094Y-84782914D02*
X170362475Y-84687676D01*
X170362475Y-84687676D02*
X170267237Y-84592438D01*
X170267237Y-84592438D02*
X170124380Y-84544819D01*
X170124380Y-84544819D02*
X170029142Y-84544819D01*
X170029142Y-84544819D02*
X169886285Y-84592438D01*
X169886285Y-84592438D02*
X169838666Y-84640057D01*
X169457713Y-84640057D02*
X169410094Y-84592438D01*
X169410094Y-84592438D02*
X169314856Y-84544819D01*
X169314856Y-84544819D02*
X169076761Y-84544819D01*
X169076761Y-84544819D02*
X168981523Y-84592438D01*
X168981523Y-84592438D02*
X168933904Y-84640057D01*
X168933904Y-84640057D02*
X168886285Y-84735295D01*
X168886285Y-84735295D02*
X168886285Y-84830533D01*
X168886285Y-84830533D02*
X168933904Y-84973390D01*
X168933904Y-84973390D02*
X169505332Y-85544819D01*
X169505332Y-85544819D02*
X168886285Y-85544819D01*
X136090819Y-60063142D02*
X135614628Y-59729809D01*
X136090819Y-59491714D02*
X135090819Y-59491714D01*
X135090819Y-59491714D02*
X135090819Y-59872666D01*
X135090819Y-59872666D02*
X135138438Y-59967904D01*
X135138438Y-59967904D02*
X135186057Y-60015523D01*
X135186057Y-60015523D02*
X135281295Y-60063142D01*
X135281295Y-60063142D02*
X135424152Y-60063142D01*
X135424152Y-60063142D02*
X135519390Y-60015523D01*
X135519390Y-60015523D02*
X135567009Y-59967904D01*
X135567009Y-59967904D02*
X135614628Y-59872666D01*
X135614628Y-59872666D02*
X135614628Y-59491714D01*
X136090819Y-61015523D02*
X136090819Y-60444095D01*
X136090819Y-60729809D02*
X135090819Y-60729809D01*
X135090819Y-60729809D02*
X135233676Y-60634571D01*
X135233676Y-60634571D02*
X135328914Y-60539333D01*
X135328914Y-60539333D02*
X135376533Y-60444095D01*
X135186057Y-61396476D02*
X135138438Y-61444095D01*
X135138438Y-61444095D02*
X135090819Y-61539333D01*
X135090819Y-61539333D02*
X135090819Y-61777428D01*
X135090819Y-61777428D02*
X135138438Y-61872666D01*
X135138438Y-61872666D02*
X135186057Y-61920285D01*
X135186057Y-61920285D02*
X135281295Y-61967904D01*
X135281295Y-61967904D02*
X135376533Y-61967904D01*
X135376533Y-61967904D02*
X135519390Y-61920285D01*
X135519390Y-61920285D02*
X136090819Y-61348857D01*
X136090819Y-61348857D02*
X136090819Y-61967904D01*
X144158166Y-79226580D02*
X144205785Y-79274200D01*
X144205785Y-79274200D02*
X144348642Y-79321819D01*
X144348642Y-79321819D02*
X144443880Y-79321819D01*
X144443880Y-79321819D02*
X144586737Y-79274200D01*
X144586737Y-79274200D02*
X144681975Y-79178961D01*
X144681975Y-79178961D02*
X144729594Y-79083723D01*
X144729594Y-79083723D02*
X144777213Y-78893247D01*
X144777213Y-78893247D02*
X144777213Y-78750390D01*
X144777213Y-78750390D02*
X144729594Y-78559914D01*
X144729594Y-78559914D02*
X144681975Y-78464676D01*
X144681975Y-78464676D02*
X144586737Y-78369438D01*
X144586737Y-78369438D02*
X144443880Y-78321819D01*
X144443880Y-78321819D02*
X144348642Y-78321819D01*
X144348642Y-78321819D02*
X144205785Y-78369438D01*
X144205785Y-78369438D02*
X144158166Y-78417057D01*
X143301023Y-78655152D02*
X143301023Y-79321819D01*
X143539118Y-78274200D02*
X143777213Y-78988485D01*
X143777213Y-78988485D02*
X143158166Y-78988485D01*
X139104666Y-85163819D02*
X139437999Y-84687628D01*
X139676094Y-85163819D02*
X139676094Y-84163819D01*
X139676094Y-84163819D02*
X139295142Y-84163819D01*
X139295142Y-84163819D02*
X139199904Y-84211438D01*
X139199904Y-84211438D02*
X139152285Y-84259057D01*
X139152285Y-84259057D02*
X139104666Y-84354295D01*
X139104666Y-84354295D02*
X139104666Y-84497152D01*
X139104666Y-84497152D02*
X139152285Y-84592390D01*
X139152285Y-84592390D02*
X139199904Y-84640009D01*
X139199904Y-84640009D02*
X139295142Y-84687628D01*
X139295142Y-84687628D02*
X139676094Y-84687628D01*
X138152285Y-85163819D02*
X138723713Y-85163819D01*
X138437999Y-85163819D02*
X138437999Y-84163819D01*
X138437999Y-84163819D02*
X138533237Y-84306676D01*
X138533237Y-84306676D02*
X138628475Y-84401914D01*
X138628475Y-84401914D02*
X138723713Y-84449533D01*
X151016666Y-97609819D02*
X151349999Y-97133628D01*
X151588094Y-97609819D02*
X151588094Y-96609819D01*
X151588094Y-96609819D02*
X151207142Y-96609819D01*
X151207142Y-96609819D02*
X151111904Y-96657438D01*
X151111904Y-96657438D02*
X151064285Y-96705057D01*
X151064285Y-96705057D02*
X151016666Y-96800295D01*
X151016666Y-96800295D02*
X151016666Y-96943152D01*
X151016666Y-96943152D02*
X151064285Y-97038390D01*
X151064285Y-97038390D02*
X151111904Y-97086009D01*
X151111904Y-97086009D02*
X151207142Y-97133628D01*
X151207142Y-97133628D02*
X151588094Y-97133628D01*
X150159523Y-96609819D02*
X150349999Y-96609819D01*
X150349999Y-96609819D02*
X150445237Y-96657438D01*
X150445237Y-96657438D02*
X150492856Y-96705057D01*
X150492856Y-96705057D02*
X150588094Y-96847914D01*
X150588094Y-96847914D02*
X150635713Y-97038390D01*
X150635713Y-97038390D02*
X150635713Y-97419342D01*
X150635713Y-97419342D02*
X150588094Y-97514580D01*
X150588094Y-97514580D02*
X150540475Y-97562200D01*
X150540475Y-97562200D02*
X150445237Y-97609819D01*
X150445237Y-97609819D02*
X150254761Y-97609819D01*
X150254761Y-97609819D02*
X150159523Y-97562200D01*
X150159523Y-97562200D02*
X150111904Y-97514580D01*
X150111904Y-97514580D02*
X150064285Y-97419342D01*
X150064285Y-97419342D02*
X150064285Y-97181247D01*
X150064285Y-97181247D02*
X150111904Y-97086009D01*
X150111904Y-97086009D02*
X150159523Y-97038390D01*
X150159523Y-97038390D02*
X150254761Y-96990771D01*
X150254761Y-96990771D02*
X150445237Y-96990771D01*
X150445237Y-96990771D02*
X150540475Y-97038390D01*
X150540475Y-97038390D02*
X150588094Y-97086009D01*
X150588094Y-97086009D02*
X150635713Y-97181247D01*
X156376857Y-77543819D02*
X156710190Y-77067628D01*
X156948285Y-77543819D02*
X156948285Y-76543819D01*
X156948285Y-76543819D02*
X156567333Y-76543819D01*
X156567333Y-76543819D02*
X156472095Y-76591438D01*
X156472095Y-76591438D02*
X156424476Y-76639057D01*
X156424476Y-76639057D02*
X156376857Y-76734295D01*
X156376857Y-76734295D02*
X156376857Y-76877152D01*
X156376857Y-76877152D02*
X156424476Y-76972390D01*
X156424476Y-76972390D02*
X156472095Y-77020009D01*
X156472095Y-77020009D02*
X156567333Y-77067628D01*
X156567333Y-77067628D02*
X156948285Y-77067628D01*
X155424476Y-77543819D02*
X155995904Y-77543819D01*
X155710190Y-77543819D02*
X155710190Y-76543819D01*
X155710190Y-76543819D02*
X155805428Y-76686676D01*
X155805428Y-76686676D02*
X155900666Y-76781914D01*
X155900666Y-76781914D02*
X155995904Y-76829533D01*
X154567333Y-76543819D02*
X154757809Y-76543819D01*
X154757809Y-76543819D02*
X154853047Y-76591438D01*
X154853047Y-76591438D02*
X154900666Y-76639057D01*
X154900666Y-76639057D02*
X154995904Y-76781914D01*
X154995904Y-76781914D02*
X155043523Y-76972390D01*
X155043523Y-76972390D02*
X155043523Y-77353342D01*
X155043523Y-77353342D02*
X154995904Y-77448580D01*
X154995904Y-77448580D02*
X154948285Y-77496200D01*
X154948285Y-77496200D02*
X154853047Y-77543819D01*
X154853047Y-77543819D02*
X154662571Y-77543819D01*
X154662571Y-77543819D02*
X154567333Y-77496200D01*
X154567333Y-77496200D02*
X154519714Y-77448580D01*
X154519714Y-77448580D02*
X154472095Y-77353342D01*
X154472095Y-77353342D02*
X154472095Y-77115247D01*
X154472095Y-77115247D02*
X154519714Y-77020009D01*
X154519714Y-77020009D02*
X154567333Y-76972390D01*
X154567333Y-76972390D02*
X154662571Y-76924771D01*
X154662571Y-76924771D02*
X154853047Y-76924771D01*
X154853047Y-76924771D02*
X154948285Y-76972390D01*
X154948285Y-76972390D02*
X154995904Y-77020009D01*
X154995904Y-77020009D02*
X155043523Y-77115247D01*
X142222580Y-69683333D02*
X142270200Y-69635714D01*
X142270200Y-69635714D02*
X142317819Y-69492857D01*
X142317819Y-69492857D02*
X142317819Y-69397619D01*
X142317819Y-69397619D02*
X142270200Y-69254762D01*
X142270200Y-69254762D02*
X142174961Y-69159524D01*
X142174961Y-69159524D02*
X142079723Y-69111905D01*
X142079723Y-69111905D02*
X141889247Y-69064286D01*
X141889247Y-69064286D02*
X141746390Y-69064286D01*
X141746390Y-69064286D02*
X141555914Y-69111905D01*
X141555914Y-69111905D02*
X141460676Y-69159524D01*
X141460676Y-69159524D02*
X141365438Y-69254762D01*
X141365438Y-69254762D02*
X141317819Y-69397619D01*
X141317819Y-69397619D02*
X141317819Y-69492857D01*
X141317819Y-69492857D02*
X141365438Y-69635714D01*
X141365438Y-69635714D02*
X141413057Y-69683333D01*
X141317819Y-70016667D02*
X141317819Y-70635714D01*
X141317819Y-70635714D02*
X141698771Y-70302381D01*
X141698771Y-70302381D02*
X141698771Y-70445238D01*
X141698771Y-70445238D02*
X141746390Y-70540476D01*
X141746390Y-70540476D02*
X141794009Y-70588095D01*
X141794009Y-70588095D02*
X141889247Y-70635714D01*
X141889247Y-70635714D02*
X142127342Y-70635714D01*
X142127342Y-70635714D02*
X142222580Y-70588095D01*
X142222580Y-70588095D02*
X142270200Y-70540476D01*
X142270200Y-70540476D02*
X142317819Y-70445238D01*
X142317819Y-70445238D02*
X142317819Y-70159524D01*
X142317819Y-70159524D02*
X142270200Y-70064286D01*
X142270200Y-70064286D02*
X142222580Y-70016667D01*
X139182666Y-97609819D02*
X139515999Y-97133628D01*
X139754094Y-97609819D02*
X139754094Y-96609819D01*
X139754094Y-96609819D02*
X139373142Y-96609819D01*
X139373142Y-96609819D02*
X139277904Y-96657438D01*
X139277904Y-96657438D02*
X139230285Y-96705057D01*
X139230285Y-96705057D02*
X139182666Y-96800295D01*
X139182666Y-96800295D02*
X139182666Y-96943152D01*
X139182666Y-96943152D02*
X139230285Y-97038390D01*
X139230285Y-97038390D02*
X139277904Y-97086009D01*
X139277904Y-97086009D02*
X139373142Y-97133628D01*
X139373142Y-97133628D02*
X139754094Y-97133628D01*
X138325523Y-96943152D02*
X138325523Y-97609819D01*
X138563618Y-96562200D02*
X138801713Y-97276485D01*
X138801713Y-97276485D02*
X138182666Y-97276485D01*
X148367904Y-70193819D02*
X148367904Y-71003342D01*
X148367904Y-71003342D02*
X148320285Y-71098580D01*
X148320285Y-71098580D02*
X148272666Y-71146200D01*
X148272666Y-71146200D02*
X148177428Y-71193819D01*
X148177428Y-71193819D02*
X147986952Y-71193819D01*
X147986952Y-71193819D02*
X147891714Y-71146200D01*
X147891714Y-71146200D02*
X147844095Y-71098580D01*
X147844095Y-71098580D02*
X147796476Y-71003342D01*
X147796476Y-71003342D02*
X147796476Y-70193819D01*
X147367904Y-70289057D02*
X147320285Y-70241438D01*
X147320285Y-70241438D02*
X147225047Y-70193819D01*
X147225047Y-70193819D02*
X146986952Y-70193819D01*
X146986952Y-70193819D02*
X146891714Y-70241438D01*
X146891714Y-70241438D02*
X146844095Y-70289057D01*
X146844095Y-70289057D02*
X146796476Y-70384295D01*
X146796476Y-70384295D02*
X146796476Y-70479533D01*
X146796476Y-70479533D02*
X146844095Y-70622390D01*
X146844095Y-70622390D02*
X147415523Y-71193819D01*
X147415523Y-71193819D02*
X146796476Y-71193819D01*
X145034666Y-85163819D02*
X145367999Y-84687628D01*
X145606094Y-85163819D02*
X145606094Y-84163819D01*
X145606094Y-84163819D02*
X145225142Y-84163819D01*
X145225142Y-84163819D02*
X145129904Y-84211438D01*
X145129904Y-84211438D02*
X145082285Y-84259057D01*
X145082285Y-84259057D02*
X145034666Y-84354295D01*
X145034666Y-84354295D02*
X145034666Y-84497152D01*
X145034666Y-84497152D02*
X145082285Y-84592390D01*
X145082285Y-84592390D02*
X145129904Y-84640009D01*
X145129904Y-84640009D02*
X145225142Y-84687628D01*
X145225142Y-84687628D02*
X145606094Y-84687628D01*
X144653713Y-84259057D02*
X144606094Y-84211438D01*
X144606094Y-84211438D02*
X144510856Y-84163819D01*
X144510856Y-84163819D02*
X144272761Y-84163819D01*
X144272761Y-84163819D02*
X144177523Y-84211438D01*
X144177523Y-84211438D02*
X144129904Y-84259057D01*
X144129904Y-84259057D02*
X144082285Y-84354295D01*
X144082285Y-84354295D02*
X144082285Y-84449533D01*
X144082285Y-84449533D02*
X144129904Y-84592390D01*
X144129904Y-84592390D02*
X144701332Y-85163819D01*
X144701332Y-85163819D02*
X144082285Y-85163819D01*
X168757666Y-96879580D02*
X168805285Y-96927200D01*
X168805285Y-96927200D02*
X168948142Y-96974819D01*
X168948142Y-96974819D02*
X169043380Y-96974819D01*
X169043380Y-96974819D02*
X169186237Y-96927200D01*
X169186237Y-96927200D02*
X169281475Y-96831961D01*
X169281475Y-96831961D02*
X169329094Y-96736723D01*
X169329094Y-96736723D02*
X169376713Y-96546247D01*
X169376713Y-96546247D02*
X169376713Y-96403390D01*
X169376713Y-96403390D02*
X169329094Y-96212914D01*
X169329094Y-96212914D02*
X169281475Y-96117676D01*
X169281475Y-96117676D02*
X169186237Y-96022438D01*
X169186237Y-96022438D02*
X169043380Y-95974819D01*
X169043380Y-95974819D02*
X168948142Y-95974819D01*
X168948142Y-95974819D02*
X168805285Y-96022438D01*
X168805285Y-96022438D02*
X168757666Y-96070057D01*
X167805285Y-96974819D02*
X168376713Y-96974819D01*
X168090999Y-96974819D02*
X168090999Y-95974819D01*
X168090999Y-95974819D02*
X168186237Y-96117676D01*
X168186237Y-96117676D02*
X168281475Y-96212914D01*
X168281475Y-96212914D02*
X168376713Y-96260533D01*
D11*
%TO.C,R13*%
X138838000Y-62764936D02*
X138838000Y-63219064D01*
X140308000Y-62764936D02*
X140308000Y-63219064D01*
%TO.C,R7*%
X155475000Y-86132936D02*
X155475000Y-86587064D01*
X156945000Y-86132936D02*
X156945000Y-86587064D01*
%TO.C,R14*%
X121692936Y-46636000D02*
X122147064Y-46636000D01*
X121692936Y-48106000D02*
X122147064Y-48106000D01*
%TO.C,R10*%
X159157936Y-92864000D02*
X159612064Y-92864000D01*
X159157936Y-94334000D02*
X159612064Y-94334000D01*
%TO.C,R9*%
X159157936Y-86768000D02*
X159612064Y-86768000D01*
X159157936Y-88238000D02*
X159612064Y-88238000D01*
%TO.C,R21*%
X173001000Y-90413064D02*
X173001000Y-89958936D01*
X174471000Y-90413064D02*
X174471000Y-89958936D01*
%TO.C,R3*%
X151525064Y-85577000D02*
X150070936Y-85577000D01*
X151525064Y-87397000D02*
X150070936Y-87397000D01*
%TO.C,R8*%
X155475000Y-94260936D02*
X155475000Y-94715064D01*
X156945000Y-94260936D02*
X156945000Y-94715064D01*
%TO.C,R15*%
X152557936Y-72798000D02*
X153012064Y-72798000D01*
X152557936Y-74268000D02*
X153012064Y-74268000D01*
%TO.C,R11*%
X159539000Y-90339936D02*
X159539000Y-90794064D01*
X161009000Y-90339936D02*
X161009000Y-90794064D01*
%TO.C,R5*%
X145660064Y-94213000D02*
X144205936Y-94213000D01*
X145660064Y-96033000D02*
X144205936Y-96033000D01*
%TO.C,U1*%
X164564000Y-87991000D02*
X164564000Y-88086000D01*
X164564000Y-93016000D02*
X164564000Y-93111000D01*
X164564000Y-93111000D02*
X168684000Y-93111000D01*
X168684000Y-87991000D02*
X164564000Y-87991000D01*
X168684000Y-88086000D02*
X168684000Y-87991000D01*
X168684000Y-93111000D02*
X168684000Y-93016000D01*
X164264000Y-93351000D02*
X163784000Y-93351000D01*
X164024000Y-93021000D01*
X164264000Y-93351000D01*
G36*
X164264000Y-93351000D02*
G01*
X163784000Y-93351000D01*
X164024000Y-93021000D01*
X164264000Y-93351000D01*
G37*
%TO.C,C2*%
X169818267Y-86104000D02*
X169525733Y-86104000D01*
X169818267Y-87124000D02*
X169525733Y-87124000D01*
%TO.C,R12*%
X136679000Y-61187064D02*
X136679000Y-60732936D01*
X138149000Y-61187064D02*
X138149000Y-60732936D01*
%TO.C,C4*%
X146792733Y-78357000D02*
X147085267Y-78357000D01*
X146792733Y-79377000D02*
X147085267Y-79377000D01*
%TO.C,R1*%
X139665064Y-85577000D02*
X138210936Y-85577000D01*
X139665064Y-87397000D02*
X138210936Y-87397000D01*
%TO.C,R6*%
X151577064Y-94213000D02*
X150122936Y-94213000D01*
X151577064Y-96033000D02*
X150122936Y-96033000D01*
%TO.C,R16*%
X151934936Y-76354000D02*
X152389064Y-76354000D01*
X151934936Y-77824000D02*
X152389064Y-77824000D01*
%TO.C,C3*%
X142877000Y-69703733D02*
X142877000Y-69996267D01*
X143897000Y-69703733D02*
X143897000Y-69996267D01*
%TO.C,R4*%
X139743064Y-94213000D02*
X138288936Y-94213000D01*
X139743064Y-96033000D02*
X138288936Y-96033000D01*
%TO.C,U2*%
X143768000Y-71989000D02*
X143768000Y-72084000D01*
X143768000Y-77014000D02*
X143768000Y-77109000D01*
X143768000Y-77109000D02*
X147888000Y-77109000D01*
X147888000Y-71989000D02*
X143768000Y-71989000D01*
X147888000Y-72084000D02*
X147888000Y-71989000D01*
X147888000Y-77109000D02*
X147888000Y-77014000D01*
X148428000Y-72079000D02*
X148188000Y-71749000D01*
X148668000Y-71749000D01*
X148428000Y-72079000D01*
G36*
X148428000Y-72079000D02*
G01*
X148188000Y-71749000D01*
X148668000Y-71749000D01*
X148428000Y-72079000D01*
G37*
%TO.C,R2*%
X145595064Y-85577000D02*
X144140936Y-85577000D01*
X145595064Y-87397000D02*
X144140936Y-87397000D01*
%TO.C,C1*%
X168344233Y-94232000D02*
X168636767Y-94232000D01*
X168344233Y-95252000D02*
X168636767Y-95252000D01*
%TD*%
M02*
