%TF.GenerationSoftware,KiCad,Pcbnew,9.0.6*%
%TF.CreationDate,2026-09-21T15:13:43-04:00*%
%TF.ProjectId,catpaw,63617470-6177-42e6-9b69-6361645f7063,rev?*%
%TF.SameCoordinates,Original*%
%TF.FileFunction,Copper,L2,Bot*%
%TF.FilePolarity,Positive*%
%FSLAX46Y46*%
G04 Gerber Fmt 4.6, Leading zero omitted, Abs format (unit mm)*
G04 Created by KiCad (PCBNEW 9.0.6) date 2026-09-21 15:13:43*
%MOMM*%
%LPD*%
G01*
G04 APERTURE LIST*
G04 Aperture macros list*
%AMRoundRect*
0 Rectangle with rounded corners*
0 $1 Rounding radius*
0 $2 $3 $4 $5 $6 $7 $8 $9 X,Y pos of 4 corners*
0 Add a 4 corners polygon primitive as box body*
4,1,4,$2,$3,$4,$5,$6,$7,$8,$9,$2,$3,0*
0 Add four circle primitives for the rounded corners*
1,1,$1+$1,$2,$3*
1,1,$1+$1,$4,$5*
1,1,$1+$1,$6,$7*
1,1,$1+$1,$8,$9*
0 Add four rect primitives between the rounded corners*
20,1,$1+$1,$2,$3,$4,$5,0*
20,1,$1+$1,$4,$5,$6,$7,0*
20,1,$1+$1,$6,$7,$8,$9,0*
20,1,$1+$1,$8,$9,$2,$3,0*%
G04 Aperture macros list end*
%TA.AperFunction,ComponentPad*%
%ADD10C,1.400000*%
%TD*%
%TA.AperFunction,ComponentPad*%
%ADD11C,1.950000*%
%TD*%
%TA.AperFunction,ComponentPad*%
%ADD12R,2.400000X2.400000*%
%TD*%
%TA.AperFunction,ComponentPad*%
%ADD13C,2.400000*%
%TD*%
%TA.AperFunction,ComponentPad*%
%ADD14RoundRect,0.249999X0.850001X-0.850001X0.850001X0.850001X-0.850001X0.850001X-0.850001X-0.850001X0*%
%TD*%
%TA.AperFunction,ComponentPad*%
%ADD15C,2.200000*%
%TD*%
%TA.AperFunction,ComponentPad*%
%ADD16R,1.700000X1.700000*%
%TD*%
%TA.AperFunction,ComponentPad*%
%ADD17R,1.800000X1.800000*%
%TD*%
%TA.AperFunction,ComponentPad*%
%ADD18C,1.800000*%
%TD*%
%TA.AperFunction,ComponentPad*%
%ADD19C,3.200000*%
%TD*%
%TA.AperFunction,ComponentPad*%
%ADD20C,2.300000*%
%TD*%
%TA.AperFunction,ComponentPad*%
%ADD21C,1.700000*%
%TD*%
%TA.AperFunction,ComponentPad*%
%ADD22C,4.500000*%
%TD*%
%TA.AperFunction,ComponentPad*%
%ADD23C,3.000000*%
%TD*%
%TA.AperFunction,ComponentPad*%
%ADD24C,2.540000*%
%TD*%
%TA.AperFunction,SMDPad,CuDef*%
%ADD25RoundRect,0.250000X-0.450000X0.350000X-0.450000X-0.350000X0.450000X-0.350000X0.450000X0.350000X0*%
%TD*%
%TA.AperFunction,SMDPad,CuDef*%
%ADD26RoundRect,0.250000X-0.350000X-0.450000X0.350000X-0.450000X0.350000X0.450000X-0.350000X0.450000X0*%
%TD*%
%TA.AperFunction,SMDPad,CuDef*%
%ADD27RoundRect,0.250000X0.450000X-0.350000X0.450000X0.350000X-0.450000X0.350000X-0.450000X-0.350000X0*%
%TD*%
%TA.AperFunction,SMDPad,CuDef*%
%ADD28RoundRect,0.250000X0.400000X0.625000X-0.400000X0.625000X-0.400000X-0.625000X0.400000X-0.625000X0*%
%TD*%
%TA.AperFunction,SMDPad,CuDef*%
%ADD29RoundRect,0.150000X-0.825000X-0.150000X0.825000X-0.150000X0.825000X0.150000X-0.825000X0.150000X0*%
%TD*%
%TA.AperFunction,SMDPad,CuDef*%
%ADD30RoundRect,0.237500X0.300000X0.237500X-0.300000X0.237500X-0.300000X-0.237500X0.300000X-0.237500X0*%
%TD*%
%TA.AperFunction,SMDPad,CuDef*%
%ADD31RoundRect,0.237500X-0.300000X-0.237500X0.300000X-0.237500X0.300000X0.237500X-0.300000X0.237500X0*%
%TD*%
%TA.AperFunction,SMDPad,CuDef*%
%ADD32RoundRect,0.237500X-0.237500X0.300000X-0.237500X-0.300000X0.237500X-0.300000X0.237500X0.300000X0*%
%TD*%
%TA.AperFunction,SMDPad,CuDef*%
%ADD33RoundRect,0.150000X0.825000X0.150000X-0.825000X0.150000X-0.825000X-0.150000X0.825000X-0.150000X0*%
%TD*%
%TA.AperFunction,ViaPad*%
%ADD34C,0.600000*%
%TD*%
%TA.AperFunction,Conductor*%
%ADD35C,0.750000*%
%TD*%
%TA.AperFunction,Conductor*%
%ADD36C,1.000000*%
%TD*%
%TA.AperFunction,Conductor*%
%ADD37C,1.500000*%
%TD*%
%TA.AperFunction,Conductor*%
%ADD38C,1.250000*%
%TD*%
G04 APERTURE END LIST*
D10*
%TO.P,VCC,1*%
%TO.N,/m8 Up*%
X171069000Y-75565000D03*
%TO.P,VCC,2*%
%TO.N,/Vcc+*%
X171069000Y-78105000D03*
%TD*%
D11*
%TO.P,J3,1,Pin_1*%
%TO.N,/Vcc+*%
X178454000Y-93602000D03*
%TO.P,J3,2,Pin_2*%
%TO.N,/In+ Analog Input*%
X178454000Y-97138000D03*
%TO.P,J3,3,Pin_3*%
%TO.N,/Vcc-*%
X181990000Y-97138000D03*
%TO.P,J3,4,Pin_4*%
%TO.N,GND*%
X181990000Y-93602000D03*
%TO.P,J3,5,Pin_5*%
%TO.N,/cable shield*%
X180222000Y-95370000D03*
%TD*%
D12*
%TO.P,PS1,1,AC(N)*%
%TO.N,Net-(PS1-AC(N))*%
X137406500Y-102871500D03*
D13*
%TO.P,PS1,2,AC(L)*%
%TO.N,Net-(PS1-AC(L))*%
X157726500Y-102871500D03*
%TO.P,PS1,4,-Vout*%
%TO.N,/m8 GNDp*%
X147566500Y-57151500D03*
%TO.P,PS1,5,+Vout*%
%TO.N,/rakout+*%
X137406500Y-57151500D03*
%TD*%
D14*
%TO.P,D1,1,K*%
%TO.N,/m8 Us*%
X172720000Y-57785000D03*
D15*
%TO.P,D1,2,A*%
%TO.N,/rakout+*%
X172720000Y-47625000D03*
%TD*%
D16*
%TO.P,GND,1,Pin_1*%
%TO.N,GND*%
X182372000Y-76835000D03*
%TD*%
D10*
%TO.P,VEE,1*%
%TO.N,/m8 GNDp*%
X175260000Y-75565000D03*
%TO.P,VEE,2*%
%TO.N,/Vcc-*%
X175260000Y-78105000D03*
%TD*%
D17*
%TO.P,D5,1,K*%
%TO.N,Net-(D5-K)*%
X115316000Y-47371000D03*
D18*
%TO.P,D5,2,A*%
%TO.N,Net-(D5-A)*%
X115316000Y-49911000D03*
%TD*%
D19*
%TO.P,J2,1,Pin_1*%
%TO.N,/VACin-*%
X123825000Y-61359000D03*
D20*
%TO.P,J2,2*%
%TO.N,N/C*%
X127625000Y-66439000D03*
X127625000Y-56279000D03*
X117465000Y-66439000D03*
X117465000Y-56279000D03*
%TD*%
D14*
%TO.P,D2,1,K*%
%TO.N,/m8 Up*%
X169022000Y-57785000D03*
D15*
%TO.P,D2,2,A*%
%TO.N,/rakout+*%
X169022000Y-47625000D03*
%TD*%
D21*
%TO.P,J4,1,Pin_1*%
%TO.N,/m8 Us*%
X180212000Y-59624000D03*
%TO.P,J4,2,Pin_2*%
%TO.N,/m8 Up*%
X178262000Y-60249000D03*
%TO.P,J4,3,Pin_3*%
%TO.N,/m8 GNDp*%
X180212000Y-63024000D03*
%TO.P,J4,4,Pin_4*%
X178262000Y-62399000D03*
D22*
%TO.P,J4,5*%
%TO.N,N/C*%
X179712000Y-55074000D03*
%TO.P,J4,6*%
X179712000Y-67574000D03*
%TD*%
D19*
%TO.P,J1,1,Pin_1*%
%TO.N,/VACin+*%
X123825000Y-78359000D03*
D20*
%TO.P,J1,2*%
%TO.N,N/C*%
X127625000Y-83439000D03*
X127625000Y-73279000D03*
X117465000Y-83439000D03*
X117465000Y-73279000D03*
%TD*%
D23*
%TO.P,SW1,0*%
%TO.N,N/C*%
X112522000Y-97779000D03*
X112522000Y-102859000D03*
D24*
%TO.P,SW1,1,A*%
%TO.N,Net-(F1-Pad1)*%
X125222000Y-105019000D03*
%TO.P,SW1,2,B*%
%TO.N,/VACin+*%
X125222000Y-100319000D03*
%TO.P,SW1,3,C*%
%TO.N,unconnected-(SW1-C-Pad3)*%
X125222000Y-95619000D03*
%TO.P,SW1,4,A*%
%TO.N,Net-(PS1-AC(N))*%
X129032000Y-105019000D03*
%TO.P,SW1,5,B*%
%TO.N,/VACin-*%
X129032000Y-100319000D03*
%TO.P,SW1,6,C*%
%TO.N,unconnected-(SW1-C-Pad6)*%
X129032000Y-95619000D03*
%TD*%
D25*
%TO.P,R13,1*%
%TO.N,Net-(U2B-+)*%
X139573000Y-61992000D03*
%TO.P,R13,2*%
%TO.N,GND*%
X139573000Y-63992000D03*
%TD*%
%TO.P,R7,1*%
%TO.N,GND*%
X156210000Y-85360000D03*
%TO.P,R7,2*%
%TO.N,Net-(R3-Pad1)*%
X156210000Y-87360000D03*
%TD*%
D26*
%TO.P,R14,1*%
%TO.N,Net-(D5-K)*%
X120920000Y-47371000D03*
%TO.P,R14,2*%
%TO.N,GND*%
X122920000Y-47371000D03*
%TD*%
%TO.P,R10,1*%
%TO.N,Net-(R10-Pad1)*%
X158385000Y-93599000D03*
%TO.P,R10,2*%
%TO.N,Net-(U1--)*%
X160385000Y-93599000D03*
%TD*%
%TO.P,R9,1*%
%TO.N,Net-(R3-Pad1)*%
X158385000Y-87503000D03*
%TO.P,R9,2*%
%TO.N,Net-(U1-+)*%
X160385000Y-87503000D03*
%TD*%
D27*
%TO.P,R21,1*%
%TO.N,/In+ Analog Input*%
X173736000Y-91186000D03*
%TO.P,R21,2*%
%TO.N,GND*%
X173736000Y-89186000D03*
%TD*%
D28*
%TO.P,R3,1*%
%TO.N,Net-(R3-Pad1)*%
X152348000Y-86487000D03*
%TO.P,R3,2*%
%TO.N,Net-(R2-Pad1)*%
X149248000Y-86487000D03*
%TD*%
D25*
%TO.P,R8,1*%
%TO.N,Net-(R10-Pad1)*%
X156210000Y-93488000D03*
%TO.P,R8,2*%
%TO.N,GND*%
X156210000Y-95488000D03*
%TD*%
D26*
%TO.P,R15,1*%
%TO.N,Net-(U2A-+)*%
X151785000Y-73533000D03*
%TO.P,R15,2*%
%TO.N,/Vcc+*%
X153785000Y-73533000D03*
%TD*%
D25*
%TO.P,R11,1*%
%TO.N,Net-(R11-Pad1)*%
X160274000Y-89567000D03*
%TO.P,R11,2*%
%TO.N,Net-(R11-Pad2)*%
X160274000Y-91567000D03*
%TD*%
D28*
%TO.P,R5,1*%
%TO.N,Net-(R5-Pad1)*%
X146483000Y-95123000D03*
%TO.P,R5,2*%
%TO.N,Net-(R4-Pad1)*%
X143383000Y-95123000D03*
%TD*%
D29*
%TO.P,U1,1,-*%
%TO.N,Net-(U1--)*%
X164149000Y-92456000D03*
%TO.P,U1,2,Rg*%
%TO.N,Net-(R11-Pad2)*%
X164149000Y-91186000D03*
%TO.P,U1,3,Rg*%
%TO.N,Net-(R11-Pad1)*%
X164149000Y-89916000D03*
%TO.P,U1,4,+*%
%TO.N,Net-(U1-+)*%
X164149000Y-88646000D03*
%TO.P,U1,5,Vs-*%
%TO.N,/Vcc-*%
X169099000Y-88646000D03*
%TO.P,U1,6,Ref*%
%TO.N,GND*%
X169099000Y-89916000D03*
%TO.P,U1,7*%
%TO.N,/In+ Analog Input*%
X169099000Y-91186000D03*
%TO.P,U1,8,Vs+*%
%TO.N,/Vcc+*%
X169099000Y-92456000D03*
%TD*%
D30*
%TO.P,C2,1*%
%TO.N,GND*%
X170534500Y-86614000D03*
%TO.P,C2,2*%
%TO.N,/Vcc-*%
X168809500Y-86614000D03*
%TD*%
D27*
%TO.P,R12,1*%
%TO.N,Net-(U2B-+)*%
X137414000Y-61960000D03*
%TO.P,R12,2*%
%TO.N,/rakout+*%
X137414000Y-59960000D03*
%TD*%
D31*
%TO.P,C4,1*%
%TO.N,GND*%
X146076500Y-78867000D03*
%TO.P,C4,2*%
%TO.N,/Vcc-*%
X147801500Y-78867000D03*
%TD*%
D28*
%TO.P,R1,1*%
%TO.N,Net-(R1-Pad1)*%
X140488000Y-86487000D03*
%TO.P,R1,2*%
%TO.N,/VACin+*%
X137388000Y-86487000D03*
%TD*%
%TO.P,R6,1*%
%TO.N,Net-(R10-Pad1)*%
X152400000Y-95123000D03*
%TO.P,R6,2*%
%TO.N,Net-(R5-Pad1)*%
X149300000Y-95123000D03*
%TD*%
D26*
%TO.P,R16,1*%
%TO.N,/Vcc-*%
X151162000Y-77089000D03*
%TO.P,R16,2*%
%TO.N,Net-(U2A-+)*%
X153162000Y-77089000D03*
%TD*%
D32*
%TO.P,C3,1*%
%TO.N,GND*%
X143387000Y-68987500D03*
%TO.P,C3,2*%
%TO.N,/Vcc+*%
X143387000Y-70712500D03*
%TD*%
D28*
%TO.P,R4,1*%
%TO.N,Net-(R4-Pad1)*%
X140566000Y-95123000D03*
%TO.P,R4,2*%
%TO.N,/VACin-*%
X137466000Y-95123000D03*
%TD*%
D33*
%TO.P,U2,1*%
%TO.N,GND*%
X148303000Y-72644000D03*
%TO.P,U2,2,-*%
X148303000Y-73914000D03*
%TO.P,U2,3,+*%
%TO.N,Net-(U2A-+)*%
X148303000Y-75184000D03*
%TO.P,U2,4,V-*%
%TO.N,/Vcc-*%
X148303000Y-76454000D03*
%TO.P,U2,5,+*%
%TO.N,Net-(U2B-+)*%
X143353000Y-76454000D03*
%TO.P,U2,6,-*%
%TO.N,Net-(D5-A)*%
X143353000Y-75184000D03*
%TO.P,U2,7*%
X143353000Y-73914000D03*
%TO.P,U2,8,V+*%
%TO.N,/Vcc+*%
X143353000Y-72644000D03*
%TD*%
D28*
%TO.P,R2,1*%
%TO.N,Net-(R2-Pad1)*%
X146418000Y-86487000D03*
%TO.P,R2,2*%
%TO.N,Net-(R1-Pad1)*%
X143318000Y-86487000D03*
%TD*%
D31*
%TO.P,C1,1*%
%TO.N,GND*%
X167628000Y-94742000D03*
%TO.P,C1,2*%
%TO.N,/Vcc+*%
X169353000Y-94742000D03*
%TD*%
D34*
%TO.N,/Vcc+*%
X155956000Y-73660000D03*
X141732000Y-71882000D03*
X142240000Y-71120000D03*
X155194000Y-73660000D03*
%TO.N,GND*%
X186944000Y-49022000D03*
X166116000Y-75438000D03*
X146187975Y-81280000D03*
X149674988Y-81280000D03*
X172999400Y-87376000D03*
X181610000Y-79375000D03*
X162483800Y-44958000D03*
X164592000Y-111760000D03*
X132149850Y-44958000D03*
X137502900Y-44958000D03*
X162306000Y-85344000D03*
X141071600Y-44958000D03*
X137432815Y-74280889D03*
X173189900Y-44958000D03*
X144444469Y-81280000D03*
X183896000Y-44958000D03*
X174574200Y-87376000D03*
X186944000Y-109982000D03*
X165100000Y-79375000D03*
X143383000Y-66675000D03*
X175361600Y-86360000D03*
X130365500Y-44958000D03*
X159512000Y-96266000D03*
X163322000Y-96661111D03*
X176149000Y-87376000D03*
X186944000Y-106651778D03*
X149993350Y-44958000D03*
X137432815Y-79530222D03*
X186944000Y-71755000D03*
X172999400Y-86360000D03*
X171323000Y-88900000D03*
X137432815Y-77780444D03*
X186944000Y-45974000D03*
X158750000Y-84709000D03*
X163322000Y-108316889D03*
X165354000Y-75438000D03*
X186944000Y-84201000D03*
X167836850Y-44958000D03*
X171405550Y-44958000D03*
X178471286Y-111760000D03*
X112522000Y-44958000D03*
X116433600Y-52832000D03*
X157988000Y-96266000D03*
X155346400Y-44958000D03*
X163322000Y-106651778D03*
X144640300Y-44958000D03*
X151777700Y-44958000D03*
X180327300Y-44958000D03*
X153562050Y-44958000D03*
X123228100Y-44958000D03*
X186944000Y-74244200D03*
X114306350Y-44958000D03*
X166624000Y-79375000D03*
X117875050Y-44958000D03*
X137432815Y-70781333D03*
X125012450Y-44958000D03*
X158750000Y-96266000D03*
X163322000Y-109982000D03*
X186944000Y-79222600D03*
X163322000Y-98326222D03*
X166052500Y-44958000D03*
X175387000Y-111760000D03*
X162306000Y-84582000D03*
X151418494Y-81280000D03*
X176911000Y-90932000D03*
X137432815Y-67281778D03*
X142700963Y-81280000D03*
X137432815Y-81280000D03*
X172302714Y-111760000D03*
X186944000Y-72999600D03*
X126796800Y-44958000D03*
X126212600Y-52832000D03*
X186944000Y-50546000D03*
X164268150Y-44958000D03*
X186944000Y-82956400D03*
X178542950Y-44958000D03*
X167676286Y-111760000D03*
X186944000Y-108316889D03*
X146424650Y-44958000D03*
X183134000Y-79375000D03*
X139287250Y-44958000D03*
X162306000Y-86106000D03*
X163322000Y-99991333D03*
X133934200Y-44958000D03*
X164592000Y-101656444D03*
X158915100Y-44958000D03*
X159512000Y-84709000D03*
X119659400Y-44958000D03*
X174974250Y-44958000D03*
X160699450Y-44958000D03*
X128168400Y-52832000D03*
X135718550Y-44958000D03*
X173844857Y-111760000D03*
X137432815Y-76030667D03*
X163322000Y-94996000D03*
X186944000Y-81711800D03*
X130124200Y-52832000D03*
X137432815Y-69031556D03*
X171323000Y-89662000D03*
X118389400Y-52832000D03*
X173786800Y-87376000D03*
X169218429Y-111760000D03*
X176149000Y-86360000D03*
X182111650Y-44958000D03*
X164592000Y-104986667D03*
X164592000Y-75438000D03*
X165862000Y-79375000D03*
X172212000Y-87376000D03*
X186944000Y-80467200D03*
X153162000Y-81280000D03*
X166134143Y-111760000D03*
X176758600Y-44958000D03*
X157130750Y-44958000D03*
X169621200Y-44958000D03*
X171323000Y-88138000D03*
X170760571Y-111760000D03*
X143383000Y-65974500D03*
X176929143Y-111760000D03*
X174574200Y-86360000D03*
X124256800Y-52832000D03*
X148209000Y-44958000D03*
X137432815Y-72531111D03*
X121443750Y-44958000D03*
X143383000Y-67375500D03*
X157988000Y-84709000D03*
X128581150Y-44958000D03*
X181555571Y-111760000D03*
X122301000Y-52832000D03*
X120345200Y-52832000D03*
X186944000Y-77978000D03*
X140957456Y-81280000D03*
X175361600Y-87376000D03*
X186182000Y-111760000D03*
X112522000Y-52832000D03*
X164592000Y-103321556D03*
X186944000Y-75488800D03*
X116090700Y-44958000D03*
X176911000Y-90170000D03*
X132080000Y-52832000D03*
X186944000Y-47498000D03*
X172212000Y-86360000D03*
X186944000Y-76733400D03*
X147931481Y-81280000D03*
X139213950Y-81280000D03*
X173786800Y-86360000D03*
X142855950Y-44958000D03*
X114477800Y-52832000D03*
X180013429Y-111760000D03*
X183097714Y-111760000D03*
X184639857Y-111760000D03*
X137432815Y-65532000D03*
X182372000Y-79375000D03*
%TO.N,Net-(D5-A)*%
X145923000Y-67654000D03*
%TO.N,/In+ Analog Input*%
X175387000Y-91186000D03*
%TD*%
D35*
%TO.N,Net-(D5-A)*%
X143353000Y-73914000D02*
X144653000Y-73914000D01*
X145542000Y-73025000D02*
X145542000Y-70104000D01*
X145923000Y-69723000D02*
X145923000Y-67654000D01*
X144653000Y-73914000D02*
X145542000Y-73025000D01*
X145542000Y-70104000D02*
X145923000Y-69723000D01*
%TO.N,/Vcc-*%
X175641000Y-84836000D02*
X176657000Y-84836000D01*
X176657000Y-84836000D02*
X177673000Y-85852000D01*
X179451000Y-90551000D02*
X184023000Y-90551000D01*
X183532000Y-97138000D02*
X181990000Y-97138000D01*
X177673000Y-85852000D02*
X177673000Y-88773000D01*
X184023000Y-90551000D02*
X185674000Y-92202000D01*
X177673000Y-88773000D02*
X179451000Y-90551000D01*
X185674000Y-92202000D02*
X185674000Y-94996000D01*
X185674000Y-94996000D02*
X183532000Y-97138000D01*
%TO.N,/Vcc+*%
X143387000Y-70712500D02*
X143387000Y-72610000D01*
X155579000Y-73660000D02*
X153912000Y-73660000D01*
X143387000Y-72610000D02*
X143353000Y-72644000D01*
X155579000Y-73660000D02*
X156210000Y-73660000D01*
X153912000Y-73660000D02*
X153785000Y-73533000D01*
%TO.N,/Vcc-*%
X175260000Y-78105000D02*
X175260000Y-84455000D01*
X150245000Y-78740000D02*
X160020000Y-78740000D01*
X168809500Y-86614000D02*
X168809500Y-86460500D01*
X166116000Y-84836000D02*
X174879000Y-84836000D01*
X148303000Y-78802000D02*
X148368000Y-78867000D01*
X160020000Y-78740000D02*
X166116000Y-84836000D01*
X174879000Y-84836000D02*
X175641000Y-84836000D01*
X175260000Y-84455000D02*
X174879000Y-84836000D01*
X175260000Y-84455000D02*
X175641000Y-84836000D01*
D36*
%TO.N,/rakout+*%
X137406500Y-57151500D02*
X146933000Y-47625000D01*
D35*
X137414000Y-59960000D02*
X137414000Y-57159000D01*
X137414000Y-57159000D02*
X137406500Y-57151500D01*
D36*
X146933000Y-47625000D02*
X169022000Y-47625000D01*
%TO.N,/m8 Us*%
X180212000Y-59624000D02*
X179008000Y-58420000D01*
X179008000Y-58420000D02*
X178181000Y-58420000D01*
X178181000Y-58420000D02*
X177546000Y-57785000D01*
X177546000Y-57785000D02*
X172720000Y-57785000D01*
%TO.N,/m8 Up*%
X169977000Y-60249000D02*
X178262000Y-60249000D01*
X169022000Y-57785000D02*
X169022000Y-59294000D01*
X169022000Y-59294000D02*
X169977000Y-60249000D01*
%TO.N,/m8 GNDp*%
X162434500Y-57151500D02*
X147566500Y-57151500D01*
X178887000Y-63024000D02*
X178262000Y-62399000D01*
X180212000Y-63024000D02*
X178887000Y-63024000D01*
D35*
X147574000Y-57159000D02*
X147566500Y-57151500D01*
D36*
X167682000Y-62399000D02*
X162434500Y-57151500D01*
X178262000Y-62399000D02*
X167682000Y-62399000D01*
D35*
%TO.N,Net-(D5-A)*%
X143353000Y-75184000D02*
X142117000Y-75184000D01*
X142117000Y-73914000D02*
X142117000Y-75184000D01*
X143353000Y-73914000D02*
X142117000Y-73914000D01*
%TO.N,Net-(D5-K)*%
X120920000Y-47371000D02*
X115316000Y-47371000D01*
D37*
%TO.N,/VACin+*%
X123825000Y-84328000D02*
X123825000Y-78359000D01*
X137388000Y-86487000D02*
X125984000Y-86487000D01*
X125984000Y-86487000D02*
X123825000Y-84328000D01*
%TO.N,/VACin-*%
X137466000Y-95123000D02*
X135001000Y-95123000D01*
X129805000Y-100319000D02*
X129032000Y-100319000D01*
X135001000Y-95123000D02*
X129805000Y-100319000D01*
D35*
%TO.N,/In+ Analog Input*%
X175387000Y-91186000D02*
X173736000Y-91186000D01*
X171704000Y-91186000D02*
X173736000Y-91186000D01*
X169099000Y-91186000D02*
X171704000Y-91186000D01*
D38*
%TO.N,Net-(R1-Pad1)*%
X140488000Y-86487000D02*
X143318000Y-86487000D01*
%TO.N,Net-(R2-Pad1)*%
X146418000Y-86487000D02*
X149248000Y-86487000D01*
D36*
%TO.N,Net-(R3-Pad1)*%
X152348000Y-86487000D02*
X153221000Y-87360000D01*
X158242000Y-87360000D02*
X158385000Y-87503000D01*
X153221000Y-87360000D02*
X156210000Y-87360000D01*
X156210000Y-87360000D02*
X158242000Y-87360000D01*
D38*
%TO.N,Net-(R5-Pad1)*%
X149300000Y-95123000D02*
X146483000Y-95123000D01*
D35*
%TO.N,Net-(U1-+)*%
X162814000Y-88646000D02*
X161671000Y-87503000D01*
X164149000Y-88646000D02*
X162814000Y-88646000D01*
X161671000Y-87503000D02*
X160385000Y-87503000D01*
%TO.N,Net-(R11-Pad2)*%
X164149000Y-91186000D02*
X162306000Y-91186000D01*
X161925000Y-91567000D02*
X160274000Y-91567000D01*
X162306000Y-91186000D02*
X161925000Y-91567000D01*
D36*
%TO.N,Net-(R10-Pad1)*%
X156210000Y-93488000D02*
X158274000Y-93488000D01*
X154035000Y-93488000D02*
X156210000Y-93488000D01*
X152400000Y-95123000D02*
X154035000Y-93488000D01*
X158274000Y-93488000D02*
X158385000Y-93599000D01*
D35*
%TO.N,Net-(U1--)*%
X164149000Y-92456000D02*
X163068000Y-92456000D01*
X163068000Y-92456000D02*
X161925000Y-93599000D01*
X161925000Y-93599000D02*
X160385000Y-93599000D01*
%TO.N,Net-(U2B-+)*%
X140273000Y-61992000D02*
X139573000Y-61992000D01*
X140847000Y-76454000D02*
X139831000Y-75438000D01*
X137446000Y-61992000D02*
X137414000Y-61960000D01*
X139831000Y-75438000D02*
X139831000Y-70866000D01*
X141355000Y-69342000D02*
X141355000Y-63074000D01*
X143353000Y-76454000D02*
X140847000Y-76454000D01*
X139573000Y-61992000D02*
X137446000Y-61992000D01*
X139831000Y-70866000D02*
X141355000Y-69342000D01*
X141355000Y-63074000D02*
X140273000Y-61992000D01*
%TO.N,Net-(U2A-+)*%
X151785000Y-73533000D02*
X151785000Y-74946000D01*
X148303000Y-75184000D02*
X151261000Y-75184000D01*
X151261000Y-75184000D02*
X152023000Y-75184000D01*
X153162000Y-77089000D02*
X153162000Y-75815000D01*
X151785000Y-74946000D02*
X152023000Y-75184000D01*
X153162000Y-75815000D02*
X152531000Y-75184000D01*
X152531000Y-75184000D02*
X152023000Y-75184000D01*
D38*
%TO.N,Net-(R4-Pad1)*%
X143383000Y-95123000D02*
X140566000Y-95123000D01*
D35*
%TO.N,Net-(R11-Pad1)*%
X162306000Y-89916000D02*
X161957000Y-89567000D01*
X164149000Y-89916000D02*
X162306000Y-89916000D01*
X161957000Y-89567000D02*
X160274000Y-89567000D01*
%TD*%
%TA.AperFunction,Conductor*%
%TO.N,GND*%
G36*
X185707103Y-43945625D02*
G01*
X185978797Y-43964625D01*
X185996320Y-43967118D01*
X186258197Y-44023694D01*
X186275182Y-44028656D01*
X186526319Y-44121960D01*
X186542435Y-44129296D01*
X186777713Y-44257424D01*
X186792615Y-44266978D01*
X187007246Y-44427321D01*
X187020632Y-44438899D01*
X187210230Y-44628182D01*
X187221838Y-44641559D01*
X187382532Y-44855919D01*
X187392116Y-44870812D01*
X187520628Y-45105870D01*
X187527992Y-45121977D01*
X187621710Y-45372957D01*
X187626705Y-45389948D01*
X187683711Y-45651712D01*
X187686234Y-45669243D01*
X187705683Y-45940886D01*
X187706000Y-45949741D01*
X187706000Y-110771572D01*
X187705684Y-110780418D01*
X187686275Y-111051785D01*
X187683757Y-111069297D01*
X187626872Y-111330794D01*
X187621888Y-111347770D01*
X187528361Y-111598524D01*
X187521011Y-111614617D01*
X187392758Y-111849496D01*
X187383193Y-111864380D01*
X187222811Y-112078624D01*
X187211225Y-112091994D01*
X187021994Y-112281225D01*
X187008624Y-112292811D01*
X186794380Y-112453193D01*
X186779496Y-112462758D01*
X186544617Y-112591011D01*
X186528524Y-112598361D01*
X186277770Y-112691888D01*
X186260794Y-112696872D01*
X185999297Y-112753757D01*
X185981785Y-112756275D01*
X185710418Y-112775684D01*
X185701572Y-112776000D01*
X164301839Y-112776000D01*
X164293017Y-112775686D01*
X164022385Y-112756383D01*
X164004920Y-112753879D01*
X163744094Y-112697300D01*
X163727161Y-112692342D01*
X163477016Y-112599321D01*
X163460958Y-112592010D01*
X163226536Y-112464422D01*
X163211678Y-112454907D01*
X162997740Y-112295341D01*
X162984384Y-112283813D01*
X162981785Y-112281225D01*
X162795256Y-112095496D01*
X162783682Y-112082202D01*
X162623190Y-111868941D01*
X162613624Y-111854147D01*
X162485014Y-111620249D01*
X162477643Y-111604238D01*
X162475490Y-111598524D01*
X162383546Y-111354493D01*
X162378517Y-111337583D01*
X162320816Y-111076999D01*
X162318237Y-111059554D01*
X162297767Y-110788974D01*
X162297418Y-110780207D01*
X162262974Y-102769616D01*
X178946500Y-102769616D01*
X178946500Y-102970384D01*
X178951175Y-102999902D01*
X178977907Y-103168680D01*
X179039949Y-103359626D01*
X179074625Y-103427680D01*
X179131095Y-103538508D01*
X179249103Y-103700932D01*
X179391068Y-103842897D01*
X179553492Y-103960905D01*
X179620651Y-103995124D01*
X179732373Y-104052050D01*
X179732375Y-104052050D01*
X179732378Y-104052052D01*
X179923320Y-104114093D01*
X180121616Y-104145500D01*
X180121617Y-104145500D01*
X180322383Y-104145500D01*
X180322384Y-104145500D01*
X180520680Y-104114093D01*
X180711622Y-104052052D01*
X180890508Y-103960905D01*
X181052932Y-103842897D01*
X181194897Y-103700932D01*
X181312905Y-103538508D01*
X181404052Y-103359622D01*
X181466093Y-103168680D01*
X181497500Y-102970384D01*
X181497500Y-102769616D01*
X181492825Y-102740097D01*
X182571500Y-102740097D01*
X182571500Y-102999902D01*
X182612140Y-103256493D01*
X182692422Y-103503576D01*
X182754407Y-103625226D01*
X182792982Y-103700934D01*
X182810368Y-103735054D01*
X182893244Y-103849123D01*
X182963069Y-103945229D01*
X183146771Y-104128931D01*
X183356949Y-104281634D01*
X183504445Y-104356787D01*
X183588423Y-104399577D01*
X183588425Y-104399577D01*
X183588428Y-104399579D01*
X183835507Y-104479860D01*
X183967706Y-104500797D01*
X184092098Y-104520500D01*
X184092103Y-104520500D01*
X184351902Y-104520500D01*
X184465298Y-104502539D01*
X184608493Y-104479860D01*
X184855572Y-104399579D01*
X185087051Y-104281634D01*
X185297229Y-104128931D01*
X185480931Y-103945229D01*
X185633634Y-103735051D01*
X185751579Y-103503572D01*
X185831860Y-103256493D01*
X185854539Y-103113298D01*
X185872500Y-102999902D01*
X185872500Y-102740097D01*
X185845768Y-102571319D01*
X185831860Y-102483507D01*
X185751579Y-102236428D01*
X185751577Y-102236425D01*
X185751577Y-102236423D01*
X185661279Y-102059206D01*
X185633634Y-102004949D01*
X185480931Y-101794771D01*
X185297229Y-101611069D01*
X185268578Y-101590253D01*
X185087054Y-101458368D01*
X185087053Y-101458367D01*
X185087051Y-101458366D01*
X185014764Y-101421534D01*
X184855576Y-101340422D01*
X184608493Y-101260140D01*
X184351902Y-101219500D01*
X184351897Y-101219500D01*
X184092103Y-101219500D01*
X184092098Y-101219500D01*
X183835506Y-101260140D01*
X183588423Y-101340422D01*
X183356945Y-101458368D01*
X183146774Y-101611066D01*
X183146768Y-101611071D01*
X182963071Y-101794768D01*
X182963066Y-101794774D01*
X182810368Y-102004945D01*
X182692422Y-102236423D01*
X182612140Y-102483506D01*
X182571500Y-102740097D01*
X181492825Y-102740097D01*
X181466093Y-102571320D01*
X181404052Y-102380378D01*
X181404050Y-102380375D01*
X181404050Y-102380373D01*
X181355967Y-102286007D01*
X181312905Y-102201492D01*
X181194897Y-102039068D01*
X181052932Y-101897103D01*
X180890508Y-101779095D01*
X180711626Y-101687949D01*
X180520680Y-101625907D01*
X180427009Y-101611071D01*
X180322384Y-101594500D01*
X180121616Y-101594500D01*
X180022468Y-101610203D01*
X179923319Y-101625907D01*
X179732373Y-101687949D01*
X179553491Y-101779095D01*
X179460822Y-101846423D01*
X179391068Y-101897103D01*
X179391066Y-101897105D01*
X179391065Y-101897105D01*
X179249105Y-102039065D01*
X179249105Y-102039066D01*
X179249103Y-102039068D01*
X179234472Y-102059206D01*
X179131095Y-102201491D01*
X179039949Y-102380373D01*
X179006439Y-102483507D01*
X178977907Y-102571320D01*
X178946500Y-102769616D01*
X162262974Y-102769616D01*
X162254180Y-100724405D01*
X162254179Y-100724403D01*
X162254154Y-100718414D01*
X162254153Y-100718406D01*
X162247569Y-99186999D01*
X159079496Y-98358589D01*
X156681624Y-97731576D01*
X156671881Y-97728596D01*
X156431532Y-97644130D01*
X156412943Y-97635825D01*
X156194152Y-97515636D01*
X156177172Y-97504402D01*
X155980987Y-97350022D01*
X155966075Y-97336160D01*
X155797805Y-97151766D01*
X155785361Y-97135650D01*
X155711574Y-97021871D01*
X155649530Y-96926199D01*
X155639893Y-96908266D01*
X155575298Y-96760030D01*
X155566563Y-96690709D01*
X155596692Y-96627669D01*
X155656121Y-96590926D01*
X155701581Y-96587138D01*
X155710004Y-96587998D01*
X155710025Y-96587999D01*
X155959999Y-96587999D01*
X156460000Y-96587999D01*
X156709972Y-96587999D01*
X156709986Y-96587998D01*
X156812697Y-96577505D01*
X156979119Y-96522358D01*
X156979124Y-96522356D01*
X157128345Y-96430315D01*
X157252315Y-96306345D01*
X157344356Y-96157124D01*
X157344358Y-96157119D01*
X157399505Y-95990697D01*
X157399506Y-95990690D01*
X157409999Y-95887986D01*
X157410000Y-95887973D01*
X157410000Y-95738000D01*
X156460000Y-95738000D01*
X156460000Y-96587999D01*
X155959999Y-96587999D01*
X155960000Y-96587998D01*
X155960000Y-95612000D01*
X155979685Y-95544961D01*
X156032489Y-95499206D01*
X156084000Y-95488000D01*
X156210000Y-95488000D01*
X156210000Y-95362000D01*
X156229685Y-95294961D01*
X156282489Y-95249206D01*
X156334000Y-95238000D01*
X157409999Y-95238000D01*
X157409999Y-95088028D01*
X157409998Y-95088013D01*
X157403934Y-95028654D01*
X166590501Y-95028654D01*
X166600819Y-95129652D01*
X166655046Y-95293300D01*
X166655051Y-95293311D01*
X166745552Y-95440034D01*
X166745555Y-95440038D01*
X166867461Y-95561944D01*
X166867465Y-95561947D01*
X167014188Y-95652448D01*
X167014199Y-95652453D01*
X167177847Y-95706680D01*
X167278851Y-95716999D01*
X167378000Y-95716998D01*
X167378000Y-94992000D01*
X166590501Y-94992000D01*
X166590501Y-95028654D01*
X157403934Y-95028654D01*
X157399506Y-94985305D01*
X157398425Y-94980255D01*
X157403640Y-94910580D01*
X157445697Y-94854785D01*
X157511242Y-94830585D01*
X157517310Y-94830322D01*
X159855551Y-94786619D01*
X159875442Y-94788538D01*
X159875466Y-94788311D01*
X159905628Y-94791392D01*
X159984991Y-94799500D01*
X160785008Y-94799499D01*
X160785016Y-94799498D01*
X160785019Y-94799498D01*
X160808896Y-94797058D01*
X160887797Y-94788999D01*
X160939250Y-94771948D01*
X160975927Y-94765678D01*
X162242811Y-94742000D01*
X162241788Y-94498790D01*
X162261190Y-94431670D01*
X162313801Y-94385693D01*
X162318316Y-94383717D01*
X162339705Y-94374858D01*
X162483099Y-94279045D01*
X163394325Y-93367819D01*
X163455648Y-93334334D01*
X163482006Y-93331500D01*
X164235231Y-93331500D01*
X164235232Y-93331499D01*
X164404374Y-93297855D01*
X164481426Y-93265938D01*
X164528879Y-93256500D01*
X165039686Y-93256500D01*
X165039694Y-93256500D01*
X165076569Y-93253598D01*
X165076571Y-93253597D01*
X165076573Y-93253597D01*
X165118191Y-93241505D01*
X165234398Y-93207744D01*
X165375865Y-93124081D01*
X165492081Y-93007865D01*
X165575744Y-92866398D01*
X165621598Y-92708569D01*
X165624500Y-92671694D01*
X165624500Y-92240306D01*
X165621598Y-92203431D01*
X165617882Y-92190642D01*
X165575745Y-92045606D01*
X165575744Y-92045603D01*
X165575744Y-92045602D01*
X165492081Y-91904135D01*
X165492078Y-91904132D01*
X165487298Y-91897969D01*
X165489750Y-91896066D01*
X165463155Y-91847421D01*
X165468104Y-91777726D01*
X165488940Y-91745304D01*
X165487298Y-91744031D01*
X165492075Y-91737870D01*
X165492081Y-91737865D01*
X165575744Y-91596398D01*
X165620783Y-91441374D01*
X165621597Y-91438573D01*
X165621598Y-91438567D01*
X165624499Y-91401701D01*
X165624500Y-91401694D01*
X165624500Y-90970306D01*
X165621598Y-90933431D01*
X165620785Y-90930633D01*
X165575745Y-90775606D01*
X165575744Y-90775603D01*
X165575744Y-90775602D01*
X165492081Y-90634135D01*
X165492078Y-90634132D01*
X165487298Y-90627969D01*
X165489750Y-90626066D01*
X165463155Y-90577421D01*
X165468104Y-90507726D01*
X165488940Y-90475304D01*
X165487298Y-90474031D01*
X165492075Y-90467870D01*
X165492081Y-90467865D01*
X165575744Y-90326398D01*
X165619754Y-90174917D01*
X165621597Y-90168573D01*
X165621598Y-90168567D01*
X165624500Y-90131694D01*
X165624500Y-89700306D01*
X165621598Y-89663431D01*
X165619929Y-89657688D01*
X165584429Y-89535496D01*
X165575744Y-89505602D01*
X165492081Y-89364135D01*
X165492078Y-89364132D01*
X165487298Y-89357969D01*
X165489750Y-89356066D01*
X165463155Y-89307421D01*
X165468104Y-89237726D01*
X165488940Y-89205304D01*
X165487298Y-89204031D01*
X165492075Y-89197870D01*
X165492081Y-89197865D01*
X165575744Y-89056398D01*
X165621598Y-88898569D01*
X165624500Y-88861694D01*
X165624500Y-88430306D01*
X165621598Y-88393431D01*
X165611775Y-88359622D01*
X165581813Y-88256493D01*
X165575744Y-88235602D01*
X165492081Y-88094135D01*
X165492079Y-88094133D01*
X165492076Y-88094129D01*
X165375870Y-87977923D01*
X165375862Y-87977917D01*
X165234396Y-87894255D01*
X165234393Y-87894254D01*
X165076573Y-87848402D01*
X165076567Y-87848401D01*
X165039701Y-87845500D01*
X165039694Y-87845500D01*
X164528879Y-87845500D01*
X164481426Y-87836061D01*
X164404374Y-87804145D01*
X164404366Y-87804143D01*
X164235232Y-87770500D01*
X164235229Y-87770500D01*
X163228006Y-87770500D01*
X163160967Y-87750815D01*
X163140325Y-87734181D01*
X162229102Y-86822957D01*
X162229098Y-86822954D01*
X162085711Y-86727145D01*
X162085698Y-86727138D01*
X161926378Y-86661146D01*
X161926366Y-86661143D01*
X161757232Y-86627500D01*
X161757229Y-86627500D01*
X161421868Y-86627500D01*
X161354829Y-86607815D01*
X161333653Y-86588616D01*
X161332819Y-86589451D01*
X161203657Y-86460289D01*
X161203656Y-86460288D01*
X161087403Y-86388583D01*
X161054336Y-86368187D01*
X161054331Y-86368185D01*
X161052862Y-86367698D01*
X160887797Y-86313001D01*
X160887795Y-86313000D01*
X160785016Y-86302500D01*
X160263552Y-86302500D01*
X160196513Y-86282815D01*
X160169314Y-86259093D01*
X160147000Y-86233000D01*
X160146998Y-86232999D01*
X160147000Y-86232999D01*
X159254633Y-86210690D01*
X159254607Y-86210690D01*
X157634400Y-86170185D01*
X157630322Y-86170083D01*
X157467603Y-86166014D01*
X157401077Y-86144660D01*
X157356656Y-86090729D01*
X157348445Y-86021343D01*
X157352997Y-86003049D01*
X157399505Y-85862697D01*
X157399506Y-85862690D01*
X157409999Y-85759986D01*
X157410000Y-85759973D01*
X157410000Y-85610000D01*
X155010001Y-85610000D01*
X155005801Y-85614199D01*
X155005857Y-85616303D01*
X154995787Y-85632917D01*
X154990316Y-85651552D01*
X154978054Y-85662176D01*
X154969643Y-85676056D01*
X154952189Y-85684589D01*
X154937512Y-85697307D01*
X154921452Y-85699616D01*
X154906873Y-85706744D01*
X154887580Y-85704486D01*
X154868354Y-85707251D01*
X154852872Y-85700425D01*
X154837477Y-85698624D01*
X154807294Y-85680331D01*
X154689950Y-85583942D01*
X154676753Y-85571367D01*
X154488423Y-85363390D01*
X154482564Y-85356419D01*
X154230485Y-85033109D01*
X154173493Y-84960013D01*
X155010000Y-84960013D01*
X155010000Y-85110000D01*
X155960000Y-85110000D01*
X156460000Y-85110000D01*
X157409999Y-85110000D01*
X157409999Y-84960028D01*
X157409998Y-84960013D01*
X157399505Y-84857302D01*
X157344358Y-84690880D01*
X157344356Y-84690875D01*
X157252315Y-84541654D01*
X157128345Y-84417684D01*
X156979124Y-84325643D01*
X156979119Y-84325641D01*
X156812697Y-84270494D01*
X156812690Y-84270493D01*
X156709986Y-84260000D01*
X156460000Y-84260000D01*
X156460000Y-85110000D01*
X155960000Y-85110000D01*
X155960000Y-84260000D01*
X155710029Y-84260000D01*
X155710012Y-84260001D01*
X155607302Y-84270494D01*
X155440880Y-84325641D01*
X155440875Y-84325643D01*
X155291654Y-84417684D01*
X155167684Y-84541654D01*
X155075643Y-84690875D01*
X155075641Y-84690880D01*
X155020494Y-84857302D01*
X155020493Y-84857309D01*
X155010000Y-84960013D01*
X154173493Y-84960013D01*
X152203998Y-82433994D01*
X151218075Y-82441348D01*
X151218072Y-82441348D01*
X150896662Y-82443745D01*
X138671362Y-82534936D01*
X138662472Y-82534683D01*
X138389696Y-82517125D01*
X138372084Y-82514715D01*
X138108975Y-82459252D01*
X138091889Y-82454348D01*
X137839414Y-82361834D01*
X137823205Y-82354537D01*
X137586562Y-82226879D01*
X137571562Y-82217339D01*
X137355594Y-82057147D01*
X137342113Y-82045562D01*
X137151276Y-81856144D01*
X137139589Y-81842749D01*
X136977794Y-81627984D01*
X136968143Y-81613056D01*
X136931886Y-81547030D01*
X136838714Y-81377356D01*
X136831303Y-81361215D01*
X136736905Y-81109428D01*
X136731878Y-81092394D01*
X136674453Y-80829700D01*
X136671912Y-80812112D01*
X136652319Y-80539464D01*
X136652000Y-80530576D01*
X136652000Y-79153654D01*
X145039001Y-79153654D01*
X145049319Y-79254652D01*
X145103546Y-79418300D01*
X145103551Y-79418311D01*
X145194052Y-79565034D01*
X145194055Y-79565038D01*
X145315961Y-79686944D01*
X145315965Y-79686947D01*
X145462688Y-79777448D01*
X145462699Y-79777453D01*
X145626347Y-79831680D01*
X145727351Y-79841999D01*
X145826500Y-79841998D01*
X145826500Y-79117000D01*
X145039001Y-79117000D01*
X145039001Y-79153654D01*
X136652000Y-79153654D01*
X136652000Y-78580345D01*
X145039000Y-78580345D01*
X145039000Y-78617000D01*
X145826500Y-78617000D01*
X145826500Y-77892000D01*
X146326500Y-77892000D01*
X146326500Y-79841999D01*
X146425640Y-79841999D01*
X146425654Y-79841998D01*
X146526652Y-79831680D01*
X146635350Y-79795662D01*
X146705178Y-79793260D01*
X146765220Y-79828992D01*
X146783713Y-79854917D01*
X146809414Y-79903003D01*
X146809421Y-79903015D01*
X146809422Y-79903016D01*
X146836214Y-79943113D01*
X146899080Y-80019714D01*
X146899085Y-80019719D01*
X146933280Y-80053915D01*
X146933285Y-80053919D01*
X147009888Y-80116786D01*
X147049984Y-80143577D01*
X147049987Y-80143579D01*
X147049995Y-80143584D01*
X147049998Y-80143586D01*
X147112640Y-80179257D01*
X147112649Y-80179261D01*
X147112657Y-80179266D01*
X147135695Y-80190288D01*
X147144496Y-80194499D01*
X147178053Y-80207701D01*
X147211615Y-80220906D01*
X147225643Y-80223178D01*
X147241798Y-80226920D01*
X147261029Y-80232753D01*
X147276897Y-80237567D01*
X147336399Y-80249403D01*
X147336433Y-80249408D01*
X147385447Y-80256680D01*
X147385461Y-80256681D01*
X147385464Y-80256682D01*
X147409655Y-80259065D01*
X147459211Y-80261500D01*
X147459225Y-80261500D01*
X151760776Y-80261500D01*
X151760789Y-80261500D01*
X151810349Y-80259065D01*
X151834538Y-80256682D01*
X151883596Y-80249404D01*
X151943100Y-80237568D01*
X152037928Y-80208802D01*
X152082625Y-80190288D01*
X152170025Y-80143571D01*
X152170032Y-80143566D01*
X152170036Y-80143564D01*
X152183753Y-80134397D01*
X152210115Y-80116783D01*
X152267055Y-80072552D01*
X152293311Y-80048969D01*
X152343448Y-79997004D01*
X152350907Y-79984923D01*
X152360563Y-79971405D01*
X152383792Y-79943104D01*
X152410578Y-79903015D01*
X152457288Y-79815625D01*
X152475802Y-79770928D01*
X152496256Y-79703504D01*
X152534553Y-79645066D01*
X152598366Y-79616609D01*
X152614916Y-79615500D01*
X159605994Y-79615500D01*
X159673033Y-79635185D01*
X159693675Y-79651819D01*
X165557897Y-85516042D01*
X165557901Y-85516045D01*
X165701288Y-85611854D01*
X165701301Y-85611861D01*
X165856283Y-85676056D01*
X165860626Y-85677855D01*
X166005861Y-85706744D01*
X166029766Y-85711499D01*
X166029769Y-85711500D01*
X166029771Y-85711500D01*
X166202229Y-85711500D01*
X167391500Y-85711500D01*
X167458539Y-85731185D01*
X167504294Y-85783989D01*
X167515500Y-85835500D01*
X167515500Y-88891789D01*
X167517672Y-88936000D01*
X167517935Y-88941345D01*
X167517935Y-88941354D01*
X167520315Y-88965511D01*
X167520322Y-88965570D01*
X167527592Y-89014573D01*
X167527595Y-89014591D01*
X167539432Y-89074100D01*
X167568190Y-89168912D01*
X167586702Y-89213607D01*
X167586703Y-89213608D01*
X167628324Y-89291479D01*
X167633421Y-89301014D01*
X167660210Y-89341107D01*
X167669029Y-89351852D01*
X167696344Y-89416159D01*
X167684555Y-89485027D01*
X167679912Y-89493637D01*
X167672718Y-89505800D01*
X167672716Y-89505806D01*
X167626900Y-89663505D01*
X167626899Y-89663511D01*
X167626704Y-89665998D01*
X167626705Y-89666000D01*
X170571295Y-89666000D01*
X170571295Y-89665998D01*
X170571100Y-89663513D01*
X170525281Y-89505801D01*
X170438584Y-89359203D01*
X170437313Y-89354193D01*
X170433833Y-89350373D01*
X170428810Y-89320680D01*
X170421401Y-89291479D01*
X170422807Y-89285199D01*
X170422179Y-89281482D01*
X170427272Y-89265271D01*
X170431280Y-89247382D01*
X170433407Y-89242401D01*
X170448788Y-89213625D01*
X170467302Y-89168928D01*
X170473474Y-89148579D01*
X170476133Y-89142355D01*
X170478196Y-89139851D01*
X170483433Y-89127940D01*
X170525744Y-89056398D01*
X170537896Y-89014573D01*
X170571597Y-88898573D01*
X170571598Y-88898567D01*
X170571669Y-88897666D01*
X170574500Y-88861694D01*
X170574500Y-88786013D01*
X172536000Y-88786013D01*
X172536000Y-88936000D01*
X173486000Y-88936000D01*
X173986000Y-88936000D01*
X174935999Y-88936000D01*
X174935999Y-88786028D01*
X174935998Y-88786013D01*
X174925505Y-88683302D01*
X174870358Y-88516880D01*
X174870356Y-88516875D01*
X174778315Y-88367654D01*
X174654345Y-88243684D01*
X174505124Y-88151643D01*
X174505119Y-88151641D01*
X174338697Y-88096494D01*
X174338690Y-88096493D01*
X174235986Y-88086000D01*
X173986000Y-88086000D01*
X173986000Y-88936000D01*
X173486000Y-88936000D01*
X173486000Y-88086000D01*
X173236029Y-88086000D01*
X173236012Y-88086001D01*
X173133302Y-88096494D01*
X172966880Y-88151641D01*
X172966875Y-88151643D01*
X172817654Y-88243684D01*
X172693684Y-88367654D01*
X172601643Y-88516875D01*
X172601641Y-88516880D01*
X172546494Y-88683302D01*
X172546493Y-88683309D01*
X172536000Y-88786013D01*
X170574500Y-88786013D01*
X170574500Y-88430306D01*
X170571598Y-88393431D01*
X170561777Y-88359626D01*
X170524924Y-88232778D01*
X170520000Y-88198183D01*
X170520000Y-87645584D01*
X170519258Y-87618238D01*
X170519258Y-87618223D01*
X170518530Y-87604802D01*
X170517242Y-87588999D01*
X170784500Y-87588999D01*
X170883640Y-87588999D01*
X170883654Y-87588998D01*
X170984652Y-87578680D01*
X171148300Y-87524453D01*
X171148311Y-87524448D01*
X171295034Y-87433947D01*
X171295038Y-87433944D01*
X171416944Y-87312038D01*
X171416947Y-87312034D01*
X171507448Y-87165311D01*
X171507453Y-87165300D01*
X171561680Y-87001652D01*
X171571999Y-86900654D01*
X171572000Y-86900641D01*
X171572000Y-86864000D01*
X170784500Y-86864000D01*
X170784500Y-87588999D01*
X170517242Y-87588999D01*
X170516302Y-87577469D01*
X170480532Y-87438106D01*
X170453707Y-87373591D01*
X170380123Y-87249952D01*
X170365553Y-87236423D01*
X170324126Y-87197956D01*
X170288393Y-87137915D01*
X170284500Y-87107088D01*
X170284500Y-86738000D01*
X170304185Y-86670961D01*
X170356989Y-86625206D01*
X170408500Y-86614000D01*
X170534500Y-86614000D01*
X170534500Y-86488000D01*
X170554185Y-86420961D01*
X170606989Y-86375206D01*
X170658500Y-86364000D01*
X171571999Y-86364000D01*
X171571999Y-86327360D01*
X171571998Y-86327345D01*
X171561680Y-86226347D01*
X171507453Y-86062699D01*
X171507448Y-86062688D01*
X171416947Y-85915965D01*
X171414137Y-85912411D01*
X171387996Y-85847616D01*
X171401036Y-85778974D01*
X171449117Y-85728279D01*
X171511403Y-85711500D01*
X174792771Y-85711500D01*
X174965229Y-85711500D01*
X175554771Y-85711500D01*
X175727229Y-85711500D01*
X176242994Y-85711500D01*
X176310033Y-85731185D01*
X176330675Y-85747819D01*
X176761181Y-86178325D01*
X176794666Y-86239648D01*
X176797500Y-86266006D01*
X176797500Y-88859233D01*
X176831143Y-89028366D01*
X176831146Y-89028378D01*
X176897138Y-89187698D01*
X176897145Y-89187711D01*
X176992954Y-89331098D01*
X176992957Y-89331102D01*
X178770955Y-91109099D01*
X178892901Y-91231045D01*
X178892902Y-91231046D01*
X179036288Y-91326854D01*
X179036301Y-91326861D01*
X179195621Y-91392853D01*
X179195626Y-91392855D01*
X179364766Y-91426499D01*
X179364769Y-91426500D01*
X179364771Y-91426500D01*
X179537229Y-91426500D01*
X183608994Y-91426500D01*
X183676033Y-91446185D01*
X183696675Y-91462819D01*
X184762181Y-92528325D01*
X184795666Y-92589648D01*
X184798500Y-92616006D01*
X184798500Y-94581993D01*
X184778815Y-94649032D01*
X184762181Y-94669674D01*
X183272945Y-96158910D01*
X183211622Y-96192395D01*
X183141930Y-96187411D01*
X183097583Y-96158910D01*
X182951226Y-96012553D01*
X182951224Y-96012551D01*
X182763331Y-95876039D01*
X182556400Y-95770601D01*
X182335514Y-95698831D01*
X182106129Y-95662500D01*
X182106124Y-95662500D01*
X181873876Y-95662500D01*
X181873875Y-95662500D01*
X181832876Y-95668993D01*
X181763583Y-95660037D01*
X181710131Y-95615040D01*
X181689493Y-95548288D01*
X181691007Y-95527120D01*
X181697500Y-95486128D01*
X181697500Y-95253870D01*
X181690925Y-95212358D01*
X181699880Y-95143065D01*
X181744876Y-95089613D01*
X181811627Y-95068973D01*
X181832797Y-95070487D01*
X181873917Y-95077000D01*
X182106090Y-95077000D01*
X182335393Y-95040681D01*
X182556205Y-94968934D01*
X182763071Y-94863530D01*
X182841207Y-94806762D01*
X182841208Y-94806760D01*
X182237488Y-94203041D01*
X182297890Y-94178022D01*
X182404351Y-94106888D01*
X182494888Y-94016351D01*
X182566022Y-93909890D01*
X182591041Y-93849488D01*
X183194760Y-94453208D01*
X183194762Y-94453207D01*
X183251530Y-94375071D01*
X183356934Y-94168205D01*
X183428681Y-93947393D01*
X183465000Y-93718090D01*
X183465000Y-93485909D01*
X183428681Y-93256606D01*
X183356934Y-93035794D01*
X183251534Y-92828935D01*
X183194760Y-92750791D01*
X183194759Y-92750791D01*
X182591041Y-93354510D01*
X182566022Y-93294110D01*
X182494888Y-93187649D01*
X182404351Y-93097112D01*
X182297890Y-93025978D01*
X182237487Y-93000957D01*
X182841207Y-92397238D01*
X182763064Y-92340465D01*
X182556205Y-92235065D01*
X182335393Y-92163318D01*
X182106090Y-92127000D01*
X181873910Y-92127000D01*
X181644606Y-92163318D01*
X181423794Y-92235065D01*
X181216925Y-92340470D01*
X181138791Y-92397237D01*
X181138791Y-92397238D01*
X181742511Y-93000958D01*
X181682110Y-93025978D01*
X181575649Y-93097112D01*
X181485112Y-93187649D01*
X181413978Y-93294110D01*
X181388958Y-93354511D01*
X180785238Y-92750791D01*
X180785237Y-92750791D01*
X180728470Y-92828925D01*
X180623065Y-93035794D01*
X180551318Y-93256606D01*
X180515000Y-93485909D01*
X180515000Y-93718086D01*
X180521512Y-93759205D01*
X180512556Y-93828498D01*
X180467559Y-93881949D01*
X180400807Y-93902588D01*
X180379642Y-93901075D01*
X180338125Y-93894500D01*
X180338124Y-93894500D01*
X180105876Y-93894500D01*
X180105875Y-93894500D01*
X180064876Y-93900993D01*
X179995583Y-93892037D01*
X179942131Y-93847040D01*
X179921493Y-93780288D01*
X179923007Y-93759120D01*
X179929500Y-93718128D01*
X179929500Y-93485870D01*
X179910232Y-93364222D01*
X179893169Y-93256486D01*
X179821400Y-93035604D01*
X179821398Y-93035601D01*
X179821398Y-93035599D01*
X179726942Y-92850221D01*
X179715961Y-92828669D01*
X179579449Y-92640776D01*
X179415224Y-92476551D01*
X179227331Y-92340039D01*
X179020396Y-92234600D01*
X178998508Y-92227487D01*
X178969067Y-92213404D01*
X178955821Y-92204760D01*
X178953506Y-92203432D01*
X178931213Y-92190642D01*
X178905326Y-92177702D01*
X178879371Y-92164729D01*
X178768976Y-92117249D01*
X178768972Y-92117248D01*
X178714509Y-92097439D01*
X178687341Y-92089288D01*
X178687333Y-92089286D01*
X178631007Y-92075849D01*
X178630977Y-92075843D01*
X178505658Y-92053448D01*
X178505636Y-92053444D01*
X178505632Y-92053444D01*
X178476991Y-92049169D01*
X178465633Y-92047804D01*
X178462864Y-92047472D01*
X178434029Y-92044845D01*
X178434016Y-92044844D01*
X178434003Y-92044843D01*
X176183795Y-91904796D01*
X176118108Y-91880986D01*
X176075722Y-91825442D01*
X176070093Y-91755799D01*
X176088396Y-91712145D01*
X176123299Y-91659909D01*
X176162858Y-91600705D01*
X176228855Y-91441374D01*
X176262500Y-91272229D01*
X176262500Y-91099771D01*
X176262500Y-91099768D01*
X176262499Y-91099766D01*
X176228856Y-90930633D01*
X176228855Y-90930626D01*
X176164644Y-90775606D01*
X176162861Y-90771301D01*
X176162854Y-90771288D01*
X176067045Y-90627901D01*
X176067042Y-90627897D01*
X175945102Y-90505957D01*
X175945098Y-90505954D01*
X175801711Y-90410145D01*
X175801698Y-90410138D01*
X175642378Y-90344146D01*
X175642366Y-90344143D01*
X175473232Y-90310500D01*
X175473229Y-90310500D01*
X174773230Y-90310500D01*
X174743789Y-90301855D01*
X174713803Y-90295332D01*
X174708787Y-90291577D01*
X174706191Y-90290815D01*
X174685549Y-90274181D01*
X174684695Y-90273327D01*
X174651210Y-90212004D01*
X174656194Y-90142312D01*
X174684695Y-90097964D01*
X174778317Y-90004342D01*
X174870356Y-89855124D01*
X174870358Y-89855119D01*
X174925505Y-89688697D01*
X174925506Y-89688690D01*
X174935999Y-89585986D01*
X174936000Y-89585973D01*
X174936000Y-89436000D01*
X172536001Y-89436000D01*
X172536001Y-89585986D01*
X172546494Y-89688697D01*
X172601641Y-89855119D01*
X172601643Y-89855124D01*
X172693684Y-90004345D01*
X172787304Y-90097965D01*
X172791624Y-90105876D01*
X172798847Y-90111277D01*
X172808110Y-90136068D01*
X172820789Y-90159288D01*
X172820145Y-90168280D01*
X172823302Y-90176727D01*
X172817692Y-90202586D01*
X172815805Y-90228980D01*
X172810009Y-90238003D01*
X172808490Y-90245009D01*
X172787356Y-90273276D01*
X172786500Y-90274131D01*
X172725199Y-90307651D01*
X172698770Y-90310500D01*
X170693862Y-90310500D01*
X170626823Y-90290815D01*
X170581068Y-90238011D01*
X170571996Y-90174917D01*
X170570603Y-90174808D01*
X170571295Y-90166000D01*
X167626705Y-90166000D01*
X167626704Y-90166001D01*
X167626899Y-90168486D01*
X167672718Y-90326198D01*
X167756314Y-90467552D01*
X167761100Y-90473722D01*
X167758640Y-90475629D01*
X167785210Y-90524288D01*
X167780226Y-90593980D01*
X167759162Y-90626781D01*
X167760699Y-90627974D01*
X167755915Y-90634140D01*
X167672255Y-90775603D01*
X167672254Y-90775606D01*
X167626402Y-90933426D01*
X167626401Y-90933432D01*
X167623500Y-90970298D01*
X167623500Y-91401701D01*
X167626401Y-91438567D01*
X167626402Y-91438573D01*
X167672254Y-91596393D01*
X167672254Y-91596394D01*
X167709816Y-91659909D01*
X167726997Y-91727633D01*
X167704837Y-91793895D01*
X167693121Y-91808289D01*
X167669890Y-91832821D01*
X167651323Y-91854871D01*
X167651305Y-91854894D01*
X167616055Y-91902089D01*
X167548728Y-92004142D01*
X167519208Y-92055124D01*
X167519205Y-92055130D01*
X167506236Y-92080881D01*
X167506229Y-92080895D01*
X167482831Y-92134989D01*
X167440929Y-92249809D01*
X167423995Y-92306222D01*
X167423990Y-92306239D01*
X167417325Y-92334285D01*
X167417324Y-92334289D01*
X167407059Y-92392348D01*
X167407058Y-92392354D01*
X167391985Y-92520992D01*
X167389405Y-92550423D01*
X167388567Y-92564812D01*
X167387710Y-92594262D01*
X167387710Y-93643902D01*
X167368025Y-93710941D01*
X167315221Y-93756696D01*
X167276312Y-93767260D01*
X167177847Y-93777319D01*
X167014199Y-93831546D01*
X167014188Y-93831551D01*
X166867465Y-93922052D01*
X166867461Y-93922055D01*
X166745555Y-94043961D01*
X166745552Y-94043965D01*
X166655051Y-94190688D01*
X166655046Y-94190699D01*
X166600819Y-94354347D01*
X166590500Y-94455345D01*
X166590500Y-94492000D01*
X167504000Y-94492000D01*
X167571039Y-94511685D01*
X167616794Y-94564489D01*
X167628000Y-94616000D01*
X167628000Y-94742000D01*
X167754000Y-94742000D01*
X167821039Y-94761685D01*
X167866794Y-94814489D01*
X167878000Y-94866000D01*
X167878000Y-95716999D01*
X167977140Y-95716999D01*
X167977154Y-95716998D01*
X168078152Y-95706680D01*
X168241807Y-95652451D01*
X168278433Y-95629859D01*
X168345825Y-95611417D01*
X168412489Y-95632338D01*
X168429147Y-95645697D01*
X169001880Y-96192393D01*
X169025790Y-96213808D01*
X169037843Y-96223932D01*
X169063065Y-96243786D01*
X169176541Y-96327417D01*
X169230507Y-96362131D01*
X169257955Y-96377416D01*
X169315886Y-96405014D01*
X169315889Y-96405015D01*
X169315897Y-96405019D01*
X169377792Y-96429817D01*
X169439360Y-96454485D01*
X169500320Y-96474522D01*
X169530729Y-96482418D01*
X169593736Y-96494570D01*
X169593741Y-96494570D01*
X169593743Y-96494571D01*
X169593739Y-96494571D01*
X169661284Y-96503196D01*
X169733567Y-96512428D01*
X169743560Y-96513383D01*
X169765509Y-96515481D01*
X169765519Y-96515481D01*
X169765523Y-96515482D01*
X169781232Y-96516481D01*
X169813314Y-96517500D01*
X169813329Y-96517500D01*
X172138576Y-96517500D01*
X172138588Y-96517500D01*
X172152180Y-96517317D01*
X172158835Y-96517138D01*
X172158860Y-96517137D01*
X172172361Y-96516593D01*
X172172366Y-96516592D01*
X172172384Y-96516592D01*
X172224926Y-96513766D01*
X172232065Y-96513383D01*
X172232066Y-96513382D01*
X172232083Y-96513382D01*
X172259139Y-96511197D01*
X172272372Y-96509770D01*
X172299261Y-96506138D01*
X172358266Y-96496549D01*
X172371612Y-96494196D01*
X172378154Y-96492952D01*
X172384352Y-96491686D01*
X172391437Y-96490241D01*
X173393000Y-96271718D01*
X178596068Y-95136502D01*
X178665762Y-95141444D01*
X178721721Y-95183280D01*
X178746179Y-95248730D01*
X178746500Y-95257652D01*
X178746500Y-95486124D01*
X178752993Y-95527123D01*
X178744037Y-95596416D01*
X178699040Y-95649867D01*
X178632288Y-95670506D01*
X178611123Y-95668993D01*
X178570124Y-95662500D01*
X178337876Y-95662500D01*
X178337871Y-95662500D01*
X178108485Y-95698831D01*
X177887599Y-95770601D01*
X177680668Y-95876039D01*
X177492773Y-96012553D01*
X177328553Y-96176773D01*
X177192039Y-96364668D01*
X177086601Y-96571599D01*
X177014831Y-96792485D01*
X176978500Y-97021870D01*
X176978500Y-97254129D01*
X177014831Y-97483514D01*
X177086601Y-97704400D01*
X177144507Y-97818045D01*
X177192039Y-97911331D01*
X177328551Y-98099224D01*
X177492776Y-98263449D01*
X177680669Y-98399961D01*
X177726708Y-98423419D01*
X177887599Y-98505398D01*
X177887601Y-98505398D01*
X177887604Y-98505400D01*
X178108486Y-98577169D01*
X178226668Y-98595886D01*
X178337871Y-98613500D01*
X178337876Y-98613500D01*
X178570129Y-98613500D01*
X178671502Y-98597443D01*
X178799514Y-98577169D01*
X179020396Y-98505400D01*
X179227331Y-98399961D01*
X179415224Y-98263449D01*
X179579449Y-98099224D01*
X179715961Y-97911331D01*
X179821400Y-97704396D01*
X179893169Y-97483514D01*
X179922371Y-97299137D01*
X179929500Y-97254129D01*
X179929500Y-97021871D01*
X179923007Y-96980879D01*
X179931961Y-96911585D01*
X179976957Y-96858133D01*
X180043708Y-96837493D01*
X180064879Y-96839007D01*
X180105872Y-96845500D01*
X180105876Y-96845500D01*
X180338128Y-96845500D01*
X180379120Y-96839007D01*
X180448413Y-96847961D01*
X180501866Y-96892957D01*
X180522506Y-96959708D01*
X180520993Y-96980876D01*
X180514500Y-97021875D01*
X180514500Y-97254129D01*
X180550831Y-97483514D01*
X180622601Y-97704400D01*
X180680507Y-97818045D01*
X180728039Y-97911331D01*
X180864551Y-98099224D01*
X181028776Y-98263449D01*
X181216669Y-98399961D01*
X181262708Y-98423419D01*
X181423599Y-98505398D01*
X181423601Y-98505398D01*
X181423604Y-98505400D01*
X181644486Y-98577169D01*
X181762668Y-98595886D01*
X181873871Y-98613500D01*
X181873876Y-98613500D01*
X182106129Y-98613500D01*
X182207502Y-98597443D01*
X182335514Y-98577169D01*
X182556396Y-98505400D01*
X182763331Y-98399961D01*
X182951224Y-98263449D01*
X183115449Y-98099224D01*
X183140594Y-98064615D01*
X183195924Y-98021949D01*
X183240912Y-98013500D01*
X183618231Y-98013500D01*
X183618232Y-98013499D01*
X183787374Y-97979855D01*
X183946705Y-97913858D01*
X184090099Y-97818045D01*
X186354045Y-95554099D01*
X186449858Y-95410705D01*
X186515855Y-95251374D01*
X186549500Y-95082229D01*
X186549500Y-94909771D01*
X186549500Y-92115771D01*
X186549500Y-92115768D01*
X186549499Y-92115766D01*
X186545854Y-92097440D01*
X186515855Y-91946626D01*
X186498529Y-91904797D01*
X186449861Y-91787301D01*
X186449854Y-91787288D01*
X186354046Y-91643902D01*
X186306537Y-91596393D01*
X186232099Y-91521955D01*
X185458488Y-90748344D01*
X184581102Y-89870957D01*
X184581098Y-89870954D01*
X184437711Y-89775145D01*
X184437701Y-89775140D01*
X184375460Y-89749359D01*
X184321057Y-89705518D01*
X184298992Y-89639224D01*
X184316271Y-89571524D01*
X184367409Y-89523914D01*
X184403515Y-89512325D01*
X184453713Y-89504374D01*
X184608493Y-89479860D01*
X184855572Y-89399579D01*
X185087051Y-89281634D01*
X185297229Y-89128931D01*
X185480931Y-88945229D01*
X185633634Y-88735051D01*
X185751579Y-88503572D01*
X185831860Y-88256493D01*
X185857574Y-88094137D01*
X185872500Y-87999902D01*
X185872500Y-87740097D01*
X185848568Y-87588998D01*
X185831860Y-87483507D01*
X185751579Y-87236428D01*
X185751577Y-87236425D01*
X185751577Y-87236423D01*
X185688322Y-87112280D01*
X185633634Y-87004949D01*
X185480931Y-86794771D01*
X185297229Y-86611069D01*
X185089698Y-86460289D01*
X185087054Y-86458368D01*
X185087053Y-86458367D01*
X185087051Y-86458366D01*
X185013640Y-86420961D01*
X184855576Y-86340422D01*
X184608493Y-86260140D01*
X184351902Y-86219500D01*
X184351897Y-86219500D01*
X184092103Y-86219500D01*
X184092098Y-86219500D01*
X183835506Y-86260140D01*
X183588423Y-86340422D01*
X183356945Y-86458368D01*
X183146774Y-86611066D01*
X183146768Y-86611071D01*
X182963071Y-86794768D01*
X182963066Y-86794774D01*
X182810368Y-87004945D01*
X182692422Y-87236423D01*
X182612140Y-87483506D01*
X182571500Y-87740097D01*
X182571500Y-87999902D01*
X182612140Y-88256493D01*
X182692422Y-88503576D01*
X182735639Y-88588392D01*
X182794289Y-88703499D01*
X182810368Y-88735054D01*
X182929171Y-88898573D01*
X182963069Y-88945229D01*
X183146771Y-89128931D01*
X183356949Y-89281634D01*
X183473663Y-89341103D01*
X183588423Y-89399577D01*
X183588425Y-89399577D01*
X183588428Y-89399579D01*
X183693039Y-89433569D01*
X183750714Y-89473007D01*
X183777912Y-89537366D01*
X183765997Y-89606212D01*
X183718753Y-89657688D01*
X183654720Y-89675500D01*
X179865006Y-89675500D01*
X179797967Y-89655815D01*
X179777325Y-89639181D01*
X178584819Y-88446675D01*
X178551334Y-88385352D01*
X178548500Y-88358994D01*
X178548500Y-87769616D01*
X178946500Y-87769616D01*
X178946500Y-87970384D01*
X178951175Y-87999902D01*
X178977907Y-88168680D01*
X179039949Y-88359626D01*
X179113294Y-88503572D01*
X179131095Y-88538508D01*
X179249103Y-88700932D01*
X179391068Y-88842897D01*
X179553492Y-88960905D01*
X179562648Y-88965570D01*
X179732373Y-89052050D01*
X179732375Y-89052050D01*
X179732378Y-89052052D01*
X179923320Y-89114093D01*
X180121616Y-89145500D01*
X180121617Y-89145500D01*
X180322383Y-89145500D01*
X180322384Y-89145500D01*
X180520680Y-89114093D01*
X180711622Y-89052052D01*
X180890508Y-88960905D01*
X181052932Y-88842897D01*
X181194897Y-88700932D01*
X181312905Y-88538508D01*
X181404052Y-88359622D01*
X181466093Y-88168680D01*
X181497500Y-87970384D01*
X181497500Y-87769616D01*
X181466093Y-87571320D01*
X181404052Y-87380378D01*
X181404050Y-87380375D01*
X181404050Y-87380373D01*
X181355967Y-87286007D01*
X181312905Y-87201492D01*
X181194897Y-87039068D01*
X181052932Y-86897103D01*
X180890508Y-86779095D01*
X180809855Y-86738000D01*
X180711626Y-86687949D01*
X180520680Y-86625907D01*
X180427009Y-86611071D01*
X180322384Y-86594500D01*
X180121616Y-86594500D01*
X180022468Y-86610203D01*
X179923319Y-86625907D01*
X179732373Y-86687949D01*
X179553491Y-86779095D01*
X179493125Y-86822954D01*
X179391068Y-86897103D01*
X179391066Y-86897105D01*
X179391065Y-86897105D01*
X179249105Y-87039065D01*
X179249105Y-87039066D01*
X179249103Y-87039068D01*
X179208707Y-87094668D01*
X179131095Y-87201491D01*
X179039949Y-87380373D01*
X178977907Y-87571319D01*
X178977907Y-87571320D01*
X178946500Y-87769616D01*
X178548500Y-87769616D01*
X178548500Y-85765768D01*
X178548499Y-85765766D01*
X178535341Y-85699616D01*
X178514855Y-85596626D01*
X178509601Y-85583942D01*
X178448861Y-85437301D01*
X178448854Y-85437288D01*
X178353046Y-85293902D01*
X178295644Y-85236500D01*
X178231099Y-85171955D01*
X177750019Y-84690875D01*
X177215102Y-84155957D01*
X177215098Y-84155954D01*
X177071711Y-84060145D01*
X177071698Y-84060138D01*
X176912378Y-83994146D01*
X176912366Y-83994143D01*
X176743232Y-83960500D01*
X176743229Y-83960500D01*
X176259500Y-83960500D01*
X176192461Y-83940815D01*
X176146706Y-83888011D01*
X176135500Y-83836500D01*
X176135500Y-78978625D01*
X176155185Y-78911586D01*
X176171819Y-78890944D01*
X176175690Y-78887073D01*
X176286760Y-78734199D01*
X176372547Y-78565832D01*
X176430940Y-78386118D01*
X176442095Y-78315688D01*
X176460500Y-78199486D01*
X176460500Y-78010513D01*
X176430940Y-77823881D01*
X176372545Y-77644163D01*
X176286759Y-77475800D01*
X176175690Y-77322927D01*
X176042073Y-77189310D01*
X175889199Y-77078240D01*
X175720836Y-76992454D01*
X175646472Y-76968291D01*
X175599195Y-76952930D01*
X175541521Y-76913493D01*
X175514323Y-76849134D01*
X175526238Y-76780288D01*
X175573482Y-76728812D01*
X175599194Y-76717069D01*
X175720832Y-76677547D01*
X175889199Y-76591760D01*
X176042073Y-76480690D01*
X176175690Y-76347073D01*
X176286760Y-76194199D01*
X176372547Y-76025832D01*
X176401360Y-75937155D01*
X181022000Y-75937155D01*
X181022000Y-76585000D01*
X181938988Y-76585000D01*
X181906075Y-76642007D01*
X181872000Y-76769174D01*
X181872000Y-76900826D01*
X181906075Y-77027993D01*
X181938988Y-77085000D01*
X181022000Y-77085000D01*
X181022000Y-77732844D01*
X181028401Y-77792372D01*
X181028403Y-77792379D01*
X181078645Y-77927086D01*
X181078649Y-77927093D01*
X181164809Y-78042187D01*
X181164812Y-78042190D01*
X181279906Y-78128350D01*
X181279913Y-78128354D01*
X181414620Y-78178596D01*
X181414627Y-78178598D01*
X181474155Y-78184999D01*
X181474172Y-78185000D01*
X182122000Y-78185000D01*
X182122000Y-77268012D01*
X182179007Y-77300925D01*
X182306174Y-77335000D01*
X182437826Y-77335000D01*
X182564993Y-77300925D01*
X182622000Y-77268012D01*
X182622000Y-78185000D01*
X183269828Y-78185000D01*
X183269844Y-78184999D01*
X183329372Y-78178598D01*
X183329379Y-78178596D01*
X183464086Y-78128354D01*
X183464093Y-78128350D01*
X183579187Y-78042190D01*
X183579190Y-78042187D01*
X183665350Y-77927093D01*
X183665354Y-77927086D01*
X183715596Y-77792379D01*
X183715598Y-77792372D01*
X183721999Y-77732844D01*
X183722000Y-77732827D01*
X183722000Y-77085000D01*
X182805012Y-77085000D01*
X182837925Y-77027993D01*
X182872000Y-76900826D01*
X182872000Y-76769174D01*
X182837925Y-76642007D01*
X182805012Y-76585000D01*
X183722000Y-76585000D01*
X183722000Y-75937172D01*
X183721999Y-75937155D01*
X183715598Y-75877627D01*
X183715596Y-75877620D01*
X183665354Y-75742913D01*
X183665350Y-75742906D01*
X183579190Y-75627812D01*
X183579187Y-75627809D01*
X183464093Y-75541649D01*
X183464086Y-75541645D01*
X183329379Y-75491403D01*
X183329372Y-75491401D01*
X183269844Y-75485000D01*
X182622000Y-75485000D01*
X182622000Y-76401988D01*
X182564993Y-76369075D01*
X182437826Y-76335000D01*
X182306174Y-76335000D01*
X182179007Y-76369075D01*
X182122000Y-76401988D01*
X182122000Y-75485000D01*
X181474155Y-75485000D01*
X181414627Y-75491401D01*
X181414620Y-75491403D01*
X181279913Y-75541645D01*
X181279906Y-75541649D01*
X181164812Y-75627809D01*
X181164809Y-75627812D01*
X181078649Y-75742906D01*
X181078645Y-75742913D01*
X181028403Y-75877620D01*
X181028401Y-75877627D01*
X181022000Y-75937155D01*
X176401360Y-75937155D01*
X176430940Y-75846118D01*
X176449526Y-75728771D01*
X176460500Y-75659486D01*
X176460500Y-75470513D01*
X176430940Y-75283881D01*
X176403846Y-75200497D01*
X176372547Y-75104168D01*
X176372545Y-75104165D01*
X176372545Y-75104163D01*
X176327290Y-75015347D01*
X176286760Y-74935801D01*
X176175690Y-74782927D01*
X176042073Y-74649310D01*
X175889199Y-74538240D01*
X175883821Y-74535500D01*
X175720836Y-74452454D01*
X175541118Y-74394059D01*
X175354486Y-74364500D01*
X175354481Y-74364500D01*
X175165519Y-74364500D01*
X175165514Y-74364500D01*
X174978881Y-74394059D01*
X174799163Y-74452454D01*
X174630800Y-74538240D01*
X174553992Y-74594045D01*
X174477927Y-74649310D01*
X174477925Y-74649312D01*
X174477924Y-74649312D01*
X174344312Y-74782924D01*
X174344312Y-74782925D01*
X174344310Y-74782927D01*
X174296610Y-74848579D01*
X174233240Y-74935800D01*
X174147454Y-75104163D01*
X174089059Y-75283881D01*
X174059500Y-75470513D01*
X174059500Y-75659486D01*
X174089059Y-75846118D01*
X174147454Y-76025836D01*
X174215124Y-76158644D01*
X174233240Y-76194199D01*
X174344310Y-76347073D01*
X174477927Y-76480690D01*
X174630801Y-76591760D01*
X174664148Y-76608751D01*
X174799163Y-76677545D01*
X174799165Y-76677545D01*
X174799168Y-76677547D01*
X174888482Y-76706567D01*
X174920803Y-76717069D01*
X174978478Y-76756507D01*
X175005676Y-76820866D01*
X174993761Y-76889712D01*
X174946516Y-76941188D01*
X174920803Y-76952931D01*
X174799163Y-76992454D01*
X174630800Y-77078240D01*
X174570466Y-77122076D01*
X174477927Y-77189310D01*
X174477925Y-77189312D01*
X174477924Y-77189312D01*
X174344312Y-77322924D01*
X174344312Y-77322925D01*
X174344310Y-77322927D01*
X174296610Y-77388579D01*
X174233240Y-77475800D01*
X174147454Y-77644163D01*
X174089059Y-77823881D01*
X174059500Y-78010513D01*
X174059500Y-78199486D01*
X174089059Y-78386118D01*
X174147454Y-78565836D01*
X174173524Y-78617000D01*
X174233240Y-78734199D01*
X174344310Y-78887073D01*
X174344312Y-78887075D01*
X174348181Y-78890944D01*
X174381666Y-78952267D01*
X174384500Y-78978625D01*
X174384500Y-83836500D01*
X174364815Y-83903539D01*
X174312011Y-83949294D01*
X174260500Y-83960500D01*
X169876857Y-83960500D01*
X169858662Y-83959158D01*
X169844519Y-83957060D01*
X169826037Y-83954318D01*
X169826011Y-83954315D01*
X169801850Y-83951935D01*
X169788803Y-83951294D01*
X169752289Y-83949500D01*
X168283211Y-83949500D01*
X168256647Y-83950804D01*
X168233690Y-83951931D01*
X168233652Y-83951934D01*
X168209528Y-83954309D01*
X168209500Y-83954312D01*
X168209497Y-83954313D01*
X168209488Y-83954314D01*
X168209483Y-83954315D01*
X168176833Y-83959158D01*
X168158640Y-83960500D01*
X166530006Y-83960500D01*
X166462967Y-83940815D01*
X166442325Y-83924181D01*
X160578102Y-78059957D01*
X160578098Y-78059954D01*
X160434711Y-77964145D01*
X160434698Y-77964138D01*
X160275378Y-77898146D01*
X160275366Y-77898143D01*
X160106232Y-77864500D01*
X160106229Y-77864500D01*
X154366491Y-77864500D01*
X154299452Y-77844815D01*
X154253697Y-77792011D01*
X154243753Y-77722853D01*
X154248784Y-77701498D01*
X154251999Y-77691797D01*
X154262500Y-77589009D01*
X154262499Y-76588992D01*
X154251999Y-76486203D01*
X154196814Y-76319666D01*
X154104712Y-76170344D01*
X154073819Y-76139451D01*
X154040334Y-76078128D01*
X154037500Y-76051770D01*
X154037500Y-75728768D01*
X154037499Y-75728766D01*
X154030459Y-75693374D01*
X154003855Y-75559626D01*
X153966943Y-75470513D01*
X169868500Y-75470513D01*
X169868500Y-75659486D01*
X169898059Y-75846118D01*
X169956454Y-76025836D01*
X170024124Y-76158644D01*
X170042240Y-76194199D01*
X170153310Y-76347073D01*
X170286927Y-76480690D01*
X170439801Y-76591760D01*
X170473148Y-76608751D01*
X170608163Y-76677545D01*
X170608165Y-76677545D01*
X170608168Y-76677547D01*
X170697482Y-76706567D01*
X170729803Y-76717069D01*
X170787478Y-76756507D01*
X170814676Y-76820866D01*
X170802761Y-76889712D01*
X170755516Y-76941188D01*
X170729803Y-76952931D01*
X170608163Y-76992454D01*
X170439800Y-77078240D01*
X170379466Y-77122076D01*
X170286927Y-77189310D01*
X170286925Y-77189312D01*
X170286924Y-77189312D01*
X170153312Y-77322924D01*
X170153312Y-77322925D01*
X170153310Y-77322927D01*
X170105610Y-77388579D01*
X170042240Y-77475800D01*
X169956454Y-77644163D01*
X169898059Y-77823881D01*
X169868500Y-78010513D01*
X169868500Y-78199486D01*
X169898059Y-78386118D01*
X169956454Y-78565836D01*
X169982524Y-78617000D01*
X170042240Y-78734199D01*
X170153310Y-78887073D01*
X170286927Y-79020690D01*
X170439801Y-79131760D01*
X170482771Y-79153654D01*
X170608163Y-79217545D01*
X170608165Y-79217545D01*
X170608168Y-79217547D01*
X170704497Y-79248846D01*
X170787881Y-79275940D01*
X170974514Y-79305500D01*
X170974519Y-79305500D01*
X171163486Y-79305500D01*
X171350118Y-79275940D01*
X171415635Y-79254652D01*
X171529832Y-79217547D01*
X171698199Y-79131760D01*
X171851073Y-79020690D01*
X171984690Y-78887073D01*
X172095760Y-78734199D01*
X172181547Y-78565832D01*
X172239940Y-78386118D01*
X172251095Y-78315688D01*
X172269500Y-78199486D01*
X172269500Y-78010513D01*
X172239940Y-77823881D01*
X172181545Y-77644163D01*
X172095759Y-77475800D01*
X171984690Y-77322927D01*
X171851073Y-77189310D01*
X171698199Y-77078240D01*
X171529836Y-76992454D01*
X171455472Y-76968291D01*
X171408195Y-76952930D01*
X171350521Y-76913493D01*
X171323323Y-76849134D01*
X171335238Y-76780288D01*
X171382482Y-76728812D01*
X171408194Y-76717069D01*
X171529832Y-76677547D01*
X171698199Y-76591760D01*
X171851073Y-76480690D01*
X171984690Y-76347073D01*
X172095760Y-76194199D01*
X172181547Y-76025832D01*
X172239940Y-75846118D01*
X172256426Y-75742031D01*
X172269500Y-75659486D01*
X172269500Y-75470513D01*
X172239940Y-75283881D01*
X172212846Y-75200497D01*
X172181547Y-75104168D01*
X172181545Y-75104165D01*
X172181545Y-75104163D01*
X172136290Y-75015347D01*
X172095760Y-74935801D01*
X171984690Y-74782927D01*
X171851073Y-74649310D01*
X171698199Y-74538240D01*
X171692821Y-74535500D01*
X171529836Y-74452454D01*
X171350118Y-74394059D01*
X171163486Y-74364500D01*
X171163481Y-74364500D01*
X170974519Y-74364500D01*
X170974514Y-74364500D01*
X170787881Y-74394059D01*
X170608163Y-74452454D01*
X170439800Y-74538240D01*
X170362992Y-74594045D01*
X170286927Y-74649310D01*
X170286925Y-74649312D01*
X170286924Y-74649312D01*
X170153312Y-74782924D01*
X170153312Y-74782925D01*
X170153310Y-74782927D01*
X170105610Y-74848579D01*
X170042240Y-74935800D01*
X169956454Y-75104163D01*
X169898059Y-75283881D01*
X169868500Y-75470513D01*
X153966943Y-75470513D01*
X153961815Y-75458132D01*
X153937861Y-75400301D01*
X153937854Y-75400288D01*
X153842046Y-75256902D01*
X153842045Y-75256901D01*
X153720099Y-75134955D01*
X153530324Y-74945180D01*
X153496839Y-74883857D01*
X153501823Y-74814165D01*
X153543695Y-74758232D01*
X153609159Y-74733815D01*
X153617985Y-74733499D01*
X154185008Y-74733499D01*
X154185016Y-74733498D01*
X154185019Y-74733498D01*
X154258908Y-74725950D01*
X154287797Y-74722999D01*
X154454334Y-74667814D01*
X154603656Y-74575712D01*
X154607549Y-74571819D01*
X154668872Y-74538334D01*
X154695230Y-74535500D01*
X156296231Y-74535500D01*
X156296232Y-74535499D01*
X156465374Y-74501855D01*
X156624705Y-74435858D01*
X156768099Y-74340045D01*
X156890045Y-74218099D01*
X156985858Y-74074705D01*
X157051855Y-73915374D01*
X157085500Y-73746229D01*
X157085500Y-73573771D01*
X157085500Y-73573768D01*
X157085499Y-73573766D01*
X157058834Y-73439711D01*
X157051855Y-73404626D01*
X157017769Y-73322334D01*
X156985861Y-73245301D01*
X156985854Y-73245288D01*
X156890045Y-73101901D01*
X156890042Y-73101897D01*
X156768102Y-72979957D01*
X156768098Y-72979954D01*
X156624711Y-72884145D01*
X156624698Y-72884138D01*
X156465378Y-72818146D01*
X156465366Y-72818143D01*
X156296232Y-72784500D01*
X156296229Y-72784500D01*
X155665229Y-72784500D01*
X154901872Y-72784500D01*
X154834833Y-72764815D01*
X154796333Y-72725597D01*
X154785000Y-72707223D01*
X154727712Y-72614344D01*
X154603656Y-72490288D01*
X154454334Y-72398186D01*
X154287797Y-72343001D01*
X154287795Y-72343000D01*
X154185010Y-72332500D01*
X153384998Y-72332500D01*
X153384980Y-72332501D01*
X153282203Y-72343000D01*
X153282200Y-72343001D01*
X153115668Y-72398185D01*
X153115663Y-72398187D01*
X152966342Y-72490289D01*
X152872681Y-72583951D01*
X152811358Y-72617436D01*
X152741666Y-72612452D01*
X152697319Y-72583951D01*
X152603657Y-72490289D01*
X152603656Y-72490288D01*
X152454334Y-72398186D01*
X152287797Y-72343001D01*
X152287795Y-72343000D01*
X152185010Y-72332500D01*
X151384998Y-72332500D01*
X151384980Y-72332501D01*
X151282203Y-72343000D01*
X151282200Y-72343001D01*
X151115668Y-72398185D01*
X151115663Y-72398187D01*
X150966342Y-72490289D01*
X150842289Y-72614342D01*
X150750187Y-72763663D01*
X150750186Y-72763666D01*
X150695001Y-72930203D01*
X150695001Y-72930204D01*
X150695000Y-72930204D01*
X150684500Y-73032983D01*
X150684500Y-74033001D01*
X150684501Y-74033019D01*
X150695000Y-74135796D01*
X150695002Y-74135801D01*
X150698214Y-74145494D01*
X150700617Y-74215322D01*
X150664887Y-74275365D01*
X150602367Y-74306558D01*
X150580509Y-74308500D01*
X149897862Y-74308500D01*
X149830823Y-74288815D01*
X149785068Y-74236011D01*
X149775996Y-74172917D01*
X149774603Y-74172808D01*
X149775295Y-74164000D01*
X146830705Y-74164000D01*
X146830704Y-74164001D01*
X146830899Y-74166486D01*
X146876718Y-74324198D01*
X146960314Y-74465552D01*
X146965100Y-74471722D01*
X146962640Y-74473629D01*
X146989210Y-74522288D01*
X146984226Y-74591980D01*
X146963162Y-74624781D01*
X146964699Y-74625974D01*
X146959915Y-74632140D01*
X146876255Y-74773603D01*
X146876254Y-74773606D01*
X146830402Y-74931426D01*
X146830401Y-74931432D01*
X146827500Y-74968298D01*
X146827500Y-75399701D01*
X146830401Y-75436567D01*
X146830402Y-75436573D01*
X146876255Y-75594397D01*
X146878993Y-75600725D01*
X146887549Y-75670069D01*
X146861045Y-75728627D01*
X146836218Y-75758880D01*
X146836213Y-75758887D01*
X146809420Y-75798985D01*
X146809417Y-75798991D01*
X146762705Y-75886385D01*
X146762701Y-75886395D01*
X146744198Y-75931067D01*
X146744193Y-75931082D01*
X146715419Y-76025958D01*
X146715418Y-76025964D01*
X146714261Y-76031784D01*
X146714261Y-76031785D01*
X146703594Y-76085407D01*
X146696317Y-76134467D01*
X146696316Y-76134474D01*
X146693935Y-76158644D01*
X146693935Y-76158653D01*
X146693935Y-76158654D01*
X146691500Y-76208210D01*
X146691500Y-76208223D01*
X146691500Y-77785224D01*
X146671815Y-77852263D01*
X146619011Y-77898018D01*
X146549853Y-77907962D01*
X146528497Y-77902930D01*
X146526653Y-77902319D01*
X146425654Y-77892000D01*
X146326500Y-77892000D01*
X145826500Y-77892000D01*
X145826500Y-77891999D01*
X145727360Y-77892000D01*
X145727344Y-77892001D01*
X145626347Y-77902319D01*
X145462699Y-77956546D01*
X145462688Y-77956551D01*
X145315965Y-78047052D01*
X145315961Y-78047055D01*
X145194055Y-78168961D01*
X145194052Y-78168965D01*
X145103551Y-78315688D01*
X145103546Y-78315699D01*
X145049319Y-78479347D01*
X145039000Y-78580345D01*
X136652000Y-78580345D01*
X136652000Y-65744421D01*
X136067650Y-64391986D01*
X138373001Y-64391986D01*
X138383494Y-64494697D01*
X138438641Y-64661119D01*
X138438643Y-64661124D01*
X138530684Y-64810345D01*
X138654654Y-64934315D01*
X138803875Y-65026356D01*
X138803880Y-65026358D01*
X138970302Y-65081505D01*
X138970309Y-65081506D01*
X139073019Y-65091999D01*
X139322999Y-65091999D01*
X139323000Y-65091998D01*
X139323000Y-64242000D01*
X138373001Y-64242000D01*
X138373001Y-64391986D01*
X136067650Y-64391986D01*
X136001903Y-64239820D01*
X135572501Y-63246002D01*
X135572500Y-63246000D01*
X132966341Y-60793144D01*
X132960404Y-60787163D01*
X132784269Y-60597227D01*
X132773681Y-60584127D01*
X132627339Y-60375530D01*
X132618635Y-60361135D01*
X132501909Y-60134618D01*
X132495230Y-60119160D01*
X132479778Y-60075459D01*
X132410285Y-59878926D01*
X132405766Y-59862716D01*
X132354161Y-59613173D01*
X132351881Y-59596502D01*
X132334286Y-59338054D01*
X132334000Y-59329632D01*
X132334000Y-57340501D01*
X132333999Y-57340497D01*
X132201361Y-57094910D01*
X132171731Y-57040049D01*
X135706000Y-57040049D01*
X135706000Y-57262950D01*
X135706001Y-57262966D01*
X135735094Y-57483952D01*
X135735095Y-57483957D01*
X135735096Y-57483963D01*
X135735400Y-57485096D01*
X135792790Y-57699280D01*
X135792793Y-57699290D01*
X135844657Y-57824500D01*
X135878095Y-57905226D01*
X135989552Y-58098274D01*
X135989557Y-58098280D01*
X135989558Y-58098282D01*
X136125251Y-58275122D01*
X136125257Y-58275129D01*
X136282870Y-58432742D01*
X136282877Y-58432748D01*
X136459724Y-58568447D01*
X136459726Y-58568448D01*
X136476498Y-58578131D01*
X136484782Y-58586818D01*
X136495703Y-58591806D01*
X136508446Y-58611635D01*
X136524714Y-58628695D01*
X136527930Y-58641953D01*
X136533477Y-58650584D01*
X136538500Y-58685519D01*
X136538500Y-58923132D01*
X136518815Y-58990171D01*
X136499616Y-59011346D01*
X136500451Y-59012181D01*
X136371289Y-59141342D01*
X136279187Y-59290663D01*
X136279185Y-59290668D01*
X136269527Y-59319814D01*
X136224001Y-59457203D01*
X136224001Y-59457204D01*
X136224000Y-59457204D01*
X136213500Y-59559983D01*
X136213500Y-60360001D01*
X136213501Y-60360019D01*
X136224000Y-60462796D01*
X136224001Y-60462799D01*
X136279185Y-60629331D01*
X136279187Y-60629336D01*
X136371289Y-60778657D01*
X136464951Y-60872319D01*
X136498436Y-60933642D01*
X136493452Y-61003334D01*
X136464951Y-61047681D01*
X136371289Y-61141342D01*
X136279187Y-61290663D01*
X136279185Y-61290668D01*
X136272131Y-61311957D01*
X136224001Y-61457203D01*
X136224001Y-61457204D01*
X136224000Y-61457204D01*
X136213500Y-61559983D01*
X136213500Y-62360001D01*
X136213501Y-62360019D01*
X136224000Y-62462796D01*
X136224001Y-62462799D01*
X136279185Y-62629331D01*
X136279186Y-62629334D01*
X136371288Y-62778656D01*
X136495344Y-62902712D01*
X136644666Y-62994814D01*
X136811203Y-63049999D01*
X136913991Y-63060500D01*
X137914008Y-63060499D01*
X137914016Y-63060498D01*
X137914019Y-63060498D01*
X137970302Y-63054748D01*
X138016797Y-63049999D01*
X138183334Y-62994814D01*
X138332656Y-62902712D01*
X138332662Y-62902705D01*
X138338319Y-62898234D01*
X138339361Y-62899552D01*
X138358476Y-62889115D01*
X138384295Y-62872523D01*
X138390495Y-62871631D01*
X138392872Y-62870334D01*
X138419230Y-62867500D01*
X138535770Y-62867500D01*
X138602809Y-62887185D01*
X138623451Y-62903819D01*
X138624304Y-62904672D01*
X138635110Y-62924463D01*
X138648564Y-62939989D01*
X138650342Y-62952357D01*
X138657789Y-62965995D01*
X138655966Y-62991474D01*
X138658508Y-63009147D01*
X138653996Y-63019025D01*
X138652805Y-63035687D01*
X138630628Y-63070193D01*
X138629483Y-63072703D01*
X138628687Y-63073213D01*
X138624305Y-63080034D01*
X138530682Y-63173657D01*
X138438643Y-63322875D01*
X138438641Y-63322880D01*
X138383494Y-63489302D01*
X138383493Y-63489309D01*
X138373000Y-63592013D01*
X138373000Y-63742000D01*
X139449000Y-63742000D01*
X139516039Y-63761685D01*
X139561794Y-63814489D01*
X139573000Y-63866000D01*
X139573000Y-63992000D01*
X139699000Y-63992000D01*
X139766039Y-64011685D01*
X139811794Y-64064489D01*
X139823000Y-64116000D01*
X139823000Y-65091999D01*
X140072972Y-65091999D01*
X140072986Y-65091998D01*
X140175697Y-65081505D01*
X140316496Y-65034849D01*
X140386324Y-65032447D01*
X140446366Y-65068179D01*
X140477559Y-65130699D01*
X140479500Y-65152555D01*
X140479500Y-68927994D01*
X140459815Y-68995033D01*
X140443181Y-69015675D01*
X139272901Y-70185955D01*
X139237692Y-70221164D01*
X139150953Y-70307902D01*
X139055145Y-70451288D01*
X139055138Y-70451301D01*
X138989146Y-70610621D01*
X138989143Y-70610633D01*
X138955500Y-70779766D01*
X138955500Y-75524233D01*
X138989143Y-75693366D01*
X138989146Y-75693378D01*
X139055138Y-75852698D01*
X139055145Y-75852711D01*
X139150954Y-75996098D01*
X139150957Y-75996102D01*
X140166955Y-77012099D01*
X140233096Y-77078240D01*
X140288902Y-77134046D01*
X140432288Y-77229854D01*
X140432301Y-77229861D01*
X140591621Y-77295853D01*
X140591626Y-77295855D01*
X140760766Y-77329499D01*
X140760769Y-77329500D01*
X140760771Y-77329500D01*
X143439231Y-77329500D01*
X143439232Y-77329499D01*
X143608374Y-77295855D01*
X143685426Y-77263938D01*
X143732879Y-77254500D01*
X144243686Y-77254500D01*
X144243694Y-77254500D01*
X144280569Y-77251598D01*
X144280571Y-77251597D01*
X144280573Y-77251597D01*
X144337358Y-77235099D01*
X144438398Y-77205744D01*
X144579865Y-77122081D01*
X144696081Y-77005865D01*
X144779744Y-76864398D01*
X144819136Y-76728812D01*
X144825597Y-76706573D01*
X144825598Y-76706567D01*
X144828499Y-76669701D01*
X144828500Y-76669694D01*
X144828500Y-76238306D01*
X144825598Y-76201431D01*
X144816566Y-76170344D01*
X144779745Y-76043606D01*
X144779744Y-76043603D01*
X144779744Y-76043602D01*
X144696081Y-75902135D01*
X144696078Y-75902132D01*
X144691298Y-75895969D01*
X144693750Y-75894066D01*
X144667155Y-75845421D01*
X144672104Y-75775726D01*
X144692940Y-75743304D01*
X144691298Y-75742031D01*
X144696075Y-75735870D01*
X144696081Y-75735865D01*
X144779744Y-75594398D01*
X144825598Y-75436569D01*
X144828500Y-75399694D01*
X144828500Y-74968306D01*
X144825598Y-74931431D01*
X144819614Y-74910834D01*
X144819813Y-74840964D01*
X144857755Y-74782294D01*
X144902697Y-74757577D01*
X144908370Y-74755855D01*
X144908374Y-74755855D01*
X145067705Y-74689858D01*
X145211099Y-74594045D01*
X146222045Y-73583099D01*
X146317858Y-73439705D01*
X146383855Y-73280374D01*
X146417500Y-73111229D01*
X146417500Y-72938771D01*
X146417500Y-72894001D01*
X146830704Y-72894001D01*
X146830899Y-72896486D01*
X146876718Y-73054198D01*
X146960314Y-73195552D01*
X146965100Y-73201722D01*
X146962753Y-73203542D01*
X146989564Y-73252642D01*
X146984580Y-73322334D01*
X146963541Y-73355069D01*
X146965100Y-73356278D01*
X146960314Y-73362447D01*
X146876718Y-73503801D01*
X146830899Y-73661513D01*
X146830704Y-73663998D01*
X146830705Y-73664000D01*
X148053000Y-73664000D01*
X148553000Y-73664000D01*
X149775295Y-73664000D01*
X149775295Y-73663998D01*
X149775100Y-73661513D01*
X149729281Y-73503801D01*
X149645685Y-73362447D01*
X149640900Y-73356278D01*
X149643252Y-73354453D01*
X149616445Y-73305405D01*
X149621402Y-73235712D01*
X149642465Y-73202936D01*
X149640900Y-73201722D01*
X149645685Y-73195552D01*
X149729281Y-73054198D01*
X149775100Y-72896486D01*
X149775295Y-72894001D01*
X149775295Y-72894000D01*
X148553000Y-72894000D01*
X148553000Y-73664000D01*
X148053000Y-73664000D01*
X148053000Y-72894000D01*
X146830705Y-72894000D01*
X146830704Y-72894001D01*
X146417500Y-72894001D01*
X146417500Y-72393998D01*
X146830704Y-72393998D01*
X146830705Y-72394000D01*
X148053000Y-72394000D01*
X148553000Y-72394000D01*
X149775295Y-72394000D01*
X149775295Y-72393998D01*
X149775100Y-72391513D01*
X149729281Y-72233801D01*
X149645685Y-72092447D01*
X149645678Y-72092438D01*
X149529561Y-71976321D01*
X149529552Y-71976314D01*
X149388196Y-71892717D01*
X149388193Y-71892716D01*
X149230495Y-71846900D01*
X149230489Y-71846899D01*
X149193649Y-71844000D01*
X148553000Y-71844000D01*
X148553000Y-72394000D01*
X148053000Y-72394000D01*
X148053000Y-71844000D01*
X147412350Y-71844000D01*
X147375510Y-71846899D01*
X147375504Y-71846900D01*
X147217806Y-71892716D01*
X147217803Y-71892717D01*
X147076447Y-71976314D01*
X147076438Y-71976321D01*
X146960321Y-72092438D01*
X146960314Y-72092447D01*
X146876718Y-72233801D01*
X146830899Y-72391513D01*
X146830704Y-72393998D01*
X146417500Y-72393998D01*
X146417500Y-70518006D01*
X146437185Y-70450967D01*
X146453814Y-70430329D01*
X146603045Y-70281099D01*
X146698858Y-70137705D01*
X146764855Y-69978374D01*
X146798500Y-69809229D01*
X146798500Y-69636771D01*
X146798500Y-67567771D01*
X146798500Y-67567768D01*
X146773134Y-67440248D01*
X146769013Y-67419528D01*
X176961500Y-67419528D01*
X176961500Y-67728471D01*
X176996086Y-68035437D01*
X176996089Y-68035455D01*
X177064831Y-68336635D01*
X177064835Y-68336647D01*
X177166862Y-68628222D01*
X177166868Y-68628236D01*
X177300903Y-68906562D01*
X177300905Y-68906565D01*
X177465265Y-69168143D01*
X177533452Y-69253646D01*
X177641410Y-69389022D01*
X177657880Y-69409674D01*
X177876326Y-69628120D01*
X178117857Y-69820735D01*
X178379435Y-69985095D01*
X178657771Y-70119135D01*
X178657777Y-70119137D01*
X178949352Y-70221164D01*
X178949364Y-70221168D01*
X179250548Y-70289911D01*
X179250554Y-70289911D01*
X179250562Y-70289913D01*
X179455206Y-70312970D01*
X179557529Y-70324499D01*
X179557532Y-70324500D01*
X179557535Y-70324500D01*
X179866468Y-70324500D01*
X179866469Y-70324499D01*
X180023356Y-70306822D01*
X180173437Y-70289913D01*
X180173442Y-70289912D01*
X180173452Y-70289911D01*
X180474636Y-70221168D01*
X180766229Y-70119135D01*
X181044565Y-69985095D01*
X181306143Y-69820735D01*
X181547674Y-69628120D01*
X181766120Y-69409674D01*
X181958735Y-69168143D01*
X182123095Y-68906565D01*
X182257135Y-68628229D01*
X182359168Y-68336636D01*
X182427911Y-68035452D01*
X182436377Y-67960319D01*
X182462499Y-67728471D01*
X182462500Y-67728467D01*
X182462500Y-67419532D01*
X182462499Y-67419528D01*
X182460143Y-67398621D01*
X182427911Y-67112548D01*
X182359168Y-66811364D01*
X182347668Y-66778500D01*
X182257137Y-66519777D01*
X182257135Y-66519771D01*
X182123095Y-66241435D01*
X181958735Y-65979857D01*
X181766120Y-65738326D01*
X181547674Y-65519880D01*
X181306143Y-65327265D01*
X181125485Y-65213750D01*
X181044562Y-65162903D01*
X180766236Y-65028868D01*
X180766222Y-65028862D01*
X180474647Y-64926835D01*
X180474635Y-64926831D01*
X180173455Y-64858089D01*
X180173437Y-64858086D01*
X179866471Y-64823500D01*
X179866465Y-64823500D01*
X179557535Y-64823500D01*
X179557528Y-64823500D01*
X179250562Y-64858086D01*
X179250544Y-64858089D01*
X178949364Y-64926831D01*
X178949352Y-64926835D01*
X178657777Y-65028862D01*
X178657763Y-65028868D01*
X178379437Y-65162903D01*
X178117858Y-65327264D01*
X177876326Y-65519879D01*
X177657879Y-65738326D01*
X177465264Y-65979858D01*
X177300903Y-66241437D01*
X177166868Y-66519763D01*
X177166862Y-66519777D01*
X177064835Y-66811352D01*
X177064831Y-66811364D01*
X176996089Y-67112544D01*
X176996086Y-67112562D01*
X176961500Y-67419528D01*
X146769013Y-67419528D01*
X146764855Y-67398626D01*
X146725681Y-67304051D01*
X146698861Y-67239301D01*
X146698854Y-67239288D01*
X146603045Y-67095901D01*
X146603042Y-67095897D01*
X146481102Y-66973957D01*
X146481098Y-66973954D01*
X146337711Y-66878145D01*
X146337698Y-66878138D01*
X146178378Y-66812146D01*
X146178366Y-66812143D01*
X146009232Y-66778500D01*
X146009229Y-66778500D01*
X145836771Y-66778500D01*
X145836768Y-66778500D01*
X145667633Y-66812143D01*
X145667621Y-66812146D01*
X145508301Y-66878138D01*
X145508288Y-66878145D01*
X145364901Y-66973954D01*
X145364897Y-66973957D01*
X145242957Y-67095897D01*
X145242954Y-67095901D01*
X145147145Y-67239288D01*
X145147138Y-67239301D01*
X145081146Y-67398621D01*
X145081143Y-67398633D01*
X145047500Y-67567766D01*
X145047500Y-69308994D01*
X145038854Y-69338438D01*
X145032331Y-69368422D01*
X145028577Y-69373436D01*
X145027815Y-69376033D01*
X145011184Y-69396671D01*
X144983901Y-69423955D01*
X144943260Y-69464595D01*
X144905245Y-69485352D01*
X144881937Y-69498079D01*
X144881936Y-69498078D01*
X144881936Y-69498079D01*
X144812245Y-69493093D01*
X144798132Y-69486725D01*
X144798117Y-69486757D01*
X144797371Y-69486381D01*
X144797139Y-69486277D01*
X144796753Y-69486070D01*
X144796735Y-69486061D01*
X144751922Y-69464865D01*
X144751919Y-69464864D01*
X144729473Y-69455565D01*
X144698315Y-69444415D01*
X144682739Y-69438842D01*
X144586582Y-69409673D01*
X144518504Y-69389022D01*
X144491022Y-69382139D01*
X144470373Y-69376967D01*
X144470348Y-69376962D01*
X144461807Y-69375263D01*
X144399897Y-69342877D01*
X144365323Y-69282161D01*
X144362000Y-69253646D01*
X144362000Y-69237500D01*
X143511000Y-69237500D01*
X143443961Y-69217815D01*
X143398206Y-69165011D01*
X143387000Y-69113500D01*
X143387000Y-68987500D01*
X143261000Y-68987500D01*
X143193961Y-68967815D01*
X143148206Y-68915011D01*
X143137000Y-68863500D01*
X143137000Y-68737500D01*
X143637000Y-68737500D01*
X144361999Y-68737500D01*
X144361999Y-68638360D01*
X144361998Y-68638345D01*
X144351680Y-68537347D01*
X144297453Y-68373699D01*
X144297448Y-68373688D01*
X144206947Y-68226965D01*
X144206944Y-68226961D01*
X144085038Y-68105055D01*
X144085034Y-68105052D01*
X143938311Y-68014551D01*
X143938300Y-68014546D01*
X143774652Y-67960319D01*
X143673654Y-67950000D01*
X143637000Y-67950000D01*
X143637000Y-68737500D01*
X143137000Y-68737500D01*
X143137000Y-67950000D01*
X143100361Y-67950000D01*
X143100343Y-67950001D01*
X142999347Y-67960319D01*
X142835699Y-68014546D01*
X142835688Y-68014551D01*
X142688965Y-68105052D01*
X142688961Y-68105055D01*
X142567055Y-68226961D01*
X142567052Y-68226965D01*
X142476551Y-68373688D01*
X142476547Y-68373697D01*
X142472206Y-68386799D01*
X142432432Y-68444244D01*
X142367916Y-68471066D01*
X142299141Y-68458750D01*
X142247941Y-68411207D01*
X142230500Y-68347794D01*
X142230500Y-62987768D01*
X142230499Y-62987766D01*
X142223456Y-62952357D01*
X142196855Y-62818626D01*
X142150932Y-62707757D01*
X142130861Y-62659301D01*
X142130854Y-62659288D01*
X142035046Y-62515902D01*
X141981940Y-62462796D01*
X141913099Y-62393955D01*
X141386700Y-61867556D01*
X140831102Y-61311957D01*
X140831094Y-61311951D01*
X140687709Y-61216144D01*
X140687706Y-61216142D01*
X140687705Y-61216142D01*
X140660646Y-61204933D01*
X140620423Y-61178055D01*
X140491657Y-61049289D01*
X140491656Y-61049288D01*
X140370405Y-60974500D01*
X140342336Y-60957187D01*
X140342331Y-60957185D01*
X140294230Y-60941246D01*
X140175797Y-60902001D01*
X140175795Y-60902000D01*
X140073010Y-60891500D01*
X139072998Y-60891500D01*
X139072980Y-60891501D01*
X138970203Y-60902000D01*
X138970200Y-60902001D01*
X138803668Y-60957185D01*
X138803663Y-60957187D01*
X138654342Y-61049289D01*
X138623451Y-61080181D01*
X138596523Y-61094884D01*
X138570705Y-61111477D01*
X138564504Y-61112368D01*
X138562128Y-61113666D01*
X138535770Y-61116500D01*
X138483230Y-61116500D01*
X138416191Y-61096815D01*
X138395549Y-61080181D01*
X138363049Y-61047681D01*
X138329564Y-60986358D01*
X138334548Y-60916666D01*
X138363049Y-60872319D01*
X138398630Y-60836738D01*
X138456712Y-60778656D01*
X138548814Y-60629334D01*
X138603999Y-60462797D01*
X138614500Y-60360009D01*
X138614499Y-59559992D01*
X138610971Y-59525459D01*
X138603999Y-59457203D01*
X138603998Y-59457200D01*
X138591837Y-59420501D01*
X138548814Y-59290666D01*
X138456712Y-59141344D01*
X138332656Y-59017288D01*
X138327549Y-59012181D01*
X138328614Y-59011115D01*
X138314851Y-58989699D01*
X138296212Y-58963375D01*
X138295608Y-58959755D01*
X138294523Y-58958067D01*
X138289500Y-58923132D01*
X138289500Y-58676858D01*
X138309185Y-58609819D01*
X138350028Y-58570877D01*
X138349908Y-58570697D01*
X138350943Y-58570005D01*
X138351506Y-58569468D01*
X138353274Y-58568448D01*
X138530124Y-58432747D01*
X138687747Y-58275124D01*
X138823448Y-58098274D01*
X138934905Y-57905226D01*
X139020210Y-57699281D01*
X139077904Y-57483963D01*
X139107000Y-57262957D01*
X139107000Y-57040049D01*
X145866000Y-57040049D01*
X145866000Y-57262950D01*
X145866001Y-57262966D01*
X145895094Y-57483952D01*
X145895095Y-57483957D01*
X145895096Y-57483963D01*
X145895400Y-57485096D01*
X145952790Y-57699280D01*
X145952793Y-57699290D01*
X146004657Y-57824500D01*
X146038095Y-57905226D01*
X146149552Y-58098274D01*
X146149557Y-58098280D01*
X146149558Y-58098282D01*
X146285251Y-58275122D01*
X146285257Y-58275129D01*
X146442870Y-58432742D01*
X146442877Y-58432748D01*
X146490058Y-58468951D01*
X146619726Y-58568448D01*
X146812774Y-58679905D01*
X146942640Y-58733697D01*
X146968015Y-58744208D01*
X147018719Y-58765210D01*
X147234037Y-58822904D01*
X147455043Y-58852000D01*
X147455050Y-58852000D01*
X147677950Y-58852000D01*
X147677957Y-58852000D01*
X147898963Y-58822904D01*
X148114281Y-58765210D01*
X148320226Y-58679905D01*
X148513274Y-58568448D01*
X148690124Y-58432747D01*
X148847747Y-58275124D01*
X148904997Y-58200513D01*
X148961424Y-58159311D01*
X149003373Y-58152000D01*
X161968718Y-58152000D01*
X162035757Y-58171685D01*
X162056399Y-58188319D01*
X167044215Y-63176137D01*
X167044219Y-63176140D01*
X167208079Y-63285628D01*
X167208085Y-63285631D01*
X167208086Y-63285632D01*
X167390165Y-63361052D01*
X167551389Y-63393121D01*
X167583457Y-63399499D01*
X167583458Y-63399500D01*
X167583459Y-63399500D01*
X167583460Y-63399500D01*
X167780541Y-63399500D01*
X177301800Y-63399500D01*
X177368839Y-63419185D01*
X177381365Y-63428493D01*
X177554179Y-63554048D01*
X177554181Y-63554049D01*
X177554184Y-63554051D01*
X177743588Y-63650557D01*
X177945757Y-63716246D01*
X178155713Y-63749500D01*
X178155714Y-63749500D01*
X178160525Y-63750262D01*
X178160357Y-63751320D01*
X178220829Y-63774363D01*
X178233504Y-63785425D01*
X178249215Y-63801137D01*
X178249217Y-63801139D01*
X178346289Y-63866000D01*
X178413086Y-63910632D01*
X178519745Y-63954811D01*
X178595164Y-63986051D01*
X178788454Y-64024499D01*
X178788457Y-64024500D01*
X178788459Y-64024500D01*
X179251800Y-64024500D01*
X179318839Y-64044185D01*
X179331365Y-64053493D01*
X179504179Y-64179048D01*
X179504181Y-64179049D01*
X179504184Y-64179051D01*
X179693588Y-64275557D01*
X179895757Y-64341246D01*
X180105713Y-64374500D01*
X180105714Y-64374500D01*
X180318286Y-64374500D01*
X180318287Y-64374500D01*
X180528243Y-64341246D01*
X180730412Y-64275557D01*
X180919816Y-64179051D01*
X181006599Y-64116000D01*
X181091786Y-64054109D01*
X181091788Y-64054106D01*
X181091792Y-64054104D01*
X181242104Y-63903792D01*
X181242106Y-63903788D01*
X181242109Y-63903786D01*
X181367048Y-63731820D01*
X181367047Y-63731820D01*
X181367051Y-63731816D01*
X181463557Y-63542412D01*
X181529246Y-63340243D01*
X181562500Y-63130287D01*
X181562500Y-62917713D01*
X181529246Y-62707757D01*
X181463557Y-62505588D01*
X181367051Y-62316184D01*
X181367049Y-62316181D01*
X181367048Y-62316179D01*
X181242109Y-62144213D01*
X181091786Y-61993890D01*
X180919820Y-61868951D01*
X180730414Y-61772444D01*
X180730413Y-61772443D01*
X180730412Y-61772443D01*
X180528243Y-61706754D01*
X180528241Y-61706753D01*
X180528240Y-61706753D01*
X180366957Y-61681208D01*
X180318287Y-61673500D01*
X180105713Y-61673500D01*
X180057042Y-61681208D01*
X179895760Y-61706753D01*
X179693582Y-61772445D01*
X179617401Y-61811261D01*
X179548732Y-61824157D01*
X179483992Y-61797880D01*
X179450622Y-61757071D01*
X179424984Y-61706754D01*
X179417051Y-61691184D01*
X179417049Y-61691181D01*
X179417048Y-61691179D01*
X179292109Y-61519213D01*
X179184577Y-61411681D01*
X179151092Y-61350358D01*
X179156076Y-61280666D01*
X179184577Y-61236319D01*
X179231935Y-61188961D01*
X179292104Y-61128792D01*
X179292106Y-61128788D01*
X179292109Y-61128786D01*
X179383254Y-61003334D01*
X179417051Y-60956816D01*
X179450622Y-60890926D01*
X179498594Y-60840133D01*
X179566415Y-60823337D01*
X179617401Y-60836738D01*
X179650820Y-60853765D01*
X179693588Y-60875557D01*
X179895757Y-60941246D01*
X180105713Y-60974500D01*
X180105714Y-60974500D01*
X180318286Y-60974500D01*
X180318287Y-60974500D01*
X180528243Y-60941246D01*
X180730412Y-60875557D01*
X180919816Y-60779051D01*
X181052890Y-60682368D01*
X181091786Y-60654109D01*
X181091788Y-60654106D01*
X181091792Y-60654104D01*
X181242104Y-60503792D01*
X181242106Y-60503788D01*
X181242109Y-60503786D01*
X181367048Y-60331820D01*
X181367047Y-60331820D01*
X181367051Y-60331816D01*
X181463557Y-60142412D01*
X181529246Y-59940243D01*
X181562500Y-59730287D01*
X181562500Y-59517713D01*
X181529246Y-59307757D01*
X181463557Y-59105588D01*
X181367051Y-58916184D01*
X181367049Y-58916181D01*
X181367048Y-58916179D01*
X181242109Y-58744213D01*
X181091786Y-58593890D01*
X180919820Y-58468951D01*
X180730414Y-58372444D01*
X180730413Y-58372443D01*
X180730412Y-58372443D01*
X180528243Y-58306754D01*
X180528241Y-58306753D01*
X180528240Y-58306753D01*
X180361544Y-58280351D01*
X180318287Y-58273500D01*
X180318286Y-58273500D01*
X180313475Y-58272738D01*
X180313641Y-58271683D01*
X180253151Y-58248622D01*
X180240496Y-58237576D01*
X180013445Y-58010525D01*
X179979960Y-57949202D01*
X179984944Y-57879510D01*
X180026816Y-57823577D01*
X180087243Y-57799624D01*
X180137276Y-57793986D01*
X180173436Y-57789913D01*
X180173440Y-57789912D01*
X180173452Y-57789911D01*
X180474636Y-57721168D01*
X180766229Y-57619135D01*
X181044565Y-57485095D01*
X181306143Y-57320735D01*
X181547674Y-57128120D01*
X181766120Y-56909674D01*
X181958735Y-56668143D01*
X182123095Y-56406565D01*
X182257135Y-56128229D01*
X182359168Y-55836636D01*
X182427911Y-55535452D01*
X182434149Y-55480094D01*
X182462499Y-55228471D01*
X182462500Y-55228467D01*
X182462500Y-54919532D01*
X182462499Y-54919528D01*
X182427913Y-54612562D01*
X182427910Y-54612544D01*
X182359168Y-54311364D01*
X182359164Y-54311352D01*
X182257137Y-54019777D01*
X182257135Y-54019771D01*
X182123095Y-53741435D01*
X181958735Y-53479857D01*
X181766120Y-53238326D01*
X181547674Y-53019880D01*
X181306143Y-52827265D01*
X181044565Y-52662905D01*
X181044562Y-52662903D01*
X180766236Y-52528868D01*
X180766222Y-52528862D01*
X180474647Y-52426835D01*
X180474635Y-52426831D01*
X180173455Y-52358089D01*
X180173437Y-52358086D01*
X179866471Y-52323500D01*
X179866465Y-52323500D01*
X179557535Y-52323500D01*
X179557528Y-52323500D01*
X179250562Y-52358086D01*
X179250544Y-52358089D01*
X178949364Y-52426831D01*
X178949352Y-52426835D01*
X178657777Y-52528862D01*
X178657763Y-52528868D01*
X178379437Y-52662903D01*
X178117858Y-52827264D01*
X177876326Y-53019879D01*
X177657879Y-53238326D01*
X177465264Y-53479858D01*
X177300903Y-53741437D01*
X177166868Y-54019763D01*
X177166862Y-54019777D01*
X177064835Y-54311352D01*
X177064831Y-54311364D01*
X176996089Y-54612544D01*
X176996086Y-54612562D01*
X176961500Y-54919528D01*
X176961500Y-55228471D01*
X176996086Y-55535437D01*
X176996089Y-55535455D01*
X177064831Y-55836635D01*
X177064835Y-55836647D01*
X177166862Y-56128222D01*
X177166868Y-56128236D01*
X177300903Y-56406562D01*
X177419010Y-56594528D01*
X177438010Y-56661765D01*
X177417642Y-56728600D01*
X177364374Y-56773814D01*
X177314016Y-56784500D01*
X174400301Y-56784500D01*
X174333262Y-56764815D01*
X174287507Y-56712011D01*
X174282598Y-56699512D01*
X174254814Y-56615665D01*
X174162712Y-56466344D01*
X174038656Y-56342288D01*
X173913143Y-56264871D01*
X173889337Y-56250187D01*
X173889332Y-56250185D01*
X173887863Y-56249698D01*
X173722798Y-56195001D01*
X173722796Y-56195000D01*
X173620017Y-56184500D01*
X173620010Y-56184500D01*
X171819990Y-56184500D01*
X171819982Y-56184500D01*
X171717203Y-56195000D01*
X171717202Y-56195001D01*
X171667297Y-56211538D01*
X171550667Y-56250185D01*
X171550662Y-56250187D01*
X171401342Y-56342289D01*
X171277289Y-56466342D01*
X171185187Y-56615662D01*
X171185185Y-56615667D01*
X171167797Y-56668141D01*
X171130001Y-56782202D01*
X171130001Y-56782203D01*
X171130000Y-56782203D01*
X171119500Y-56884982D01*
X171119500Y-58685017D01*
X171130000Y-58787796D01*
X171185185Y-58954332D01*
X171185187Y-58954337D01*
X171249993Y-59059403D01*
X171268433Y-59126796D01*
X171247510Y-59193459D01*
X171193868Y-59238229D01*
X171144454Y-59248500D01*
X170597546Y-59248500D01*
X170530507Y-59228815D01*
X170484752Y-59176011D01*
X170474808Y-59106853D01*
X170492007Y-59059403D01*
X170521649Y-59011346D01*
X170556814Y-58954335D01*
X170611999Y-58787798D01*
X170622500Y-58685010D01*
X170622500Y-56884990D01*
X170611999Y-56782202D01*
X170556814Y-56615665D01*
X170464712Y-56466344D01*
X170340656Y-56342288D01*
X170215143Y-56264871D01*
X170191337Y-56250187D01*
X170191332Y-56250185D01*
X170189863Y-56249698D01*
X170024798Y-56195001D01*
X170024796Y-56195000D01*
X169922017Y-56184500D01*
X169922010Y-56184500D01*
X168121990Y-56184500D01*
X168121982Y-56184500D01*
X168019203Y-56195000D01*
X168019202Y-56195001D01*
X167969297Y-56211538D01*
X167852667Y-56250185D01*
X167852662Y-56250187D01*
X167703342Y-56342289D01*
X167579289Y-56466342D01*
X167487187Y-56615662D01*
X167487185Y-56615667D01*
X167469797Y-56668141D01*
X167432001Y-56782202D01*
X167432001Y-56782203D01*
X167432000Y-56782203D01*
X167421500Y-56884982D01*
X167421500Y-58685017D01*
X167432000Y-58787796D01*
X167474542Y-58916179D01*
X167487186Y-58954335D01*
X167579288Y-59103656D01*
X167703344Y-59227712D01*
X167852665Y-59319814D01*
X167949398Y-59351868D01*
X167959634Y-59358955D01*
X167971752Y-59361819D01*
X167987819Y-59378469D01*
X168006842Y-59391641D01*
X168012795Y-59404354D01*
X168020268Y-59412098D01*
X168032010Y-59445382D01*
X168047939Y-59525459D01*
X168047939Y-59525460D01*
X168059946Y-59585828D01*
X168059949Y-59585837D01*
X168135364Y-59767907D01*
X168135371Y-59767920D01*
X168244860Y-59931781D01*
X168244863Y-59931785D01*
X168388537Y-60075459D01*
X168388559Y-60075479D01*
X169196735Y-60883655D01*
X169196764Y-60883686D01*
X169339214Y-61026136D01*
X169339218Y-61026139D01*
X169503079Y-61135628D01*
X169503088Y-61135633D01*
X169561768Y-61159939D01*
X169616171Y-61203780D01*
X169638236Y-61270074D01*
X169620957Y-61337773D01*
X169569820Y-61385384D01*
X169514315Y-61398500D01*
X168147783Y-61398500D01*
X168080744Y-61378815D01*
X168060102Y-61362181D01*
X163218709Y-56520789D01*
X163218706Y-56520785D01*
X163218706Y-56520786D01*
X163211639Y-56513719D01*
X163211639Y-56513718D01*
X163072282Y-56374361D01*
X163072281Y-56374360D01*
X163072280Y-56374359D01*
X162908420Y-56264871D01*
X162908411Y-56264866D01*
X162786882Y-56214527D01*
X162786879Y-56214526D01*
X162779665Y-56211538D01*
X162726336Y-56189449D01*
X162616011Y-56167504D01*
X162611733Y-56166653D01*
X162611722Y-56166650D01*
X162533043Y-56151000D01*
X162533041Y-56151000D01*
X149003373Y-56151000D01*
X148936334Y-56131315D01*
X148904997Y-56102486D01*
X148847748Y-56027877D01*
X148847742Y-56027870D01*
X148690129Y-55870257D01*
X148690122Y-55870251D01*
X148513282Y-55734558D01*
X148513280Y-55734557D01*
X148513274Y-55734552D01*
X148320226Y-55623095D01*
X148320222Y-55623093D01*
X148114290Y-55537793D01*
X148114283Y-55537791D01*
X148114281Y-55537790D01*
X147898963Y-55480096D01*
X147898957Y-55480095D01*
X147898952Y-55480094D01*
X147677966Y-55451001D01*
X147677963Y-55451000D01*
X147677957Y-55451000D01*
X147455043Y-55451000D01*
X147455037Y-55451000D01*
X147455033Y-55451001D01*
X147234047Y-55480094D01*
X147234040Y-55480095D01*
X147234037Y-55480096D01*
X147027501Y-55535437D01*
X147018719Y-55537790D01*
X147018709Y-55537793D01*
X146812777Y-55623093D01*
X146812773Y-55623095D01*
X146619726Y-55734552D01*
X146619717Y-55734558D01*
X146442877Y-55870251D01*
X146442870Y-55870257D01*
X146285257Y-56027870D01*
X146285251Y-56027877D01*
X146149558Y-56204717D01*
X146149552Y-56204726D01*
X146038095Y-56397773D01*
X146038093Y-56397777D01*
X145952793Y-56603709D01*
X145952790Y-56603719D01*
X145907214Y-56773814D01*
X145895097Y-56819034D01*
X145895094Y-56819047D01*
X145866001Y-57040033D01*
X145866000Y-57040049D01*
X139107000Y-57040049D01*
X139107000Y-57040043D01*
X139094676Y-56946436D01*
X139094645Y-56946188D01*
X139100154Y-56911984D01*
X139105489Y-56877768D01*
X139105717Y-56877443D01*
X139105755Y-56877208D01*
X139106347Y-56876547D01*
X139129979Y-56842939D01*
X147311102Y-48661819D01*
X147372425Y-48628334D01*
X147398783Y-48625500D01*
X167708038Y-48625500D01*
X167775077Y-48645185D01*
X167797349Y-48664623D01*
X167797762Y-48664211D01*
X167979345Y-48845794D01*
X167979350Y-48845798D01*
X168081769Y-48920209D01*
X168183155Y-48993870D01*
X168326184Y-49066747D01*
X168407616Y-49108239D01*
X168407618Y-49108239D01*
X168407621Y-49108241D01*
X168647215Y-49186090D01*
X168896038Y-49225500D01*
X168896039Y-49225500D01*
X169147961Y-49225500D01*
X169147962Y-49225500D01*
X169396785Y-49186090D01*
X169636379Y-49108241D01*
X169860845Y-48993870D01*
X170064656Y-48845793D01*
X170242793Y-48667656D01*
X170390870Y-48463845D01*
X170505241Y-48239379D01*
X170583090Y-47999785D01*
X170622500Y-47750962D01*
X170622500Y-47499038D01*
X171119500Y-47499038D01*
X171119500Y-47750961D01*
X171158910Y-47999785D01*
X171236760Y-48239383D01*
X171351132Y-48463848D01*
X171499201Y-48667649D01*
X171499205Y-48667654D01*
X171677345Y-48845794D01*
X171677350Y-48845798D01*
X171779769Y-48920209D01*
X171881155Y-48993870D01*
X172024184Y-49066747D01*
X172105616Y-49108239D01*
X172105618Y-49108239D01*
X172105621Y-49108241D01*
X172345215Y-49186090D01*
X172594038Y-49225500D01*
X172594039Y-49225500D01*
X172845961Y-49225500D01*
X172845962Y-49225500D01*
X173094785Y-49186090D01*
X173334379Y-49108241D01*
X173558845Y-48993870D01*
X173762656Y-48845793D01*
X173940793Y-48667656D01*
X174088870Y-48463845D01*
X174203241Y-48239379D01*
X174281090Y-47999785D01*
X174320500Y-47750962D01*
X174320500Y-47499038D01*
X174281090Y-47250215D01*
X174203241Y-47010621D01*
X174203239Y-47010618D01*
X174203239Y-47010616D01*
X174132107Y-46871013D01*
X174088870Y-46786155D01*
X173999354Y-46662946D01*
X173940798Y-46582350D01*
X173940794Y-46582345D01*
X173762654Y-46404205D01*
X173762649Y-46404201D01*
X173558848Y-46256132D01*
X173558847Y-46256131D01*
X173558845Y-46256130D01*
X173488747Y-46220413D01*
X173334383Y-46141760D01*
X173094785Y-46063910D01*
X173078199Y-46061283D01*
X172845962Y-46024500D01*
X172594038Y-46024500D01*
X172469626Y-46044205D01*
X172345214Y-46063910D01*
X172105616Y-46141760D01*
X171881151Y-46256132D01*
X171677350Y-46404201D01*
X171677345Y-46404205D01*
X171499205Y-46582345D01*
X171499201Y-46582350D01*
X171351132Y-46786151D01*
X171236760Y-47010616D01*
X171158910Y-47250214D01*
X171119500Y-47499038D01*
X170622500Y-47499038D01*
X170583090Y-47250215D01*
X170505241Y-47010621D01*
X170505239Y-47010618D01*
X170505239Y-47010616D01*
X170434107Y-46871013D01*
X170390870Y-46786155D01*
X170301354Y-46662946D01*
X170242798Y-46582350D01*
X170242794Y-46582345D01*
X170064654Y-46404205D01*
X170064649Y-46404201D01*
X169860848Y-46256132D01*
X169860847Y-46256131D01*
X169860845Y-46256130D01*
X169790747Y-46220413D01*
X169636383Y-46141760D01*
X169396785Y-46063910D01*
X169380199Y-46061283D01*
X169147962Y-46024500D01*
X168896038Y-46024500D01*
X168771626Y-46044205D01*
X168647214Y-46063910D01*
X168407616Y-46141760D01*
X168183151Y-46256132D01*
X167979350Y-46404201D01*
X167979345Y-46404205D01*
X167797762Y-46585789D01*
X167796687Y-46584714D01*
X167743820Y-46619225D01*
X167708038Y-46624500D01*
X147037675Y-46624500D01*
X147037655Y-46624499D01*
X147031541Y-46624499D01*
X146834460Y-46624499D01*
X146834457Y-46624499D01*
X146641172Y-46662946D01*
X146641164Y-46662948D01*
X146459088Y-46738366D01*
X146459079Y-46738371D01*
X146295219Y-46847859D01*
X146295215Y-46847862D01*
X137715062Y-55428016D01*
X137653739Y-55461501D01*
X137611197Y-55463274D01*
X137517959Y-55451000D01*
X137517957Y-55451000D01*
X137295043Y-55451000D01*
X137295037Y-55451000D01*
X137295033Y-55451001D01*
X137074047Y-55480094D01*
X137074040Y-55480095D01*
X137074037Y-55480096D01*
X136867501Y-55535437D01*
X136858719Y-55537790D01*
X136858709Y-55537793D01*
X136652777Y-55623093D01*
X136652773Y-55623095D01*
X136459726Y-55734552D01*
X136459717Y-55734558D01*
X136282877Y-55870251D01*
X136282870Y-55870257D01*
X136125257Y-56027870D01*
X136125251Y-56027877D01*
X135989558Y-56204717D01*
X135989552Y-56204726D01*
X135878095Y-56397773D01*
X135878093Y-56397777D01*
X135792793Y-56603709D01*
X135792790Y-56603719D01*
X135747214Y-56773814D01*
X135735097Y-56819034D01*
X135735094Y-56819047D01*
X135706001Y-57040033D01*
X135706000Y-57040049D01*
X132171731Y-57040049D01*
X132093748Y-56895659D01*
X131777024Y-56309224D01*
X131777013Y-56309205D01*
X131537478Y-55865691D01*
X131537474Y-55865687D01*
X129229747Y-54352423D01*
X129229744Y-54352422D01*
X129092216Y-54311352D01*
X127540621Y-53848000D01*
X127540619Y-53848000D01*
X113017811Y-53959492D01*
X113008920Y-53959242D01*
X112736082Y-53941738D01*
X112718467Y-53939330D01*
X112455324Y-53883911D01*
X112438235Y-53879010D01*
X112185707Y-53786525D01*
X112169500Y-53779233D01*
X111932785Y-53651580D01*
X111917790Y-53642046D01*
X111701778Y-53481866D01*
X111688297Y-53470283D01*
X111592849Y-53375566D01*
X111497406Y-53280852D01*
X111485717Y-53267457D01*
X111323881Y-53052679D01*
X111314230Y-53037754D01*
X111184767Y-52802030D01*
X111177354Y-52785888D01*
X111082929Y-52534069D01*
X111077900Y-52517031D01*
X111020456Y-52254290D01*
X111017917Y-52236716D01*
X110998319Y-51964025D01*
X110998000Y-51955136D01*
X110998000Y-46423135D01*
X113915500Y-46423135D01*
X113915500Y-48318870D01*
X113915501Y-48318876D01*
X113921908Y-48378483D01*
X113972202Y-48513328D01*
X113972206Y-48513335D01*
X114058452Y-48628544D01*
X114058455Y-48628547D01*
X114173664Y-48714793D01*
X114173671Y-48714797D01*
X114253580Y-48744601D01*
X114309514Y-48786472D01*
X114333931Y-48851936D01*
X114319080Y-48920209D01*
X114297929Y-48948463D01*
X114247756Y-48998636D01*
X114247752Y-48998641D01*
X114118187Y-49176974D01*
X114018104Y-49373393D01*
X114018103Y-49373396D01*
X113949985Y-49583047D01*
X113915500Y-49800778D01*
X113915500Y-50021221D01*
X113949985Y-50238952D01*
X114018103Y-50448603D01*
X114018104Y-50448606D01*
X114118187Y-50645025D01*
X114247752Y-50823358D01*
X114247756Y-50823363D01*
X114403636Y-50979243D01*
X114403641Y-50979247D01*
X114559192Y-51092260D01*
X114581978Y-51108815D01*
X114710375Y-51174237D01*
X114778393Y-51208895D01*
X114778396Y-51208896D01*
X114883221Y-51242955D01*
X114988049Y-51277015D01*
X115205778Y-51311500D01*
X115205779Y-51311500D01*
X115426221Y-51311500D01*
X115426222Y-51311500D01*
X115643951Y-51277015D01*
X115853606Y-51208895D01*
X116050022Y-51108815D01*
X116228365Y-50979242D01*
X116384242Y-50823365D01*
X116513815Y-50645022D01*
X116613895Y-50448606D01*
X116682015Y-50238951D01*
X116716500Y-50021222D01*
X116716500Y-49800778D01*
X116682015Y-49583049D01*
X116613895Y-49373394D01*
X116613895Y-49373393D01*
X116538538Y-49225500D01*
X116513815Y-49176978D01*
X116463875Y-49108241D01*
X116384247Y-48998641D01*
X116384243Y-48998636D01*
X116334071Y-48948464D01*
X116300586Y-48887141D01*
X116305570Y-48817449D01*
X116347442Y-48761516D01*
X116378420Y-48744601D01*
X116458326Y-48714798D01*
X116458326Y-48714797D01*
X116458331Y-48714796D01*
X116573546Y-48628546D01*
X116659796Y-48513331D01*
X116710091Y-48378483D01*
X116712375Y-48357243D01*
X116739114Y-48292692D01*
X116796507Y-48252845D01*
X116835664Y-48246500D01*
X119883132Y-48246500D01*
X119950171Y-48266185D01*
X119971346Y-48285383D01*
X119972181Y-48284549D01*
X119977288Y-48289656D01*
X120101344Y-48413712D01*
X120250666Y-48505814D01*
X120417203Y-48560999D01*
X120519991Y-48571500D01*
X121320008Y-48571499D01*
X121320016Y-48571498D01*
X121320019Y-48571498D01*
X121376302Y-48565748D01*
X121422797Y-48560999D01*
X121589334Y-48505814D01*
X121738656Y-48413712D01*
X121832675Y-48319692D01*
X121893994Y-48286210D01*
X121963686Y-48291194D01*
X122008034Y-48319695D01*
X122101654Y-48413315D01*
X122250875Y-48505356D01*
X122250880Y-48505358D01*
X122417302Y-48560505D01*
X122417309Y-48560506D01*
X122520019Y-48570999D01*
X122669999Y-48570999D01*
X123170000Y-48570999D01*
X123319972Y-48570999D01*
X123319986Y-48570998D01*
X123422697Y-48560505D01*
X123589119Y-48505358D01*
X123589124Y-48505356D01*
X123738345Y-48413315D01*
X123862315Y-48289345D01*
X123954356Y-48140124D01*
X123954358Y-48140119D01*
X124009505Y-47973697D01*
X124009506Y-47973690D01*
X124019999Y-47870986D01*
X124020000Y-47870973D01*
X124020000Y-47621000D01*
X123170000Y-47621000D01*
X123170000Y-48570999D01*
X122669999Y-48570999D01*
X122670000Y-48570998D01*
X122670000Y-47121000D01*
X123170000Y-47121000D01*
X124019999Y-47121000D01*
X124019999Y-46871028D01*
X124019998Y-46871013D01*
X124009505Y-46768302D01*
X123954358Y-46601880D01*
X123954356Y-46601875D01*
X123862315Y-46452654D01*
X123738345Y-46328684D01*
X123589124Y-46236643D01*
X123589119Y-46236641D01*
X123422697Y-46181494D01*
X123422690Y-46181493D01*
X123319986Y-46171000D01*
X123170000Y-46171000D01*
X123170000Y-47121000D01*
X122670000Y-47121000D01*
X122670000Y-46171000D01*
X122520027Y-46171000D01*
X122520012Y-46171001D01*
X122417302Y-46181494D01*
X122250880Y-46236641D01*
X122250875Y-46236643D01*
X122101657Y-46328682D01*
X122008034Y-46422305D01*
X121946710Y-46455789D01*
X121877019Y-46450805D01*
X121832672Y-46422304D01*
X121738657Y-46328289D01*
X121738656Y-46328288D01*
X121589334Y-46236186D01*
X121422797Y-46181001D01*
X121422795Y-46181000D01*
X121320010Y-46170500D01*
X120519998Y-46170500D01*
X120519980Y-46170501D01*
X120417203Y-46181000D01*
X120417200Y-46181001D01*
X120250668Y-46236185D01*
X120250663Y-46236187D01*
X120101342Y-46328289D01*
X119972181Y-46457451D01*
X119970294Y-46455564D01*
X119923375Y-46488788D01*
X119883132Y-46495500D01*
X116835664Y-46495500D01*
X116768625Y-46475815D01*
X116722870Y-46423011D01*
X116712374Y-46384754D01*
X116712170Y-46382857D01*
X116710091Y-46363517D01*
X116662770Y-46236643D01*
X116659797Y-46228671D01*
X116659793Y-46228664D01*
X116573547Y-46113455D01*
X116573544Y-46113452D01*
X116458335Y-46027206D01*
X116458328Y-46027202D01*
X116323482Y-45976908D01*
X116323483Y-45976908D01*
X116263883Y-45970501D01*
X116263881Y-45970500D01*
X116263873Y-45970500D01*
X116263864Y-45970500D01*
X114368129Y-45970500D01*
X114368123Y-45970501D01*
X114308516Y-45976908D01*
X114173671Y-46027202D01*
X114173664Y-46027206D01*
X114058455Y-46113452D01*
X114058452Y-46113455D01*
X113972206Y-46228664D01*
X113972202Y-46228671D01*
X113921908Y-46363517D01*
X113915501Y-46423116D01*
X113915500Y-46423135D01*
X110998000Y-46423135D01*
X110998000Y-46070119D01*
X110998315Y-46061283D01*
X111006600Y-45945314D01*
X111017683Y-45790182D01*
X111020192Y-45772713D01*
X111076966Y-45511450D01*
X111081933Y-45494513D01*
X111175272Y-45243971D01*
X111182597Y-45227913D01*
X111310603Y-44993196D01*
X111320145Y-44978327D01*
X111480211Y-44764203D01*
X111491771Y-44750843D01*
X111607966Y-44634455D01*
X111680658Y-44561641D01*
X111693992Y-44550066D01*
X111907872Y-44389631D01*
X111922700Y-44380079D01*
X112157217Y-44251678D01*
X112173272Y-44244324D01*
X112423647Y-44150574D01*
X112440580Y-44145577D01*
X112701738Y-44088374D01*
X112719219Y-44085833D01*
X112990290Y-44066015D01*
X112999089Y-44065686D01*
X146609689Y-44010040D01*
X185698266Y-43945324D01*
X185707103Y-43945625D01*
G37*
%TD.AperFunction*%
%TD*%
%TA.AperFunction,Conductor*%
%TO.N,/Vcc+*%
G36*
X168766573Y-91995938D02*
G01*
X168843626Y-92027855D01*
X168992767Y-92057521D01*
X169012766Y-92061499D01*
X169012769Y-92061500D01*
X169012771Y-92061500D01*
X170559805Y-92061500D01*
X170567507Y-92061739D01*
X172919089Y-92208092D01*
X172963790Y-92219473D01*
X172966662Y-92220812D01*
X172966663Y-92220812D01*
X172966666Y-92220814D01*
X173133203Y-92275999D01*
X173235991Y-92286500D01*
X174175041Y-92286499D01*
X174182741Y-92286737D01*
X176553350Y-92434276D01*
X178402603Y-92549367D01*
X178416706Y-92551061D01*
X178542070Y-92573464D01*
X178569240Y-92581616D01*
X178679659Y-92629106D01*
X178704267Y-92643224D01*
X178800988Y-92714567D01*
X178821746Y-92733912D01*
X178899715Y-92825376D01*
X178915532Y-92848935D01*
X178970666Y-92955729D01*
X178980713Y-92982268D01*
X179011879Y-93105750D01*
X179014561Y-93119707D01*
X179116866Y-93886998D01*
X179117950Y-93902331D01*
X179119121Y-94040020D01*
X179115583Y-94070499D01*
X179084755Y-94196704D01*
X179073842Y-94225383D01*
X179012962Y-94340164D01*
X178995341Y-94365283D01*
X178908146Y-94461595D01*
X178884896Y-94481620D01*
X178776716Y-94553575D01*
X178749261Y-94567277D01*
X178619410Y-94613043D01*
X178604624Y-94617244D01*
X174228680Y-95571996D01*
X172283722Y-95996351D01*
X172277180Y-95997595D01*
X172218175Y-96007184D01*
X172204942Y-96008611D01*
X172150722Y-96011526D01*
X172145243Y-96011821D01*
X172138588Y-96012000D01*
X169813314Y-96012000D01*
X169797605Y-96011001D01*
X169657774Y-95993143D01*
X169627365Y-95985247D01*
X169503891Y-95935776D01*
X169476443Y-95920491D01*
X169362967Y-95836860D01*
X169350914Y-95826736D01*
X169084041Y-95571996D01*
X168696476Y-95202049D01*
X168661575Y-95141523D01*
X168658738Y-95099757D01*
X168666000Y-95028677D01*
X168665999Y-94455324D01*
X168655674Y-94354247D01*
X168601408Y-94190484D01*
X168510840Y-94043650D01*
X168388850Y-93921660D01*
X168242016Y-93831092D01*
X168078253Y-93776826D01*
X168078250Y-93776825D01*
X168004607Y-93769302D01*
X167939916Y-93742906D01*
X167899764Y-93685725D01*
X167893210Y-93645944D01*
X167893210Y-92594246D01*
X167894050Y-92579833D01*
X167909126Y-92451171D01*
X167915796Y-92423105D01*
X167957701Y-92308279D01*
X167970682Y-92282505D01*
X168011383Y-92220812D01*
X168037996Y-92180472D01*
X168056577Y-92158405D01*
X168145657Y-92074697D01*
X168168838Y-92057521D01*
X168220525Y-92027856D01*
X168263914Y-92002954D01*
X168325638Y-91986500D01*
X168719121Y-91986500D01*
X168766573Y-91995938D01*
G37*
%TD.AperFunction*%
%TD*%
%TA.AperFunction,Conductor*%
%TO.N,/Vcc-*%
G36*
X147374554Y-75981528D02*
G01*
X147375426Y-75981596D01*
X147375431Y-75981598D01*
X147412306Y-75984500D01*
X147923121Y-75984500D01*
X147970573Y-75993938D01*
X148047626Y-76025855D01*
X148216766Y-76059499D01*
X148216769Y-76059500D01*
X148216771Y-76059500D01*
X151174771Y-76059500D01*
X151894085Y-76059500D01*
X151924544Y-76068443D01*
X151955445Y-76075746D01*
X151957830Y-76078217D01*
X151961124Y-76079185D01*
X151981909Y-76103172D01*
X152003961Y-76126026D01*
X152005505Y-76130403D01*
X152006879Y-76131989D01*
X152015702Y-76159309D01*
X152020617Y-76184019D01*
X152023000Y-76208210D01*
X152023000Y-79493789D01*
X152020617Y-79517982D01*
X152008781Y-79577482D01*
X151990267Y-79622179D01*
X151963481Y-79662268D01*
X151957584Y-79668164D01*
X151955525Y-79672896D01*
X151929269Y-79696479D01*
X151894975Y-79719394D01*
X151889179Y-79723267D01*
X151844482Y-79741781D01*
X151810857Y-79748469D01*
X151784978Y-79753617D01*
X151760789Y-79756000D01*
X147459211Y-79756000D01*
X147435020Y-79753617D01*
X147420189Y-79750667D01*
X147375518Y-79741781D01*
X147367816Y-79738591D01*
X147362658Y-79738499D01*
X147330823Y-79723268D01*
X147290727Y-79696477D01*
X147256522Y-79662272D01*
X147229730Y-79622175D01*
X147211218Y-79577480D01*
X147199383Y-79517980D01*
X147197000Y-79493789D01*
X147197000Y-76208210D01*
X147199383Y-76184019D01*
X147210048Y-76130403D01*
X147211218Y-76124517D01*
X147229729Y-76079826D01*
X147256522Y-76039727D01*
X147290721Y-76005526D01*
X147295928Y-76002047D01*
X147362602Y-75981166D01*
X147374554Y-75981528D01*
G37*
%TD.AperFunction*%
%TD*%
%TA.AperFunction,Conductor*%
%TO.N,/Vcc+*%
G36*
X142685604Y-69868461D02*
G01*
X142688649Y-69870339D01*
X142688650Y-69870340D01*
X142835484Y-69960908D01*
X142999247Y-70015174D01*
X143100323Y-70025500D01*
X143673676Y-70025499D01*
X143673684Y-70025498D01*
X143673687Y-70025498D01*
X143729030Y-70019844D01*
X143774753Y-70015174D01*
X143938516Y-69960908D01*
X144085350Y-69870340D01*
X144085350Y-69870339D01*
X144088396Y-69868461D01*
X144104955Y-69863764D01*
X144118558Y-69855023D01*
X144153493Y-69850000D01*
X144158907Y-69850000D01*
X144171061Y-69850597D01*
X144347941Y-69868018D01*
X144371769Y-69872757D01*
X144536001Y-69922576D01*
X144558453Y-69931877D01*
X144600953Y-69954593D01*
X144650797Y-70003555D01*
X144666500Y-70063951D01*
X144666500Y-72610994D01*
X144646815Y-72678033D01*
X144630181Y-72698675D01*
X144326675Y-73002181D01*
X144265352Y-73035666D01*
X144238994Y-73038500D01*
X142030768Y-73038500D01*
X141861628Y-73072143D01*
X141861620Y-73072146D01*
X141836827Y-73082416D01*
X141812147Y-73085069D01*
X141788268Y-73091850D01*
X141772088Y-73089376D01*
X141767357Y-73089885D01*
X141753382Y-73086516D01*
X141729999Y-73079423D01*
X141707543Y-73070121D01*
X141556201Y-72989227D01*
X141535989Y-72975722D01*
X141403333Y-72866854D01*
X141386145Y-72849666D01*
X141277277Y-72717010D01*
X141263772Y-72696798D01*
X141182878Y-72545456D01*
X141173575Y-72522998D01*
X141123757Y-72358769D01*
X141119018Y-72334941D01*
X141101597Y-72158061D01*
X141101000Y-72145907D01*
X141101000Y-70885505D01*
X141120685Y-70818466D01*
X141137314Y-70797829D01*
X142035045Y-69900099D01*
X142035047Y-69900095D01*
X142038909Y-69895391D01*
X142041081Y-69897173D01*
X142085667Y-69860149D01*
X142134800Y-69850000D01*
X142620507Y-69850000D01*
X142685604Y-69868461D01*
G37*
%TD.AperFunction*%
%TD*%
%TA.AperFunction,Conductor*%
%TO.N,/Vcc-*%
G36*
X169776480Y-84457383D02*
G01*
X169835980Y-84469218D01*
X169880675Y-84487730D01*
X169920772Y-84514522D01*
X169926664Y-84520414D01*
X169931396Y-84522474D01*
X169954976Y-84548726D01*
X169981767Y-84588822D01*
X170000281Y-84633517D01*
X170004042Y-84652427D01*
X170012117Y-84693019D01*
X170014500Y-84717210D01*
X170014500Y-85582397D01*
X169994815Y-85649436D01*
X169942011Y-85695191D01*
X169929512Y-85700100D01*
X169926879Y-85700972D01*
X169920485Y-85703091D01*
X169920481Y-85703093D01*
X169773648Y-85793661D01*
X169651661Y-85915648D01*
X169561093Y-86062481D01*
X169561092Y-86062484D01*
X169506826Y-86226247D01*
X169506826Y-86226248D01*
X169506825Y-86226248D01*
X169496500Y-86327315D01*
X169496500Y-86900669D01*
X169496501Y-86900687D01*
X169506825Y-87001752D01*
X169543109Y-87111249D01*
X169561092Y-87165516D01*
X169651660Y-87312350D01*
X169773650Y-87434340D01*
X169920484Y-87524908D01*
X169920486Y-87524909D01*
X169929501Y-87527896D01*
X169986947Y-87567667D01*
X170013772Y-87632182D01*
X170014500Y-87645603D01*
X170014500Y-88891789D01*
X170012117Y-88915980D01*
X170012117Y-88915982D01*
X170000281Y-88975482D01*
X169981767Y-89020179D01*
X169954981Y-89060268D01*
X169920922Y-89094377D01*
X169920738Y-89094500D01*
X169854093Y-89115477D01*
X169851696Y-89115500D01*
X168208306Y-89115500D01*
X168208300Y-89115500D01*
X168208282Y-89115501D01*
X168195595Y-89116499D01*
X168172466Y-89111639D01*
X168148835Y-89111220D01*
X168131878Y-89103110D01*
X168127218Y-89102131D01*
X168116995Y-89095992D01*
X168114742Y-89094487D01*
X168080519Y-89060268D01*
X168053730Y-89020175D01*
X168035218Y-88975480D01*
X168023383Y-88915980D01*
X168021000Y-88891789D01*
X168021000Y-84717210D01*
X168023383Y-84693019D01*
X168035219Y-84633517D01*
X168053729Y-84588826D01*
X168080524Y-84548724D01*
X168114724Y-84514524D01*
X168154826Y-84487729D01*
X168199514Y-84469219D01*
X168259028Y-84457381D01*
X168283211Y-84455000D01*
X169752289Y-84455000D01*
X169776480Y-84457383D01*
G37*
%TD.AperFunction*%
%TD*%
M02*
