%TF.GenerationSoftware,KiCad,Pcbnew,9.0.6*%
%TF.CreationDate,2026-09-21T15:04:47-04:00*%
%TF.ProjectId,catpaw2,63617470-6177-4322-9e6b-696361645f70,rev?*%
%TF.SameCoordinates,Original*%
%TF.FileFunction,Legend,Top*%
%TF.FilePolarity,Positive*%
%FSLAX46Y46*%
G04 Gerber Fmt 4.6, Leading zero omitted, Abs format (unit mm)*
G04 Created by KiCad (PCBNEW 9.0.6) date 2026-09-21 15:04:47*
%MOMM*%
%LPD*%
G01*
G04 APERTURE LIST*
%ADD10C,0.100000*%
%ADD11C,0.200000*%
%ADD12C,0.254000*%
%ADD13C,0.300000*%
%ADD14C,0.150000*%
%ADD15C,0.120000*%
G04 APERTURE END LIST*
D10*
X160085693Y-89725038D02*
X159990455Y-89677419D01*
X159990455Y-89677419D02*
X159847598Y-89677419D01*
X159847598Y-89677419D02*
X159704741Y-89725038D01*
X159704741Y-89725038D02*
X159609503Y-89820276D01*
X159609503Y-89820276D02*
X159561884Y-89915514D01*
X159561884Y-89915514D02*
X159514265Y-90105990D01*
X159514265Y-90105990D02*
X159514265Y-90248847D01*
X159514265Y-90248847D02*
X159561884Y-90439323D01*
X159561884Y-90439323D02*
X159609503Y-90534561D01*
X159609503Y-90534561D02*
X159704741Y-90629800D01*
X159704741Y-90629800D02*
X159847598Y-90677419D01*
X159847598Y-90677419D02*
X159942836Y-90677419D01*
X159942836Y-90677419D02*
X160085693Y-90629800D01*
X160085693Y-90629800D02*
X160133312Y-90582180D01*
X160133312Y-90582180D02*
X160133312Y-90248847D01*
X160133312Y-90248847D02*
X159942836Y-90248847D01*
X160561884Y-90677419D02*
X160561884Y-89677419D01*
X160561884Y-89677419D02*
X161133312Y-90677419D01*
X161133312Y-90677419D02*
X161133312Y-89677419D01*
X161609503Y-90677419D02*
X161609503Y-89677419D01*
X161609503Y-89677419D02*
X161847598Y-89677419D01*
X161847598Y-89677419D02*
X161990455Y-89725038D01*
X161990455Y-89725038D02*
X162085693Y-89820276D01*
X162085693Y-89820276D02*
X162133312Y-89915514D01*
X162133312Y-89915514D02*
X162180931Y-90105990D01*
X162180931Y-90105990D02*
X162180931Y-90248847D01*
X162180931Y-90248847D02*
X162133312Y-90439323D01*
X162133312Y-90439323D02*
X162085693Y-90534561D01*
X162085693Y-90534561D02*
X161990455Y-90629800D01*
X161990455Y-90629800D02*
X161847598Y-90677419D01*
X161847598Y-90677419D02*
X161609503Y-90677419D01*
X162086027Y-93614419D02*
X162419360Y-94614419D01*
X162419360Y-94614419D02*
X162752693Y-93614419D01*
X163657455Y-94519180D02*
X163609836Y-94566800D01*
X163609836Y-94566800D02*
X163466979Y-94614419D01*
X163466979Y-94614419D02*
X163371741Y-94614419D01*
X163371741Y-94614419D02*
X163228884Y-94566800D01*
X163228884Y-94566800D02*
X163133646Y-94471561D01*
X163133646Y-94471561D02*
X163086027Y-94376323D01*
X163086027Y-94376323D02*
X163038408Y-94185847D01*
X163038408Y-94185847D02*
X163038408Y-94042990D01*
X163038408Y-94042990D02*
X163086027Y-93852514D01*
X163086027Y-93852514D02*
X163133646Y-93757276D01*
X163133646Y-93757276D02*
X163228884Y-93662038D01*
X163228884Y-93662038D02*
X163371741Y-93614419D01*
X163371741Y-93614419D02*
X163466979Y-93614419D01*
X163466979Y-93614419D02*
X163609836Y-93662038D01*
X163609836Y-93662038D02*
X163657455Y-93709657D01*
X164657455Y-94519180D02*
X164609836Y-94566800D01*
X164609836Y-94566800D02*
X164466979Y-94614419D01*
X164466979Y-94614419D02*
X164371741Y-94614419D01*
X164371741Y-94614419D02*
X164228884Y-94566800D01*
X164228884Y-94566800D02*
X164133646Y-94471561D01*
X164133646Y-94471561D02*
X164086027Y-94376323D01*
X164086027Y-94376323D02*
X164038408Y-94185847D01*
X164038408Y-94185847D02*
X164038408Y-94042990D01*
X164038408Y-94042990D02*
X164086027Y-93852514D01*
X164086027Y-93852514D02*
X164133646Y-93757276D01*
X164133646Y-93757276D02*
X164228884Y-93662038D01*
X164228884Y-93662038D02*
X164371741Y-93614419D01*
X164371741Y-93614419D02*
X164466979Y-93614419D01*
X164466979Y-93614419D02*
X164609836Y-93662038D01*
X164609836Y-93662038D02*
X164657455Y-93709657D01*
X157260027Y-93360419D02*
X157593360Y-94360419D01*
X157593360Y-94360419D02*
X157926693Y-93360419D01*
X158260027Y-93836609D02*
X158593360Y-93836609D01*
X158736217Y-94360419D02*
X158260027Y-94360419D01*
X158260027Y-94360419D02*
X158260027Y-93360419D01*
X158260027Y-93360419D02*
X158736217Y-93360419D01*
X159164789Y-93836609D02*
X159498122Y-93836609D01*
X159640979Y-94360419D02*
X159164789Y-94360419D01*
X159164789Y-94360419D02*
X159164789Y-93360419D01*
X159164789Y-93360419D02*
X159640979Y-93360419D01*
D11*
X164557562Y-109969656D02*
X164462324Y-110017275D01*
X164462324Y-110017275D02*
X164271848Y-110017275D01*
X164271848Y-110017275D02*
X164176610Y-109969656D01*
X164176610Y-109969656D02*
X164128991Y-109922036D01*
X164128991Y-109922036D02*
X164081372Y-109826798D01*
X164081372Y-109826798D02*
X164081372Y-109541084D01*
X164081372Y-109541084D02*
X164128991Y-109445846D01*
X164128991Y-109445846D02*
X164176610Y-109398227D01*
X164176610Y-109398227D02*
X164271848Y-109350608D01*
X164271848Y-109350608D02*
X164462324Y-109350608D01*
X164462324Y-109350608D02*
X164557562Y-109398227D01*
X165414705Y-110017275D02*
X165414705Y-109493465D01*
X165414705Y-109493465D02*
X165367086Y-109398227D01*
X165367086Y-109398227D02*
X165271848Y-109350608D01*
X165271848Y-109350608D02*
X165081372Y-109350608D01*
X165081372Y-109350608D02*
X164986134Y-109398227D01*
X165414705Y-109969656D02*
X165319467Y-110017275D01*
X165319467Y-110017275D02*
X165081372Y-110017275D01*
X165081372Y-110017275D02*
X164986134Y-109969656D01*
X164986134Y-109969656D02*
X164938515Y-109874417D01*
X164938515Y-109874417D02*
X164938515Y-109779179D01*
X164938515Y-109779179D02*
X164986134Y-109683941D01*
X164986134Y-109683941D02*
X165081372Y-109636322D01*
X165081372Y-109636322D02*
X165319467Y-109636322D01*
X165319467Y-109636322D02*
X165414705Y-109588703D01*
X165748039Y-109350608D02*
X166128991Y-109350608D01*
X165890896Y-109017275D02*
X165890896Y-109874417D01*
X165890896Y-109874417D02*
X165938515Y-109969656D01*
X165938515Y-109969656D02*
X166033753Y-110017275D01*
X166033753Y-110017275D02*
X166128991Y-110017275D01*
X166462325Y-109350608D02*
X166462325Y-110350608D01*
X166462325Y-109398227D02*
X166557563Y-109350608D01*
X166557563Y-109350608D02*
X166748039Y-109350608D01*
X166748039Y-109350608D02*
X166843277Y-109398227D01*
X166843277Y-109398227D02*
X166890896Y-109445846D01*
X166890896Y-109445846D02*
X166938515Y-109541084D01*
X166938515Y-109541084D02*
X166938515Y-109826798D01*
X166938515Y-109826798D02*
X166890896Y-109922036D01*
X166890896Y-109922036D02*
X166843277Y-109969656D01*
X166843277Y-109969656D02*
X166748039Y-110017275D01*
X166748039Y-110017275D02*
X166557563Y-110017275D01*
X166557563Y-110017275D02*
X166462325Y-109969656D01*
X167795658Y-110017275D02*
X167795658Y-109493465D01*
X167795658Y-109493465D02*
X167748039Y-109398227D01*
X167748039Y-109398227D02*
X167652801Y-109350608D01*
X167652801Y-109350608D02*
X167462325Y-109350608D01*
X167462325Y-109350608D02*
X167367087Y-109398227D01*
X167795658Y-109969656D02*
X167700420Y-110017275D01*
X167700420Y-110017275D02*
X167462325Y-110017275D01*
X167462325Y-110017275D02*
X167367087Y-109969656D01*
X167367087Y-109969656D02*
X167319468Y-109874417D01*
X167319468Y-109874417D02*
X167319468Y-109779179D01*
X167319468Y-109779179D02*
X167367087Y-109683941D01*
X167367087Y-109683941D02*
X167462325Y-109636322D01*
X167462325Y-109636322D02*
X167700420Y-109636322D01*
X167700420Y-109636322D02*
X167795658Y-109588703D01*
X168176611Y-109350608D02*
X168367087Y-110017275D01*
X168367087Y-110017275D02*
X168557563Y-109541084D01*
X168557563Y-109541084D02*
X168748039Y-110017275D01*
X168748039Y-110017275D02*
X168938515Y-109350608D01*
X170081373Y-110017275D02*
X170081373Y-109350608D01*
X170081373Y-109541084D02*
X170128992Y-109445846D01*
X170128992Y-109445846D02*
X170176611Y-109398227D01*
X170176611Y-109398227D02*
X170271849Y-109350608D01*
X170271849Y-109350608D02*
X170367087Y-109350608D01*
X171081373Y-109969656D02*
X170986135Y-110017275D01*
X170986135Y-110017275D02*
X170795659Y-110017275D01*
X170795659Y-110017275D02*
X170700421Y-109969656D01*
X170700421Y-109969656D02*
X170652802Y-109874417D01*
X170652802Y-109874417D02*
X170652802Y-109493465D01*
X170652802Y-109493465D02*
X170700421Y-109398227D01*
X170700421Y-109398227D02*
X170795659Y-109350608D01*
X170795659Y-109350608D02*
X170986135Y-109350608D01*
X170986135Y-109350608D02*
X171081373Y-109398227D01*
X171081373Y-109398227D02*
X171128992Y-109493465D01*
X171128992Y-109493465D02*
X171128992Y-109588703D01*
X171128992Y-109588703D02*
X170652802Y-109683941D01*
X171462326Y-109350608D02*
X171700421Y-110017275D01*
X171700421Y-110017275D02*
X171938516Y-109350608D01*
X172271850Y-109112513D02*
X172319469Y-109064894D01*
X172319469Y-109064894D02*
X172414707Y-109017275D01*
X172414707Y-109017275D02*
X172652802Y-109017275D01*
X172652802Y-109017275D02*
X172748040Y-109064894D01*
X172748040Y-109064894D02*
X172795659Y-109112513D01*
X172795659Y-109112513D02*
X172843278Y-109207751D01*
X172843278Y-109207751D02*
X172843278Y-109302989D01*
X172843278Y-109302989D02*
X172795659Y-109445846D01*
X172795659Y-109445846D02*
X172224231Y-110017275D01*
X172224231Y-110017275D02*
X172843278Y-110017275D01*
X173271850Y-109922036D02*
X173319469Y-109969656D01*
X173319469Y-109969656D02*
X173271850Y-110017275D01*
X173271850Y-110017275D02*
X173224231Y-109969656D01*
X173224231Y-109969656D02*
X173271850Y-109922036D01*
X173271850Y-109922036D02*
X173271850Y-110017275D01*
X173938516Y-109017275D02*
X174033754Y-109017275D01*
X174033754Y-109017275D02*
X174128992Y-109064894D01*
X174128992Y-109064894D02*
X174176611Y-109112513D01*
X174176611Y-109112513D02*
X174224230Y-109207751D01*
X174224230Y-109207751D02*
X174271849Y-109398227D01*
X174271849Y-109398227D02*
X174271849Y-109636322D01*
X174271849Y-109636322D02*
X174224230Y-109826798D01*
X174224230Y-109826798D02*
X174176611Y-109922036D01*
X174176611Y-109922036D02*
X174128992Y-109969656D01*
X174128992Y-109969656D02*
X174033754Y-110017275D01*
X174033754Y-110017275D02*
X173938516Y-110017275D01*
X173938516Y-110017275D02*
X173843278Y-109969656D01*
X173843278Y-109969656D02*
X173795659Y-109922036D01*
X173795659Y-109922036D02*
X173748040Y-109826798D01*
X173748040Y-109826798D02*
X173700421Y-109636322D01*
X173700421Y-109636322D02*
X173700421Y-109398227D01*
X173700421Y-109398227D02*
X173748040Y-109207751D01*
X173748040Y-109207751D02*
X173795659Y-109112513D01*
X173795659Y-109112513D02*
X173843278Y-109064894D01*
X173843278Y-109064894D02*
X173938516Y-109017275D01*
X175414707Y-109969656D02*
X175509945Y-110017275D01*
X175509945Y-110017275D02*
X175700421Y-110017275D01*
X175700421Y-110017275D02*
X175795659Y-109969656D01*
X175795659Y-109969656D02*
X175843278Y-109874417D01*
X175843278Y-109874417D02*
X175843278Y-109826798D01*
X175843278Y-109826798D02*
X175795659Y-109731560D01*
X175795659Y-109731560D02*
X175700421Y-109683941D01*
X175700421Y-109683941D02*
X175557564Y-109683941D01*
X175557564Y-109683941D02*
X175462326Y-109636322D01*
X175462326Y-109636322D02*
X175414707Y-109541084D01*
X175414707Y-109541084D02*
X175414707Y-109493465D01*
X175414707Y-109493465D02*
X175462326Y-109398227D01*
X175462326Y-109398227D02*
X175557564Y-109350608D01*
X175557564Y-109350608D02*
X175700421Y-109350608D01*
X175700421Y-109350608D02*
X175795659Y-109398227D01*
X176652802Y-109969656D02*
X176557564Y-110017275D01*
X176557564Y-110017275D02*
X176367088Y-110017275D01*
X176367088Y-110017275D02*
X176271850Y-109969656D01*
X176271850Y-109969656D02*
X176224231Y-109874417D01*
X176224231Y-109874417D02*
X176224231Y-109493465D01*
X176224231Y-109493465D02*
X176271850Y-109398227D01*
X176271850Y-109398227D02*
X176367088Y-109350608D01*
X176367088Y-109350608D02*
X176557564Y-109350608D01*
X176557564Y-109350608D02*
X176652802Y-109398227D01*
X176652802Y-109398227D02*
X176700421Y-109493465D01*
X176700421Y-109493465D02*
X176700421Y-109588703D01*
X176700421Y-109588703D02*
X176224231Y-109683941D01*
X177128993Y-109350608D02*
X177128993Y-110350608D01*
X177128993Y-109398227D02*
X177224231Y-109350608D01*
X177224231Y-109350608D02*
X177414707Y-109350608D01*
X177414707Y-109350608D02*
X177509945Y-109398227D01*
X177509945Y-109398227D02*
X177557564Y-109445846D01*
X177557564Y-109445846D02*
X177605183Y-109541084D01*
X177605183Y-109541084D02*
X177605183Y-109826798D01*
X177605183Y-109826798D02*
X177557564Y-109922036D01*
X177557564Y-109922036D02*
X177509945Y-109969656D01*
X177509945Y-109969656D02*
X177414707Y-110017275D01*
X177414707Y-110017275D02*
X177224231Y-110017275D01*
X177224231Y-110017275D02*
X177128993Y-109969656D01*
X177986136Y-109112513D02*
X178033755Y-109064894D01*
X178033755Y-109064894D02*
X178128993Y-109017275D01*
X178128993Y-109017275D02*
X178367088Y-109017275D01*
X178367088Y-109017275D02*
X178462326Y-109064894D01*
X178462326Y-109064894D02*
X178509945Y-109112513D01*
X178509945Y-109112513D02*
X178557564Y-109207751D01*
X178557564Y-109207751D02*
X178557564Y-109302989D01*
X178557564Y-109302989D02*
X178509945Y-109445846D01*
X178509945Y-109445846D02*
X177938517Y-110017275D01*
X177938517Y-110017275D02*
X178557564Y-110017275D01*
X179414707Y-109017275D02*
X179224231Y-109017275D01*
X179224231Y-109017275D02*
X179128993Y-109064894D01*
X179128993Y-109064894D02*
X179081374Y-109112513D01*
X179081374Y-109112513D02*
X178986136Y-109255370D01*
X178986136Y-109255370D02*
X178938517Y-109445846D01*
X178938517Y-109445846D02*
X178938517Y-109826798D01*
X178938517Y-109826798D02*
X178986136Y-109922036D01*
X178986136Y-109922036D02*
X179033755Y-109969656D01*
X179033755Y-109969656D02*
X179128993Y-110017275D01*
X179128993Y-110017275D02*
X179319469Y-110017275D01*
X179319469Y-110017275D02*
X179414707Y-109969656D01*
X179414707Y-109969656D02*
X179462326Y-109922036D01*
X179462326Y-109922036D02*
X179509945Y-109826798D01*
X179509945Y-109826798D02*
X179509945Y-109588703D01*
X179509945Y-109588703D02*
X179462326Y-109493465D01*
X179462326Y-109493465D02*
X179414707Y-109445846D01*
X179414707Y-109445846D02*
X179319469Y-109398227D01*
X179319469Y-109398227D02*
X179128993Y-109398227D01*
X179128993Y-109398227D02*
X179033755Y-109445846D01*
X179033755Y-109445846D02*
X178986136Y-109493465D01*
X178986136Y-109493465D02*
X178938517Y-109588703D01*
X172462325Y-110579600D02*
X171605183Y-111865314D01*
X173509944Y-110579600D02*
X172652802Y-111865314D01*
X173843278Y-111627219D02*
X173843278Y-110627219D01*
X173938516Y-111246266D02*
X174224230Y-111627219D01*
X174224230Y-110960552D02*
X173843278Y-111341504D01*
X175033754Y-111579600D02*
X174938516Y-111627219D01*
X174938516Y-111627219D02*
X174748040Y-111627219D01*
X174748040Y-111627219D02*
X174652802Y-111579600D01*
X174652802Y-111579600D02*
X174605183Y-111484361D01*
X174605183Y-111484361D02*
X174605183Y-111103409D01*
X174605183Y-111103409D02*
X174652802Y-111008171D01*
X174652802Y-111008171D02*
X174748040Y-110960552D01*
X174748040Y-110960552D02*
X174938516Y-110960552D01*
X174938516Y-110960552D02*
X175033754Y-111008171D01*
X175033754Y-111008171D02*
X175081373Y-111103409D01*
X175081373Y-111103409D02*
X175081373Y-111198647D01*
X175081373Y-111198647D02*
X174605183Y-111293885D01*
X175414707Y-110960552D02*
X175652802Y-111627219D01*
X175890897Y-110960552D02*
X175652802Y-111627219D01*
X175652802Y-111627219D02*
X175557564Y-111865314D01*
X175557564Y-111865314D02*
X175509945Y-111912933D01*
X175509945Y-111912933D02*
X175414707Y-111960552D01*
X176700421Y-110960552D02*
X176700421Y-111627219D01*
X176271850Y-110960552D02*
X176271850Y-111484361D01*
X176271850Y-111484361D02*
X176319469Y-111579600D01*
X176319469Y-111579600D02*
X176414707Y-111627219D01*
X176414707Y-111627219D02*
X176557564Y-111627219D01*
X176557564Y-111627219D02*
X176652802Y-111579600D01*
X176652802Y-111579600D02*
X176700421Y-111531980D01*
X177605183Y-111627219D02*
X177605183Y-110627219D01*
X177605183Y-111579600D02*
X177509945Y-111627219D01*
X177509945Y-111627219D02*
X177319469Y-111627219D01*
X177319469Y-111627219D02*
X177224231Y-111579600D01*
X177224231Y-111579600D02*
X177176612Y-111531980D01*
X177176612Y-111531980D02*
X177128993Y-111436742D01*
X177128993Y-111436742D02*
X177128993Y-111151028D01*
X177128993Y-111151028D02*
X177176612Y-111055790D01*
X177176612Y-111055790D02*
X177224231Y-111008171D01*
X177224231Y-111008171D02*
X177319469Y-110960552D01*
X177319469Y-110960552D02*
X177509945Y-110960552D01*
X177509945Y-110960552D02*
X177605183Y-111008171D01*
X178081374Y-111627219D02*
X178081374Y-110960552D01*
X178081374Y-110627219D02*
X178033755Y-110674838D01*
X178033755Y-110674838D02*
X178081374Y-110722457D01*
X178081374Y-110722457D02*
X178128993Y-110674838D01*
X178128993Y-110674838D02*
X178081374Y-110627219D01*
X178081374Y-110627219D02*
X178081374Y-110722457D01*
X178414707Y-110960552D02*
X178795659Y-110960552D01*
X178557564Y-110627219D02*
X178557564Y-111484361D01*
X178557564Y-111484361D02*
X178605183Y-111579600D01*
X178605183Y-111579600D02*
X178700421Y-111627219D01*
X178700421Y-111627219D02*
X178795659Y-111627219D01*
X179081374Y-111579600D02*
X179176612Y-111627219D01*
X179176612Y-111627219D02*
X179367088Y-111627219D01*
X179367088Y-111627219D02*
X179462326Y-111579600D01*
X179462326Y-111579600D02*
X179509945Y-111484361D01*
X179509945Y-111484361D02*
X179509945Y-111436742D01*
X179509945Y-111436742D02*
X179462326Y-111341504D01*
X179462326Y-111341504D02*
X179367088Y-111293885D01*
X179367088Y-111293885D02*
X179224231Y-111293885D01*
X179224231Y-111293885D02*
X179128993Y-111246266D01*
X179128993Y-111246266D02*
X179081374Y-111151028D01*
X179081374Y-111151028D02*
X179081374Y-111103409D01*
X179081374Y-111103409D02*
X179128993Y-111008171D01*
X179128993Y-111008171D02*
X179224231Y-110960552D01*
X179224231Y-110960552D02*
X179367088Y-110960552D01*
X179367088Y-110960552D02*
X179462326Y-111008171D01*
D12*
X172043368Y-106337514D02*
X170773368Y-106337514D01*
X170773368Y-106337514D02*
X171680511Y-105914180D01*
X171680511Y-105914180D02*
X170773368Y-105490847D01*
X170773368Y-105490847D02*
X172043368Y-105490847D01*
X172043368Y-104220846D02*
X172043368Y-104946561D01*
X172043368Y-104583704D02*
X170773368Y-104583704D01*
X170773368Y-104583704D02*
X170954796Y-104704656D01*
X170954796Y-104704656D02*
X171075749Y-104825608D01*
X171075749Y-104825608D02*
X171136225Y-104946561D01*
X170894320Y-103737037D02*
X170833844Y-103676561D01*
X170833844Y-103676561D02*
X170773368Y-103555608D01*
X170773368Y-103555608D02*
X170773368Y-103253227D01*
X170773368Y-103253227D02*
X170833844Y-103132275D01*
X170833844Y-103132275D02*
X170894320Y-103071799D01*
X170894320Y-103071799D02*
X171015272Y-103011322D01*
X171015272Y-103011322D02*
X171136225Y-103011322D01*
X171136225Y-103011322D02*
X171317653Y-103071799D01*
X171317653Y-103071799D02*
X172043368Y-103797513D01*
X172043368Y-103797513D02*
X172043368Y-103011322D01*
D13*
X108250510Y-88954828D02*
X108250510Y-87454828D01*
X108250510Y-88026257D02*
X108393368Y-87954828D01*
X108393368Y-87954828D02*
X108679082Y-87954828D01*
X108679082Y-87954828D02*
X108821939Y-88026257D01*
X108821939Y-88026257D02*
X108893368Y-88097685D01*
X108893368Y-88097685D02*
X108964796Y-88240542D01*
X108964796Y-88240542D02*
X108964796Y-88669114D01*
X108964796Y-88669114D02*
X108893368Y-88811971D01*
X108893368Y-88811971D02*
X108821939Y-88883400D01*
X108821939Y-88883400D02*
X108679082Y-88954828D01*
X108679082Y-88954828D02*
X108393368Y-88954828D01*
X108393368Y-88954828D02*
X108250510Y-88883400D01*
X109821939Y-88954828D02*
X109679082Y-88883400D01*
X109679082Y-88883400D02*
X109607653Y-88740542D01*
X109607653Y-88740542D02*
X109607653Y-87454828D01*
X110393367Y-88954828D02*
X110393367Y-87454828D01*
X110536225Y-88383400D02*
X110964796Y-88954828D01*
X110964796Y-87954828D02*
X110393367Y-88526257D01*
X109012510Y-103051828D02*
X109012510Y-102051828D01*
X109012510Y-102337542D02*
X109083939Y-102194685D01*
X109083939Y-102194685D02*
X109155368Y-102123257D01*
X109155368Y-102123257D02*
X109298225Y-102051828D01*
X109298225Y-102051828D02*
X109441082Y-102051828D01*
X110512510Y-102980400D02*
X110369653Y-103051828D01*
X110369653Y-103051828D02*
X110083939Y-103051828D01*
X110083939Y-103051828D02*
X109941081Y-102980400D01*
X109941081Y-102980400D02*
X109869653Y-102837542D01*
X109869653Y-102837542D02*
X109869653Y-102266114D01*
X109869653Y-102266114D02*
X109941081Y-102123257D01*
X109941081Y-102123257D02*
X110083939Y-102051828D01*
X110083939Y-102051828D02*
X110369653Y-102051828D01*
X110369653Y-102051828D02*
X110512510Y-102123257D01*
X110512510Y-102123257D02*
X110583939Y-102266114D01*
X110583939Y-102266114D02*
X110583939Y-102408971D01*
X110583939Y-102408971D02*
X109869653Y-102551828D01*
X111869653Y-103051828D02*
X111869653Y-101551828D01*
X111869653Y-102980400D02*
X111726795Y-103051828D01*
X111726795Y-103051828D02*
X111441081Y-103051828D01*
X111441081Y-103051828D02*
X111298224Y-102980400D01*
X111298224Y-102980400D02*
X111226795Y-102908971D01*
X111226795Y-102908971D02*
X111155367Y-102766114D01*
X111155367Y-102766114D02*
X111155367Y-102337542D01*
X111155367Y-102337542D02*
X111226795Y-102194685D01*
X111226795Y-102194685D02*
X111298224Y-102123257D01*
X111298224Y-102123257D02*
X111441081Y-102051828D01*
X111441081Y-102051828D02*
X111726795Y-102051828D01*
X111726795Y-102051828D02*
X111869653Y-102123257D01*
D14*
X179347905Y-84528819D02*
X179347905Y-83528819D01*
X179347905Y-83528819D02*
X179586000Y-83528819D01*
X179586000Y-83528819D02*
X179728857Y-83576438D01*
X179728857Y-83576438D02*
X179824095Y-83671676D01*
X179824095Y-83671676D02*
X179871714Y-83766914D01*
X179871714Y-83766914D02*
X179919333Y-83957390D01*
X179919333Y-83957390D02*
X179919333Y-84100247D01*
X179919333Y-84100247D02*
X179871714Y-84290723D01*
X179871714Y-84290723D02*
X179824095Y-84385961D01*
X179824095Y-84385961D02*
X179728857Y-84481200D01*
X179728857Y-84481200D02*
X179586000Y-84528819D01*
X179586000Y-84528819D02*
X179347905Y-84528819D01*
X180824095Y-83528819D02*
X180347905Y-83528819D01*
X180347905Y-83528819D02*
X180300286Y-84005009D01*
X180300286Y-84005009D02*
X180347905Y-83957390D01*
X180347905Y-83957390D02*
X180443143Y-83909771D01*
X180443143Y-83909771D02*
X180681238Y-83909771D01*
X180681238Y-83909771D02*
X180776476Y-83957390D01*
X180776476Y-83957390D02*
X180824095Y-84005009D01*
X180824095Y-84005009D02*
X180871714Y-84100247D01*
X180871714Y-84100247D02*
X180871714Y-84338342D01*
X180871714Y-84338342D02*
X180824095Y-84433580D01*
X180824095Y-84433580D02*
X180776476Y-84481200D01*
X180776476Y-84481200D02*
X180681238Y-84528819D01*
X180681238Y-84528819D02*
X180443143Y-84528819D01*
X180443143Y-84528819D02*
X180347905Y-84481200D01*
X180347905Y-84481200D02*
X180300286Y-84433580D01*
X137286819Y-91812857D02*
X136810628Y-92146190D01*
X137286819Y-92384285D02*
X136286819Y-92384285D01*
X136286819Y-92384285D02*
X136286819Y-92003333D01*
X136286819Y-92003333D02*
X136334438Y-91908095D01*
X136334438Y-91908095D02*
X136382057Y-91860476D01*
X136382057Y-91860476D02*
X136477295Y-91812857D01*
X136477295Y-91812857D02*
X136620152Y-91812857D01*
X136620152Y-91812857D02*
X136715390Y-91860476D01*
X136715390Y-91860476D02*
X136763009Y-91908095D01*
X136763009Y-91908095D02*
X136810628Y-92003333D01*
X136810628Y-92003333D02*
X136810628Y-92384285D01*
X137286819Y-90860476D02*
X137286819Y-91431904D01*
X137286819Y-91146190D02*
X136286819Y-91146190D01*
X136286819Y-91146190D02*
X136429676Y-91241428D01*
X136429676Y-91241428D02*
X136524914Y-91336666D01*
X136524914Y-91336666D02*
X136572533Y-91431904D01*
X136286819Y-90241428D02*
X136286819Y-90146190D01*
X136286819Y-90146190D02*
X136334438Y-90050952D01*
X136334438Y-90050952D02*
X136382057Y-90003333D01*
X136382057Y-90003333D02*
X136477295Y-89955714D01*
X136477295Y-89955714D02*
X136667771Y-89908095D01*
X136667771Y-89908095D02*
X136905866Y-89908095D01*
X136905866Y-89908095D02*
X137096342Y-89955714D01*
X137096342Y-89955714D02*
X137191580Y-90003333D01*
X137191580Y-90003333D02*
X137239200Y-90050952D01*
X137239200Y-90050952D02*
X137286819Y-90146190D01*
X137286819Y-90146190D02*
X137286819Y-90241428D01*
X137286819Y-90241428D02*
X137239200Y-90336666D01*
X137239200Y-90336666D02*
X137191580Y-90384285D01*
X137191580Y-90384285D02*
X137096342Y-90431904D01*
X137096342Y-90431904D02*
X136905866Y-90479523D01*
X136905866Y-90479523D02*
X136667771Y-90479523D01*
X136667771Y-90479523D02*
X136477295Y-90431904D01*
X136477295Y-90431904D02*
X136382057Y-90384285D01*
X136382057Y-90384285D02*
X136334438Y-90336666D01*
X136334438Y-90336666D02*
X136286819Y-90241428D01*
X137286819Y-100242666D02*
X136810628Y-100575999D01*
X137286819Y-100814094D02*
X136286819Y-100814094D01*
X136286819Y-100814094D02*
X136286819Y-100433142D01*
X136286819Y-100433142D02*
X136334438Y-100337904D01*
X136334438Y-100337904D02*
X136382057Y-100290285D01*
X136382057Y-100290285D02*
X136477295Y-100242666D01*
X136477295Y-100242666D02*
X136620152Y-100242666D01*
X136620152Y-100242666D02*
X136715390Y-100290285D01*
X136715390Y-100290285D02*
X136763009Y-100337904D01*
X136763009Y-100337904D02*
X136810628Y-100433142D01*
X136810628Y-100433142D02*
X136810628Y-100814094D01*
X137286819Y-99766475D02*
X137286819Y-99575999D01*
X137286819Y-99575999D02*
X137239200Y-99480761D01*
X137239200Y-99480761D02*
X137191580Y-99433142D01*
X137191580Y-99433142D02*
X137048723Y-99337904D01*
X137048723Y-99337904D02*
X136858247Y-99290285D01*
X136858247Y-99290285D02*
X136477295Y-99290285D01*
X136477295Y-99290285D02*
X136382057Y-99337904D01*
X136382057Y-99337904D02*
X136334438Y-99385523D01*
X136334438Y-99385523D02*
X136286819Y-99480761D01*
X136286819Y-99480761D02*
X136286819Y-99671237D01*
X136286819Y-99671237D02*
X136334438Y-99766475D01*
X136334438Y-99766475D02*
X136382057Y-99814094D01*
X136382057Y-99814094D02*
X136477295Y-99861713D01*
X136477295Y-99861713D02*
X136715390Y-99861713D01*
X136715390Y-99861713D02*
X136810628Y-99814094D01*
X136810628Y-99814094D02*
X136858247Y-99766475D01*
X136858247Y-99766475D02*
X136905866Y-99671237D01*
X136905866Y-99671237D02*
X136905866Y-99480761D01*
X136905866Y-99480761D02*
X136858247Y-99385523D01*
X136858247Y-99385523D02*
X136810628Y-99337904D01*
X136810628Y-99337904D02*
X136715390Y-99290285D01*
X143184333Y-88338819D02*
X142851000Y-87862628D01*
X142612905Y-88338819D02*
X142612905Y-87338819D01*
X142612905Y-87338819D02*
X142993857Y-87338819D01*
X142993857Y-87338819D02*
X143089095Y-87386438D01*
X143089095Y-87386438D02*
X143136714Y-87434057D01*
X143136714Y-87434057D02*
X143184333Y-87529295D01*
X143184333Y-87529295D02*
X143184333Y-87672152D01*
X143184333Y-87672152D02*
X143136714Y-87767390D01*
X143136714Y-87767390D02*
X143089095Y-87815009D01*
X143089095Y-87815009D02*
X142993857Y-87862628D01*
X142993857Y-87862628D02*
X142612905Y-87862628D01*
X143755762Y-87767390D02*
X143660524Y-87719771D01*
X143660524Y-87719771D02*
X143612905Y-87672152D01*
X143612905Y-87672152D02*
X143565286Y-87576914D01*
X143565286Y-87576914D02*
X143565286Y-87529295D01*
X143565286Y-87529295D02*
X143612905Y-87434057D01*
X143612905Y-87434057D02*
X143660524Y-87386438D01*
X143660524Y-87386438D02*
X143755762Y-87338819D01*
X143755762Y-87338819D02*
X143946238Y-87338819D01*
X143946238Y-87338819D02*
X144041476Y-87386438D01*
X144041476Y-87386438D02*
X144089095Y-87434057D01*
X144089095Y-87434057D02*
X144136714Y-87529295D01*
X144136714Y-87529295D02*
X144136714Y-87576914D01*
X144136714Y-87576914D02*
X144089095Y-87672152D01*
X144089095Y-87672152D02*
X144041476Y-87719771D01*
X144041476Y-87719771D02*
X143946238Y-87767390D01*
X143946238Y-87767390D02*
X143755762Y-87767390D01*
X143755762Y-87767390D02*
X143660524Y-87815009D01*
X143660524Y-87815009D02*
X143612905Y-87862628D01*
X143612905Y-87862628D02*
X143565286Y-87957866D01*
X143565286Y-87957866D02*
X143565286Y-88148342D01*
X143565286Y-88148342D02*
X143612905Y-88243580D01*
X143612905Y-88243580D02*
X143660524Y-88291200D01*
X143660524Y-88291200D02*
X143755762Y-88338819D01*
X143755762Y-88338819D02*
X143946238Y-88338819D01*
X143946238Y-88338819D02*
X144041476Y-88291200D01*
X144041476Y-88291200D02*
X144089095Y-88243580D01*
X144089095Y-88243580D02*
X144136714Y-88148342D01*
X144136714Y-88148342D02*
X144136714Y-87957866D01*
X144136714Y-87957866D02*
X144089095Y-87862628D01*
X144089095Y-87862628D02*
X144041476Y-87815009D01*
X144041476Y-87815009D02*
X143946238Y-87767390D01*
X143216333Y-104213819D02*
X142883000Y-103737628D01*
X142644905Y-104213819D02*
X142644905Y-103213819D01*
X142644905Y-103213819D02*
X143025857Y-103213819D01*
X143025857Y-103213819D02*
X143121095Y-103261438D01*
X143121095Y-103261438D02*
X143168714Y-103309057D01*
X143168714Y-103309057D02*
X143216333Y-103404295D01*
X143216333Y-103404295D02*
X143216333Y-103547152D01*
X143216333Y-103547152D02*
X143168714Y-103642390D01*
X143168714Y-103642390D02*
X143121095Y-103690009D01*
X143121095Y-103690009D02*
X143025857Y-103737628D01*
X143025857Y-103737628D02*
X142644905Y-103737628D01*
X143549667Y-103213819D02*
X144216333Y-103213819D01*
X144216333Y-103213819D02*
X143787762Y-104213819D01*
X156840833Y-89800580D02*
X156793214Y-89848200D01*
X156793214Y-89848200D02*
X156650357Y-89895819D01*
X156650357Y-89895819D02*
X156555119Y-89895819D01*
X156555119Y-89895819D02*
X156412262Y-89848200D01*
X156412262Y-89848200D02*
X156317024Y-89752961D01*
X156317024Y-89752961D02*
X156269405Y-89657723D01*
X156269405Y-89657723D02*
X156221786Y-89467247D01*
X156221786Y-89467247D02*
X156221786Y-89324390D01*
X156221786Y-89324390D02*
X156269405Y-89133914D01*
X156269405Y-89133914D02*
X156317024Y-89038676D01*
X156317024Y-89038676D02*
X156412262Y-88943438D01*
X156412262Y-88943438D02*
X156555119Y-88895819D01*
X156555119Y-88895819D02*
X156650357Y-88895819D01*
X156650357Y-88895819D02*
X156793214Y-88943438D01*
X156793214Y-88943438D02*
X156840833Y-88991057D01*
X157697976Y-89229152D02*
X157697976Y-89895819D01*
X157459881Y-88848200D02*
X157221786Y-89562485D01*
X157221786Y-89562485D02*
X157840833Y-89562485D01*
X147661333Y-90275580D02*
X147613714Y-90323200D01*
X147613714Y-90323200D02*
X147470857Y-90370819D01*
X147470857Y-90370819D02*
X147375619Y-90370819D01*
X147375619Y-90370819D02*
X147232762Y-90323200D01*
X147232762Y-90323200D02*
X147137524Y-90227961D01*
X147137524Y-90227961D02*
X147089905Y-90132723D01*
X147089905Y-90132723D02*
X147042286Y-89942247D01*
X147042286Y-89942247D02*
X147042286Y-89799390D01*
X147042286Y-89799390D02*
X147089905Y-89608914D01*
X147089905Y-89608914D02*
X147137524Y-89513676D01*
X147137524Y-89513676D02*
X147232762Y-89418438D01*
X147232762Y-89418438D02*
X147375619Y-89370819D01*
X147375619Y-89370819D02*
X147470857Y-89370819D01*
X147470857Y-89370819D02*
X147613714Y-89418438D01*
X147613714Y-89418438D02*
X147661333Y-89466057D01*
X148613714Y-90370819D02*
X148042286Y-90370819D01*
X148328000Y-90370819D02*
X148328000Y-89370819D01*
X148328000Y-89370819D02*
X148232762Y-89513676D01*
X148232762Y-89513676D02*
X148137524Y-89608914D01*
X148137524Y-89608914D02*
X148042286Y-89656533D01*
X148068833Y-101578580D02*
X148021214Y-101626200D01*
X148021214Y-101626200D02*
X147878357Y-101673819D01*
X147878357Y-101673819D02*
X147783119Y-101673819D01*
X147783119Y-101673819D02*
X147640262Y-101626200D01*
X147640262Y-101626200D02*
X147545024Y-101530961D01*
X147545024Y-101530961D02*
X147497405Y-101435723D01*
X147497405Y-101435723D02*
X147449786Y-101245247D01*
X147449786Y-101245247D02*
X147449786Y-101102390D01*
X147449786Y-101102390D02*
X147497405Y-100911914D01*
X147497405Y-100911914D02*
X147545024Y-100816676D01*
X147545024Y-100816676D02*
X147640262Y-100721438D01*
X147640262Y-100721438D02*
X147783119Y-100673819D01*
X147783119Y-100673819D02*
X147878357Y-100673819D01*
X147878357Y-100673819D02*
X148021214Y-100721438D01*
X148021214Y-100721438D02*
X148068833Y-100769057D01*
X148449786Y-100769057D02*
X148497405Y-100721438D01*
X148497405Y-100721438D02*
X148592643Y-100673819D01*
X148592643Y-100673819D02*
X148830738Y-100673819D01*
X148830738Y-100673819D02*
X148925976Y-100721438D01*
X148925976Y-100721438D02*
X148973595Y-100769057D01*
X148973595Y-100769057D02*
X149021214Y-100864295D01*
X149021214Y-100864295D02*
X149021214Y-100959533D01*
X149021214Y-100959533D02*
X148973595Y-101102390D01*
X148973595Y-101102390D02*
X148402167Y-101673819D01*
X148402167Y-101673819D02*
X149021214Y-101673819D01*
X134681333Y-80718819D02*
X134348000Y-80242628D01*
X134109905Y-80718819D02*
X134109905Y-79718819D01*
X134109905Y-79718819D02*
X134490857Y-79718819D01*
X134490857Y-79718819D02*
X134586095Y-79766438D01*
X134586095Y-79766438D02*
X134633714Y-79814057D01*
X134633714Y-79814057D02*
X134681333Y-79909295D01*
X134681333Y-79909295D02*
X134681333Y-80052152D01*
X134681333Y-80052152D02*
X134633714Y-80147390D01*
X134633714Y-80147390D02*
X134586095Y-80195009D01*
X134586095Y-80195009D02*
X134490857Y-80242628D01*
X134490857Y-80242628D02*
X134109905Y-80242628D01*
X135586095Y-79718819D02*
X135109905Y-79718819D01*
X135109905Y-79718819D02*
X135062286Y-80195009D01*
X135062286Y-80195009D02*
X135109905Y-80147390D01*
X135109905Y-80147390D02*
X135205143Y-80099771D01*
X135205143Y-80099771D02*
X135443238Y-80099771D01*
X135443238Y-80099771D02*
X135538476Y-80147390D01*
X135538476Y-80147390D02*
X135586095Y-80195009D01*
X135586095Y-80195009D02*
X135633714Y-80290247D01*
X135633714Y-80290247D02*
X135633714Y-80528342D01*
X135633714Y-80528342D02*
X135586095Y-80623580D01*
X135586095Y-80623580D02*
X135538476Y-80671200D01*
X135538476Y-80671200D02*
X135443238Y-80718819D01*
X135443238Y-80718819D02*
X135205143Y-80718819D01*
X135205143Y-80718819D02*
X135109905Y-80671200D01*
X135109905Y-80671200D02*
X135062286Y-80623580D01*
X155764095Y-79718819D02*
X155764095Y-80528342D01*
X155764095Y-80528342D02*
X155811714Y-80623580D01*
X155811714Y-80623580D02*
X155859333Y-80671200D01*
X155859333Y-80671200D02*
X155954571Y-80718819D01*
X155954571Y-80718819D02*
X156145047Y-80718819D01*
X156145047Y-80718819D02*
X156240285Y-80671200D01*
X156240285Y-80671200D02*
X156287904Y-80623580D01*
X156287904Y-80623580D02*
X156335523Y-80528342D01*
X156335523Y-80528342D02*
X156335523Y-79718819D01*
X156764095Y-79814057D02*
X156811714Y-79766438D01*
X156811714Y-79766438D02*
X156906952Y-79718819D01*
X156906952Y-79718819D02*
X157145047Y-79718819D01*
X157145047Y-79718819D02*
X157240285Y-79766438D01*
X157240285Y-79766438D02*
X157287904Y-79814057D01*
X157287904Y-79814057D02*
X157335523Y-79909295D01*
X157335523Y-79909295D02*
X157335523Y-80004533D01*
X157335523Y-80004533D02*
X157287904Y-80147390D01*
X157287904Y-80147390D02*
X156716476Y-80718819D01*
X156716476Y-80718819D02*
X157335523Y-80718819D01*
X174998142Y-81734819D02*
X174664809Y-81258628D01*
X174426714Y-81734819D02*
X174426714Y-80734819D01*
X174426714Y-80734819D02*
X174807666Y-80734819D01*
X174807666Y-80734819D02*
X174902904Y-80782438D01*
X174902904Y-80782438D02*
X174950523Y-80830057D01*
X174950523Y-80830057D02*
X174998142Y-80925295D01*
X174998142Y-80925295D02*
X174998142Y-81068152D01*
X174998142Y-81068152D02*
X174950523Y-81163390D01*
X174950523Y-81163390D02*
X174902904Y-81211009D01*
X174902904Y-81211009D02*
X174807666Y-81258628D01*
X174807666Y-81258628D02*
X174426714Y-81258628D01*
X175950523Y-81734819D02*
X175379095Y-81734819D01*
X175664809Y-81734819D02*
X175664809Y-80734819D01*
X175664809Y-80734819D02*
X175569571Y-80877676D01*
X175569571Y-80877676D02*
X175474333Y-80972914D01*
X175474333Y-80972914D02*
X175379095Y-81020533D01*
X176807666Y-81068152D02*
X176807666Y-81734819D01*
X176569571Y-80687200D02*
X176331476Y-81401485D01*
X176331476Y-81401485D02*
X176950523Y-81401485D01*
X141603819Y-107709666D02*
X141127628Y-108042999D01*
X141603819Y-108281094D02*
X140603819Y-108281094D01*
X140603819Y-108281094D02*
X140603819Y-107900142D01*
X140603819Y-107900142D02*
X140651438Y-107804904D01*
X140651438Y-107804904D02*
X140699057Y-107757285D01*
X140699057Y-107757285D02*
X140794295Y-107709666D01*
X140794295Y-107709666D02*
X140937152Y-107709666D01*
X140937152Y-107709666D02*
X141032390Y-107757285D01*
X141032390Y-107757285D02*
X141080009Y-107804904D01*
X141080009Y-107804904D02*
X141127628Y-107900142D01*
X141127628Y-107900142D02*
X141127628Y-108281094D01*
X140603819Y-107376332D02*
X140603819Y-106757285D01*
X140603819Y-106757285D02*
X140984771Y-107090618D01*
X140984771Y-107090618D02*
X140984771Y-106947761D01*
X140984771Y-106947761D02*
X141032390Y-106852523D01*
X141032390Y-106852523D02*
X141080009Y-106804904D01*
X141080009Y-106804904D02*
X141175247Y-106757285D01*
X141175247Y-106757285D02*
X141413342Y-106757285D01*
X141413342Y-106757285D02*
X141508580Y-106804904D01*
X141508580Y-106804904D02*
X141556200Y-106852523D01*
X141556200Y-106852523D02*
X141603819Y-106947761D01*
X141603819Y-106947761D02*
X141603819Y-107233475D01*
X141603819Y-107233475D02*
X141556200Y-107328713D01*
X141556200Y-107328713D02*
X141508580Y-107376332D01*
X164584142Y-88211819D02*
X164250809Y-87735628D01*
X164012714Y-88211819D02*
X164012714Y-87211819D01*
X164012714Y-87211819D02*
X164393666Y-87211819D01*
X164393666Y-87211819D02*
X164488904Y-87259438D01*
X164488904Y-87259438D02*
X164536523Y-87307057D01*
X164536523Y-87307057D02*
X164584142Y-87402295D01*
X164584142Y-87402295D02*
X164584142Y-87545152D01*
X164584142Y-87545152D02*
X164536523Y-87640390D01*
X164536523Y-87640390D02*
X164488904Y-87688009D01*
X164488904Y-87688009D02*
X164393666Y-87735628D01*
X164393666Y-87735628D02*
X164012714Y-87735628D01*
X165536523Y-88211819D02*
X164965095Y-88211819D01*
X165250809Y-88211819D02*
X165250809Y-87211819D01*
X165250809Y-87211819D02*
X165155571Y-87354676D01*
X165155571Y-87354676D02*
X165060333Y-87449914D01*
X165060333Y-87449914D02*
X164965095Y-87497533D01*
X165869857Y-87211819D02*
X166488904Y-87211819D01*
X166488904Y-87211819D02*
X166155571Y-87592771D01*
X166155571Y-87592771D02*
X166298428Y-87592771D01*
X166298428Y-87592771D02*
X166393666Y-87640390D01*
X166393666Y-87640390D02*
X166441285Y-87688009D01*
X166441285Y-87688009D02*
X166488904Y-87783247D01*
X166488904Y-87783247D02*
X166488904Y-88021342D01*
X166488904Y-88021342D02*
X166441285Y-88116580D01*
X166441285Y-88116580D02*
X166393666Y-88164200D01*
X166393666Y-88164200D02*
X166298428Y-88211819D01*
X166298428Y-88211819D02*
X166012714Y-88211819D01*
X166012714Y-88211819D02*
X165917476Y-88164200D01*
X165917476Y-88164200D02*
X165869857Y-88116580D01*
X134796833Y-111377819D02*
X134463500Y-110901628D01*
X134225405Y-111377819D02*
X134225405Y-110377819D01*
X134225405Y-110377819D02*
X134606357Y-110377819D01*
X134606357Y-110377819D02*
X134701595Y-110425438D01*
X134701595Y-110425438D02*
X134749214Y-110473057D01*
X134749214Y-110473057D02*
X134796833Y-110568295D01*
X134796833Y-110568295D02*
X134796833Y-110711152D01*
X134796833Y-110711152D02*
X134749214Y-110806390D01*
X134749214Y-110806390D02*
X134701595Y-110854009D01*
X134701595Y-110854009D02*
X134606357Y-110901628D01*
X134606357Y-110901628D02*
X134225405Y-110901628D01*
X135177786Y-110473057D02*
X135225405Y-110425438D01*
X135225405Y-110425438D02*
X135320643Y-110377819D01*
X135320643Y-110377819D02*
X135558738Y-110377819D01*
X135558738Y-110377819D02*
X135653976Y-110425438D01*
X135653976Y-110425438D02*
X135701595Y-110473057D01*
X135701595Y-110473057D02*
X135749214Y-110568295D01*
X135749214Y-110568295D02*
X135749214Y-110663533D01*
X135749214Y-110663533D02*
X135701595Y-110806390D01*
X135701595Y-110806390D02*
X135130167Y-111377819D01*
X135130167Y-111377819D02*
X135749214Y-111377819D01*
X128738333Y-80718819D02*
X128405000Y-80242628D01*
X128166905Y-80718819D02*
X128166905Y-79718819D01*
X128166905Y-79718819D02*
X128547857Y-79718819D01*
X128547857Y-79718819D02*
X128643095Y-79766438D01*
X128643095Y-79766438D02*
X128690714Y-79814057D01*
X128690714Y-79814057D02*
X128738333Y-79909295D01*
X128738333Y-79909295D02*
X128738333Y-80052152D01*
X128738333Y-80052152D02*
X128690714Y-80147390D01*
X128690714Y-80147390D02*
X128643095Y-80195009D01*
X128643095Y-80195009D02*
X128547857Y-80242628D01*
X128547857Y-80242628D02*
X128166905Y-80242628D01*
X129595476Y-80052152D02*
X129595476Y-80718819D01*
X129357381Y-79671200D02*
X129119286Y-80385485D01*
X129119286Y-80385485D02*
X129738333Y-80385485D01*
X153613819Y-89161857D02*
X153137628Y-89495190D01*
X153613819Y-89733285D02*
X152613819Y-89733285D01*
X152613819Y-89733285D02*
X152613819Y-89352333D01*
X152613819Y-89352333D02*
X152661438Y-89257095D01*
X152661438Y-89257095D02*
X152709057Y-89209476D01*
X152709057Y-89209476D02*
X152804295Y-89161857D01*
X152804295Y-89161857D02*
X152947152Y-89161857D01*
X152947152Y-89161857D02*
X153042390Y-89209476D01*
X153042390Y-89209476D02*
X153090009Y-89257095D01*
X153090009Y-89257095D02*
X153137628Y-89352333D01*
X153137628Y-89352333D02*
X153137628Y-89733285D01*
X153613819Y-88209476D02*
X153613819Y-88780904D01*
X153613819Y-88495190D02*
X152613819Y-88495190D01*
X152613819Y-88495190D02*
X152756676Y-88590428D01*
X152756676Y-88590428D02*
X152851914Y-88685666D01*
X152851914Y-88685666D02*
X152899533Y-88780904D01*
X152613819Y-87352333D02*
X152613819Y-87542809D01*
X152613819Y-87542809D02*
X152661438Y-87638047D01*
X152661438Y-87638047D02*
X152709057Y-87685666D01*
X152709057Y-87685666D02*
X152851914Y-87780904D01*
X152851914Y-87780904D02*
X153042390Y-87828523D01*
X153042390Y-87828523D02*
X153423342Y-87828523D01*
X153423342Y-87828523D02*
X153518580Y-87780904D01*
X153518580Y-87780904D02*
X153566200Y-87733285D01*
X153566200Y-87733285D02*
X153613819Y-87638047D01*
X153613819Y-87638047D02*
X153613819Y-87447571D01*
X153613819Y-87447571D02*
X153566200Y-87352333D01*
X153566200Y-87352333D02*
X153518580Y-87304714D01*
X153518580Y-87304714D02*
X153423342Y-87257095D01*
X153423342Y-87257095D02*
X153185247Y-87257095D01*
X153185247Y-87257095D02*
X153090009Y-87304714D01*
X153090009Y-87304714D02*
X153042390Y-87352333D01*
X153042390Y-87352333D02*
X152994771Y-87447571D01*
X152994771Y-87447571D02*
X152994771Y-87638047D01*
X152994771Y-87638047D02*
X153042390Y-87733285D01*
X153042390Y-87733285D02*
X153090009Y-87780904D01*
X153090009Y-87780904D02*
X153185247Y-87828523D01*
X167840819Y-93574857D02*
X167364628Y-93908190D01*
X167840819Y-94146285D02*
X166840819Y-94146285D01*
X166840819Y-94146285D02*
X166840819Y-93765333D01*
X166840819Y-93765333D02*
X166888438Y-93670095D01*
X166888438Y-93670095D02*
X166936057Y-93622476D01*
X166936057Y-93622476D02*
X167031295Y-93574857D01*
X167031295Y-93574857D02*
X167174152Y-93574857D01*
X167174152Y-93574857D02*
X167269390Y-93622476D01*
X167269390Y-93622476D02*
X167317009Y-93670095D01*
X167317009Y-93670095D02*
X167364628Y-93765333D01*
X167364628Y-93765333D02*
X167364628Y-94146285D01*
X166936057Y-93193904D02*
X166888438Y-93146285D01*
X166888438Y-93146285D02*
X166840819Y-93051047D01*
X166840819Y-93051047D02*
X166840819Y-92812952D01*
X166840819Y-92812952D02*
X166888438Y-92717714D01*
X166888438Y-92717714D02*
X166936057Y-92670095D01*
X166936057Y-92670095D02*
X167031295Y-92622476D01*
X167031295Y-92622476D02*
X167126533Y-92622476D01*
X167126533Y-92622476D02*
X167269390Y-92670095D01*
X167269390Y-92670095D02*
X167840819Y-93241523D01*
X167840819Y-93241523D02*
X167840819Y-92622476D01*
X167840819Y-91670095D02*
X167840819Y-92241523D01*
X167840819Y-91955809D02*
X166840819Y-91955809D01*
X166840819Y-91955809D02*
X166983676Y-92051047D01*
X166983676Y-92051047D02*
X167078914Y-92146285D01*
X167078914Y-92146285D02*
X167126533Y-92241523D01*
X143891095Y-91402819D02*
X143891095Y-92212342D01*
X143891095Y-92212342D02*
X143938714Y-92307580D01*
X143938714Y-92307580D02*
X143986333Y-92355200D01*
X143986333Y-92355200D02*
X144081571Y-92402819D01*
X144081571Y-92402819D02*
X144272047Y-92402819D01*
X144272047Y-92402819D02*
X144367285Y-92355200D01*
X144367285Y-92355200D02*
X144414904Y-92307580D01*
X144414904Y-92307580D02*
X144462523Y-92212342D01*
X144462523Y-92212342D02*
X144462523Y-91402819D01*
X145462523Y-92402819D02*
X144891095Y-92402819D01*
X145176809Y-92402819D02*
X145176809Y-91402819D01*
X145176809Y-91402819D02*
X145081571Y-91545676D01*
X145081571Y-91545676D02*
X144986333Y-91640914D01*
X144986333Y-91640914D02*
X144891095Y-91688533D01*
X166570819Y-83573857D02*
X166094628Y-83907190D01*
X166570819Y-84145285D02*
X165570819Y-84145285D01*
X165570819Y-84145285D02*
X165570819Y-83764333D01*
X165570819Y-83764333D02*
X165618438Y-83669095D01*
X165618438Y-83669095D02*
X165666057Y-83621476D01*
X165666057Y-83621476D02*
X165761295Y-83573857D01*
X165761295Y-83573857D02*
X165904152Y-83573857D01*
X165904152Y-83573857D02*
X165999390Y-83621476D01*
X165999390Y-83621476D02*
X166047009Y-83669095D01*
X166047009Y-83669095D02*
X166094628Y-83764333D01*
X166094628Y-83764333D02*
X166094628Y-84145285D01*
X166570819Y-82621476D02*
X166570819Y-83192904D01*
X166570819Y-82907190D02*
X165570819Y-82907190D01*
X165570819Y-82907190D02*
X165713676Y-83002428D01*
X165713676Y-83002428D02*
X165808914Y-83097666D01*
X165808914Y-83097666D02*
X165856533Y-83192904D01*
X165666057Y-82240523D02*
X165618438Y-82192904D01*
X165618438Y-82192904D02*
X165570819Y-82097666D01*
X165570819Y-82097666D02*
X165570819Y-81859571D01*
X165570819Y-81859571D02*
X165618438Y-81764333D01*
X165618438Y-81764333D02*
X165666057Y-81716714D01*
X165666057Y-81716714D02*
X165761295Y-81669095D01*
X165761295Y-81669095D02*
X165856533Y-81669095D01*
X165856533Y-81669095D02*
X165999390Y-81716714D01*
X165999390Y-81716714D02*
X166570819Y-82288142D01*
X166570819Y-82288142D02*
X166570819Y-81669095D01*
X151581819Y-87129857D02*
X151105628Y-87463190D01*
X151581819Y-87701285D02*
X150581819Y-87701285D01*
X150581819Y-87701285D02*
X150581819Y-87320333D01*
X150581819Y-87320333D02*
X150629438Y-87225095D01*
X150629438Y-87225095D02*
X150677057Y-87177476D01*
X150677057Y-87177476D02*
X150772295Y-87129857D01*
X150772295Y-87129857D02*
X150915152Y-87129857D01*
X150915152Y-87129857D02*
X151010390Y-87177476D01*
X151010390Y-87177476D02*
X151058009Y-87225095D01*
X151058009Y-87225095D02*
X151105628Y-87320333D01*
X151105628Y-87320333D02*
X151105628Y-87701285D01*
X151581819Y-86177476D02*
X151581819Y-86748904D01*
X151581819Y-86463190D02*
X150581819Y-86463190D01*
X150581819Y-86463190D02*
X150724676Y-86558428D01*
X150724676Y-86558428D02*
X150819914Y-86653666D01*
X150819914Y-86653666D02*
X150867533Y-86748904D01*
X150581819Y-85272714D02*
X150581819Y-85748904D01*
X150581819Y-85748904D02*
X151058009Y-85796523D01*
X151058009Y-85796523D02*
X151010390Y-85748904D01*
X151010390Y-85748904D02*
X150962771Y-85653666D01*
X150962771Y-85653666D02*
X150962771Y-85415571D01*
X150962771Y-85415571D02*
X151010390Y-85320333D01*
X151010390Y-85320333D02*
X151058009Y-85272714D01*
X151058009Y-85272714D02*
X151153247Y-85225095D01*
X151153247Y-85225095D02*
X151391342Y-85225095D01*
X151391342Y-85225095D02*
X151486580Y-85272714D01*
X151486580Y-85272714D02*
X151534200Y-85320333D01*
X151534200Y-85320333D02*
X151581819Y-85415571D01*
X151581819Y-85415571D02*
X151581819Y-85653666D01*
X151581819Y-85653666D02*
X151534200Y-85748904D01*
X151534200Y-85748904D02*
X151486580Y-85796523D01*
X128764333Y-111377819D02*
X128431000Y-110901628D01*
X128192905Y-111377819D02*
X128192905Y-110377819D01*
X128192905Y-110377819D02*
X128573857Y-110377819D01*
X128573857Y-110377819D02*
X128669095Y-110425438D01*
X128669095Y-110425438D02*
X128716714Y-110473057D01*
X128716714Y-110473057D02*
X128764333Y-110568295D01*
X128764333Y-110568295D02*
X128764333Y-110711152D01*
X128764333Y-110711152D02*
X128716714Y-110806390D01*
X128716714Y-110806390D02*
X128669095Y-110854009D01*
X128669095Y-110854009D02*
X128573857Y-110901628D01*
X128573857Y-110901628D02*
X128192905Y-110901628D01*
X129716714Y-111377819D02*
X129145286Y-111377819D01*
X129431000Y-111377819D02*
X129431000Y-110377819D01*
X129431000Y-110377819D02*
X129335762Y-110520676D01*
X129335762Y-110520676D02*
X129240524Y-110615914D01*
X129240524Y-110615914D02*
X129145286Y-110663533D01*
D12*
X170627318Y-87291332D02*
X171534461Y-87291332D01*
X171534461Y-87291332D02*
X171715889Y-87351809D01*
X171715889Y-87351809D02*
X171836842Y-87472761D01*
X171836842Y-87472761D02*
X171897318Y-87654190D01*
X171897318Y-87654190D02*
X171897318Y-87775142D01*
X170627318Y-86807523D02*
X170627318Y-86021332D01*
X170627318Y-86021332D02*
X171111127Y-86444666D01*
X171111127Y-86444666D02*
X171111127Y-86263237D01*
X171111127Y-86263237D02*
X171171603Y-86142285D01*
X171171603Y-86142285D02*
X171232080Y-86081809D01*
X171232080Y-86081809D02*
X171353032Y-86021332D01*
X171353032Y-86021332D02*
X171655413Y-86021332D01*
X171655413Y-86021332D02*
X171776365Y-86081809D01*
X171776365Y-86081809D02*
X171836842Y-86142285D01*
X171836842Y-86142285D02*
X171897318Y-86263237D01*
X171897318Y-86263237D02*
X171897318Y-86626094D01*
X171897318Y-86626094D02*
X171836842Y-86747047D01*
X171836842Y-86747047D02*
X171776365Y-86807523D01*
D14*
X139011819Y-96146857D02*
X138535628Y-96480190D01*
X139011819Y-96718285D02*
X138011819Y-96718285D01*
X138011819Y-96718285D02*
X138011819Y-96337333D01*
X138011819Y-96337333D02*
X138059438Y-96242095D01*
X138059438Y-96242095D02*
X138107057Y-96194476D01*
X138107057Y-96194476D02*
X138202295Y-96146857D01*
X138202295Y-96146857D02*
X138345152Y-96146857D01*
X138345152Y-96146857D02*
X138440390Y-96194476D01*
X138440390Y-96194476D02*
X138488009Y-96242095D01*
X138488009Y-96242095D02*
X138535628Y-96337333D01*
X138535628Y-96337333D02*
X138535628Y-96718285D01*
X139011819Y-95194476D02*
X139011819Y-95765904D01*
X139011819Y-95480190D02*
X138011819Y-95480190D01*
X138011819Y-95480190D02*
X138154676Y-95575428D01*
X138154676Y-95575428D02*
X138249914Y-95670666D01*
X138249914Y-95670666D02*
X138297533Y-95765904D01*
X139011819Y-94242095D02*
X139011819Y-94813523D01*
X139011819Y-94527809D02*
X138011819Y-94527809D01*
X138011819Y-94527809D02*
X138154676Y-94623047D01*
X138154676Y-94623047D02*
X138249914Y-94718285D01*
X138249914Y-94718285D02*
X138297533Y-94813523D01*
X159218333Y-78718580D02*
X159170714Y-78766200D01*
X159170714Y-78766200D02*
X159027857Y-78813819D01*
X159027857Y-78813819D02*
X158932619Y-78813819D01*
X158932619Y-78813819D02*
X158789762Y-78766200D01*
X158789762Y-78766200D02*
X158694524Y-78670961D01*
X158694524Y-78670961D02*
X158646905Y-78575723D01*
X158646905Y-78575723D02*
X158599286Y-78385247D01*
X158599286Y-78385247D02*
X158599286Y-78242390D01*
X158599286Y-78242390D02*
X158646905Y-78051914D01*
X158646905Y-78051914D02*
X158694524Y-77956676D01*
X158694524Y-77956676D02*
X158789762Y-77861438D01*
X158789762Y-77861438D02*
X158932619Y-77813819D01*
X158932619Y-77813819D02*
X159027857Y-77813819D01*
X159027857Y-77813819D02*
X159170714Y-77861438D01*
X159170714Y-77861438D02*
X159218333Y-77909057D01*
X159551667Y-77813819D02*
X160170714Y-77813819D01*
X160170714Y-77813819D02*
X159837381Y-78194771D01*
X159837381Y-78194771D02*
X159980238Y-78194771D01*
X159980238Y-78194771D02*
X160075476Y-78242390D01*
X160075476Y-78242390D02*
X160123095Y-78290009D01*
X160123095Y-78290009D02*
X160170714Y-78385247D01*
X160170714Y-78385247D02*
X160170714Y-78623342D01*
X160170714Y-78623342D02*
X160123095Y-78718580D01*
X160123095Y-78718580D02*
X160075476Y-78766200D01*
X160075476Y-78766200D02*
X159980238Y-78813819D01*
X159980238Y-78813819D02*
X159694524Y-78813819D01*
X159694524Y-78813819D02*
X159599286Y-78766200D01*
X159599286Y-78766200D02*
X159551667Y-78718580D01*
X141551819Y-83680666D02*
X141075628Y-84013999D01*
X141551819Y-84252094D02*
X140551819Y-84252094D01*
X140551819Y-84252094D02*
X140551819Y-83871142D01*
X140551819Y-83871142D02*
X140599438Y-83775904D01*
X140599438Y-83775904D02*
X140647057Y-83728285D01*
X140647057Y-83728285D02*
X140742295Y-83680666D01*
X140742295Y-83680666D02*
X140885152Y-83680666D01*
X140885152Y-83680666D02*
X140980390Y-83728285D01*
X140980390Y-83728285D02*
X141028009Y-83775904D01*
X141028009Y-83775904D02*
X141075628Y-83871142D01*
X141075628Y-83871142D02*
X141075628Y-84252094D01*
X140551819Y-82823523D02*
X140551819Y-83013999D01*
X140551819Y-83013999D02*
X140599438Y-83109237D01*
X140599438Y-83109237D02*
X140647057Y-83156856D01*
X140647057Y-83156856D02*
X140789914Y-83252094D01*
X140789914Y-83252094D02*
X140980390Y-83299713D01*
X140980390Y-83299713D02*
X141361342Y-83299713D01*
X141361342Y-83299713D02*
X141456580Y-83252094D01*
X141456580Y-83252094D02*
X141504200Y-83204475D01*
X141504200Y-83204475D02*
X141551819Y-83109237D01*
X141551819Y-83109237D02*
X141551819Y-82918761D01*
X141551819Y-82918761D02*
X141504200Y-82823523D01*
X141504200Y-82823523D02*
X141456580Y-82775904D01*
X141456580Y-82775904D02*
X141361342Y-82728285D01*
X141361342Y-82728285D02*
X141123247Y-82728285D01*
X141123247Y-82728285D02*
X141028009Y-82775904D01*
X141028009Y-82775904D02*
X140980390Y-82823523D01*
X140980390Y-82823523D02*
X140932771Y-82918761D01*
X140932771Y-82918761D02*
X140932771Y-83109237D01*
X140932771Y-83109237D02*
X140980390Y-83204475D01*
X140980390Y-83204475D02*
X141028009Y-83252094D01*
X141028009Y-83252094D02*
X141123247Y-83299713D01*
D15*
%TO.C,R10*%
X139673000Y-91085936D02*
X139673000Y-91540064D01*
X138203000Y-91085936D02*
X138203000Y-91540064D01*
%TO.C,R9*%
X139673000Y-100303064D02*
X139673000Y-99848936D01*
X138203000Y-100303064D02*
X138203000Y-99848936D01*
%TO.C,R8*%
X140218936Y-87149000D02*
X140673064Y-87149000D01*
X140218936Y-88619000D02*
X140673064Y-88619000D01*
%TO.C,R7*%
X140673064Y-102897000D02*
X140218936Y-102897000D01*
X140673064Y-104367000D02*
X140218936Y-104367000D01*
%TO.C,J2*%
X104513000Y-94004000D02*
X104513000Y-81004000D01*
X104513000Y-94004000D02*
X123713000Y-94004000D01*
X123713000Y-81004000D02*
X104513000Y-81004000D01*
X123713000Y-94004000D02*
X123713000Y-81004000D01*
%TO.C,C4*%
X157153767Y-88521000D02*
X156861233Y-88521000D01*
X157153767Y-87501000D02*
X156861233Y-87501000D01*
%TO.C,C1*%
X147835233Y-91184000D02*
X148127767Y-91184000D01*
X147835233Y-92204000D02*
X148127767Y-92204000D01*
%TO.C,C2*%
X147962233Y-98931000D02*
X148254767Y-98931000D01*
X147962233Y-99951000D02*
X148254767Y-99951000D01*
%TO.C,R5*%
X135690564Y-81259000D02*
X134236436Y-81259000D01*
X135690564Y-83079000D02*
X134236436Y-83079000D01*
%TO.C,U2*%
X156339000Y-81477000D02*
X156099000Y-81147000D01*
X156579000Y-81147000D01*
X156339000Y-81477000D01*
G36*
X156339000Y-81477000D02*
G01*
X156099000Y-81147000D01*
X156579000Y-81147000D01*
X156339000Y-81477000D01*
G37*
X160999000Y-86507000D02*
X156879000Y-86507000D01*
X160999000Y-86412000D02*
X160999000Y-86507000D01*
X160999000Y-81387000D02*
X160999000Y-81482000D01*
X156879000Y-86507000D02*
X156879000Y-86412000D01*
X156879000Y-81482000D02*
X156879000Y-81387000D01*
X156879000Y-81387000D02*
X160999000Y-81387000D01*
%TO.C,R14*%
X175757064Y-80237000D02*
X175302936Y-80237000D01*
X175757064Y-78767000D02*
X175302936Y-78767000D01*
%TO.C,R3*%
X138409000Y-106815936D02*
X138409000Y-108270064D01*
X140229000Y-106815936D02*
X140229000Y-108270064D01*
%TO.C,R13*%
X164888936Y-85244000D02*
X165343064Y-85244000D01*
X164888936Y-86714000D02*
X165343064Y-86714000D01*
%TO.C,R2*%
X135690564Y-108183000D02*
X134236436Y-108183000D01*
X135690564Y-110003000D02*
X134236436Y-110003000D01*
%TO.C,R4*%
X129658064Y-81259000D02*
X128203936Y-81259000D01*
X129658064Y-83079000D02*
X128203936Y-83079000D01*
%TO.C,R16*%
X152551000Y-85333064D02*
X152551000Y-84878936D01*
X154021000Y-85333064D02*
X154021000Y-84878936D01*
%TO.C,R21*%
X168121000Y-96477064D02*
X168121000Y-96022936D01*
X166651000Y-96477064D02*
X166651000Y-96022936D01*
%TO.C,U1*%
X144879000Y-93071000D02*
X148999000Y-93071000D01*
X144879000Y-93166000D02*
X144879000Y-93071000D01*
X144879000Y-98191000D02*
X144879000Y-98096000D01*
X148999000Y-93071000D02*
X148999000Y-93166000D01*
X148999000Y-98096000D02*
X148999000Y-98191000D01*
X148999000Y-98191000D02*
X144879000Y-98191000D01*
X144339000Y-93161000D02*
X144099000Y-92831000D01*
X144579000Y-92831000D01*
X144339000Y-93161000D01*
G36*
X144339000Y-93161000D02*
G01*
X144099000Y-92831000D01*
X144579000Y-92831000D01*
X144339000Y-93161000D01*
G37*
%TO.C,R12*%
X163473000Y-83031064D02*
X163473000Y-82576936D01*
X164943000Y-83031064D02*
X164943000Y-82576936D01*
%TO.C,R15*%
X150392000Y-83174064D02*
X150392000Y-82719936D01*
X151862000Y-83174064D02*
X151862000Y-82719936D01*
%TO.C,R1*%
X129658064Y-108183000D02*
X128203936Y-108183000D01*
X129658064Y-110003000D02*
X128203936Y-110003000D01*
D11*
%TO.C,J3*%
X171239000Y-93636000D02*
X171239000Y-93636000D01*
X171239000Y-93836000D02*
X171239000Y-93836000D01*
X171239000Y-93636000D02*
G75*
G02*
X171239000Y-93836000I0J-100000D01*
G01*
X171239000Y-93836000D02*
G75*
G02*
X171239000Y-93636000I0J100000D01*
G01*
D15*
%TO.C,R11*%
X140108000Y-95858064D02*
X140108000Y-95403936D01*
X141578000Y-95858064D02*
X141578000Y-95403936D01*
%TO.C,C3*%
X159773233Y-79373000D02*
X160065767Y-79373000D01*
X159773233Y-80393000D02*
X160065767Y-80393000D01*
%TO.C,J1*%
X104513000Y-110004000D02*
X104513000Y-97004000D01*
X104513000Y-110004000D02*
X123713000Y-110004000D01*
X123713000Y-97004000D02*
X104513000Y-97004000D01*
X123713000Y-110004000D02*
X123713000Y-97004000D01*
%TO.C,R6*%
X138409000Y-84394064D02*
X138409000Y-82939936D01*
X140229000Y-84394064D02*
X140229000Y-82939936D01*
%TD*%
M02*
