%TF.GenerationSoftware,KiCad,Pcbnew,9.0.6*%
%TF.CreationDate,2026-09-21T15:04:46-04:00*%
%TF.ProjectId,catpaw2,63617470-6177-4322-9e6b-696361645f70,rev?*%
%TF.SameCoordinates,Original*%
%TF.FileFunction,Copper,L1,Top*%
%TF.FilePolarity,Positive*%
%FSLAX46Y46*%
G04 Gerber Fmt 4.6, Leading zero omitted, Abs format (unit mm)*
G04 Created by KiCad (PCBNEW 9.0.6) date 2026-09-21 15:04:46*
%MOMM*%
%LPD*%
G01*
G04 APERTURE LIST*
G04 Aperture macros list*
%AMRoundRect*
0 Rectangle with rounded corners*
0 $1 Rounding radius*
0 $2 $3 $4 $5 $6 $7 $8 $9 X,Y pos of 4 corners*
0 Add a 4 corners polygon primitive as box body*
4,1,4,$2,$3,$4,$5,$6,$7,$8,$9,$2,$3,0*
0 Add four circle primitives for the rounded corners*
1,1,$1+$1,$2,$3*
1,1,$1+$1,$4,$5*
1,1,$1+$1,$6,$7*
1,1,$1+$1,$8,$9*
0 Add four rect primitives between the rounded corners*
20,1,$1+$1,$2,$3,$4,$5,0*
20,1,$1+$1,$4,$5,$6,$7,0*
20,1,$1+$1,$6,$7,$8,$9,0*
20,1,$1+$1,$8,$9,$2,$3,0*%
G04 Aperture macros list end*
%TA.AperFunction,ComponentPad*%
%ADD10R,1.700000X1.700000*%
%TD*%
%TA.AperFunction,ComponentPad*%
%ADD11C,1.700000*%
%TD*%
%TA.AperFunction,ComponentPad*%
%ADD12R,1.800000X1.800000*%
%TD*%
%TA.AperFunction,ComponentPad*%
%ADD13C,1.800000*%
%TD*%
%TA.AperFunction,SMDPad,CuDef*%
%ADD14RoundRect,0.250000X-0.450000X0.350000X-0.450000X-0.350000X0.450000X-0.350000X0.450000X0.350000X0*%
%TD*%
%TA.AperFunction,SMDPad,CuDef*%
%ADD15RoundRect,0.250000X0.450000X-0.350000X0.450000X0.350000X-0.450000X0.350000X-0.450000X-0.350000X0*%
%TD*%
%TA.AperFunction,SMDPad,CuDef*%
%ADD16RoundRect,0.250000X-0.350000X-0.450000X0.350000X-0.450000X0.350000X0.450000X-0.350000X0.450000X0*%
%TD*%
%TA.AperFunction,SMDPad,CuDef*%
%ADD17RoundRect,0.250000X0.350000X0.450000X-0.350000X0.450000X-0.350000X-0.450000X0.350000X-0.450000X0*%
%TD*%
%TA.AperFunction,ComponentPad*%
%ADD18C,3.200000*%
%TD*%
%TA.AperFunction,ComponentPad*%
%ADD19C,2.300000*%
%TD*%
%TA.AperFunction,SMDPad,CuDef*%
%ADD20RoundRect,0.237500X0.300000X0.237500X-0.300000X0.237500X-0.300000X-0.237500X0.300000X-0.237500X0*%
%TD*%
%TA.AperFunction,SMDPad,CuDef*%
%ADD21RoundRect,0.237500X-0.300000X-0.237500X0.300000X-0.237500X0.300000X0.237500X-0.300000X0.237500X0*%
%TD*%
%TA.AperFunction,SMDPad,CuDef*%
%ADD22RoundRect,0.250000X0.400000X0.625000X-0.400000X0.625000X-0.400000X-0.625000X0.400000X-0.625000X0*%
%TD*%
%TA.AperFunction,SMDPad,CuDef*%
%ADD23RoundRect,0.150000X-0.825000X-0.150000X0.825000X-0.150000X0.825000X0.150000X-0.825000X0.150000X0*%
%TD*%
%TA.AperFunction,SMDPad,CuDef*%
%ADD24RoundRect,0.250000X-0.625000X0.400000X-0.625000X-0.400000X0.625000X-0.400000X0.625000X0.400000X0*%
%TD*%
%TA.AperFunction,ComponentPad*%
%ADD25C,1.950000*%
%TD*%
%TA.AperFunction,SMDPad,CuDef*%
%ADD26RoundRect,0.250000X0.625000X-0.400000X0.625000X0.400000X-0.625000X0.400000X-0.625000X-0.400000X0*%
%TD*%
%TA.AperFunction,ViaPad*%
%ADD27C,0.600000*%
%TD*%
%TA.AperFunction,Conductor*%
%ADD28C,0.750000*%
%TD*%
%TA.AperFunction,Conductor*%
%ADD29C,0.500000*%
%TD*%
%TA.AperFunction,Conductor*%
%ADD30C,1.250000*%
%TD*%
G04 APERTURE END LIST*
D10*
%TO.P,J4,1,Pin_1*%
%TO.N,/Vcc+*%
X163322000Y-92202000D03*
D11*
%TO.P,J4,2,Pin_2*%
%TO.N,GND*%
X160782000Y-92202000D03*
%TO.P,J4,3,Pin_3*%
%TO.N,/Vcc-*%
X158242000Y-92202000D03*
%TD*%
D12*
%TO.P,D5,1,K*%
%TO.N,Net-(D5-K)*%
X180045000Y-79502000D03*
D13*
%TO.P,D5,2,A*%
%TO.N,Net-(D5-A)*%
X180045000Y-82042000D03*
%TD*%
D14*
%TO.P,R10,2*%
%TO.N,Net-(U1--)*%
X138938000Y-92313000D03*
%TO.P,R10,1*%
%TO.N,Net-(R10-Pad1)*%
X138938000Y-90313000D03*
%TD*%
D15*
%TO.P,R9,2*%
%TO.N,Net-(U1-+)*%
X138938000Y-99076000D03*
%TO.P,R9,1*%
%TO.N,Net-(R3-Pad1)*%
X138938000Y-101076000D03*
%TD*%
D16*
%TO.P,R8,1*%
%TO.N,Net-(R10-Pad1)*%
X139446000Y-87884000D03*
%TO.P,R8,2*%
%TO.N,GND*%
X141446000Y-87884000D03*
%TD*%
D17*
%TO.P,R7,1*%
%TO.N,GND*%
X141446000Y-103632000D03*
%TO.P,R7,2*%
%TO.N,Net-(R3-Pad1)*%
X139446000Y-103632000D03*
%TD*%
D18*
%TO.P,J2,1,Pin_1*%
%TO.N,/VACin-*%
X118013000Y-87504000D03*
D19*
%TO.P,J2,2*%
%TO.N,N/C*%
X121813000Y-92584000D03*
X121813000Y-82424000D03*
X111653000Y-92584000D03*
X111653000Y-82424000D03*
%TD*%
D20*
%TO.P,C4,1*%
%TO.N,GND*%
X157870000Y-88011000D03*
%TO.P,C4,2*%
%TO.N,/Vcc-*%
X156145000Y-88011000D03*
%TD*%
D21*
%TO.P,C1,1*%
%TO.N,GND*%
X147119000Y-91694000D03*
%TO.P,C1,2*%
%TO.N,/Vcc+*%
X148844000Y-91694000D03*
%TD*%
%TO.P,C2,1*%
%TO.N,GND*%
X147246000Y-99441000D03*
%TO.P,C2,2*%
%TO.N,/Vcc-*%
X148971000Y-99441000D03*
%TD*%
D22*
%TO.P,R5,1*%
%TO.N,Net-(R5-Pad1)*%
X136513500Y-82169000D03*
%TO.P,R5,2*%
%TO.N,Net-(R4-Pad1)*%
X133413500Y-82169000D03*
%TD*%
D23*
%TO.P,U2,8,V+*%
%TO.N,/Vcc+*%
X161414000Y-82042000D03*
%TO.P,U2,7*%
%TO.N,Net-(D5-A)*%
X161414000Y-83312000D03*
%TO.P,U2,6,-*%
X161414000Y-84582000D03*
%TO.P,U2,5,+*%
%TO.N,Net-(U2B-+)*%
X161414000Y-85852000D03*
%TO.P,U2,4,V-*%
%TO.N,/Vcc-*%
X156464000Y-85852000D03*
%TO.P,U2,3,+*%
%TO.N,Net-(U2A-+)*%
X156464000Y-84582000D03*
%TO.P,U2,2,-*%
%TO.N,GND*%
X156464000Y-83312000D03*
%TO.P,U2,1*%
X156464000Y-82042000D03*
%TD*%
D17*
%TO.P,R14,1*%
%TO.N,Net-(D5-K)*%
X176530000Y-79502000D03*
%TO.P,R14,2*%
%TO.N,GND*%
X174530000Y-79502000D03*
%TD*%
D24*
%TO.P,R3,1*%
%TO.N,Net-(R3-Pad1)*%
X139319000Y-105993000D03*
%TO.P,R3,2*%
%TO.N,Net-(R2-Pad1)*%
X139319000Y-109093000D03*
%TD*%
D16*
%TO.P,R13,1*%
%TO.N,Net-(U2B-+)*%
X164116000Y-85979000D03*
%TO.P,R13,2*%
%TO.N,GND*%
X166116000Y-85979000D03*
%TD*%
D22*
%TO.P,R2,1*%
%TO.N,Net-(R2-Pad1)*%
X136513500Y-109093000D03*
%TO.P,R2,2*%
%TO.N,Net-(R1-Pad1)*%
X133413500Y-109093000D03*
%TD*%
%TO.P,R4,1*%
%TO.N,Net-(R4-Pad1)*%
X130481000Y-82169000D03*
%TO.P,R4,2*%
%TO.N,/VACin-*%
X127381000Y-82169000D03*
%TD*%
D15*
%TO.P,R16,1*%
%TO.N,/Vcc-*%
X153286000Y-86106000D03*
%TO.P,R16,2*%
%TO.N,Net-(U2A-+)*%
X153286000Y-84106000D03*
%TD*%
%TO.P,R21,1*%
%TO.N,/In+ Analog Input*%
X167386000Y-97250000D03*
%TO.P,R21,2*%
%TO.N,GND*%
X167386000Y-95250000D03*
%TD*%
D23*
%TO.P,U1,1,-*%
%TO.N,Net-(U1--)*%
X144464000Y-93726000D03*
%TO.P,U1,2,Rg*%
%TO.N,Net-(R11-Pad2)*%
X144464000Y-94996000D03*
%TO.P,U1,3,Rg*%
%TO.N,Net-(R11-Pad1)*%
X144464000Y-96266000D03*
%TO.P,U1,4,+*%
%TO.N,Net-(U1-+)*%
X144464000Y-97536000D03*
%TO.P,U1,5,Vs-*%
%TO.N,/Vcc-*%
X149414000Y-97536000D03*
%TO.P,U1,6,Ref*%
%TO.N,GND*%
X149414000Y-96266000D03*
%TO.P,U1,7*%
%TO.N,/In+ Analog Input*%
X149414000Y-94996000D03*
%TO.P,U1,8,Vs+*%
%TO.N,/Vcc+*%
X149414000Y-93726000D03*
%TD*%
D15*
%TO.P,R12,1*%
%TO.N,Net-(U2B-+)*%
X164208000Y-83804000D03*
%TO.P,R12,2*%
%TO.N,/Vcc+*%
X164208000Y-81804000D03*
%TD*%
%TO.P,R15,1*%
%TO.N,Net-(U2A-+)*%
X151127000Y-83947000D03*
%TO.P,R15,2*%
%TO.N,/Vcc+*%
X151127000Y-81947000D03*
%TD*%
D22*
%TO.P,R1,1*%
%TO.N,Net-(R1-Pad1)*%
X130481000Y-109093000D03*
%TO.P,R1,2*%
%TO.N,/VACin+*%
X127381000Y-109093000D03*
%TD*%
D25*
%TO.P,J3,1,Pin_1*%
%TO.N,/Vcc+*%
X172739000Y-93736000D03*
%TO.P,J3,2,Pin_2*%
%TO.N,/In+ Analog Input*%
X172739000Y-97272000D03*
%TO.P,J3,3,Pin_3*%
%TO.N,/Vcc-*%
X176275000Y-97272000D03*
%TO.P,J3,4,Pin_4*%
%TO.N,GND*%
X176275000Y-93736000D03*
%TO.P,J3,5,Pin_5*%
%TO.N,/cable shield*%
X174507000Y-95504000D03*
%TD*%
D15*
%TO.P,R11,1*%
%TO.N,Net-(R11-Pad1)*%
X140843000Y-96631000D03*
%TO.P,R11,2*%
%TO.N,Net-(R11-Pad2)*%
X140843000Y-94631000D03*
%TD*%
D21*
%TO.P,C3,1*%
%TO.N,GND*%
X159057000Y-79883000D03*
%TO.P,C3,2*%
%TO.N,/Vcc+*%
X160782000Y-79883000D03*
%TD*%
D18*
%TO.P,J1,1,Pin_1*%
%TO.N,/VACin+*%
X118013000Y-103504000D03*
D19*
%TO.P,J1,2*%
%TO.N,N/C*%
X121813000Y-108584000D03*
X121813000Y-98424000D03*
X111653000Y-108584000D03*
X111653000Y-98424000D03*
%TD*%
D26*
%TO.P,R6,1*%
%TO.N,Net-(R10-Pad1)*%
X139319000Y-85217000D03*
%TO.P,R6,2*%
%TO.N,Net-(R5-Pad1)*%
X139319000Y-82117000D03*
%TD*%
D27*
%TO.N,GND*%
X155257500Y-77470000D03*
X179832000Y-77470000D03*
X144335500Y-77470000D03*
X163449000Y-77470000D03*
X157988000Y-77470000D03*
X177101500Y-77470000D03*
X147066000Y-77470000D03*
X166179500Y-77470000D03*
X174371000Y-77470000D03*
X152527000Y-77470000D03*
X171640500Y-77470000D03*
X168910000Y-77470000D03*
X160718500Y-77470000D03*
X141605000Y-77470000D03*
X149796500Y-77470000D03*
X179832000Y-113538000D03*
X177101500Y-113538000D03*
X174371000Y-113538000D03*
X141605000Y-113538000D03*
X144335500Y-113538000D03*
X147066000Y-113538000D03*
X149796500Y-113538000D03*
X171640500Y-113538000D03*
X168910000Y-113538000D03*
X166179500Y-113538000D03*
X163449000Y-113538000D03*
X160718500Y-113538000D03*
X157988000Y-113538000D03*
X155257500Y-113538000D03*
X152527000Y-113538000D03*
%TO.N,/Vcc-*%
X150495000Y-99568000D03*
X150495000Y-98806000D03*
%TO.N,/Vcc+*%
X150495000Y-92202000D03*
X150495000Y-91440000D03*
%TO.N,/Vcc-*%
X152908000Y-88011000D03*
X153797000Y-88011000D03*
X154686000Y-88011000D03*
%TO.N,/Vcc+*%
X164211000Y-79883000D03*
X163322000Y-79883000D03*
X162433000Y-79883000D03*
X153035000Y-81947000D03*
%TD*%
D28*
%TO.N,/In+ Analog Input*%
X172739000Y-97272000D02*
X167396000Y-97272000D01*
X167396000Y-97272000D02*
X167386000Y-97282000D01*
X158369000Y-97282000D02*
X156083000Y-94996000D01*
X167386000Y-97282000D02*
X158369000Y-97282000D01*
X156083000Y-94996000D02*
X149414000Y-94996000D01*
D29*
%TO.N,Net-(D5-A)*%
X179410000Y-82042000D02*
X172085000Y-82042000D01*
X172085000Y-82042000D02*
X168529000Y-85598000D01*
X167132000Y-88519000D02*
X161417000Y-88519000D01*
X168529000Y-85598000D02*
X168529000Y-87122000D01*
X168529000Y-87122000D02*
X167132000Y-88519000D01*
X161417000Y-88519000D02*
X159512000Y-86614000D01*
X159512000Y-86614000D02*
X159512000Y-85344000D01*
%TO.N,Net-(D5-K)*%
X176387000Y-79502000D02*
X179324000Y-79502000D01*
D28*
%TO.N,/Vcc+*%
X153035000Y-81947000D02*
X153130000Y-81947000D01*
X151127000Y-81947000D02*
X153035000Y-81947000D01*
%TO.N,Net-(U2A-+)*%
X156464000Y-84582000D02*
X155194000Y-84582000D01*
X155194000Y-84582000D02*
X154718000Y-84106000D01*
X154718000Y-84106000D02*
X153286000Y-84106000D01*
X151127000Y-83947000D02*
X153127000Y-83947000D01*
X153127000Y-83947000D02*
X153286000Y-84106000D01*
D29*
%TO.N,Net-(D5-A)*%
X161414000Y-83312000D02*
X160274000Y-83312000D01*
X159512000Y-84074000D02*
X159512000Y-85344000D01*
X160274000Y-83312000D02*
X159512000Y-84074000D01*
X159512000Y-85344000D02*
X160274000Y-84582000D01*
X160274000Y-84582000D02*
X161414000Y-84582000D01*
%TO.N,Net-(U2B-+)*%
X164116000Y-85979000D02*
X164116000Y-83896000D01*
X164116000Y-83896000D02*
X164208000Y-83804000D01*
X161414000Y-85852000D02*
X163989000Y-85852000D01*
X163989000Y-85852000D02*
X164116000Y-85979000D01*
D28*
%TO.N,Net-(U1--)*%
X144464000Y-93726000D02*
X143129000Y-93726000D01*
X143129000Y-93726000D02*
X141716000Y-92313000D01*
X141716000Y-92313000D02*
X138938000Y-92313000D01*
%TO.N,Net-(U1-+)*%
X144464000Y-97536000D02*
X143383000Y-97536000D01*
X143383000Y-97536000D02*
X141843000Y-99076000D01*
X141843000Y-99076000D02*
X138938000Y-99076000D01*
D30*
%TO.N,Net-(R5-Pad1)*%
X136513500Y-82169000D02*
X139267000Y-82169000D01*
X139267000Y-82169000D02*
X139319000Y-82117000D01*
%TO.N,Net-(R2-Pad1)*%
X136513500Y-109093000D02*
X139319000Y-109093000D01*
%TO.N,Net-(R1-Pad1)*%
X130481000Y-109093000D02*
X133413500Y-109093000D01*
%TO.N,/VACin-*%
X118013000Y-87504000D02*
X122046000Y-87504000D01*
X122046000Y-87504000D02*
X127381000Y-82169000D01*
%TO.N,/VACin+*%
X118013000Y-103504000D02*
X121792000Y-103504000D01*
X121792000Y-103504000D02*
X127381000Y-109093000D01*
%TO.N,Net-(R4-Pad1)*%
X130481000Y-82169000D02*
X133413500Y-82169000D01*
D28*
%TO.N,Net-(R11-Pad2)*%
X142875000Y-94996000D02*
X142510000Y-94631000D01*
X142510000Y-94631000D02*
X140843000Y-94631000D01*
X144464000Y-94996000D02*
X142875000Y-94996000D01*
%TO.N,Net-(R11-Pad1)*%
X142510000Y-96631000D02*
X140843000Y-96631000D01*
X142875000Y-96266000D02*
X142510000Y-96631000D01*
X144464000Y-96266000D02*
X142875000Y-96266000D01*
%TD*%
%TA.AperFunction,Conductor*%
%TO.N,GND*%
G36*
X181488395Y-76504972D02*
G01*
X181649919Y-76519103D01*
X181671204Y-76522855D01*
X181822587Y-76563419D01*
X181842885Y-76570807D01*
X181962564Y-76626614D01*
X181984915Y-76637037D01*
X182003634Y-76647844D01*
X182132010Y-76737734D01*
X182148567Y-76751628D01*
X182259371Y-76862432D01*
X182273265Y-76878989D01*
X182363155Y-77007365D01*
X182373962Y-77026084D01*
X182440189Y-77168107D01*
X182447582Y-77188418D01*
X182488143Y-77339794D01*
X182491896Y-77361080D01*
X182506028Y-77522603D01*
X182506500Y-77533411D01*
X182506500Y-113474588D01*
X182506028Y-113485396D01*
X182491896Y-113646919D01*
X182488143Y-113668205D01*
X182447582Y-113819581D01*
X182440189Y-113839892D01*
X182373962Y-113981915D01*
X182363155Y-114000634D01*
X182273265Y-114129010D01*
X182259371Y-114145567D01*
X182148567Y-114256371D01*
X182132010Y-114270265D01*
X182003634Y-114360155D01*
X181984915Y-114370962D01*
X181842892Y-114437189D01*
X181822581Y-114444582D01*
X181671205Y-114485143D01*
X181649919Y-114488896D01*
X181504332Y-114501633D01*
X181488394Y-114503028D01*
X181477588Y-114503500D01*
X140185910Y-114503500D01*
X140118871Y-114483815D01*
X140073116Y-114431011D01*
X140061910Y-114379814D01*
X140061888Y-114370962D01*
X140051677Y-110337799D01*
X140071191Y-110270716D01*
X140123879Y-110224827D01*
X140136660Y-110219789D01*
X140263334Y-110177814D01*
X140412656Y-110085712D01*
X140536712Y-109961656D01*
X140628814Y-109812334D01*
X140683999Y-109645797D01*
X140694500Y-109543009D01*
X140694499Y-108642992D01*
X140683999Y-108540203D01*
X140628814Y-108373666D01*
X140536712Y-108224344D01*
X140412656Y-108100288D01*
X140263334Y-108008186D01*
X140130365Y-107964124D01*
X140072921Y-107924352D01*
X140046098Y-107859836D01*
X140045371Y-107846752D01*
X140044332Y-107436571D01*
X140063847Y-107369485D01*
X140116535Y-107323596D01*
X140161655Y-107312440D01*
X140214893Y-107309570D01*
X140214899Y-107309569D01*
X140214915Y-107309568D01*
X140241398Y-107306704D01*
X140295106Y-107297951D01*
X140429854Y-107247506D01*
X140491134Y-107213948D01*
X140606211Y-107127585D01*
X140782932Y-106950435D01*
X140819231Y-106909900D01*
X140835922Y-106889111D01*
X140867661Y-106844901D01*
X140927114Y-106713879D01*
X140946636Y-106646793D01*
X140946636Y-106646791D01*
X140946652Y-106646672D01*
X140947845Y-106638308D01*
X140947856Y-106638156D01*
X140958946Y-106559678D01*
X140966768Y-106504326D01*
X140962411Y-104706300D01*
X140981933Y-104639213D01*
X141034626Y-104593331D01*
X141086411Y-104582000D01*
X141196000Y-104582000D01*
X141696000Y-104582000D01*
X141843828Y-104582000D01*
X141843844Y-104581999D01*
X141903372Y-104575598D01*
X141903379Y-104575596D01*
X142038086Y-104525354D01*
X142038093Y-104525350D01*
X142153187Y-104439190D01*
X142153190Y-104439187D01*
X142239350Y-104324093D01*
X142239354Y-104324086D01*
X142289596Y-104189379D01*
X142289598Y-104189372D01*
X142295999Y-104129844D01*
X142296000Y-104129827D01*
X142296000Y-103882000D01*
X141696000Y-103882000D01*
X141696000Y-104582000D01*
X141196000Y-104582000D01*
X141196000Y-103382000D01*
X141696000Y-103382000D01*
X142296000Y-103382000D01*
X142296000Y-103134172D01*
X142295999Y-103134155D01*
X142289598Y-103074627D01*
X142289596Y-103074620D01*
X142240161Y-102942077D01*
X142240160Y-102942076D01*
X142240160Y-102942074D01*
X142239354Y-102939913D01*
X142239350Y-102939906D01*
X142212183Y-102903616D01*
X173231500Y-102903616D01*
X173231500Y-103104384D01*
X173236175Y-103133902D01*
X173262907Y-103302680D01*
X173324949Y-103493626D01*
X173398294Y-103637572D01*
X173416095Y-103672508D01*
X173534103Y-103834932D01*
X173676068Y-103976897D01*
X173838492Y-104094905D01*
X173860760Y-104106251D01*
X174017373Y-104186050D01*
X174017375Y-104186050D01*
X174017378Y-104186052D01*
X174208320Y-104248093D01*
X174406616Y-104279500D01*
X174406617Y-104279500D01*
X174607383Y-104279500D01*
X174607384Y-104279500D01*
X174805680Y-104248093D01*
X174996622Y-104186052D01*
X175175508Y-104094905D01*
X175337932Y-103976897D01*
X175479897Y-103834932D01*
X175597905Y-103672508D01*
X175689052Y-103493622D01*
X175751093Y-103302680D01*
X175782500Y-103104384D01*
X175782500Y-102903616D01*
X175777825Y-102874097D01*
X176856500Y-102874097D01*
X176856500Y-103133902D01*
X176897140Y-103390493D01*
X176977422Y-103637576D01*
X177058534Y-103796764D01*
X177077982Y-103834934D01*
X177095368Y-103869054D01*
X177248066Y-104079225D01*
X177248069Y-104079229D01*
X177431771Y-104262931D01*
X177641949Y-104415634D01*
X177789445Y-104490787D01*
X177873423Y-104533577D01*
X177873425Y-104533577D01*
X177873428Y-104533579D01*
X178120507Y-104613860D01*
X178252706Y-104634797D01*
X178377098Y-104654500D01*
X178377103Y-104654500D01*
X178636902Y-104654500D01*
X178750298Y-104636539D01*
X178893493Y-104613860D01*
X179140572Y-104533579D01*
X179372051Y-104415634D01*
X179582229Y-104262931D01*
X179765931Y-104079229D01*
X179918634Y-103869051D01*
X180036579Y-103637572D01*
X180116860Y-103390493D01*
X180157222Y-103135655D01*
X180157500Y-103133902D01*
X180157500Y-102874097D01*
X180130768Y-102705319D01*
X180116860Y-102617507D01*
X180036579Y-102370428D01*
X180036577Y-102370425D01*
X180036577Y-102370423D01*
X179993787Y-102286445D01*
X179918634Y-102138949D01*
X179765931Y-101928771D01*
X179582229Y-101745069D01*
X179372051Y-101592366D01*
X179299764Y-101555534D01*
X179140576Y-101474422D01*
X178893493Y-101394140D01*
X178636902Y-101353500D01*
X178636897Y-101353500D01*
X178377103Y-101353500D01*
X178377098Y-101353500D01*
X178120506Y-101394140D01*
X177873423Y-101474422D01*
X177641945Y-101592368D01*
X177431774Y-101745066D01*
X177431768Y-101745071D01*
X177248071Y-101928768D01*
X177248066Y-101928774D01*
X177095368Y-102138945D01*
X176977422Y-102370423D01*
X176897140Y-102617506D01*
X176856500Y-102874097D01*
X175777825Y-102874097D01*
X175751093Y-102705320D01*
X175689052Y-102514378D01*
X175689050Y-102514375D01*
X175689050Y-102514373D01*
X175640967Y-102420007D01*
X175597905Y-102335492D01*
X175479897Y-102173068D01*
X175337932Y-102031103D01*
X175175508Y-101913095D01*
X174996626Y-101821949D01*
X174805680Y-101759907D01*
X174712009Y-101745071D01*
X174607384Y-101728500D01*
X174406616Y-101728500D01*
X174307468Y-101744203D01*
X174208319Y-101759907D01*
X174017373Y-101821949D01*
X173838491Y-101913095D01*
X173745822Y-101980423D01*
X173676068Y-102031103D01*
X173676066Y-102031105D01*
X173676065Y-102031105D01*
X173534105Y-102173065D01*
X173534105Y-102173066D01*
X173534103Y-102173068D01*
X173483423Y-102242822D01*
X173416095Y-102335491D01*
X173324949Y-102514373D01*
X173262907Y-102705319D01*
X173257629Y-102738645D01*
X173231500Y-102903616D01*
X142212183Y-102903616D01*
X142153190Y-102824812D01*
X142153187Y-102824809D01*
X142038093Y-102738649D01*
X142038086Y-102738645D01*
X141903379Y-102688403D01*
X141903372Y-102688401D01*
X141843844Y-102682000D01*
X141696000Y-102682000D01*
X141696000Y-103382000D01*
X141196000Y-103382000D01*
X141196000Y-102722528D01*
X141045120Y-102676633D01*
X141030706Y-102667171D01*
X141014168Y-102662315D01*
X141002108Y-102648398D01*
X140986711Y-102638290D01*
X140979701Y-102622538D01*
X140968413Y-102609511D01*
X140963101Y-102585235D01*
X140958304Y-102574456D01*
X140959309Y-102567910D01*
X140957207Y-102558302D01*
X140952229Y-100503048D01*
X140949234Y-100449315D01*
X140947830Y-100436484D01*
X140946372Y-100423143D01*
X140946369Y-100423121D01*
X140946368Y-100423110D01*
X140937681Y-100370018D01*
X140890101Y-100242920D01*
X140887238Y-100235272D01*
X140887236Y-100235268D01*
X140853681Y-100173992D01*
X140853678Y-100173988D01*
X140845406Y-100162966D01*
X140835623Y-100149931D01*
X140811127Y-100084497D01*
X140825895Y-100016206D01*
X140875240Y-99966740D01*
X140934800Y-99951500D01*
X141929231Y-99951500D01*
X141929232Y-99951499D01*
X142098374Y-99917855D01*
X142257705Y-99851858D01*
X142401099Y-99756045D01*
X142431998Y-99725146D01*
X146458500Y-99725146D01*
X146464741Y-99783187D01*
X146513732Y-99914537D01*
X146597741Y-100026758D01*
X146709962Y-100110767D01*
X146841312Y-100159758D01*
X146899353Y-100165999D01*
X146899370Y-100166000D01*
X146996000Y-100166000D01*
X146996000Y-99691000D01*
X146458500Y-99691000D01*
X146458500Y-99725146D01*
X142431998Y-99725146D01*
X142466144Y-99691000D01*
X142605188Y-99551957D01*
X143000291Y-99156853D01*
X146458500Y-99156853D01*
X146458500Y-99191000D01*
X146996000Y-99191000D01*
X146996000Y-98752608D01*
X147496000Y-98752608D01*
X147496000Y-100166000D01*
X147592630Y-100166000D01*
X147592639Y-100165999D01*
X147620847Y-100162966D01*
X147689607Y-100175369D01*
X147740746Y-100222978D01*
X147750287Y-100242920D01*
X147771971Y-100301055D01*
X147771973Y-100301058D01*
X147771975Y-100301064D01*
X147805460Y-100362387D01*
X147891684Y-100477568D01*
X147891688Y-100477572D01*
X147891693Y-100477578D01*
X148065223Y-100651107D01*
X148065239Y-100651123D01*
X148065255Y-100651137D01*
X148065262Y-100651144D01*
X148105480Y-100687271D01*
X148105487Y-100687277D01*
X148105494Y-100687282D01*
X148105500Y-100687288D01*
X148126142Y-100703922D01*
X148170067Y-100735593D01*
X148180310Y-100740270D01*
X148208675Y-100758499D01*
X148271809Y-100782046D01*
X148275829Y-100783882D01*
X148275831Y-100783882D01*
X148300951Y-100795352D01*
X148303547Y-100796114D01*
X148303547Y-100796113D01*
X148327352Y-100803101D01*
X148327375Y-100803107D01*
X148331605Y-100804349D01*
X148343484Y-100808780D01*
X148355829Y-100811465D01*
X148361518Y-100813135D01*
X148362322Y-100813372D01*
X148364186Y-100814017D01*
X148367943Y-100815023D01*
X148367946Y-100815024D01*
X148510362Y-100835500D01*
X148510365Y-100835500D01*
X151082640Y-100835500D01*
X151092786Y-100834955D01*
X151136678Y-100832603D01*
X151136686Y-100832602D01*
X151136688Y-100832602D01*
X151136689Y-100832602D01*
X151143682Y-100831849D01*
X151163036Y-100829769D01*
X151163046Y-100829767D01*
X151163049Y-100829767D01*
X151172648Y-100828211D01*
X151216448Y-100821114D01*
X151351257Y-100770832D01*
X151412580Y-100737347D01*
X151527761Y-100651123D01*
X151705123Y-100473761D01*
X151741288Y-100433500D01*
X151757922Y-100412858D01*
X151789567Y-100368974D01*
X151849338Y-100238097D01*
X151869023Y-100171058D01*
X151869024Y-100171054D01*
X151889500Y-100028638D01*
X151889500Y-97329362D01*
X151886603Y-97275322D01*
X151883769Y-97248964D01*
X151875114Y-97195552D01*
X151824832Y-97060743D01*
X151791347Y-96999420D01*
X151705123Y-96884239D01*
X151705115Y-96884231D01*
X151705113Y-96884228D01*
X151527776Y-96706892D01*
X151527761Y-96706877D01*
X151526344Y-96705604D01*
X151487519Y-96670728D01*
X151487507Y-96670718D01*
X151466856Y-96654076D01*
X151422974Y-96622433D01*
X151292100Y-96562663D01*
X151288476Y-96561599D01*
X151225058Y-96542977D01*
X151225060Y-96542977D01*
X151225055Y-96542976D01*
X151151968Y-96532468D01*
X151082638Y-96522500D01*
X150690867Y-96522500D01*
X150668731Y-96516000D01*
X148199852Y-96516000D01*
X148202241Y-96531085D01*
X148193285Y-96600379D01*
X148148288Y-96653830D01*
X148146535Y-96654941D01*
X148145322Y-96655750D01*
X148030141Y-96741974D01*
X148030129Y-96741984D01*
X147887882Y-96884231D01*
X147851690Y-96924524D01*
X147851681Y-96924534D01*
X147835062Y-96945160D01*
X147835046Y-96945181D01*
X147803477Y-96988956D01*
X147803473Y-96988963D01*
X147802473Y-96991150D01*
X147798793Y-96999206D01*
X147780506Y-97027666D01*
X147757006Y-97090664D01*
X147755159Y-97094709D01*
X147743683Y-97119828D01*
X147735870Y-97146420D01*
X147735871Y-97146421D01*
X147734621Y-97150679D01*
X147730222Y-97162474D01*
X147727535Y-97174823D01*
X147726289Y-97179065D01*
X147726289Y-97179066D01*
X147726286Y-97179078D01*
X147723974Y-97186948D01*
X147703500Y-97329360D01*
X147703500Y-98592000D01*
X147696918Y-98614412D01*
X147694780Y-98637679D01*
X147687257Y-98647313D01*
X147683815Y-98659039D01*
X147666161Y-98674335D01*
X147651783Y-98692753D01*
X147634587Y-98701694D01*
X147631011Y-98704794D01*
X147626913Y-98705685D01*
X147620470Y-98709036D01*
X147496000Y-98752608D01*
X146996000Y-98752608D01*
X146996000Y-98716000D01*
X146899353Y-98716000D01*
X146841312Y-98722241D01*
X146709962Y-98771232D01*
X146597741Y-98855241D01*
X146513732Y-98967462D01*
X146464741Y-99098812D01*
X146458500Y-99156853D01*
X143000291Y-99156853D01*
X143091276Y-99065868D01*
X143709325Y-98447819D01*
X143770648Y-98414334D01*
X143797006Y-98411500D01*
X144550231Y-98411500D01*
X144550232Y-98411499D01*
X144719374Y-98377855D01*
X144796426Y-98345938D01*
X144843879Y-98336500D01*
X145354686Y-98336500D01*
X145354694Y-98336500D01*
X145391569Y-98333598D01*
X145391571Y-98333597D01*
X145391573Y-98333597D01*
X145433191Y-98321505D01*
X145549398Y-98287744D01*
X145690865Y-98204081D01*
X145807081Y-98087865D01*
X145890744Y-97946398D01*
X145936598Y-97788569D01*
X145939500Y-97751694D01*
X145939500Y-97320306D01*
X145936598Y-97283431D01*
X145934242Y-97275322D01*
X145899538Y-97155870D01*
X145890744Y-97125602D01*
X145807081Y-96984135D01*
X145807078Y-96984132D01*
X145802298Y-96977969D01*
X145804750Y-96976066D01*
X145778155Y-96927421D01*
X145783104Y-96857726D01*
X145803940Y-96825304D01*
X145802298Y-96824031D01*
X145807075Y-96817870D01*
X145807081Y-96817865D01*
X145890744Y-96676398D01*
X145932962Y-96531085D01*
X145936597Y-96518573D01*
X145936598Y-96518567D01*
X145939499Y-96481701D01*
X145939500Y-96481694D01*
X145939500Y-96050306D01*
X145936598Y-96013431D01*
X145930039Y-95990856D01*
X145897238Y-95877953D01*
X145890744Y-95855602D01*
X145807081Y-95714135D01*
X145807078Y-95714132D01*
X145802298Y-95707969D01*
X145804750Y-95706066D01*
X145778155Y-95657421D01*
X145783104Y-95587726D01*
X145803940Y-95555304D01*
X145802298Y-95554031D01*
X145807075Y-95547870D01*
X145807081Y-95547865D01*
X145890744Y-95406398D01*
X145936598Y-95248569D01*
X145939500Y-95211694D01*
X145939500Y-94780306D01*
X145936598Y-94743431D01*
X145932890Y-94730669D01*
X145890745Y-94585606D01*
X145890744Y-94585603D01*
X145890744Y-94585602D01*
X145807081Y-94444135D01*
X145807078Y-94444132D01*
X145802298Y-94437969D01*
X145804750Y-94436066D01*
X145778155Y-94387421D01*
X145783104Y-94317726D01*
X145803940Y-94285304D01*
X145802298Y-94284031D01*
X145807075Y-94277870D01*
X145807081Y-94277865D01*
X145890744Y-94136398D01*
X145935880Y-93981040D01*
X145936597Y-93978573D01*
X145936598Y-93978567D01*
X145937928Y-93961666D01*
X145939500Y-93941694D01*
X145939500Y-93510306D01*
X145936598Y-93473431D01*
X145934955Y-93467777D01*
X145890745Y-93315606D01*
X145890744Y-93315603D01*
X145890744Y-93315602D01*
X145807081Y-93174135D01*
X145807079Y-93174133D01*
X145807076Y-93174129D01*
X145690870Y-93057923D01*
X145690862Y-93057917D01*
X145549396Y-92974255D01*
X145549393Y-92974254D01*
X145391573Y-92928402D01*
X145391567Y-92928401D01*
X145354701Y-92925500D01*
X145354694Y-92925500D01*
X144843879Y-92925500D01*
X144796426Y-92916061D01*
X144719374Y-92884145D01*
X144719366Y-92884143D01*
X144550232Y-92850500D01*
X144550229Y-92850500D01*
X143543006Y-92850500D01*
X143475967Y-92830815D01*
X143455325Y-92814181D01*
X142621464Y-91980319D01*
X142619291Y-91978146D01*
X146331500Y-91978146D01*
X146337741Y-92036187D01*
X146386732Y-92167537D01*
X146470741Y-92279758D01*
X146582962Y-92363767D01*
X146714312Y-92412758D01*
X146772353Y-92418999D01*
X146772370Y-92419000D01*
X146869000Y-92419000D01*
X146869000Y-91944000D01*
X146331500Y-91944000D01*
X146331500Y-91978146D01*
X142619291Y-91978146D01*
X142274102Y-91632957D01*
X142274098Y-91632954D01*
X142130711Y-91537145D01*
X142130701Y-91537140D01*
X142092001Y-91521110D01*
X142091999Y-91521109D01*
X141971378Y-91471146D01*
X141971366Y-91471143D01*
X141802232Y-91437500D01*
X141802229Y-91437500D01*
X140829607Y-91437500D01*
X140762568Y-91417815D01*
X140755669Y-91409853D01*
X146331500Y-91409853D01*
X146331500Y-91444000D01*
X146869000Y-91444000D01*
X146869000Y-90969000D01*
X147369000Y-90969000D01*
X147369000Y-92419000D01*
X147452500Y-92419000D01*
X147519539Y-92438685D01*
X147565294Y-92491489D01*
X147576500Y-92543000D01*
X147576500Y-93932640D01*
X147579397Y-93986688D01*
X147579397Y-93986689D01*
X147582229Y-94013022D01*
X147582232Y-94013049D01*
X147590885Y-94066445D01*
X147590885Y-94066447D01*
X147623595Y-94154143D01*
X147641168Y-94201257D01*
X147674653Y-94262580D01*
X147760877Y-94377761D01*
X147760881Y-94377765D01*
X147760886Y-94377771D01*
X147931227Y-94548111D01*
X147964712Y-94609434D01*
X147962623Y-94670385D01*
X147945110Y-94730669D01*
X147941404Y-94743426D01*
X147941403Y-94743428D01*
X147941401Y-94743436D01*
X147938500Y-94780298D01*
X147938500Y-95211701D01*
X147941401Y-95248567D01*
X147941402Y-95248573D01*
X147987254Y-95406393D01*
X147987255Y-95406396D01*
X148070917Y-95547862D01*
X148070923Y-95547870D01*
X148187129Y-95664076D01*
X148187133Y-95664079D01*
X148187135Y-95664081D01*
X148230570Y-95689768D01*
X148278254Y-95740835D01*
X148290759Y-95809577D01*
X148266106Y-95869335D01*
X148267098Y-95870056D01*
X148264116Y-95874160D01*
X148264114Y-95874166D01*
X148264104Y-95874177D01*
X148261360Y-95877953D01*
X148203833Y-95990856D01*
X148199851Y-96016000D01*
X150628148Y-96016000D01*
X150627974Y-96014898D01*
X150636929Y-95945604D01*
X150681925Y-95892152D01*
X150748677Y-95871513D01*
X150750447Y-95871500D01*
X155668994Y-95871500D01*
X155736033Y-95891185D01*
X155756675Y-95907819D01*
X157688955Y-97840099D01*
X157795249Y-97946393D01*
X157810902Y-97962046D01*
X157954288Y-98057854D01*
X157954301Y-98057861D01*
X158026738Y-98087865D01*
X158113626Y-98123855D01*
X158232498Y-98147500D01*
X158282766Y-98157499D01*
X158282769Y-98157500D01*
X158282771Y-98157500D01*
X166380770Y-98157500D01*
X166447809Y-98177185D01*
X166461618Y-98188313D01*
X166461681Y-98188234D01*
X166467341Y-98192709D01*
X166467344Y-98192712D01*
X166616666Y-98284814D01*
X166783203Y-98339999D01*
X166885991Y-98350500D01*
X167886008Y-98350499D01*
X167886016Y-98350498D01*
X167886019Y-98350498D01*
X167942302Y-98344748D01*
X167988797Y-98339999D01*
X168155334Y-98284814D01*
X168304656Y-98192712D01*
X168313549Y-98183819D01*
X168374872Y-98150334D01*
X168401230Y-98147500D01*
X171488088Y-98147500D01*
X171555127Y-98167185D01*
X171588406Y-98198615D01*
X171613551Y-98233224D01*
X171777776Y-98397449D01*
X171965669Y-98533961D01*
X172042686Y-98573203D01*
X172172599Y-98639398D01*
X172172601Y-98639398D01*
X172172604Y-98639400D01*
X172393486Y-98711169D01*
X172511668Y-98729886D01*
X172622871Y-98747500D01*
X172622876Y-98747500D01*
X172855129Y-98747500D01*
X172956502Y-98731443D01*
X173084514Y-98711169D01*
X173305396Y-98639400D01*
X173512331Y-98533961D01*
X173700224Y-98397449D01*
X173864449Y-98233224D01*
X174000961Y-98045331D01*
X174106400Y-97838396D01*
X174178169Y-97617514D01*
X174204755Y-97449656D01*
X174214500Y-97388129D01*
X174214500Y-97155871D01*
X174208007Y-97114879D01*
X174216961Y-97045585D01*
X174261957Y-96992133D01*
X174328708Y-96971493D01*
X174349879Y-96973007D01*
X174390872Y-96979500D01*
X174390876Y-96979500D01*
X174623128Y-96979500D01*
X174664120Y-96973007D01*
X174733413Y-96981961D01*
X174786866Y-97026957D01*
X174807506Y-97093708D01*
X174805993Y-97114876D01*
X174799500Y-97155875D01*
X174799500Y-97388129D01*
X174835831Y-97617514D01*
X174907601Y-97838400D01*
X175010927Y-98041186D01*
X175013039Y-98045331D01*
X175149551Y-98233224D01*
X175313776Y-98397449D01*
X175501669Y-98533961D01*
X175578686Y-98573203D01*
X175708599Y-98639398D01*
X175708601Y-98639398D01*
X175708604Y-98639400D01*
X175929486Y-98711169D01*
X176047668Y-98729886D01*
X176158871Y-98747500D01*
X176158876Y-98747500D01*
X176391129Y-98747500D01*
X176492502Y-98731443D01*
X176620514Y-98711169D01*
X176841396Y-98639400D01*
X177048331Y-98533961D01*
X177236224Y-98397449D01*
X177400449Y-98233224D01*
X177536961Y-98045331D01*
X177642400Y-97838396D01*
X177714169Y-97617514D01*
X177740755Y-97449656D01*
X177750500Y-97388129D01*
X177750500Y-97155870D01*
X177730082Y-97026957D01*
X177714169Y-96926486D01*
X177642400Y-96705604D01*
X177642398Y-96705601D01*
X177642398Y-96705599D01*
X177586776Y-96596436D01*
X177536961Y-96498669D01*
X177400449Y-96310776D01*
X177236224Y-96146551D01*
X177048331Y-96010039D01*
X177034355Y-96002918D01*
X176841400Y-95904601D01*
X176620514Y-95832831D01*
X176391129Y-95796500D01*
X176391124Y-95796500D01*
X176158876Y-95796500D01*
X176158875Y-95796500D01*
X176117876Y-95802993D01*
X176048583Y-95794037D01*
X175995131Y-95749040D01*
X175974493Y-95682288D01*
X175976007Y-95661120D01*
X175982500Y-95620128D01*
X175982500Y-95387870D01*
X175946169Y-95158485D01*
X175928440Y-95103922D01*
X175926445Y-95034081D01*
X175962525Y-94974248D01*
X176025225Y-94943419D01*
X176065770Y-94943130D01*
X176178592Y-94961000D01*
X176371409Y-94961000D01*
X176561856Y-94930835D01*
X176745234Y-94871253D01*
X176745237Y-94871252D01*
X176917040Y-94783713D01*
X176947227Y-94761780D01*
X176947228Y-94761780D01*
X176522488Y-94337041D01*
X176582890Y-94312022D01*
X176689351Y-94240888D01*
X176779888Y-94150351D01*
X176851022Y-94043890D01*
X176876041Y-93983489D01*
X177300780Y-94408228D01*
X177300780Y-94408227D01*
X177322713Y-94378040D01*
X177410252Y-94206237D01*
X177410253Y-94206234D01*
X177469835Y-94022856D01*
X177500000Y-93832409D01*
X177500000Y-93639590D01*
X177469835Y-93449143D01*
X177410253Y-93265765D01*
X177410252Y-93265762D01*
X177322712Y-93093957D01*
X177300781Y-93063771D01*
X177300780Y-93063771D01*
X176876041Y-93488510D01*
X176851022Y-93428110D01*
X176779888Y-93321649D01*
X176689351Y-93231112D01*
X176582890Y-93159978D01*
X176522488Y-93134958D01*
X176947227Y-92710218D01*
X176947227Y-92710217D01*
X176917043Y-92688288D01*
X176745237Y-92600747D01*
X176745234Y-92600746D01*
X176561856Y-92541164D01*
X176371409Y-92511000D01*
X176178591Y-92511000D01*
X175988143Y-92541164D01*
X175804765Y-92600746D01*
X175804762Y-92600747D01*
X175632955Y-92688288D01*
X175632950Y-92688292D01*
X175602771Y-92710216D01*
X175602771Y-92710219D01*
X176027511Y-93134958D01*
X175967110Y-93159978D01*
X175860649Y-93231112D01*
X175770112Y-93321649D01*
X175698978Y-93428110D01*
X175673958Y-93488511D01*
X175249219Y-93063771D01*
X175249216Y-93063771D01*
X175227292Y-93093950D01*
X175227288Y-93093955D01*
X175139747Y-93265762D01*
X175139746Y-93265765D01*
X175080164Y-93449143D01*
X175050000Y-93639590D01*
X175050000Y-93832409D01*
X175067869Y-93945230D01*
X175058914Y-94014524D01*
X175013918Y-94067976D01*
X174947167Y-94088615D01*
X174907078Y-94082559D01*
X174852517Y-94064831D01*
X174623129Y-94028500D01*
X174623124Y-94028500D01*
X174390876Y-94028500D01*
X174390875Y-94028500D01*
X174349876Y-94034993D01*
X174280583Y-94026037D01*
X174227131Y-93981040D01*
X174206493Y-93914288D01*
X174208007Y-93893120D01*
X174214500Y-93852128D01*
X174214500Y-93619870D01*
X174187459Y-93449143D01*
X174178169Y-93390486D01*
X174106400Y-93169604D01*
X174106398Y-93169601D01*
X174106398Y-93169599D01*
X174049492Y-93057917D01*
X174000961Y-92962669D01*
X173864449Y-92774776D01*
X173700224Y-92610551D01*
X173512331Y-92474039D01*
X173305400Y-92368601D01*
X173084514Y-92296831D01*
X172855129Y-92260500D01*
X172855124Y-92260500D01*
X172622876Y-92260500D01*
X172622871Y-92260500D01*
X172393485Y-92296831D01*
X172172599Y-92368601D01*
X171965668Y-92474039D01*
X171777773Y-92610553D01*
X171613553Y-92774773D01*
X171477039Y-92962668D01*
X171371601Y-93169599D01*
X171299831Y-93390485D01*
X171263500Y-93619870D01*
X171263500Y-93852129D01*
X171299831Y-94081514D01*
X171371601Y-94302400D01*
X171425524Y-94408228D01*
X171477039Y-94509331D01*
X171613551Y-94697224D01*
X171777776Y-94861449D01*
X171965669Y-94997961D01*
X172063436Y-95047776D01*
X172172599Y-95103398D01*
X172172601Y-95103398D01*
X172172604Y-95103400D01*
X172393486Y-95175169D01*
X172511668Y-95193886D01*
X172622871Y-95211500D01*
X172622876Y-95211500D01*
X172855128Y-95211500D01*
X172896120Y-95205007D01*
X172965413Y-95213961D01*
X173018866Y-95258957D01*
X173039506Y-95325708D01*
X173037993Y-95346876D01*
X173031500Y-95387875D01*
X173031500Y-95620124D01*
X173037993Y-95661123D01*
X173029037Y-95730416D01*
X172984040Y-95783867D01*
X172917288Y-95804506D01*
X172896123Y-95802993D01*
X172855124Y-95796500D01*
X172622876Y-95796500D01*
X172622871Y-95796500D01*
X172393485Y-95832831D01*
X172172599Y-95904601D01*
X171965668Y-96010039D01*
X171777773Y-96146553D01*
X171613553Y-96310773D01*
X171613548Y-96310779D01*
X171588406Y-96345385D01*
X171533076Y-96388051D01*
X171488088Y-96396500D01*
X168445230Y-96396500D01*
X168378191Y-96376815D01*
X168357549Y-96360181D01*
X168304657Y-96307289D01*
X168304656Y-96307288D01*
X168155334Y-96215186D01*
X168155333Y-96215185D01*
X168155329Y-96215183D01*
X168154005Y-96214566D01*
X168153249Y-96213900D01*
X168149187Y-96211395D01*
X168149615Y-96210700D01*
X168101566Y-96168392D01*
X168082416Y-96101198D01*
X168102633Y-96034318D01*
X168132102Y-96002918D01*
X168193189Y-95957188D01*
X168193190Y-95957187D01*
X168279350Y-95842093D01*
X168279354Y-95842086D01*
X168329596Y-95707379D01*
X168329598Y-95707372D01*
X168335999Y-95647844D01*
X168336000Y-95647827D01*
X168336000Y-95500000D01*
X166436000Y-95500000D01*
X166436000Y-95647844D01*
X166442401Y-95707372D01*
X166442403Y-95707379D01*
X166492645Y-95842086D01*
X166492649Y-95842093D01*
X166578809Y-95957186D01*
X166639898Y-96002918D01*
X166681769Y-96058852D01*
X166686753Y-96128544D01*
X166653268Y-96189867D01*
X166622725Y-96211253D01*
X166622813Y-96211395D01*
X166620389Y-96212890D01*
X166618000Y-96214563D01*
X166616674Y-96215181D01*
X166467342Y-96307289D01*
X166404451Y-96370181D01*
X166343128Y-96403666D01*
X166316770Y-96406500D01*
X158783006Y-96406500D01*
X158715967Y-96386815D01*
X158695325Y-96370181D01*
X157261677Y-94936532D01*
X157177300Y-94852155D01*
X166436000Y-94852155D01*
X166436000Y-95000000D01*
X167136000Y-95000000D01*
X167636000Y-95000000D01*
X168336000Y-95000000D01*
X168336000Y-94852172D01*
X168335999Y-94852155D01*
X168329598Y-94792627D01*
X168329596Y-94792620D01*
X168279354Y-94657913D01*
X168279350Y-94657906D01*
X168193190Y-94542812D01*
X168193187Y-94542809D01*
X168078093Y-94456649D01*
X168078086Y-94456645D01*
X167943379Y-94406403D01*
X167943372Y-94406401D01*
X167883844Y-94400000D01*
X167636000Y-94400000D01*
X167636000Y-95000000D01*
X167136000Y-95000000D01*
X167136000Y-94400000D01*
X166888155Y-94400000D01*
X166828627Y-94406401D01*
X166828620Y-94406403D01*
X166693913Y-94456645D01*
X166693906Y-94456649D01*
X166578812Y-94542809D01*
X166578809Y-94542812D01*
X166492649Y-94657906D01*
X166492645Y-94657913D01*
X166442403Y-94792620D01*
X166442401Y-94792627D01*
X166436000Y-94852155D01*
X157177300Y-94852155D01*
X156641102Y-94315957D01*
X156641098Y-94315954D01*
X156497711Y-94220145D01*
X156497698Y-94220138D01*
X156338378Y-94154146D01*
X156338366Y-94154143D01*
X156169232Y-94120500D01*
X156169229Y-94120500D01*
X151878593Y-94120500D01*
X151811554Y-94100815D01*
X151765799Y-94048011D01*
X151755855Y-93978853D01*
X151762500Y-93932638D01*
X151762500Y-92095713D01*
X156891500Y-92095713D01*
X156891500Y-92308286D01*
X156923606Y-92511000D01*
X156924754Y-92518243D01*
X156988037Y-92713008D01*
X156990444Y-92720414D01*
X157086951Y-92909820D01*
X157211890Y-93081786D01*
X157362213Y-93232109D01*
X157534179Y-93357048D01*
X157534181Y-93357049D01*
X157534184Y-93357051D01*
X157723588Y-93453557D01*
X157925757Y-93519246D01*
X158135713Y-93552500D01*
X158135714Y-93552500D01*
X158348286Y-93552500D01*
X158348287Y-93552500D01*
X158558243Y-93519246D01*
X158760412Y-93453557D01*
X158949816Y-93357051D01*
X159036138Y-93294335D01*
X159121786Y-93232109D01*
X159121788Y-93232106D01*
X159121792Y-93232104D01*
X159272104Y-93081792D01*
X159397051Y-92909816D01*
X159493557Y-92720412D01*
X159525765Y-92621284D01*
X159565201Y-92563611D01*
X159629559Y-92536412D01*
X159698406Y-92548326D01*
X159749882Y-92595570D01*
X159761625Y-92621282D01*
X159762592Y-92624258D01*
X159841196Y-92778525D01*
X159845709Y-92784736D01*
X159845709Y-92784737D01*
X160299037Y-92331409D01*
X160316075Y-92394993D01*
X160381901Y-92509007D01*
X160474993Y-92602099D01*
X160589007Y-92667925D01*
X160652589Y-92684962D01*
X160199261Y-93138289D01*
X160199262Y-93138290D01*
X160205471Y-93142801D01*
X160359742Y-93221408D01*
X160524415Y-93274914D01*
X160695429Y-93302000D01*
X160868571Y-93302000D01*
X161039584Y-93274914D01*
X161204257Y-93221408D01*
X161358525Y-93142803D01*
X161364736Y-93138289D01*
X161364737Y-93138289D01*
X160911410Y-92684962D01*
X160974993Y-92667925D01*
X161089007Y-92602099D01*
X161182099Y-92509007D01*
X161247925Y-92394993D01*
X161264962Y-92331409D01*
X161718289Y-92784736D01*
X161722803Y-92778525D01*
X161722805Y-92778522D01*
X161737014Y-92750635D01*
X161784987Y-92699838D01*
X161852807Y-92683041D01*
X161918943Y-92705576D01*
X161962396Y-92760290D01*
X161971500Y-92806927D01*
X161971500Y-93099869D01*
X161971501Y-93099876D01*
X161977908Y-93159483D01*
X162028202Y-93294328D01*
X162028206Y-93294335D01*
X162114452Y-93409544D01*
X162114455Y-93409547D01*
X162229664Y-93495793D01*
X162229671Y-93495797D01*
X162364517Y-93546091D01*
X162364516Y-93546091D01*
X162371444Y-93546835D01*
X162424127Y-93552500D01*
X164219872Y-93552499D01*
X164279483Y-93546091D01*
X164414331Y-93495796D01*
X164529546Y-93409546D01*
X164615796Y-93294331D01*
X164666091Y-93159483D01*
X164672500Y-93099873D01*
X164672499Y-91304128D01*
X164666091Y-91244517D01*
X164664769Y-91240973D01*
X164615797Y-91109671D01*
X164615793Y-91109664D01*
X164529547Y-90994455D01*
X164529544Y-90994452D01*
X164414335Y-90908206D01*
X164414328Y-90908202D01*
X164279482Y-90857908D01*
X164279483Y-90857908D01*
X164219883Y-90851501D01*
X164219881Y-90851500D01*
X164219873Y-90851500D01*
X164219864Y-90851500D01*
X162424129Y-90851500D01*
X162424123Y-90851501D01*
X162364516Y-90857908D01*
X162229671Y-90908202D01*
X162229664Y-90908206D01*
X162114455Y-90994452D01*
X162114452Y-90994455D01*
X162028206Y-91109664D01*
X162028202Y-91109671D01*
X161977908Y-91244517D01*
X161971883Y-91300563D01*
X161971501Y-91304123D01*
X161971500Y-91304135D01*
X161971500Y-91597070D01*
X161951815Y-91664109D01*
X161899011Y-91709864D01*
X161829853Y-91719808D01*
X161766297Y-91690783D01*
X161737016Y-91653366D01*
X161722803Y-91625473D01*
X161718290Y-91619262D01*
X161718289Y-91619261D01*
X161264962Y-92072589D01*
X161247925Y-92009007D01*
X161182099Y-91894993D01*
X161089007Y-91801901D01*
X160974993Y-91736075D01*
X160911409Y-91719037D01*
X161364737Y-91265709D01*
X161358525Y-91261196D01*
X161204259Y-91182592D01*
X161039584Y-91129085D01*
X160868571Y-91102000D01*
X160695429Y-91102000D01*
X160524415Y-91129085D01*
X160359740Y-91182592D01*
X160205480Y-91261193D01*
X160205463Y-91261203D01*
X160199261Y-91265708D01*
X160199261Y-91265709D01*
X160652590Y-91719037D01*
X160589007Y-91736075D01*
X160474993Y-91801901D01*
X160381901Y-91894993D01*
X160316075Y-92009007D01*
X160299037Y-92072590D01*
X159845709Y-91619261D01*
X159845708Y-91619261D01*
X159841203Y-91625463D01*
X159841193Y-91625480D01*
X159762590Y-91779743D01*
X159762590Y-91779744D01*
X159761623Y-91782722D01*
X159760950Y-91783705D01*
X159760729Y-91784240D01*
X159760616Y-91784193D01*
X159722182Y-91840394D01*
X159657821Y-91867588D01*
X159588976Y-91855668D01*
X159537503Y-91808421D01*
X159525766Y-91782719D01*
X159493557Y-91683588D01*
X159397051Y-91494184D01*
X159397049Y-91494181D01*
X159397048Y-91494179D01*
X159318344Y-91385851D01*
X159272109Y-91322214D01*
X159272105Y-91322209D01*
X159121786Y-91171890D01*
X158949820Y-91046951D01*
X158760414Y-90950444D01*
X158760413Y-90950443D01*
X158760412Y-90950443D01*
X158558243Y-90884754D01*
X158558241Y-90884753D01*
X158558240Y-90884753D01*
X158396957Y-90859208D01*
X158348287Y-90851500D01*
X158135713Y-90851500D01*
X158087042Y-90859208D01*
X157925760Y-90884753D01*
X157723585Y-90950444D01*
X157534179Y-91046951D01*
X157362213Y-91171890D01*
X157211890Y-91322213D01*
X157086951Y-91494179D01*
X156990444Y-91683585D01*
X156924753Y-91885760D01*
X156891500Y-92095713D01*
X151762500Y-92095713D01*
X151762500Y-91106362D01*
X151761842Y-91094097D01*
X151759602Y-91052311D01*
X151759602Y-91052310D01*
X151758407Y-91041201D01*
X151756769Y-91025964D01*
X151756488Y-91024232D01*
X151750829Y-90989308D01*
X151748114Y-90972552D01*
X151697832Y-90837743D01*
X151664347Y-90776420D01*
X151578123Y-90661239D01*
X151578118Y-90661234D01*
X151578113Y-90661228D01*
X151400776Y-90483892D01*
X151400768Y-90483884D01*
X151400761Y-90483877D01*
X151400737Y-90483855D01*
X151360519Y-90447728D01*
X151360507Y-90447718D01*
X151339856Y-90431076D01*
X151295974Y-90399433D01*
X151165100Y-90339663D01*
X151098055Y-90319976D01*
X151050582Y-90313150D01*
X150955638Y-90299500D01*
X148383362Y-90299500D01*
X148383360Y-90299500D01*
X148329311Y-90302397D01*
X148329310Y-90302397D01*
X148302977Y-90305229D01*
X148302950Y-90305232D01*
X148249554Y-90313885D01*
X148249552Y-90313885D01*
X148114747Y-90364166D01*
X148053419Y-90397653D01*
X148053417Y-90397654D01*
X147938248Y-90483868D01*
X147938230Y-90483884D01*
X147764696Y-90657417D01*
X147764670Y-90657444D01*
X147717449Y-90711940D01*
X147696296Y-90740199D01*
X147657312Y-90800858D01*
X147657310Y-90800862D01*
X147639747Y-90847948D01*
X147638502Y-90851149D01*
X147620690Y-90895138D01*
X147577283Y-90949889D01*
X147511167Y-90972481D01*
X147492499Y-90971888D01*
X147465646Y-90969000D01*
X147369000Y-90969000D01*
X146869000Y-90969000D01*
X146772353Y-90969000D01*
X146714312Y-90975241D01*
X146582962Y-91024232D01*
X146470741Y-91108241D01*
X146386732Y-91220462D01*
X146337741Y-91351812D01*
X146331500Y-91409853D01*
X140755669Y-91409853D01*
X140716813Y-91365011D01*
X140706869Y-91295853D01*
X140729030Y-91240973D01*
X140740567Y-91224974D01*
X140800338Y-91094097D01*
X140820023Y-91027058D01*
X140820024Y-91027054D01*
X140840500Y-90884638D01*
X140840500Y-88949312D01*
X140860185Y-88882273D01*
X140912989Y-88836518D01*
X140982147Y-88826574D01*
X140986138Y-88827330D01*
X141048155Y-88833999D01*
X141048172Y-88834000D01*
X141196000Y-88834000D01*
X141696000Y-88834000D01*
X141843828Y-88834000D01*
X141843844Y-88833999D01*
X141903372Y-88827598D01*
X141903379Y-88827596D01*
X142038086Y-88777354D01*
X142038093Y-88777350D01*
X142153187Y-88691190D01*
X142153190Y-88691187D01*
X142239350Y-88576093D01*
X142239354Y-88576086D01*
X142289596Y-88441379D01*
X142289598Y-88441372D01*
X142295999Y-88381844D01*
X142296000Y-88381827D01*
X142296000Y-88134000D01*
X141696000Y-88134000D01*
X141696000Y-88834000D01*
X141196000Y-88834000D01*
X141196000Y-87634000D01*
X141696000Y-87634000D01*
X142296000Y-87634000D01*
X142296000Y-87386172D01*
X142295999Y-87386155D01*
X142289598Y-87326627D01*
X142289596Y-87326620D01*
X142239354Y-87191913D01*
X142239350Y-87191906D01*
X142153190Y-87076812D01*
X142153187Y-87076809D01*
X142038093Y-86990649D01*
X142038086Y-86990645D01*
X141903379Y-86940403D01*
X141903372Y-86940401D01*
X141843844Y-86934000D01*
X141696000Y-86934000D01*
X141696000Y-87634000D01*
X141196000Y-87634000D01*
X141196000Y-86934000D01*
X141048155Y-86934000D01*
X140980913Y-86941231D01*
X140980641Y-86938706D01*
X140923211Y-86935611D01*
X140866552Y-86894727D01*
X140840990Y-86829702D01*
X140840500Y-86818687D01*
X140840500Y-84629359D01*
X140837602Y-84575311D01*
X140837602Y-84575310D01*
X140834770Y-84548977D01*
X140834767Y-84548950D01*
X140826114Y-84495554D01*
X140826114Y-84495552D01*
X140809048Y-84449797D01*
X140775832Y-84360743D01*
X140742347Y-84299420D01*
X140656123Y-84184239D01*
X140656118Y-84184234D01*
X140656113Y-84184228D01*
X140478776Y-84006892D01*
X140478761Y-84006877D01*
X140478737Y-84006855D01*
X140438519Y-83970728D01*
X140438507Y-83970718D01*
X140417856Y-83954076D01*
X140373974Y-83922433D01*
X140243100Y-83862663D01*
X140176056Y-83842976D01*
X140090612Y-83830691D01*
X140027057Y-83801665D01*
X139989283Y-83742887D01*
X139984261Y-83708276D01*
X139983432Y-83380869D01*
X140002947Y-83313782D01*
X140055635Y-83267893D01*
X140090192Y-83258466D01*
X140090181Y-83258415D01*
X140091107Y-83258216D01*
X140094837Y-83257199D01*
X140096797Y-83256999D01*
X140263334Y-83201814D01*
X140412656Y-83109712D01*
X140536712Y-82985656D01*
X140628814Y-82836334D01*
X140683999Y-82669797D01*
X140694500Y-82567009D01*
X140694499Y-81666992D01*
X140683999Y-81564203D01*
X140678293Y-81546983D01*
X149926500Y-81546983D01*
X149926500Y-82347001D01*
X149926501Y-82347019D01*
X149937000Y-82449796D01*
X149937001Y-82449799D01*
X149992185Y-82616331D01*
X149992187Y-82616336D01*
X150002876Y-82633665D01*
X150070771Y-82743742D01*
X150084289Y-82765657D01*
X150177951Y-82859319D01*
X150211436Y-82920642D01*
X150206452Y-82990334D01*
X150177951Y-83034681D01*
X150084289Y-83128342D01*
X149992187Y-83277663D01*
X149992185Y-83277668D01*
X149980218Y-83313782D01*
X149937001Y-83444203D01*
X149937001Y-83444204D01*
X149937000Y-83444204D01*
X149926500Y-83546983D01*
X149926500Y-84347001D01*
X149926501Y-84347019D01*
X149937000Y-84449796D01*
X149937001Y-84449799D01*
X149969866Y-84548977D01*
X149992186Y-84616334D01*
X150084288Y-84765656D01*
X150208344Y-84889712D01*
X150357666Y-84981814D01*
X150524203Y-85036999D01*
X150626991Y-85047500D01*
X151627008Y-85047499D01*
X151726425Y-85037343D01*
X151795116Y-85050112D01*
X151846000Y-85097993D01*
X151862921Y-85165783D01*
X151851819Y-85212213D01*
X151807664Y-85308896D01*
X151787976Y-85375944D01*
X151781409Y-85421620D01*
X151772850Y-85481155D01*
X151767500Y-85518363D01*
X151767500Y-88598640D01*
X151770397Y-88652688D01*
X151770397Y-88652689D01*
X151773229Y-88679022D01*
X151773232Y-88679049D01*
X151781885Y-88732445D01*
X151781885Y-88732447D01*
X151832166Y-88867252D01*
X151832168Y-88867257D01*
X151865653Y-88928580D01*
X151951877Y-89043761D01*
X151951881Y-89043765D01*
X151951886Y-89043771D01*
X152059299Y-89151183D01*
X152129239Y-89221123D01*
X152129255Y-89221137D01*
X152129262Y-89221144D01*
X152169480Y-89257271D01*
X152169492Y-89257281D01*
X152169500Y-89257288D01*
X152190142Y-89273922D01*
X152234026Y-89305567D01*
X152364903Y-89365338D01*
X152431942Y-89385023D01*
X152431946Y-89385024D01*
X152574362Y-89405500D01*
X152574365Y-89405500D01*
X156882577Y-89405500D01*
X156882579Y-89405500D01*
X156985451Y-89394922D01*
X156985456Y-89394921D01*
X156985458Y-89394921D01*
X157034852Y-89384654D01*
X157034856Y-89384653D01*
X157034857Y-89384652D01*
X157034865Y-89384651D01*
X157133439Y-89353356D01*
X157255898Y-89277822D01*
X157309540Y-89233052D01*
X157405753Y-89126084D01*
X157467937Y-88996335D01*
X157488860Y-88929672D01*
X157488862Y-88929668D01*
X157503555Y-88839370D01*
X157503694Y-88838582D01*
X157518843Y-88807942D01*
X157533636Y-88777076D01*
X157534311Y-88776659D01*
X157534662Y-88775950D01*
X157563960Y-88758371D01*
X157593104Y-88740396D01*
X157594157Y-88740254D01*
X157594575Y-88740004D01*
X157595752Y-88740040D01*
X157619095Y-88736904D01*
X157620000Y-88736000D01*
X158120000Y-88736000D01*
X158216630Y-88736000D01*
X158216646Y-88735999D01*
X158274687Y-88729758D01*
X158406037Y-88680767D01*
X158518258Y-88596758D01*
X158602267Y-88484537D01*
X158651258Y-88353187D01*
X158657499Y-88295146D01*
X158657500Y-88295129D01*
X158657500Y-88261000D01*
X158120000Y-88261000D01*
X158120000Y-88736000D01*
X157620000Y-88736000D01*
X157620000Y-87761000D01*
X158120000Y-87761000D01*
X158657500Y-87761000D01*
X158657500Y-87726870D01*
X158657499Y-87726853D01*
X158651258Y-87668812D01*
X158602267Y-87537462D01*
X158518258Y-87425241D01*
X158406037Y-87341232D01*
X158274687Y-87292241D01*
X158216646Y-87286000D01*
X158120000Y-87286000D01*
X158120000Y-87761000D01*
X157620000Y-87761000D01*
X157620000Y-87522528D01*
X157639685Y-87455489D01*
X157661225Y-87430629D01*
X157661208Y-87430612D01*
X157661458Y-87430361D01*
X157662802Y-87428811D01*
X157663336Y-87428347D01*
X157664347Y-87427472D01*
X157758567Y-87318738D01*
X157818338Y-87187861D01*
X157838023Y-87120822D01*
X157838024Y-87120818D01*
X157858500Y-86978402D01*
X157858500Y-86687920D01*
X158761499Y-86687920D01*
X158790340Y-86832907D01*
X158790343Y-86832917D01*
X158846914Y-86969492D01*
X158846915Y-86969494D01*
X158846916Y-86969495D01*
X158852867Y-86978402D01*
X158879812Y-87018727D01*
X158879813Y-87018730D01*
X158929046Y-87092414D01*
X158929052Y-87092421D01*
X160938584Y-89101952D01*
X160938586Y-89101954D01*
X160968058Y-89121645D01*
X161012270Y-89151186D01*
X161061505Y-89184084D01*
X161061506Y-89184084D01*
X161061507Y-89184085D01*
X161061509Y-89184086D01*
X161150925Y-89221123D01*
X161198087Y-89240658D01*
X161198091Y-89240658D01*
X161198092Y-89240659D01*
X161343079Y-89269500D01*
X161343082Y-89269500D01*
X167205920Y-89269500D01*
X167303462Y-89250096D01*
X167350913Y-89240658D01*
X167487495Y-89184084D01*
X167536729Y-89151186D01*
X167536734Y-89151183D01*
X167574300Y-89126083D01*
X167610416Y-89101952D01*
X168359181Y-88353187D01*
X168808752Y-87903616D01*
X173231500Y-87903616D01*
X173231500Y-88104384D01*
X173236175Y-88133902D01*
X173262907Y-88302680D01*
X173324949Y-88493626D01*
X173367682Y-88577493D01*
X173416095Y-88672508D01*
X173534103Y-88834932D01*
X173676068Y-88976897D01*
X173838492Y-89094905D01*
X173899684Y-89126084D01*
X174017373Y-89186050D01*
X174017375Y-89186050D01*
X174017378Y-89186052D01*
X174208320Y-89248093D01*
X174406616Y-89279500D01*
X174406617Y-89279500D01*
X174607383Y-89279500D01*
X174607384Y-89279500D01*
X174805680Y-89248093D01*
X174996622Y-89186052D01*
X175000481Y-89184086D01*
X175065056Y-89151183D01*
X175175508Y-89094905D01*
X175337932Y-88976897D01*
X175479897Y-88834932D01*
X175597905Y-88672508D01*
X175689052Y-88493622D01*
X175751093Y-88302680D01*
X175782500Y-88104384D01*
X175782500Y-87903616D01*
X175777825Y-87874097D01*
X176856500Y-87874097D01*
X176856500Y-88133902D01*
X176897140Y-88390493D01*
X176977422Y-88637576D01*
X177038971Y-88758371D01*
X177094449Y-88867252D01*
X177095368Y-88869054D01*
X177222300Y-89043761D01*
X177248069Y-89079229D01*
X177431771Y-89262931D01*
X177641949Y-89415634D01*
X177789445Y-89490787D01*
X177873423Y-89533577D01*
X177873425Y-89533577D01*
X177873428Y-89533579D01*
X178120507Y-89613860D01*
X178252706Y-89634797D01*
X178377098Y-89654500D01*
X178377103Y-89654500D01*
X178636902Y-89654500D01*
X178750298Y-89636539D01*
X178893493Y-89613860D01*
X179140572Y-89533579D01*
X179372051Y-89415634D01*
X179582229Y-89262931D01*
X179765931Y-89079229D01*
X179918634Y-88869051D01*
X180036579Y-88637572D01*
X180116860Y-88390493D01*
X180157484Y-88134000D01*
X180157500Y-88133902D01*
X180157500Y-87874097D01*
X180125897Y-87674567D01*
X180116860Y-87617507D01*
X180036579Y-87370428D01*
X180036577Y-87370425D01*
X180036577Y-87370423D01*
X179947661Y-87195918D01*
X179918634Y-87138949D01*
X179765931Y-86928771D01*
X179582229Y-86745069D01*
X179559424Y-86728500D01*
X179372054Y-86592368D01*
X179372053Y-86592367D01*
X179372051Y-86592366D01*
X179262171Y-86536379D01*
X179140576Y-86474422D01*
X178893493Y-86394140D01*
X178636902Y-86353500D01*
X178636897Y-86353500D01*
X178377103Y-86353500D01*
X178377098Y-86353500D01*
X178120506Y-86394140D01*
X177873423Y-86474422D01*
X177641945Y-86592368D01*
X177431774Y-86745066D01*
X177431768Y-86745071D01*
X177248071Y-86928768D01*
X177248066Y-86928774D01*
X177095368Y-87138945D01*
X176977422Y-87370423D01*
X176897140Y-87617506D01*
X176856500Y-87874097D01*
X175777825Y-87874097D01*
X175751093Y-87705320D01*
X175689052Y-87514378D01*
X175689050Y-87514375D01*
X175689050Y-87514373D01*
X175623719Y-87386155D01*
X175597905Y-87335492D01*
X175479897Y-87173068D01*
X175337932Y-87031103D01*
X175175508Y-86913095D01*
X174996626Y-86821949D01*
X174805680Y-86759907D01*
X174804815Y-86759770D01*
X174607384Y-86728500D01*
X174406616Y-86728500D01*
X174320200Y-86742187D01*
X174208319Y-86759907D01*
X174017373Y-86821949D01*
X173838491Y-86913095D01*
X173799766Y-86941231D01*
X173676068Y-87031103D01*
X173676066Y-87031105D01*
X173676065Y-87031105D01*
X173534105Y-87173065D01*
X173534105Y-87173066D01*
X173534103Y-87173068D01*
X173517500Y-87195920D01*
X173416095Y-87335491D01*
X173324949Y-87514373D01*
X173262907Y-87705319D01*
X173256018Y-87748815D01*
X173231500Y-87903616D01*
X168808752Y-87903616D01*
X168901305Y-87811063D01*
X169111948Y-87600419D01*
X169111947Y-87600419D01*
X169111951Y-87600416D01*
X169194084Y-87477495D01*
X169250658Y-87340913D01*
X169279500Y-87195918D01*
X169279500Y-87048083D01*
X169279500Y-85960229D01*
X169299185Y-85893190D01*
X169315819Y-85872548D01*
X172359548Y-82828819D01*
X172420871Y-82795334D01*
X172447229Y-82792500D01*
X178795976Y-82792500D01*
X178863015Y-82812185D01*
X178896295Y-82843616D01*
X178976754Y-82954361D01*
X179132636Y-83110243D01*
X179132641Y-83110247D01*
X179288192Y-83223260D01*
X179310978Y-83239815D01*
X179439375Y-83305237D01*
X179507393Y-83339895D01*
X179507396Y-83339896D01*
X179612221Y-83373955D01*
X179717049Y-83408015D01*
X179934778Y-83442500D01*
X179934779Y-83442500D01*
X180155221Y-83442500D01*
X180155222Y-83442500D01*
X180372951Y-83408015D01*
X180582606Y-83339895D01*
X180779022Y-83239815D01*
X180957365Y-83110242D01*
X181113242Y-82954365D01*
X181242815Y-82776022D01*
X181342895Y-82579606D01*
X181411015Y-82369951D01*
X181445500Y-82152222D01*
X181445500Y-81931778D01*
X181411015Y-81714049D01*
X181362326Y-81564198D01*
X181342896Y-81504396D01*
X181342895Y-81504393D01*
X181288512Y-81397663D01*
X181242815Y-81307978D01*
X181213010Y-81266955D01*
X181113247Y-81129641D01*
X181113243Y-81129636D01*
X181063071Y-81079464D01*
X181029586Y-81018141D01*
X181034570Y-80948449D01*
X181076442Y-80892516D01*
X181107420Y-80875601D01*
X181187326Y-80845798D01*
X181187326Y-80845797D01*
X181187331Y-80845796D01*
X181302546Y-80759546D01*
X181388796Y-80644331D01*
X181439091Y-80509483D01*
X181445500Y-80449873D01*
X181445499Y-78554128D01*
X181439091Y-78494517D01*
X181425951Y-78459288D01*
X181388797Y-78359671D01*
X181388793Y-78359664D01*
X181302547Y-78244455D01*
X181302544Y-78244452D01*
X181187335Y-78158206D01*
X181187328Y-78158202D01*
X181052482Y-78107908D01*
X181052483Y-78107908D01*
X180992883Y-78101501D01*
X180992881Y-78101500D01*
X180992873Y-78101500D01*
X180992864Y-78101500D01*
X179097129Y-78101500D01*
X179097123Y-78101501D01*
X179037516Y-78107908D01*
X178902671Y-78158202D01*
X178902664Y-78158206D01*
X178787455Y-78244452D01*
X178787452Y-78244455D01*
X178701206Y-78359664D01*
X178701202Y-78359671D01*
X178650908Y-78494517D01*
X178644501Y-78554116D01*
X178644501Y-78554123D01*
X178644500Y-78554135D01*
X178644500Y-78627500D01*
X178624815Y-78694539D01*
X178572011Y-78740294D01*
X178520500Y-78751500D01*
X177645638Y-78751500D01*
X177578599Y-78731815D01*
X177540099Y-78692597D01*
X177517318Y-78655663D01*
X177472712Y-78583344D01*
X177348656Y-78459288D01*
X177199334Y-78367186D01*
X177032797Y-78312001D01*
X177032795Y-78312000D01*
X176930010Y-78301500D01*
X176129998Y-78301500D01*
X176129980Y-78301501D01*
X176027203Y-78312000D01*
X176027200Y-78312001D01*
X175860668Y-78367185D01*
X175860663Y-78367187D01*
X175711342Y-78459289D01*
X175587289Y-78583342D01*
X175495181Y-78732674D01*
X175494563Y-78734000D01*
X175493897Y-78734755D01*
X175491395Y-78738813D01*
X175490701Y-78738385D01*
X175448387Y-78786436D01*
X175381192Y-78805583D01*
X175314313Y-78785362D01*
X175282918Y-78755898D01*
X175237186Y-78694809D01*
X175122093Y-78608649D01*
X175122086Y-78608645D01*
X174987379Y-78558403D01*
X174987372Y-78558401D01*
X174927844Y-78552000D01*
X174780000Y-78552000D01*
X174780000Y-80452000D01*
X174927828Y-80452000D01*
X174927844Y-80451999D01*
X174987372Y-80445598D01*
X174987379Y-80445596D01*
X175122086Y-80395354D01*
X175122093Y-80395350D01*
X175237187Y-80309190D01*
X175237188Y-80309189D01*
X175282918Y-80248102D01*
X175338851Y-80206230D01*
X175408543Y-80201246D01*
X175469866Y-80234731D01*
X175491253Y-80265274D01*
X175491395Y-80265187D01*
X175492893Y-80267616D01*
X175494566Y-80270005D01*
X175495183Y-80271329D01*
X175495185Y-80271333D01*
X175495186Y-80271334D01*
X175587288Y-80420656D01*
X175711344Y-80544712D01*
X175860666Y-80636814D01*
X176027203Y-80691999D01*
X176129991Y-80702500D01*
X176930008Y-80702499D01*
X176930016Y-80702498D01*
X176930019Y-80702498D01*
X176986302Y-80696748D01*
X177032797Y-80691999D01*
X177199334Y-80636814D01*
X177348656Y-80544712D01*
X177472712Y-80420656D01*
X177540099Y-80311402D01*
X177592047Y-80264679D01*
X177645638Y-80252500D01*
X178520501Y-80252500D01*
X178587540Y-80272185D01*
X178633295Y-80324989D01*
X178644501Y-80376500D01*
X178644501Y-80449876D01*
X178650908Y-80509483D01*
X178701202Y-80644328D01*
X178701206Y-80644335D01*
X178787452Y-80759544D01*
X178787455Y-80759547D01*
X178902664Y-80845793D01*
X178902671Y-80845797D01*
X178982580Y-80875601D01*
X179005718Y-80892921D01*
X179030485Y-80907809D01*
X179033342Y-80913601D01*
X179038514Y-80917472D01*
X179048613Y-80944550D01*
X179061401Y-80970466D01*
X179060673Y-80976884D01*
X179062931Y-80982936D01*
X179056787Y-81011177D01*
X179053534Y-81039892D01*
X179049110Y-81046471D01*
X179048080Y-81051209D01*
X179035351Y-81070141D01*
X179031372Y-81075020D01*
X178976758Y-81129635D01*
X178894261Y-81243182D01*
X178892080Y-81245858D01*
X178866005Y-81263741D01*
X178840965Y-81283051D01*
X178836677Y-81283856D01*
X178834460Y-81285377D01*
X178827462Y-81285586D01*
X178795976Y-81291500D01*
X172011080Y-81291500D01*
X171866092Y-81320340D01*
X171866082Y-81320343D01*
X171729511Y-81376912D01*
X171729498Y-81376919D01*
X171606584Y-81459048D01*
X171606580Y-81459051D01*
X167946052Y-85119578D01*
X167946049Y-85119581D01*
X167906998Y-85178025D01*
X167906999Y-85178026D01*
X167863914Y-85242508D01*
X167807343Y-85379082D01*
X167807340Y-85379092D01*
X167778500Y-85524079D01*
X167778500Y-86759770D01*
X167758815Y-86826809D01*
X167742181Y-86847451D01*
X166857451Y-87732181D01*
X166796128Y-87765666D01*
X166769770Y-87768500D01*
X161779230Y-87768500D01*
X161712191Y-87748815D01*
X161691549Y-87732181D01*
X160823549Y-86864181D01*
X160790064Y-86802858D01*
X160795048Y-86733166D01*
X160836920Y-86677233D01*
X160902384Y-86652816D01*
X160911230Y-86652500D01*
X162304686Y-86652500D01*
X162304694Y-86652500D01*
X162341569Y-86649598D01*
X162341571Y-86649597D01*
X162341573Y-86649597D01*
X162486733Y-86607424D01*
X162521328Y-86602500D01*
X162943320Y-86602500D01*
X163010359Y-86622185D01*
X163056114Y-86674989D01*
X163061024Y-86687491D01*
X163081186Y-86748334D01*
X163173288Y-86897656D01*
X163297344Y-87021712D01*
X163446666Y-87113814D01*
X163613203Y-87168999D01*
X163715991Y-87179500D01*
X164516008Y-87179499D01*
X164516016Y-87179498D01*
X164516019Y-87179498D01*
X164578993Y-87173065D01*
X164618797Y-87168999D01*
X164785334Y-87113814D01*
X164934656Y-87021712D01*
X165058712Y-86897656D01*
X165150814Y-86748334D01*
X165150817Y-86748323D01*
X165151428Y-86747016D01*
X165152090Y-86746262D01*
X165154605Y-86742187D01*
X165155301Y-86742616D01*
X165197596Y-86694573D01*
X165264788Y-86675416D01*
X165331671Y-86695626D01*
X165363081Y-86725101D01*
X165408813Y-86786190D01*
X165523906Y-86872350D01*
X165523913Y-86872354D01*
X165658620Y-86922596D01*
X165658627Y-86922598D01*
X165718155Y-86928999D01*
X165718172Y-86929000D01*
X165866000Y-86929000D01*
X166366000Y-86929000D01*
X166513828Y-86929000D01*
X166513844Y-86928999D01*
X166573372Y-86922598D01*
X166573379Y-86922596D01*
X166708086Y-86872354D01*
X166708093Y-86872350D01*
X166823187Y-86786190D01*
X166823190Y-86786187D01*
X166909350Y-86671093D01*
X166909354Y-86671086D01*
X166959596Y-86536379D01*
X166959598Y-86536372D01*
X166965999Y-86476844D01*
X166966000Y-86476827D01*
X166966000Y-86229000D01*
X166366000Y-86229000D01*
X166366000Y-86929000D01*
X165866000Y-86929000D01*
X165866000Y-85729000D01*
X166366000Y-85729000D01*
X166966000Y-85729000D01*
X166966000Y-85481172D01*
X166965999Y-85481155D01*
X166959598Y-85421627D01*
X166959596Y-85421620D01*
X166909354Y-85286913D01*
X166909350Y-85286906D01*
X166823190Y-85171812D01*
X166823187Y-85171809D01*
X166708093Y-85085649D01*
X166708086Y-85085645D01*
X166573379Y-85035403D01*
X166573372Y-85035401D01*
X166513844Y-85029000D01*
X166366000Y-85029000D01*
X166366000Y-85729000D01*
X165866000Y-85729000D01*
X165866000Y-85029000D01*
X165718155Y-85029000D01*
X165658627Y-85035401D01*
X165658620Y-85035403D01*
X165523913Y-85085645D01*
X165523906Y-85085649D01*
X165408812Y-85171809D01*
X165363080Y-85232899D01*
X165307146Y-85274769D01*
X165237454Y-85279753D01*
X165176131Y-85246267D01*
X165154746Y-85215725D01*
X165154605Y-85215813D01*
X165153100Y-85213374D01*
X165151430Y-85210988D01*
X165150816Y-85209673D01*
X165150814Y-85209666D01*
X165058712Y-85060344D01*
X165001540Y-85003172D01*
X164968055Y-84941849D01*
X164973039Y-84872157D01*
X165014911Y-84816224D01*
X165024105Y-84809965D01*
X165126656Y-84746712D01*
X165250712Y-84622656D01*
X165342814Y-84473334D01*
X165397999Y-84306797D01*
X165408500Y-84204009D01*
X165408499Y-83403992D01*
X165401951Y-83339895D01*
X165397999Y-83301203D01*
X165397998Y-83301200D01*
X165386594Y-83266786D01*
X165365443Y-83202958D01*
X165363042Y-83133131D01*
X165398774Y-83073089D01*
X165408818Y-83064705D01*
X165497761Y-82998123D01*
X165675123Y-82820761D01*
X165711288Y-82780500D01*
X165727922Y-82759858D01*
X165759567Y-82715974D01*
X165819338Y-82585097D01*
X165839023Y-82518058D01*
X165839024Y-82518054D01*
X165859500Y-82375638D01*
X165859500Y-79999844D01*
X173680000Y-79999844D01*
X173686401Y-80059372D01*
X173686403Y-80059379D01*
X173736645Y-80194086D01*
X173736649Y-80194093D01*
X173822809Y-80309187D01*
X173822812Y-80309190D01*
X173937906Y-80395350D01*
X173937913Y-80395354D01*
X174072620Y-80445596D01*
X174072627Y-80445598D01*
X174132155Y-80451999D01*
X174132172Y-80452000D01*
X174280000Y-80452000D01*
X174280000Y-79752000D01*
X173680000Y-79752000D01*
X173680000Y-79999844D01*
X165859500Y-79999844D01*
X165859500Y-79422362D01*
X165856603Y-79368322D01*
X165853769Y-79341964D01*
X165845114Y-79288552D01*
X165794832Y-79153743D01*
X165761347Y-79092420D01*
X165761345Y-79092417D01*
X165761344Y-79092415D01*
X165748428Y-79075162D01*
X165748427Y-79075161D01*
X165695273Y-79004155D01*
X173680000Y-79004155D01*
X173680000Y-79252000D01*
X174280000Y-79252000D01*
X174280000Y-78552000D01*
X174132155Y-78552000D01*
X174072627Y-78558401D01*
X174072620Y-78558403D01*
X173937913Y-78608645D01*
X173937906Y-78608649D01*
X173822812Y-78694809D01*
X173822809Y-78694812D01*
X173736649Y-78809906D01*
X173736645Y-78809913D01*
X173686403Y-78944620D01*
X173686401Y-78944627D01*
X173680000Y-79004155D01*
X165695273Y-79004155D01*
X165675129Y-78977246D01*
X165675113Y-78977228D01*
X165497776Y-78799892D01*
X165497770Y-78799886D01*
X165497761Y-78799877D01*
X165482798Y-78786436D01*
X165457519Y-78763728D01*
X165457507Y-78763718D01*
X165436856Y-78747076D01*
X165392974Y-78715433D01*
X165262100Y-78655663D01*
X165195055Y-78635976D01*
X165136101Y-78627500D01*
X165052638Y-78615500D01*
X160448362Y-78615500D01*
X160448360Y-78615500D01*
X160394311Y-78618397D01*
X160394310Y-78618397D01*
X160367977Y-78621229D01*
X160367950Y-78621232D01*
X160314554Y-78629885D01*
X160314552Y-78629885D01*
X160179747Y-78680166D01*
X160118422Y-78713651D01*
X160003240Y-78799876D01*
X160003228Y-78799886D01*
X159825892Y-78977223D01*
X159825855Y-78977262D01*
X159789728Y-79017480D01*
X159789718Y-79017492D01*
X159773076Y-79038143D01*
X159741433Y-79082025D01*
X159741431Y-79082029D01*
X159716592Y-79136416D01*
X159670836Y-79189219D01*
X159603796Y-79208902D01*
X159560465Y-79201084D01*
X159461687Y-79164241D01*
X159403646Y-79158000D01*
X159307000Y-79158000D01*
X159307000Y-80608000D01*
X159403630Y-80608000D01*
X159403646Y-80607999D01*
X159461689Y-80601758D01*
X159474165Y-80597105D01*
X159543857Y-80592120D01*
X159605180Y-80625604D01*
X159638666Y-80686927D01*
X159641500Y-80713286D01*
X159641500Y-82375640D01*
X159644397Y-82429688D01*
X159644397Y-82429689D01*
X159647229Y-82456022D01*
X159647232Y-82456049D01*
X159655885Y-82509445D01*
X159655885Y-82509447D01*
X159706166Y-82644253D01*
X159723210Y-82675468D01*
X159738060Y-82743742D01*
X159713641Y-82809205D01*
X159702057Y-82822573D01*
X158929049Y-83595581D01*
X158880999Y-83667493D01*
X158881000Y-83667494D01*
X158846914Y-83718508D01*
X158790343Y-83855082D01*
X158790340Y-83855092D01*
X158761500Y-84000079D01*
X158761500Y-84000082D01*
X158761500Y-85270082D01*
X158761500Y-86687918D01*
X158761500Y-86687920D01*
X158761499Y-86687920D01*
X157858500Y-86687920D01*
X157858500Y-86350842D01*
X157875769Y-86287720D01*
X157890742Y-86262401D01*
X157890744Y-86262398D01*
X157936598Y-86104569D01*
X157939500Y-86067694D01*
X157939500Y-85636306D01*
X157936598Y-85599431D01*
X157890744Y-85441602D01*
X157827702Y-85335004D01*
X157818252Y-85315217D01*
X157815897Y-85308903D01*
X157793832Y-85249743D01*
X157793829Y-85249738D01*
X157793093Y-85247764D01*
X157788109Y-85178072D01*
X157805099Y-85141756D01*
X157803110Y-85140580D01*
X157819125Y-85113500D01*
X157890744Y-84992398D01*
X157935365Y-84838814D01*
X157936597Y-84834573D01*
X157936598Y-84834567D01*
X157937685Y-84820751D01*
X157939500Y-84797694D01*
X157939500Y-84366306D01*
X157936598Y-84329431D01*
X157930022Y-84306797D01*
X157890745Y-84171606D01*
X157890744Y-84171602D01*
X157879542Y-84152661D01*
X157823038Y-84057115D01*
X157823035Y-84057112D01*
X157807081Y-84030135D01*
X157807078Y-84030132D01*
X157807076Y-84030129D01*
X157690870Y-83913923D01*
X157690867Y-83913921D01*
X157690865Y-83913919D01*
X157647427Y-83888230D01*
X157599745Y-83837163D01*
X157587241Y-83768422D01*
X157611892Y-83708663D01*
X157610902Y-83707944D01*
X157613881Y-83703842D01*
X157613886Y-83703832D01*
X157613903Y-83703812D01*
X157616639Y-83700046D01*
X157674166Y-83587143D01*
X157678149Y-83562000D01*
X155463506Y-83562000D01*
X155396467Y-83542315D01*
X155375829Y-83525685D01*
X155276099Y-83425955D01*
X155276098Y-83425954D01*
X155276097Y-83425953D01*
X155132711Y-83330145D01*
X155132698Y-83330138D01*
X154973378Y-83264146D01*
X154973366Y-83264143D01*
X154804232Y-83230500D01*
X154804229Y-83230500D01*
X154323230Y-83230500D01*
X154256191Y-83210815D01*
X154235549Y-83194181D01*
X154204657Y-83163289D01*
X154204656Y-83163288D01*
X154076672Y-83084347D01*
X154055336Y-83071187D01*
X154055331Y-83071185D01*
X154053862Y-83070698D01*
X154027613Y-83062000D01*
X155249851Y-83062000D01*
X156214000Y-83062000D01*
X156214000Y-82759770D01*
X156183196Y-82703357D01*
X156188180Y-82633665D01*
X156213526Y-82594227D01*
X156714000Y-82594227D01*
X156744804Y-82650641D01*
X156739820Y-82720333D01*
X156714000Y-82760510D01*
X156714000Y-83062000D01*
X157678148Y-83062000D01*
X157674166Y-83036856D01*
X157616639Y-82923953D01*
X157616636Y-82923949D01*
X157527050Y-82834363D01*
X157527046Y-82834360D01*
X157435048Y-82787485D01*
X157384252Y-82739511D01*
X157367457Y-82671690D01*
X157389994Y-82605555D01*
X157435048Y-82566515D01*
X157527046Y-82519639D01*
X157527050Y-82519636D01*
X157616636Y-82430050D01*
X157616639Y-82430046D01*
X157674166Y-82317143D01*
X157678149Y-82292000D01*
X156714000Y-82292000D01*
X156714000Y-82594227D01*
X156213526Y-82594227D01*
X156214000Y-82593489D01*
X156214000Y-82292000D01*
X155249851Y-82292000D01*
X155253833Y-82317143D01*
X155311360Y-82430046D01*
X155311363Y-82430050D01*
X155400949Y-82519636D01*
X155400956Y-82519641D01*
X155492950Y-82566514D01*
X155543747Y-82614488D01*
X155560542Y-82682309D01*
X155538005Y-82748444D01*
X155492952Y-82787483D01*
X155400956Y-82834358D01*
X155400949Y-82834363D01*
X155311363Y-82923949D01*
X155311360Y-82923953D01*
X155253833Y-83036856D01*
X155249851Y-83062000D01*
X154027613Y-83062000D01*
X153888797Y-83016001D01*
X153888795Y-83016000D01*
X153786016Y-83005500D01*
X153485736Y-83005500D01*
X153418697Y-82985815D01*
X153372942Y-82933011D01*
X153362998Y-82863853D01*
X153392023Y-82800297D01*
X153438284Y-82766939D01*
X153544698Y-82722861D01*
X153544698Y-82722860D01*
X153544705Y-82722858D01*
X153688099Y-82627045D01*
X153810045Y-82505099D01*
X153905858Y-82361705D01*
X153971855Y-82202374D01*
X154005500Y-82033229D01*
X154005500Y-81860771D01*
X153991821Y-81792000D01*
X155249851Y-81792000D01*
X156214000Y-81792000D01*
X156714000Y-81792000D01*
X157678148Y-81792000D01*
X157674166Y-81766856D01*
X157616639Y-81653953D01*
X157616636Y-81653949D01*
X157527050Y-81564363D01*
X157527046Y-81564360D01*
X157414144Y-81506833D01*
X157320486Y-81492000D01*
X156714000Y-81492000D01*
X156714000Y-81792000D01*
X156214000Y-81792000D01*
X156214000Y-81492000D01*
X155607520Y-81492000D01*
X155513850Y-81506835D01*
X155513844Y-81506837D01*
X155400958Y-81564356D01*
X155400949Y-81564363D01*
X155311363Y-81653949D01*
X155311360Y-81653953D01*
X155253833Y-81766856D01*
X155249851Y-81792000D01*
X153991821Y-81792000D01*
X153971855Y-81691626D01*
X153961646Y-81666980D01*
X153905861Y-81532301D01*
X153905854Y-81532288D01*
X153810045Y-81388901D01*
X153810042Y-81388897D01*
X153688102Y-81266957D01*
X153688098Y-81266954D01*
X153544711Y-81171145D01*
X153544698Y-81171138D01*
X153385378Y-81105146D01*
X153385366Y-81105143D01*
X153216232Y-81071500D01*
X153216229Y-81071500D01*
X153121229Y-81071500D01*
X152164230Y-81071500D01*
X152097191Y-81051815D01*
X152076549Y-81035181D01*
X152045657Y-81004289D01*
X152045656Y-81004288D01*
X151896334Y-80912186D01*
X151729797Y-80857001D01*
X151729795Y-80857000D01*
X151627010Y-80846500D01*
X150626998Y-80846500D01*
X150626980Y-80846501D01*
X150524203Y-80857000D01*
X150524200Y-80857001D01*
X150357668Y-80912185D01*
X150357663Y-80912187D01*
X150208342Y-81004289D01*
X150084289Y-81128342D01*
X149992187Y-81277663D01*
X149992185Y-81277668D01*
X149978044Y-81320343D01*
X149937001Y-81444203D01*
X149937001Y-81444204D01*
X149937000Y-81444204D01*
X149926500Y-81546983D01*
X140678293Y-81546983D01*
X140628814Y-81397666D01*
X140536712Y-81248344D01*
X140412656Y-81124288D01*
X140295158Y-81051815D01*
X140263336Y-81032187D01*
X140263331Y-81032185D01*
X140220949Y-81018141D01*
X140096797Y-80977001D01*
X140096795Y-80977000D01*
X140088428Y-80976146D01*
X140023737Y-80949749D01*
X139983586Y-80892568D01*
X139977033Y-80853108D01*
X139975297Y-80167146D01*
X158269500Y-80167146D01*
X158275741Y-80225187D01*
X158324732Y-80356537D01*
X158408741Y-80468758D01*
X158520962Y-80552767D01*
X158652312Y-80601758D01*
X158710353Y-80607999D01*
X158710370Y-80608000D01*
X158807000Y-80608000D01*
X158807000Y-80133000D01*
X158269500Y-80133000D01*
X158269500Y-80167146D01*
X139975297Y-80167146D01*
X139973858Y-79598853D01*
X158269500Y-79598853D01*
X158269500Y-79633000D01*
X158807000Y-79633000D01*
X158807000Y-79158000D01*
X158710353Y-79158000D01*
X158652312Y-79164241D01*
X158520962Y-79213232D01*
X158408741Y-79297241D01*
X158324732Y-79409462D01*
X158275741Y-79540812D01*
X158269500Y-79598853D01*
X139973858Y-79598853D01*
X139967812Y-77210545D01*
X139966339Y-76628814D01*
X139985854Y-76561725D01*
X140038542Y-76515836D01*
X140090339Y-76504500D01*
X181417108Y-76504500D01*
X181477588Y-76504500D01*
X181488395Y-76504972D01*
G37*
%TD.AperFunction*%
%TD*%
%TA.AperFunction,Conductor*%
%TO.N,Net-(R3-Pad1)*%
G36*
X140211765Y-100222685D02*
G01*
X140232301Y-100239213D01*
X140410305Y-100416786D01*
X140443864Y-100478068D01*
X140446730Y-100504273D01*
X140452196Y-102760710D01*
X140433736Y-102826105D01*
X140411187Y-102862663D01*
X140411186Y-102862665D01*
X140411186Y-102862666D01*
X140356001Y-103029203D01*
X140356001Y-103029204D01*
X140356000Y-103029204D01*
X140345500Y-103131983D01*
X140345500Y-104132001D01*
X140345501Y-104132019D01*
X140356000Y-104234796D01*
X140356001Y-104234799D01*
X140411186Y-104401333D01*
X140411187Y-104401336D01*
X140437972Y-104444763D01*
X140456432Y-104509557D01*
X140461269Y-106505551D01*
X140441747Y-106572637D01*
X140425056Y-106593426D01*
X140248335Y-106770576D01*
X140187055Y-106804134D01*
X140160550Y-106807000D01*
X138350362Y-106807000D01*
X138283323Y-106787315D01*
X138262681Y-106770681D01*
X138085319Y-106593319D01*
X138051834Y-106531996D01*
X138049000Y-106505638D01*
X138049000Y-100504362D01*
X138068685Y-100437323D01*
X138085319Y-100416681D01*
X138262681Y-100239319D01*
X138324004Y-100205834D01*
X138350362Y-100203000D01*
X140144726Y-100203000D01*
X140211765Y-100222685D01*
G37*
%TD.AperFunction*%
%TD*%
%TA.AperFunction,Conductor*%
%TO.N,Net-(R10-Pad1)*%
G36*
X140100677Y-84347685D02*
G01*
X140121319Y-84364319D01*
X140298681Y-84541681D01*
X140332166Y-84603004D01*
X140335000Y-84629362D01*
X140335000Y-90884638D01*
X140315315Y-90951677D01*
X140298681Y-90972319D01*
X140121319Y-91149681D01*
X140059996Y-91183166D01*
X140033638Y-91186000D01*
X138350362Y-91186000D01*
X138283323Y-91166315D01*
X138262681Y-91149681D01*
X138085319Y-90972319D01*
X138051834Y-90910996D01*
X138049000Y-90884638D01*
X138049000Y-84629362D01*
X138068685Y-84562323D01*
X138085319Y-84541681D01*
X138262681Y-84364319D01*
X138324004Y-84330834D01*
X138350362Y-84328000D01*
X140033638Y-84328000D01*
X140100677Y-84347685D01*
G37*
%TD.AperFunction*%
%TD*%
%TA.AperFunction,Conductor*%
%TO.N,/Vcc-*%
G36*
X151149677Y-97047685D02*
G01*
X151170319Y-97064319D01*
X151347681Y-97241681D01*
X151381166Y-97303004D01*
X151384000Y-97329362D01*
X151384000Y-100028638D01*
X151364315Y-100095677D01*
X151347681Y-100116319D01*
X151170319Y-100293681D01*
X151108996Y-100327166D01*
X151082638Y-100330000D01*
X148510362Y-100330000D01*
X148480921Y-100321355D01*
X148450935Y-100314832D01*
X148445919Y-100311077D01*
X148443323Y-100310315D01*
X148422681Y-100293681D01*
X148249126Y-100120126D01*
X148215641Y-100058803D01*
X148219101Y-99993441D01*
X148219408Y-99992516D01*
X148273674Y-99828753D01*
X148284000Y-99727677D01*
X148283999Y-99154324D01*
X148273674Y-99053247D01*
X148219408Y-98889484D01*
X148219406Y-98889481D01*
X148217136Y-98882630D01*
X148218426Y-98882202D01*
X148209000Y-98839674D01*
X148209000Y-97329361D01*
X148217645Y-97299918D01*
X148224168Y-97269935D01*
X148227922Y-97264919D01*
X148228685Y-97262322D01*
X148245309Y-97241690D01*
X148387582Y-97099417D01*
X148448899Y-97065936D01*
X148484987Y-97063484D01*
X148486429Y-97063597D01*
X148486431Y-97063598D01*
X148523306Y-97066500D01*
X148523314Y-97066500D01*
X150304686Y-97066500D01*
X150304694Y-97066500D01*
X150341569Y-97063598D01*
X150341571Y-97063597D01*
X150341573Y-97063597D01*
X150447149Y-97032924D01*
X150481744Y-97028000D01*
X151082638Y-97028000D01*
X151149677Y-97047685D01*
G37*
%TD.AperFunction*%
%TD*%
%TA.AperFunction,Conductor*%
%TO.N,/Vcc+*%
G36*
X151022677Y-90824685D02*
G01*
X151043319Y-90841319D01*
X151220681Y-91018681D01*
X151254166Y-91080004D01*
X151257000Y-91106362D01*
X151257000Y-93932638D01*
X151248355Y-93962078D01*
X151241832Y-93992065D01*
X151238077Y-93997080D01*
X151237315Y-93999677D01*
X151220681Y-94020319D01*
X151156819Y-94084181D01*
X151095496Y-94117666D01*
X151069138Y-94120500D01*
X149327768Y-94120500D01*
X149158633Y-94154143D01*
X149158625Y-94154145D01*
X149081574Y-94186061D01*
X149034121Y-94195500D01*
X148523298Y-94195500D01*
X148486432Y-94198401D01*
X148486426Y-94198402D01*
X148409603Y-94220722D01*
X148396309Y-94220684D01*
X148383854Y-94225330D01*
X148362048Y-94220586D01*
X148339733Y-94220523D01*
X148327049Y-94212972D01*
X148315581Y-94210478D01*
X148287327Y-94189327D01*
X148118319Y-94020319D01*
X148084834Y-93958996D01*
X148082000Y-93932638D01*
X148082000Y-92295326D01*
X148091428Y-92252800D01*
X148090136Y-92252372D01*
X148092408Y-92245516D01*
X148146674Y-92081753D01*
X148157000Y-91980677D01*
X148156999Y-91407324D01*
X148146674Y-91306247D01*
X148092408Y-91142484D01*
X148092407Y-91142483D01*
X148092101Y-91141558D01*
X148091565Y-91125991D01*
X148086123Y-91111400D01*
X148090389Y-91091789D01*
X148089699Y-91071730D01*
X148097869Y-91057404D01*
X148100975Y-91043127D01*
X148122123Y-91014876D01*
X148295681Y-90841319D01*
X148357004Y-90807834D01*
X148383362Y-90805000D01*
X150955638Y-90805000D01*
X151022677Y-90824685D01*
G37*
%TD.AperFunction*%
%TD*%
%TA.AperFunction,Conductor*%
%TO.N,/Vcc-*%
G36*
X154606532Y-85236685D02*
G01*
X154627174Y-85253319D01*
X154635897Y-85262042D01*
X154635901Y-85262045D01*
X154779288Y-85357854D01*
X154779301Y-85357861D01*
X154926468Y-85418819D01*
X154938626Y-85423855D01*
X155076717Y-85451323D01*
X155107766Y-85457499D01*
X155107769Y-85457500D01*
X155107771Y-85457500D01*
X156550231Y-85457500D01*
X156550232Y-85457499D01*
X156719374Y-85423855D01*
X156796426Y-85391938D01*
X156843879Y-85382500D01*
X157217138Y-85382500D01*
X157246578Y-85391144D01*
X157276565Y-85397668D01*
X157281580Y-85401422D01*
X157284177Y-85402185D01*
X157304819Y-85418819D01*
X157316681Y-85430681D01*
X157350166Y-85492004D01*
X157353000Y-85518362D01*
X157353000Y-86978402D01*
X157333315Y-87045441D01*
X157280511Y-87091196D01*
X157268010Y-87096106D01*
X157255986Y-87100090D01*
X157109148Y-87190661D01*
X156987161Y-87312648D01*
X156896593Y-87459481D01*
X156896592Y-87459484D01*
X156842326Y-87623247D01*
X156842326Y-87623248D01*
X156842325Y-87623248D01*
X156832000Y-87724315D01*
X156832000Y-88297669D01*
X156832001Y-88297687D01*
X156842325Y-88398752D01*
X156896592Y-88562515D01*
X156896593Y-88562518D01*
X156988118Y-88710903D01*
X157006558Y-88778296D01*
X156985635Y-88844959D01*
X156931993Y-88889729D01*
X156882579Y-88900000D01*
X152574362Y-88900000D01*
X152507323Y-88880315D01*
X152486681Y-88863681D01*
X152309319Y-88686319D01*
X152275834Y-88624996D01*
X152273000Y-88598638D01*
X152273000Y-85518362D01*
X152292685Y-85451323D01*
X152309319Y-85430681D01*
X152486681Y-85253319D01*
X152548004Y-85219834D01*
X152574362Y-85217000D01*
X154539493Y-85217000D01*
X154606532Y-85236685D01*
G37*
%TD.AperFunction*%
%TD*%
%TA.AperFunction,Conductor*%
%TO.N,/Vcc+*%
G36*
X165119677Y-79140685D02*
G01*
X165140319Y-79157319D01*
X165317681Y-79334681D01*
X165351166Y-79396004D01*
X165354000Y-79422362D01*
X165354000Y-82375638D01*
X165334315Y-82442677D01*
X165317681Y-82463319D01*
X165140319Y-82640681D01*
X165078996Y-82674166D01*
X165052638Y-82677000D01*
X162725309Y-82677000D01*
X162658270Y-82657315D01*
X162647242Y-82648428D01*
X162647031Y-82648702D01*
X162640862Y-82643917D01*
X162550269Y-82590341D01*
X162499398Y-82560256D01*
X162499397Y-82560255D01*
X162499396Y-82560255D01*
X162499393Y-82560254D01*
X162341573Y-82514402D01*
X162341567Y-82514401D01*
X162304701Y-82511500D01*
X162304694Y-82511500D01*
X160523306Y-82511500D01*
X160523298Y-82511500D01*
X160486432Y-82514401D01*
X160361559Y-82550680D01*
X160348264Y-82550641D01*
X160335811Y-82555287D01*
X160314007Y-82550543D01*
X160291690Y-82550480D01*
X160279006Y-82542929D01*
X160267538Y-82540435D01*
X160239284Y-82519284D01*
X160183319Y-82463319D01*
X160149834Y-82401996D01*
X160147000Y-82375638D01*
X160147000Y-79422362D01*
X160166685Y-79355323D01*
X160183319Y-79334681D01*
X160360681Y-79157319D01*
X160422004Y-79123834D01*
X160448362Y-79121000D01*
X165052638Y-79121000D01*
X165119677Y-79140685D01*
G37*
%TD.AperFunction*%
%TD*%
M02*
