%TF.GenerationSoftware,KiCad,Pcbnew,9.0.6*%
%TF.CreationDate,2026-09-21T15:04:46-04:00*%
%TF.ProjectId,catpaw2,63617470-6177-4322-9e6b-696361645f70,rev?*%
%TF.SameCoordinates,Original*%
%TF.FileFunction,Copper,L2,Bot*%
%TF.FilePolarity,Positive*%
%FSLAX46Y46*%
G04 Gerber Fmt 4.6, Leading zero omitted, Abs format (unit mm)*
G04 Created by KiCad (PCBNEW 9.0.6) date 2026-09-21 15:04:46*
%MOMM*%
%LPD*%
G01*
G04 APERTURE LIST*
%TA.AperFunction,ComponentPad*%
%ADD10R,1.700000X1.700000*%
%TD*%
%TA.AperFunction,ComponentPad*%
%ADD11C,1.700000*%
%TD*%
%TA.AperFunction,ComponentPad*%
%ADD12R,1.800000X1.800000*%
%TD*%
%TA.AperFunction,ComponentPad*%
%ADD13C,1.800000*%
%TD*%
%TA.AperFunction,ComponentPad*%
%ADD14C,3.200000*%
%TD*%
%TA.AperFunction,ComponentPad*%
%ADD15C,2.300000*%
%TD*%
%TA.AperFunction,ComponentPad*%
%ADD16C,1.950000*%
%TD*%
%TA.AperFunction,ViaPad*%
%ADD17C,0.600000*%
%TD*%
%TA.AperFunction,Conductor*%
%ADD18C,1.000000*%
%TD*%
G04 APERTURE END LIST*
D10*
%TO.P,J4,1,Pin_1*%
%TO.N,/Vcc+*%
X163322000Y-92202000D03*
D11*
%TO.P,J4,2,Pin_2*%
%TO.N,GND*%
X160782000Y-92202000D03*
%TO.P,J4,3,Pin_3*%
%TO.N,/Vcc-*%
X158242000Y-92202000D03*
%TD*%
D12*
%TO.P,D5,1,K*%
%TO.N,Net-(D5-K)*%
X180045000Y-79502000D03*
D13*
%TO.P,D5,2,A*%
%TO.N,Net-(D5-A)*%
X180045000Y-82042000D03*
%TD*%
D14*
%TO.P,J2,1,Pin_1*%
%TO.N,/VACin-*%
X118013000Y-87504000D03*
D15*
%TO.P,J2,2*%
%TO.N,N/C*%
X121813000Y-92584000D03*
X121813000Y-82424000D03*
X111653000Y-92584000D03*
X111653000Y-82424000D03*
%TD*%
D16*
%TO.P,J3,1,Pin_1*%
%TO.N,/Vcc+*%
X172739000Y-93736000D03*
%TO.P,J3,2,Pin_2*%
%TO.N,/In+ Analog Input*%
X172739000Y-97272000D03*
%TO.P,J3,3,Pin_3*%
%TO.N,/Vcc-*%
X176275000Y-97272000D03*
%TO.P,J3,4,Pin_4*%
%TO.N,GND*%
X176275000Y-93736000D03*
%TO.P,J3,5,Pin_5*%
%TO.N,/cable shield*%
X174507000Y-95504000D03*
%TD*%
D14*
%TO.P,J1,1,Pin_1*%
%TO.N,/VACin+*%
X118013000Y-103504000D03*
D15*
%TO.P,J1,2*%
%TO.N,N/C*%
X121813000Y-108584000D03*
X121813000Y-98424000D03*
X111653000Y-108584000D03*
X111653000Y-98424000D03*
%TD*%
D17*
%TO.N,GND*%
X155257500Y-77470000D03*
X179832000Y-77470000D03*
X144335500Y-77470000D03*
X163449000Y-77470000D03*
X157988000Y-77470000D03*
X177101500Y-77470000D03*
X147066000Y-77470000D03*
X166179500Y-77470000D03*
X174371000Y-77470000D03*
X152527000Y-77470000D03*
X171640500Y-77470000D03*
X168910000Y-77470000D03*
X160718500Y-77470000D03*
X141605000Y-77470000D03*
X149796500Y-77470000D03*
X179832000Y-113538000D03*
X177101500Y-113538000D03*
X174371000Y-113538000D03*
X141605000Y-113538000D03*
X144335500Y-113538000D03*
X147066000Y-113538000D03*
X149796500Y-113538000D03*
X171640500Y-113538000D03*
X168910000Y-113538000D03*
X166179500Y-113538000D03*
X163449000Y-113538000D03*
X160718500Y-113538000D03*
X157988000Y-113538000D03*
X155257500Y-113538000D03*
X152527000Y-113538000D03*
%TO.N,/Vcc-*%
X150495000Y-99568000D03*
X150495000Y-98806000D03*
%TO.N,/Vcc+*%
X150495000Y-92202000D03*
X150495000Y-91440000D03*
%TO.N,/Vcc-*%
X152908000Y-88011000D03*
X153797000Y-88011000D03*
X154686000Y-88011000D03*
%TO.N,/Vcc+*%
X164211000Y-79883000D03*
X163322000Y-79883000D03*
X162433000Y-79883000D03*
X153035000Y-81947000D03*
%TD*%
D18*
%TO.N,/Vcc+*%
X163322000Y-92202000D02*
X170933000Y-92202000D01*
X170933000Y-92202000D02*
X171069000Y-92066000D01*
%TO.N,/Vcc-*%
X154686000Y-88011000D02*
X154686000Y-92202000D01*
X158242000Y-92202000D02*
X154686000Y-92202000D01*
X173979000Y-99568000D02*
X155321000Y-99568000D01*
%TO.N,/Vcc+*%
X164211000Y-79883000D02*
X171069000Y-86741000D01*
X171069000Y-86741000D02*
X171069000Y-92066000D01*
X171069000Y-92066000D02*
X172739000Y-93736000D01*
%TO.N,/Vcc-*%
X154686000Y-98933000D02*
X155321000Y-99568000D01*
X154686000Y-98933000D02*
X154686000Y-99568000D01*
X154051000Y-99568000D02*
X152273000Y-99568000D01*
X154686000Y-98933000D02*
X154051000Y-99568000D01*
X155321000Y-99568000D02*
X154686000Y-99568000D01*
X154686000Y-92202000D02*
X154686000Y-98933000D01*
X152273000Y-99568000D02*
X151257000Y-99568000D01*
X150495000Y-98806000D02*
X151257000Y-99568000D01*
X154686000Y-99568000D02*
X154051000Y-99568000D01*
X151257000Y-99568000D02*
X150495000Y-99568000D01*
X150495000Y-99568000D02*
X150495000Y-98806000D01*
X176275000Y-97272000D02*
X173979000Y-99568000D01*
X154686000Y-88011000D02*
X152908000Y-88011000D01*
%TO.N,/Vcc+*%
X150495000Y-91440000D02*
X150495000Y-92202000D01*
X150495000Y-91440000D02*
X150495000Y-84487000D01*
X150495000Y-84487000D02*
X153035000Y-81947000D01*
X162433000Y-79883000D02*
X155099000Y-79883000D01*
X155099000Y-79883000D02*
X153035000Y-81947000D01*
X164211000Y-79883000D02*
X162433000Y-79883000D01*
%TD*%
%TA.AperFunction,Conductor*%
%TO.N,GND*%
G36*
X161718289Y-92784736D02*
G01*
X161722803Y-92778525D01*
X161722805Y-92778522D01*
X161737014Y-92750635D01*
X161784987Y-92699838D01*
X161852807Y-92683041D01*
X161918943Y-92705576D01*
X161962396Y-92760290D01*
X161971500Y-92806927D01*
X161971500Y-93099869D01*
X161971501Y-93099876D01*
X161977908Y-93159483D01*
X162028202Y-93294328D01*
X162028206Y-93294335D01*
X162114452Y-93409544D01*
X162114455Y-93409547D01*
X162229664Y-93495793D01*
X162229671Y-93495797D01*
X162364517Y-93546091D01*
X162364516Y-93546091D01*
X162371444Y-93546835D01*
X162424127Y-93552500D01*
X164219872Y-93552499D01*
X164279483Y-93546091D01*
X164414331Y-93495796D01*
X164529546Y-93409546D01*
X164615796Y-93294331D01*
X164619960Y-93283165D01*
X164661829Y-93227234D01*
X164727293Y-93202816D01*
X164736141Y-93202500D01*
X170739218Y-93202500D01*
X170806257Y-93222185D01*
X170826899Y-93238819D01*
X171227181Y-93639101D01*
X171260666Y-93700424D01*
X171263500Y-93726782D01*
X171263500Y-93852129D01*
X171299831Y-94081514D01*
X171371601Y-94302400D01*
X171425524Y-94408228D01*
X171477039Y-94509331D01*
X171613551Y-94697224D01*
X171777776Y-94861449D01*
X171965669Y-94997961D01*
X172063436Y-95047776D01*
X172172599Y-95103398D01*
X172172601Y-95103398D01*
X172172604Y-95103400D01*
X172393486Y-95175169D01*
X172511668Y-95193886D01*
X172622871Y-95211500D01*
X172622876Y-95211500D01*
X172855128Y-95211500D01*
X172896120Y-95205007D01*
X172965413Y-95213961D01*
X173018866Y-95258957D01*
X173039506Y-95325708D01*
X173037993Y-95346876D01*
X173031500Y-95387875D01*
X173031500Y-95620124D01*
X173037993Y-95661123D01*
X173029037Y-95730416D01*
X172984040Y-95783867D01*
X172917288Y-95804506D01*
X172896123Y-95802993D01*
X172855124Y-95796500D01*
X172622876Y-95796500D01*
X172622871Y-95796500D01*
X172393485Y-95832831D01*
X172172599Y-95904601D01*
X171965668Y-96010039D01*
X171777773Y-96146553D01*
X171613553Y-96310773D01*
X171477039Y-96498668D01*
X171371601Y-96705599D01*
X171299831Y-96926485D01*
X171263500Y-97155870D01*
X171263500Y-97388129D01*
X171299831Y-97617514D01*
X171371601Y-97838400D01*
X171468647Y-98028861D01*
X171477039Y-98045331D01*
X171613551Y-98233224D01*
X171613553Y-98233226D01*
X171736146Y-98355819D01*
X171769631Y-98417142D01*
X171764647Y-98486834D01*
X171722775Y-98542767D01*
X171657311Y-98567184D01*
X171648465Y-98567500D01*
X155810500Y-98567500D01*
X155743461Y-98547815D01*
X155697706Y-98495011D01*
X155686500Y-98443500D01*
X155686500Y-93326500D01*
X155706185Y-93259461D01*
X155758989Y-93213706D01*
X155810500Y-93202500D01*
X157281800Y-93202500D01*
X157348839Y-93222185D01*
X157361365Y-93231493D01*
X157534179Y-93357048D01*
X157534181Y-93357049D01*
X157534184Y-93357051D01*
X157723588Y-93453557D01*
X157925757Y-93519246D01*
X158135713Y-93552500D01*
X158135714Y-93552500D01*
X158348286Y-93552500D01*
X158348287Y-93552500D01*
X158558243Y-93519246D01*
X158760412Y-93453557D01*
X158949816Y-93357051D01*
X159036138Y-93294335D01*
X159121786Y-93232109D01*
X159121788Y-93232106D01*
X159121792Y-93232104D01*
X159272104Y-93081792D01*
X159397051Y-92909816D01*
X159493557Y-92720412D01*
X159525765Y-92621284D01*
X159565201Y-92563611D01*
X159629559Y-92536412D01*
X159698406Y-92548326D01*
X159749882Y-92595570D01*
X159761625Y-92621282D01*
X159762592Y-92624258D01*
X159841196Y-92778525D01*
X159845709Y-92784736D01*
X159845709Y-92784737D01*
X160299037Y-92331409D01*
X160316075Y-92394993D01*
X160381901Y-92509007D01*
X160474993Y-92602099D01*
X160589007Y-92667925D01*
X160652589Y-92684962D01*
X160199261Y-93138289D01*
X160199262Y-93138290D01*
X160205471Y-93142801D01*
X160359742Y-93221408D01*
X160524415Y-93274914D01*
X160695429Y-93302000D01*
X160868571Y-93302000D01*
X161039584Y-93274914D01*
X161204257Y-93221408D01*
X161358525Y-93142803D01*
X161364736Y-93138289D01*
X161364737Y-93138289D01*
X160911410Y-92684962D01*
X160974993Y-92667925D01*
X161089007Y-92602099D01*
X161182099Y-92509007D01*
X161247925Y-92394993D01*
X161264962Y-92331409D01*
X161718289Y-92784736D01*
G37*
%TD.AperFunction*%
%TA.AperFunction,Conductor*%
G36*
X181488395Y-76504972D02*
G01*
X181649919Y-76519103D01*
X181671204Y-76522855D01*
X181822587Y-76563419D01*
X181842885Y-76570807D01*
X181962564Y-76626614D01*
X181984915Y-76637037D01*
X182003634Y-76647844D01*
X182132010Y-76737734D01*
X182148567Y-76751628D01*
X182259371Y-76862432D01*
X182273265Y-76878989D01*
X182363155Y-77007365D01*
X182373962Y-77026084D01*
X182440189Y-77168107D01*
X182447582Y-77188418D01*
X182488143Y-77339794D01*
X182491896Y-77361080D01*
X182506028Y-77522603D01*
X182506500Y-77533411D01*
X182506500Y-113474588D01*
X182506028Y-113485396D01*
X182491896Y-113646919D01*
X182488143Y-113668205D01*
X182447582Y-113819581D01*
X182440189Y-113839892D01*
X182373962Y-113981915D01*
X182363155Y-114000634D01*
X182273265Y-114129010D01*
X182259371Y-114145567D01*
X182148567Y-114256371D01*
X182132010Y-114270265D01*
X182003634Y-114360155D01*
X181984915Y-114370962D01*
X181842892Y-114437189D01*
X181822581Y-114444582D01*
X181671205Y-114485143D01*
X181649919Y-114488896D01*
X181504332Y-114501633D01*
X181488394Y-114503028D01*
X181477588Y-114503500D01*
X140185910Y-114503500D01*
X140118871Y-114483815D01*
X140073116Y-114431011D01*
X140061910Y-114379814D01*
X140061860Y-114360155D01*
X140032857Y-102903616D01*
X173231500Y-102903616D01*
X173231500Y-103104384D01*
X173236175Y-103133902D01*
X173262907Y-103302680D01*
X173324949Y-103493626D01*
X173398294Y-103637572D01*
X173416095Y-103672508D01*
X173534103Y-103834932D01*
X173676068Y-103976897D01*
X173838492Y-104094905D01*
X173923007Y-104137967D01*
X174017373Y-104186050D01*
X174017375Y-104186050D01*
X174017378Y-104186052D01*
X174208320Y-104248093D01*
X174406616Y-104279500D01*
X174406617Y-104279500D01*
X174607383Y-104279500D01*
X174607384Y-104279500D01*
X174805680Y-104248093D01*
X174996622Y-104186052D01*
X175175508Y-104094905D01*
X175337932Y-103976897D01*
X175479897Y-103834932D01*
X175597905Y-103672508D01*
X175689052Y-103493622D01*
X175751093Y-103302680D01*
X175782500Y-103104384D01*
X175782500Y-102903616D01*
X175777825Y-102874097D01*
X176856500Y-102874097D01*
X176856500Y-103133902D01*
X176897140Y-103390493D01*
X176977422Y-103637576D01*
X177058534Y-103796764D01*
X177077982Y-103834934D01*
X177095368Y-103869054D01*
X177248066Y-104079225D01*
X177248069Y-104079229D01*
X177431771Y-104262931D01*
X177641949Y-104415634D01*
X177789445Y-104490787D01*
X177873423Y-104533577D01*
X177873425Y-104533577D01*
X177873428Y-104533579D01*
X178120507Y-104613860D01*
X178252706Y-104634797D01*
X178377098Y-104654500D01*
X178377103Y-104654500D01*
X178636902Y-104654500D01*
X178750298Y-104636539D01*
X178893493Y-104613860D01*
X179140572Y-104533579D01*
X179372051Y-104415634D01*
X179582229Y-104262931D01*
X179765931Y-104079229D01*
X179918634Y-103869051D01*
X180036579Y-103637572D01*
X180116860Y-103390493D01*
X180139539Y-103247298D01*
X180157500Y-103133902D01*
X180157500Y-102874097D01*
X180130768Y-102705319D01*
X180116860Y-102617507D01*
X180036579Y-102370428D01*
X180036577Y-102370425D01*
X180036577Y-102370423D01*
X179993787Y-102286445D01*
X179918634Y-102138949D01*
X179765931Y-101928771D01*
X179582229Y-101745069D01*
X179372051Y-101592366D01*
X179299764Y-101555534D01*
X179140576Y-101474422D01*
X178893493Y-101394140D01*
X178636902Y-101353500D01*
X178636897Y-101353500D01*
X178377103Y-101353500D01*
X178377098Y-101353500D01*
X178120506Y-101394140D01*
X177873423Y-101474422D01*
X177641945Y-101592368D01*
X177431774Y-101745066D01*
X177431768Y-101745071D01*
X177248071Y-101928768D01*
X177248066Y-101928774D01*
X177095368Y-102138945D01*
X176977422Y-102370423D01*
X176897140Y-102617506D01*
X176856500Y-102874097D01*
X175777825Y-102874097D01*
X175751093Y-102705320D01*
X175689052Y-102514378D01*
X175689050Y-102514375D01*
X175689050Y-102514373D01*
X175640967Y-102420007D01*
X175597905Y-102335492D01*
X175479897Y-102173068D01*
X175337932Y-102031103D01*
X175175508Y-101913095D01*
X174996626Y-101821949D01*
X174805680Y-101759907D01*
X174712009Y-101745071D01*
X174607384Y-101728500D01*
X174406616Y-101728500D01*
X174307468Y-101744203D01*
X174208319Y-101759907D01*
X174017373Y-101821949D01*
X173838491Y-101913095D01*
X173745822Y-101980423D01*
X173676068Y-102031103D01*
X173676066Y-102031105D01*
X173676065Y-102031105D01*
X173534105Y-102173065D01*
X173534105Y-102173066D01*
X173534103Y-102173068D01*
X173483423Y-102242822D01*
X173416095Y-102335491D01*
X173324949Y-102514373D01*
X173291439Y-102617507D01*
X173262907Y-102705320D01*
X173231500Y-102903616D01*
X140032857Y-102903616D01*
X140006014Y-92300543D01*
X149494499Y-92300543D01*
X149532947Y-92493829D01*
X149532950Y-92493839D01*
X149608364Y-92675907D01*
X149608371Y-92675920D01*
X149717860Y-92839781D01*
X149717863Y-92839785D01*
X149857214Y-92979136D01*
X149857218Y-92979139D01*
X150021079Y-93088628D01*
X150021092Y-93088635D01*
X150151867Y-93142803D01*
X150203165Y-93164051D01*
X150203169Y-93164051D01*
X150203170Y-93164052D01*
X150396456Y-93202500D01*
X150396459Y-93202500D01*
X150593543Y-93202500D01*
X150758918Y-93169604D01*
X150786835Y-93164051D01*
X150968914Y-93088632D01*
X151132782Y-92979139D01*
X151272139Y-92839782D01*
X151381632Y-92675914D01*
X151457051Y-92493835D01*
X151481962Y-92368600D01*
X151495500Y-92300543D01*
X151495500Y-84952782D01*
X151515185Y-84885743D01*
X151531819Y-84865101D01*
X152547702Y-83849218D01*
X153812139Y-82584782D01*
X153812140Y-82584780D01*
X153819200Y-82577720D01*
X153819205Y-82577713D01*
X155477101Y-80919819D01*
X155538424Y-80886334D01*
X155564782Y-80883500D01*
X162334459Y-80883500D01*
X163745218Y-80883500D01*
X163812257Y-80903185D01*
X163832899Y-80919819D01*
X170032181Y-87119101D01*
X170065666Y-87180424D01*
X170068500Y-87206782D01*
X170068500Y-91077500D01*
X170048815Y-91144539D01*
X169996011Y-91190294D01*
X169944500Y-91201500D01*
X164736141Y-91201500D01*
X164669102Y-91181815D01*
X164623347Y-91129011D01*
X164619969Y-91120859D01*
X164615796Y-91109669D01*
X164615793Y-91109665D01*
X164615793Y-91109664D01*
X164529547Y-90994455D01*
X164529544Y-90994452D01*
X164414335Y-90908206D01*
X164414328Y-90908202D01*
X164279482Y-90857908D01*
X164279483Y-90857908D01*
X164219883Y-90851501D01*
X164219881Y-90851500D01*
X164219873Y-90851500D01*
X164219864Y-90851500D01*
X162424129Y-90851500D01*
X162424123Y-90851501D01*
X162364516Y-90857908D01*
X162229671Y-90908202D01*
X162229664Y-90908206D01*
X162114455Y-90994452D01*
X162114452Y-90994455D01*
X162028206Y-91109664D01*
X162028202Y-91109671D01*
X161977908Y-91244517D01*
X161971501Y-91304116D01*
X161971500Y-91304135D01*
X161971500Y-91597070D01*
X161951815Y-91664109D01*
X161899011Y-91709864D01*
X161829853Y-91719808D01*
X161766297Y-91690783D01*
X161737016Y-91653366D01*
X161722803Y-91625473D01*
X161718290Y-91619262D01*
X161718289Y-91619261D01*
X161264962Y-92072589D01*
X161247925Y-92009007D01*
X161182099Y-91894993D01*
X161089007Y-91801901D01*
X160974993Y-91736075D01*
X160911409Y-91719037D01*
X161364737Y-91265709D01*
X161358525Y-91261196D01*
X161204259Y-91182592D01*
X161039584Y-91129085D01*
X160868571Y-91102000D01*
X160695429Y-91102000D01*
X160524415Y-91129085D01*
X160359740Y-91182592D01*
X160205480Y-91261193D01*
X160205463Y-91261203D01*
X160199261Y-91265708D01*
X160199261Y-91265709D01*
X160652590Y-91719037D01*
X160589007Y-91736075D01*
X160474993Y-91801901D01*
X160381901Y-91894993D01*
X160316075Y-92009007D01*
X160299037Y-92072590D01*
X159845709Y-91619261D01*
X159845708Y-91619261D01*
X159841203Y-91625463D01*
X159841193Y-91625480D01*
X159762590Y-91779743D01*
X159762590Y-91779744D01*
X159761623Y-91782722D01*
X159760950Y-91783705D01*
X159760729Y-91784240D01*
X159760616Y-91784193D01*
X159722182Y-91840394D01*
X159657821Y-91867588D01*
X159588976Y-91855668D01*
X159537503Y-91808421D01*
X159525766Y-91782719D01*
X159493557Y-91683588D01*
X159397051Y-91494184D01*
X159397049Y-91494181D01*
X159397048Y-91494179D01*
X159318344Y-91385851D01*
X159272109Y-91322214D01*
X159272105Y-91322209D01*
X159121786Y-91171890D01*
X158949820Y-91046951D01*
X158760414Y-90950444D01*
X158760413Y-90950443D01*
X158760412Y-90950443D01*
X158558243Y-90884754D01*
X158558241Y-90884753D01*
X158558240Y-90884753D01*
X158396957Y-90859208D01*
X158348287Y-90851500D01*
X158135713Y-90851500D01*
X158087042Y-90859208D01*
X157925760Y-90884753D01*
X157723585Y-90950444D01*
X157534179Y-91046951D01*
X157358266Y-91174759D01*
X157357635Y-91173891D01*
X157298581Y-91200359D01*
X157281800Y-91201500D01*
X155810500Y-91201500D01*
X155743461Y-91181815D01*
X155697706Y-91129011D01*
X155686500Y-91077500D01*
X155686500Y-87912456D01*
X155648052Y-87719170D01*
X155648051Y-87719169D01*
X155648051Y-87719165D01*
X155642316Y-87705319D01*
X155572635Y-87537092D01*
X155572628Y-87537079D01*
X155463139Y-87373218D01*
X155463136Y-87373214D01*
X155323785Y-87233863D01*
X155323781Y-87233860D01*
X155159920Y-87124371D01*
X155159907Y-87124364D01*
X154977839Y-87048950D01*
X154977829Y-87048947D01*
X154784543Y-87010500D01*
X154784541Y-87010500D01*
X152809459Y-87010500D01*
X152809457Y-87010500D01*
X152616170Y-87048947D01*
X152616160Y-87048950D01*
X152434092Y-87124364D01*
X152434079Y-87124371D01*
X152270218Y-87233860D01*
X152270214Y-87233863D01*
X152130863Y-87373214D01*
X152130860Y-87373218D01*
X152021371Y-87537079D01*
X152021364Y-87537092D01*
X151945950Y-87719160D01*
X151945947Y-87719170D01*
X151907500Y-87912456D01*
X151907500Y-87912459D01*
X151907500Y-88109541D01*
X151907500Y-88109543D01*
X151907499Y-88109543D01*
X151945947Y-88302829D01*
X151945950Y-88302839D01*
X152021364Y-88484907D01*
X152021371Y-88484920D01*
X152130860Y-88648781D01*
X152130863Y-88648785D01*
X152270214Y-88788136D01*
X152270218Y-88788139D01*
X152434079Y-88897628D01*
X152434092Y-88897635D01*
X152616160Y-88973049D01*
X152616165Y-88973051D01*
X152616169Y-88973051D01*
X152616170Y-88973052D01*
X152809456Y-89011500D01*
X152809459Y-89011500D01*
X153561500Y-89011500D01*
X153628539Y-89031185D01*
X153674294Y-89083989D01*
X153685500Y-89135500D01*
X153685500Y-98443500D01*
X153665815Y-98510539D01*
X153613011Y-98556294D01*
X153561500Y-98567500D01*
X151722783Y-98567500D01*
X151655744Y-98547815D01*
X151635102Y-98531181D01*
X151279209Y-98175289D01*
X151279206Y-98175285D01*
X151279206Y-98175286D01*
X151272139Y-98168219D01*
X151272139Y-98168218D01*
X151132782Y-98028861D01*
X151132781Y-98028860D01*
X151132780Y-98028859D01*
X150968920Y-97919371D01*
X150968911Y-97919366D01*
X150896315Y-97889296D01*
X150840165Y-97866038D01*
X150786836Y-97843949D01*
X150786832Y-97843948D01*
X150786828Y-97843946D01*
X150690188Y-97824724D01*
X150593544Y-97805500D01*
X150593541Y-97805500D01*
X150396459Y-97805500D01*
X150396455Y-97805500D01*
X150299812Y-97824724D01*
X150203167Y-97843947D01*
X150203161Y-97843949D01*
X150149834Y-97866037D01*
X150149834Y-97866038D01*
X150104315Y-97884892D01*
X150021089Y-97919366D01*
X150021079Y-97919371D01*
X149857218Y-98028860D01*
X149857214Y-98028863D01*
X149717863Y-98168214D01*
X149717860Y-98168218D01*
X149608371Y-98332079D01*
X149608364Y-98332092D01*
X149532950Y-98514160D01*
X149532947Y-98514170D01*
X149494500Y-98707456D01*
X149494500Y-98707459D01*
X149494500Y-99666541D01*
X149494500Y-99666543D01*
X149494499Y-99666543D01*
X149532947Y-99859829D01*
X149532950Y-99859839D01*
X149608364Y-100041907D01*
X149608371Y-100041920D01*
X149717860Y-100205781D01*
X149717863Y-100205785D01*
X149857214Y-100345136D01*
X149857218Y-100345139D01*
X150021079Y-100454628D01*
X150021092Y-100454635D01*
X150203160Y-100530049D01*
X150203165Y-100530051D01*
X150203169Y-100530051D01*
X150203170Y-100530052D01*
X150396456Y-100568500D01*
X150396459Y-100568500D01*
X150593541Y-100568500D01*
X151158459Y-100568500D01*
X151158460Y-100568500D01*
X151355540Y-100568500D01*
X152174459Y-100568500D01*
X153952459Y-100568500D01*
X153952460Y-100568500D01*
X154149540Y-100568500D01*
X154587459Y-100568500D01*
X155222455Y-100568500D01*
X155222460Y-100568501D01*
X155419541Y-100568501D01*
X155419546Y-100568500D01*
X173880460Y-100568500D01*
X174077540Y-100568500D01*
X174077541Y-100568500D01*
X174077542Y-100568500D01*
X174108566Y-100562328D01*
X174174188Y-100549275D01*
X174270836Y-100530051D01*
X174324165Y-100507961D01*
X174452914Y-100454632D01*
X174616782Y-100345139D01*
X174756139Y-100205782D01*
X174756139Y-100205780D01*
X174766347Y-100195573D01*
X174766348Y-100195570D01*
X176178102Y-98783819D01*
X176239425Y-98750334D01*
X176265783Y-98747500D01*
X176391129Y-98747500D01*
X176492502Y-98731443D01*
X176620514Y-98711169D01*
X176841396Y-98639400D01*
X177048331Y-98533961D01*
X177236224Y-98397449D01*
X177400449Y-98233224D01*
X177536961Y-98045331D01*
X177642400Y-97838396D01*
X177714169Y-97617514D01*
X177734443Y-97489502D01*
X177750500Y-97388129D01*
X177750500Y-97155870D01*
X177728620Y-97017730D01*
X177714169Y-96926486D01*
X177642400Y-96705604D01*
X177642398Y-96705601D01*
X177642398Y-96705599D01*
X177536960Y-96498668D01*
X177400449Y-96310776D01*
X177236224Y-96146551D01*
X177048331Y-96010039D01*
X176841400Y-95904601D01*
X176620514Y-95832831D01*
X176391129Y-95796500D01*
X176391124Y-95796500D01*
X176158876Y-95796500D01*
X176158875Y-95796500D01*
X176117876Y-95802993D01*
X176048583Y-95794037D01*
X175995131Y-95749040D01*
X175974493Y-95682288D01*
X175976007Y-95661120D01*
X175982500Y-95620128D01*
X175982500Y-95387870D01*
X175946169Y-95158485D01*
X175928440Y-95103922D01*
X175926445Y-95034081D01*
X175962525Y-94974248D01*
X176025225Y-94943419D01*
X176065770Y-94943130D01*
X176178592Y-94961000D01*
X176371409Y-94961000D01*
X176561856Y-94930835D01*
X176745234Y-94871253D01*
X176745237Y-94871252D01*
X176917040Y-94783713D01*
X176947227Y-94761780D01*
X176947228Y-94761780D01*
X176522488Y-94337041D01*
X176582890Y-94312022D01*
X176689351Y-94240888D01*
X176779888Y-94150351D01*
X176851022Y-94043890D01*
X176876041Y-93983489D01*
X177300780Y-94408228D01*
X177300780Y-94408227D01*
X177322713Y-94378040D01*
X177410252Y-94206237D01*
X177410253Y-94206234D01*
X177469835Y-94022856D01*
X177500000Y-93832409D01*
X177500000Y-93639590D01*
X177469835Y-93449143D01*
X177410253Y-93265765D01*
X177410252Y-93265762D01*
X177322712Y-93093957D01*
X177300781Y-93063771D01*
X176876041Y-93488510D01*
X176851022Y-93428110D01*
X176779888Y-93321649D01*
X176689351Y-93231112D01*
X176582890Y-93159978D01*
X176522488Y-93134958D01*
X176947227Y-92710218D01*
X176947227Y-92710217D01*
X176917043Y-92688288D01*
X176745237Y-92600747D01*
X176745234Y-92600746D01*
X176561856Y-92541164D01*
X176371409Y-92511000D01*
X176178591Y-92511000D01*
X175988143Y-92541164D01*
X175804765Y-92600746D01*
X175804762Y-92600747D01*
X175632955Y-92688288D01*
X175632950Y-92688292D01*
X175602771Y-92710216D01*
X175602771Y-92710219D01*
X176027511Y-93134958D01*
X175967110Y-93159978D01*
X175860649Y-93231112D01*
X175770112Y-93321649D01*
X175698978Y-93428110D01*
X175673958Y-93488511D01*
X175249219Y-93063771D01*
X175249216Y-93063771D01*
X175227292Y-93093950D01*
X175227288Y-93093955D01*
X175139747Y-93265762D01*
X175139746Y-93265765D01*
X175080164Y-93449143D01*
X175050000Y-93639590D01*
X175050000Y-93832409D01*
X175067869Y-93945230D01*
X175058914Y-94014524D01*
X175013918Y-94067976D01*
X174947167Y-94088615D01*
X174907078Y-94082559D01*
X174852517Y-94064831D01*
X174623129Y-94028500D01*
X174623124Y-94028500D01*
X174390876Y-94028500D01*
X174390875Y-94028500D01*
X174349876Y-94034993D01*
X174280583Y-94026037D01*
X174227131Y-93981040D01*
X174206493Y-93914288D01*
X174208007Y-93893120D01*
X174214500Y-93852128D01*
X174214500Y-93619870D01*
X174187459Y-93449143D01*
X174178169Y-93390486D01*
X174106400Y-93169604D01*
X174106398Y-93169601D01*
X174106398Y-93169599D01*
X174065143Y-93088632D01*
X174000961Y-92962669D01*
X173864449Y-92774776D01*
X173700224Y-92610551D01*
X173512331Y-92474039D01*
X173305400Y-92368601D01*
X173084514Y-92296831D01*
X172855129Y-92260500D01*
X172855124Y-92260500D01*
X172729783Y-92260500D01*
X172662744Y-92240815D01*
X172642102Y-92224181D01*
X172105819Y-91687898D01*
X172072334Y-91626575D01*
X172069500Y-91600217D01*
X172069500Y-87903616D01*
X173231500Y-87903616D01*
X173231500Y-88104384D01*
X173236175Y-88133902D01*
X173262907Y-88302680D01*
X173324949Y-88493626D01*
X173416095Y-88672508D01*
X173534103Y-88834932D01*
X173676068Y-88976897D01*
X173838492Y-89094905D01*
X173918164Y-89135500D01*
X174017373Y-89186050D01*
X174017375Y-89186050D01*
X174017378Y-89186052D01*
X174208320Y-89248093D01*
X174406616Y-89279500D01*
X174406617Y-89279500D01*
X174607383Y-89279500D01*
X174607384Y-89279500D01*
X174805680Y-89248093D01*
X174996622Y-89186052D01*
X175175508Y-89094905D01*
X175337932Y-88976897D01*
X175479897Y-88834932D01*
X175597905Y-88672508D01*
X175689052Y-88493622D01*
X175751093Y-88302680D01*
X175782500Y-88104384D01*
X175782500Y-87903616D01*
X175777825Y-87874097D01*
X176856500Y-87874097D01*
X176856500Y-88133902D01*
X176897140Y-88390493D01*
X176977422Y-88637576D01*
X177054139Y-88788139D01*
X177077982Y-88834934D01*
X177095368Y-88869054D01*
X177198861Y-89011500D01*
X177248069Y-89079229D01*
X177431771Y-89262931D01*
X177641949Y-89415634D01*
X177789445Y-89490787D01*
X177873423Y-89533577D01*
X177873425Y-89533577D01*
X177873428Y-89533579D01*
X178120507Y-89613860D01*
X178252706Y-89634797D01*
X178377098Y-89654500D01*
X178377103Y-89654500D01*
X178636902Y-89654500D01*
X178750298Y-89636539D01*
X178893493Y-89613860D01*
X179140572Y-89533579D01*
X179372051Y-89415634D01*
X179582229Y-89262931D01*
X179765931Y-89079229D01*
X179918634Y-88869051D01*
X180036579Y-88637572D01*
X180116860Y-88390493D01*
X180139539Y-88247298D01*
X180157500Y-88133902D01*
X180157500Y-87874097D01*
X180135947Y-87738021D01*
X180116860Y-87617507D01*
X180036579Y-87370428D01*
X180036577Y-87370425D01*
X180036577Y-87370423D01*
X179966994Y-87233861D01*
X179918634Y-87138949D01*
X179765931Y-86928771D01*
X179582229Y-86745069D01*
X179441000Y-86642460D01*
X179372054Y-86592368D01*
X179372053Y-86592367D01*
X179372051Y-86592366D01*
X179299764Y-86555534D01*
X179140576Y-86474422D01*
X178893493Y-86394140D01*
X178636902Y-86353500D01*
X178636897Y-86353500D01*
X178377103Y-86353500D01*
X178377098Y-86353500D01*
X178120506Y-86394140D01*
X177873423Y-86474422D01*
X177641945Y-86592368D01*
X177431774Y-86745066D01*
X177431768Y-86745071D01*
X177248071Y-86928768D01*
X177248066Y-86928774D01*
X177095368Y-87138945D01*
X176977422Y-87370423D01*
X176897140Y-87617506D01*
X176856500Y-87874097D01*
X175777825Y-87874097D01*
X175751093Y-87705320D01*
X175689052Y-87514378D01*
X175689050Y-87514375D01*
X175689050Y-87514373D01*
X175617125Y-87373214D01*
X175597905Y-87335492D01*
X175479897Y-87173068D01*
X175337932Y-87031103D01*
X175175508Y-86913095D01*
X174996626Y-86821949D01*
X174805680Y-86759907D01*
X174712009Y-86745071D01*
X174607384Y-86728500D01*
X174406616Y-86728500D01*
X174307468Y-86744203D01*
X174208319Y-86759907D01*
X174017373Y-86821949D01*
X173838491Y-86913095D01*
X173745822Y-86980423D01*
X173676068Y-87031103D01*
X173676066Y-87031105D01*
X173676065Y-87031105D01*
X173534105Y-87173065D01*
X173534105Y-87173066D01*
X173534103Y-87173068D01*
X173489935Y-87233860D01*
X173416095Y-87335491D01*
X173324949Y-87514373D01*
X173291439Y-87617507D01*
X173262907Y-87705320D01*
X173231500Y-87903616D01*
X172069500Y-87903616D01*
X172069500Y-86845675D01*
X172069501Y-86845654D01*
X172069501Y-86642457D01*
X172069500Y-86642455D01*
X172036076Y-86474422D01*
X172031052Y-86449165D01*
X171955632Y-86267086D01*
X171955631Y-86267085D01*
X171955628Y-86267079D01*
X171846140Y-86103219D01*
X171846137Y-86103215D01*
X164995209Y-79252289D01*
X164995206Y-79252285D01*
X164995206Y-79252286D01*
X164988139Y-79245219D01*
X164988139Y-79245218D01*
X164848782Y-79105861D01*
X164848781Y-79105860D01*
X164848780Y-79105859D01*
X164684920Y-78996371D01*
X164684911Y-78996366D01*
X164598302Y-78960492D01*
X164556165Y-78943038D01*
X164502836Y-78920949D01*
X164377872Y-78896092D01*
X164347293Y-78890009D01*
X164309543Y-78882500D01*
X164309541Y-78882500D01*
X162531541Y-78882500D01*
X155000459Y-78882500D01*
X155000457Y-78882500D01*
X154954905Y-78891561D01*
X154932128Y-78896092D01*
X154807167Y-78920947D01*
X154807159Y-78920950D01*
X154753834Y-78943037D01*
X154753834Y-78943038D01*
X154708315Y-78961892D01*
X154625089Y-78996366D01*
X154625079Y-78996371D01*
X154461219Y-79105859D01*
X154391540Y-79175538D01*
X154321861Y-79245218D01*
X154321858Y-79245221D01*
X152397221Y-81169858D01*
X152397218Y-81169861D01*
X149857220Y-83709859D01*
X149857218Y-83709861D01*
X149787538Y-83779540D01*
X149717859Y-83849219D01*
X149608371Y-84013079D01*
X149608364Y-84013092D01*
X149532950Y-84195160D01*
X149532947Y-84195170D01*
X149494500Y-84388456D01*
X149494500Y-84388459D01*
X149494500Y-91341459D01*
X149494500Y-92300541D01*
X149494500Y-92300543D01*
X149494499Y-92300543D01*
X140006014Y-92300543D01*
X140005863Y-92240815D01*
X139985969Y-84382681D01*
X139971214Y-78554135D01*
X178644500Y-78554135D01*
X178644500Y-80449870D01*
X178644501Y-80449876D01*
X178650908Y-80509483D01*
X178701202Y-80644328D01*
X178701206Y-80644335D01*
X178787452Y-80759544D01*
X178787455Y-80759547D01*
X178902664Y-80845793D01*
X178902671Y-80845797D01*
X178982580Y-80875601D01*
X179038514Y-80917472D01*
X179062931Y-80982936D01*
X179048080Y-81051209D01*
X179026929Y-81079463D01*
X178976756Y-81129636D01*
X178976752Y-81129641D01*
X178847187Y-81307974D01*
X178747104Y-81504393D01*
X178747103Y-81504396D01*
X178678985Y-81714047D01*
X178644500Y-81931778D01*
X178644500Y-82152221D01*
X178678985Y-82369952D01*
X178747103Y-82579603D01*
X178747104Y-82579606D01*
X178847187Y-82776025D01*
X178976752Y-82954358D01*
X178976756Y-82954363D01*
X179132636Y-83110243D01*
X179132641Y-83110247D01*
X179288192Y-83223260D01*
X179310978Y-83239815D01*
X179439375Y-83305237D01*
X179507393Y-83339895D01*
X179507396Y-83339896D01*
X179612221Y-83373955D01*
X179717049Y-83408015D01*
X179934778Y-83442500D01*
X179934779Y-83442500D01*
X180155221Y-83442500D01*
X180155222Y-83442500D01*
X180372951Y-83408015D01*
X180582606Y-83339895D01*
X180779022Y-83239815D01*
X180957365Y-83110242D01*
X181113242Y-82954365D01*
X181242815Y-82776022D01*
X181342895Y-82579606D01*
X181411015Y-82369951D01*
X181445500Y-82152222D01*
X181445500Y-81931778D01*
X181411015Y-81714049D01*
X181342895Y-81504394D01*
X181342895Y-81504393D01*
X181308237Y-81436375D01*
X181242815Y-81307978D01*
X181142466Y-81169858D01*
X181113247Y-81129641D01*
X181113243Y-81129636D01*
X181063071Y-81079464D01*
X181029586Y-81018141D01*
X181034570Y-80948449D01*
X181076442Y-80892516D01*
X181107420Y-80875601D01*
X181187326Y-80845798D01*
X181187326Y-80845797D01*
X181187331Y-80845796D01*
X181302546Y-80759546D01*
X181388796Y-80644331D01*
X181439091Y-80509483D01*
X181445500Y-80449873D01*
X181445499Y-78554128D01*
X181439091Y-78494517D01*
X181388796Y-78359669D01*
X181388795Y-78359668D01*
X181388793Y-78359664D01*
X181302547Y-78244455D01*
X181302544Y-78244452D01*
X181187335Y-78158206D01*
X181187328Y-78158202D01*
X181052482Y-78107908D01*
X181052483Y-78107908D01*
X180992883Y-78101501D01*
X180992881Y-78101500D01*
X180992873Y-78101500D01*
X180992864Y-78101500D01*
X179097129Y-78101500D01*
X179097123Y-78101501D01*
X179037516Y-78107908D01*
X178902671Y-78158202D01*
X178902664Y-78158206D01*
X178787455Y-78244452D01*
X178787452Y-78244455D01*
X178701206Y-78359664D01*
X178701202Y-78359671D01*
X178650908Y-78494517D01*
X178644823Y-78551120D01*
X178644501Y-78554123D01*
X178644500Y-78554135D01*
X139971214Y-78554135D01*
X139971206Y-78551120D01*
X139966339Y-76628814D01*
X139985854Y-76561725D01*
X140038542Y-76515836D01*
X140090339Y-76504500D01*
X181417108Y-76504500D01*
X181477588Y-76504500D01*
X181488395Y-76504972D01*
G37*
%TD.AperFunction*%
%TD*%
M02*
