%TF.GenerationSoftware,KiCad,Pcbnew,9.0.6*%
%TF.CreationDate,2026-09-21T15:04:47-04:00*%
%TF.ProjectId,catpaw2,63617470-6177-4322-9e6b-696361645f70,rev?*%
%TF.SameCoordinates,Original*%
%TF.FileFunction,Paste,Top*%
%TF.FilePolarity,Positive*%
%FSLAX46Y46*%
G04 Gerber Fmt 4.6, Leading zero omitted, Abs format (unit mm)*
G04 Created by KiCad (PCBNEW 9.0.6) date 2026-09-21 15:04:47*
%MOMM*%
%LPD*%
G01*
G04 APERTURE LIST*
G04 Aperture macros list*
%AMRoundRect*
0 Rectangle with rounded corners*
0 $1 Rounding radius*
0 $2 $3 $4 $5 $6 $7 $8 $9 X,Y pos of 4 corners*
0 Add a 4 corners polygon primitive as box body*
4,1,4,$2,$3,$4,$5,$6,$7,$8,$9,$2,$3,0*
0 Add four circle primitives for the rounded corners*
1,1,$1+$1,$2,$3*
1,1,$1+$1,$4,$5*
1,1,$1+$1,$6,$7*
1,1,$1+$1,$8,$9*
0 Add four rect primitives between the rounded corners*
20,1,$1+$1,$2,$3,$4,$5,0*
20,1,$1+$1,$4,$5,$6,$7,0*
20,1,$1+$1,$6,$7,$8,$9,0*
20,1,$1+$1,$8,$9,$2,$3,0*%
G04 Aperture macros list end*
%ADD10RoundRect,0.250000X-0.450000X0.350000X-0.450000X-0.350000X0.450000X-0.350000X0.450000X0.350000X0*%
%ADD11RoundRect,0.250000X0.450000X-0.350000X0.450000X0.350000X-0.450000X0.350000X-0.450000X-0.350000X0*%
%ADD12RoundRect,0.250000X-0.350000X-0.450000X0.350000X-0.450000X0.350000X0.450000X-0.350000X0.450000X0*%
%ADD13RoundRect,0.250000X0.350000X0.450000X-0.350000X0.450000X-0.350000X-0.450000X0.350000X-0.450000X0*%
%ADD14RoundRect,0.237500X0.300000X0.237500X-0.300000X0.237500X-0.300000X-0.237500X0.300000X-0.237500X0*%
%ADD15RoundRect,0.237500X-0.300000X-0.237500X0.300000X-0.237500X0.300000X0.237500X-0.300000X0.237500X0*%
%ADD16RoundRect,0.250000X0.400000X0.625000X-0.400000X0.625000X-0.400000X-0.625000X0.400000X-0.625000X0*%
%ADD17RoundRect,0.150000X-0.825000X-0.150000X0.825000X-0.150000X0.825000X0.150000X-0.825000X0.150000X0*%
%ADD18RoundRect,0.250000X-0.625000X0.400000X-0.625000X-0.400000X0.625000X-0.400000X0.625000X0.400000X0*%
%ADD19RoundRect,0.250000X0.625000X-0.400000X0.625000X0.400000X-0.625000X0.400000X-0.625000X-0.400000X0*%
G04 APERTURE END LIST*
D10*
%TO.C,R10*%
X138938000Y-92313000D03*
X138938000Y-90313000D03*
%TD*%
D11*
%TO.C,R9*%
X138938000Y-99076000D03*
X138938000Y-101076000D03*
%TD*%
D12*
%TO.C,R8*%
X139446000Y-87884000D03*
X141446000Y-87884000D03*
%TD*%
D13*
%TO.C,R7*%
X141446000Y-103632000D03*
X139446000Y-103632000D03*
%TD*%
D14*
%TO.C,C4*%
X157870000Y-88011000D03*
X156145000Y-88011000D03*
%TD*%
D15*
%TO.C,C1*%
X147119000Y-91694000D03*
X148844000Y-91694000D03*
%TD*%
%TO.C,C2*%
X147246000Y-99441000D03*
X148971000Y-99441000D03*
%TD*%
D16*
%TO.C,R5*%
X136513500Y-82169000D03*
X133413500Y-82169000D03*
%TD*%
D17*
%TO.C,U2*%
X161414000Y-82042000D03*
X161414000Y-83312000D03*
X161414000Y-84582000D03*
X161414000Y-85852000D03*
X156464000Y-85852000D03*
X156464000Y-84582000D03*
X156464000Y-83312000D03*
X156464000Y-82042000D03*
%TD*%
D13*
%TO.C,R14*%
X176530000Y-79502000D03*
X174530000Y-79502000D03*
%TD*%
D18*
%TO.C,R3*%
X139319000Y-105993000D03*
X139319000Y-109093000D03*
%TD*%
D12*
%TO.C,R13*%
X164116000Y-85979000D03*
X166116000Y-85979000D03*
%TD*%
D16*
%TO.C,R2*%
X136513500Y-109093000D03*
X133413500Y-109093000D03*
%TD*%
%TO.C,R4*%
X130481000Y-82169000D03*
X127381000Y-82169000D03*
%TD*%
D11*
%TO.C,R16*%
X153286000Y-86106000D03*
X153286000Y-84106000D03*
%TD*%
%TO.C,R21*%
X167386000Y-97250000D03*
X167386000Y-95250000D03*
%TD*%
D17*
%TO.C,U1*%
X144464000Y-93726000D03*
X144464000Y-94996000D03*
X144464000Y-96266000D03*
X144464000Y-97536000D03*
X149414000Y-97536000D03*
X149414000Y-96266000D03*
X149414000Y-94996000D03*
X149414000Y-93726000D03*
%TD*%
D11*
%TO.C,R12*%
X164208000Y-83804000D03*
X164208000Y-81804000D03*
%TD*%
%TO.C,R15*%
X151127000Y-83947000D03*
X151127000Y-81947000D03*
%TD*%
D16*
%TO.C,R1*%
X130481000Y-109093000D03*
X127381000Y-109093000D03*
%TD*%
D11*
%TO.C,R11*%
X140843000Y-96631000D03*
X140843000Y-94631000D03*
%TD*%
D15*
%TO.C,C3*%
X159057000Y-79883000D03*
X160782000Y-79883000D03*
%TD*%
D19*
%TO.C,R6*%
X139319000Y-85217000D03*
X139319000Y-82117000D03*
%TD*%
M02*
