M48
; DRILL file {KiCad 9.0.6} date 2026-09-21T15:04:44-0400
; FORMAT={-:-/ absolute / metric / decimal}
; #@! TF.CreationDate,2026-09-21T15:04:44-04:00
; #@! TF.GenerationSoftware,Kicad,Pcbnew,9.0.6
; #@! TF.FileFunction,Plated,1,2,PTH
FMAT,2
METRIC
; #@! TA.AperFunction,Plated,PTH,ViaDrill
T1C0.300
; #@! TA.AperFunction,Plated,PTH,ComponentDrill
T2C0.900
; #@! TA.AperFunction,Plated,PTH,ComponentDrill
T3C1.000
; #@! TA.AperFunction,Plated,PTH,ComponentDrill
T4C1.300
; #@! TA.AperFunction,Plated,PTH,ComponentDrill
T5C2.200
%
G90
G05
T1
X141.605Y-77.47
X141.605Y-113.538
X144.335Y-77.47
X144.335Y-113.538
X147.066Y-77.47
X147.066Y-113.538
X149.796Y-77.47
X149.796Y-113.538
X150.495Y-91.44
X150.495Y-92.202
X150.495Y-98.806
X150.495Y-99.568
X152.527Y-77.47
X152.527Y-113.538
X152.908Y-88.011
X153.035Y-81.947
X153.797Y-88.011
X154.686Y-88.011
X155.257Y-77.47
X155.257Y-113.538
X157.988Y-77.47
X157.988Y-113.538
X160.719Y-77.47
X160.719Y-113.538
X162.433Y-79.883
X163.322Y-79.883
X163.449Y-77.47
X163.449Y-113.538
X164.211Y-79.883
X166.179Y-77.47
X166.179Y-113.538
X168.91Y-77.47
X168.91Y-113.538
X171.641Y-77.47
X171.641Y-113.538
X174.371Y-77.47
X174.371Y-113.538
X177.101Y-77.47
X177.101Y-113.538
X179.832Y-77.47
X179.832Y-113.538
T2
X180.045Y-79.502
X180.045Y-82.042
T3
X158.242Y-92.202
X160.782Y-92.202
X163.322Y-92.202
T4
X111.653Y-82.424
X111.653Y-92.584
X111.653Y-98.424
X111.653Y-108.584
X121.813Y-82.424
X121.813Y-92.584
X121.813Y-98.424
X121.813Y-108.584
X172.739Y-93.736
X172.739Y-97.272
X174.507Y-95.504
X176.275Y-93.736
X176.275Y-97.272
T5
X118.013Y-87.504
X118.013Y-103.504
M30
